<svg xmlns="http://www.w3.org/2000/svg" width="166" height="97"><g fill="none"><path fill="#FDDD83" d="M137.6 95c.7-1.3 1.5-2.6 2.2-3.9.3-.6.6-1.1 1.1-1.5.4-.3 1-.5 1.5-.7 2.1-.6 4.4-.7 6.6-.7 3.7.1 7.3.5 10.9.9.2 0 .4 0 .5.2.2.1.3.3.3.5.7 1.4 1.5 2.9 2.2 4.3.1.1.1.2.1.3 0 .2-.2.3-.3.4-1.6 1-3.7 1.2-5.6 1.3-1.3.1-2.6.2-3.9.1-1.2 0-2.5-.2-3.7-.3-2.6-.3-5.2-.3-7.7-.2-1.4.1-3 .1-3.7-1"/><path fill="#FFF" d="M95.3 81.8c.4 2.1-1.6 3.9-3.7 4.3-2.1.4-4.2-.2-6.3-.6-4.3-.8-8.7-.6-12.9.4-.8.2-1.6.4-2.3.1-.7-.3-1.1-.9-1.6-1.3-1.5-1.3-3.8-1.2-5.8-1-7.6.6-15.8 1.2-22.2-2.9-1-.6-2-1.4-3.1-1.5-1-.2-2 .1-2.9.3-10 2.3-20.7-.4-30.4 2.9-1 .3-2.5.4-2.6-.6-.1-.4.1-.7.3-1.1.6-1.2 1.2-2.3 1.8-3.5 1.7.3 3.5-.6 4.3-2.1.3-.6.5-1.2 1-1.7.4-.3.9-.4 1.4-.5 2.9-.4 6 .2 8.6-1 2.4-1.1 4-3.6 6-5.3 4.2-3.7 10.3-4.1 15.9-4.4 2.1-.1 4.2-.2 6.3 0 1.9.2 3.7.7 5.6 1 4.7.6 9.5-.3 14.2-1.1.9-.2 1.9-.4 2.6-1 1.8-1.6.4-4.6 1.2-6.9 1.9.6 3.7 1.7 5 3.1.7.8 1.3 1.7 2.2 2.3.9.6 2.2.8 3 .1-.7-1.3-1.1-2.8-1-4.4 0-.8.4-1.8 1.2-1.9.8 0 1.2.8 1.7 1.4 1.5 2.2 4.2 3 6.4 4.5 4.5 2.9 6.6 9 4.9 14.1-.1.4-.3.8-.2 1.3.1 1.2 1.6 1.7 2.8 1.5 1.2-.2 2.2-.9 3.4-.9 1.2 0 2.5 1.1 2.1 2.2-.1.4-.5.6-.8.9-1.2.9-2.7 1.5-4.3 1.5-2.1.1-4.2-.6-6.2-.9-2-.3-4.4-.3-6 1"/><g fill="#1E5D8A"><path d="M80.3 59.5c-.3-1-.5-1.8-.8-2.7-.2-.6-.2-1.3 0-1.9.3-1.2 1.2-1.6 2.3-1 .8.4 1.5 1 2 1.8 1.1 1.9 2.7 3.1 4.7 3.9.7.3 1.5.6 2.2 1.1 1.9 1.4 3.5 3 3.6 5.5.1 1.5.5 3 .9 4.4.4 1.3.3 2.4-.6 3.4-.3.3-.5.7-.8 1 .1.2.2.3.2.3 1.3.4 2.5.7 3.9.4.5-.1 1-.3 1.5-.3.7-.1 1.4-.2 2.1-.1 1.1.1 1.6 1.2 1.1 2.2-.7 1.5-2.9 2.8-4.6 2.7-1.4-.1-2.7-.3-4.1-.4l-3.3-.3c-1.2-.1-2.5.2-3.8.3-.1 0-.1.1-.2.2v.1c1.4.6 2.8.7 4.3.6.7 0 1.3-.1 2-.2.9-.1 1.5.4 2.2.9.3.3.4.7.3 1.1-.4 1.6-1.2 2.7-2.9 3.1-1.1.3-2.1.3-3.1.1-.4-.1-.8-.1-1.2-.2-2.8-.7-5.6-.8-8.4-.8-.7 0-1.5.1-2.2.3-1.4.4-2.7.8-4 1.3-.8.3-1.6.3-2.4.4-.6 0-1-.2-1.3-.7-.3-.4-.5-.8-.8-1.1-.6-.9-1.4-1.3-2.5-1.2-1.3.1-2.6.2-3.9.5-.7.2-1.5.3-2.3.1-1.8-.3-3.5-.3-5.3-.1-.9.1-1.8.1-2.7-.1-.7-.1-1.4-.1-2.1-.1-1.1.1-2.2-.2-3.2-.8-.5-.3-1-.5-1.5-.6-.7-.1-1.2-.4-1.8-.7-.6-.4-1.3-.7-2-1-1.1-.5-2.3-1-3.5-1.5-.6-.3-1.2-.3-1.9-.1-3.1 1.2-6.3 1.9-9.6 2.1-1.1 0-2.1.1-3.2.2-2.2.2-4.3-.2-6.5-.4-.4 0-.7-.1-1.1 0-2.3.1-4.6.2-7 .2-1.2 0-2.4.2-3.4 1-.8.5-1.7.9-2.7 1-1.3.3-1.9-.5-2-1.5-.1-1.7.4-3.3 1.5-4.5.8-.9 1.9-1.3 3.2-.8.2.1.4.1.5.2.6-.2.8-.5 1-1 .2-.4.3-.9.4-1.3.2-.9.8-1.4 1.7-1.5.5-.1 1-.2 1.5-.1 2.4.5 4.6 0 6.9-.6.2 0 .4-.1.6-.2 1.2-.2 2-.8 2.6-1.9.4-.8 1-1.4 1.7-1.9.7-.6 1.4-1.1 2.1-1.7 1.1-.9 2.2-1.7 3.4-2.5.6-.4 1.4-.6 2.1-.8.5-.2 1-.3 1.5-.7 1.1-1 2.5-1.3 4-1.1.3 0 .7.1 1 .2 1.9.4 3.8.5 5.7.5 1.2 0 2.4-.1 3.6-.5 1-.3 1.9-.2 2.8 0 2.4.5 4.7 1 7.1 1.4 1 .2 2 0 3 0 .8 0 1.6-.3 2.3-.8.4-.3.9-.4 1.4-.7.6-.3 1.3-.3 1.9-.1.6.1 1.1.1 1.6-.1 1.1-.4 2.2-.7 3.3-1.1.1 0 .3-.1.4-.2.1-.9-.2-1.8-.3-2.7-.1-.6-.2-1.1-.3-1.6-.2-1 .3-1.7 1-2.3.2-.2.6-.2.9-.2.9.1 1.7.4 2.3 1 1.2 1.1 2.3 2.1 3.4 3.2l1.6 1.6c.8.9 1.3.9 2 .4zm-22.2 5c-.6 0-1.1 0-1.6-.1-.6 0-1.1 0-1.7-.1-1.7-.2-3.4-.5-5-1.1-.9-.3-1.9-.4-2.9-.2-1.5.2-3 .4-4.5.7-.8.2-1.5.2-2.2 0-.6-.2-1.2-.2-1.8-.3-.7-.1-1.4-.2-2.1-.4-1-.4-2-.3-2.9.3-1.2.8-2.6 1.4-4 1.8-.4.1-.8.3-1.1.4-1.2.5-2.2 1.2-3 2.3-.3.4-.6.8-1 1.1-.6.6-1.3 1.1-2 1.7-.3.3-.7.6-.9 1-.5.9-1 1.6-1.6 2.4-.1.2-.2.4-.2.6.5.3.9.2 1.2.1.4-.1.9-.3 1.3-.4.7-.1 1.3.3 1.4 1v.6c-.1 1.1 1 1.9 2.2 1.4.5-.2 1-.3 1.4-.5.7-.3 1.4-.5 2.1-.8.3-.1.6-.2.8-.4.7-.3 1.4-.2 2.1.1.6.2 1.2.6 1.4 1.3 0 .1.2.2.3.4.3.1.7.1 1 .2 1.2.1 2.3.3 3.4.8 1.7.7 3.4 1.2 5 2.2 1.1.7 2.2 1.5 3.5 1.6.1 0 .2.1.3.1.7.6 1.7.7 2.6.8.9.1 1.7.1 2.6.1 2.7.1 5.4.1 8 .2h.5c1.8-.2 3.5-.4 5.3-.6.3 0 .5-.2.7-.4-.1-.7-.3-1.2-.6-1.6-.7-.8-1.1-1.8-1.3-2.8-.1-.6-.5-1-1-1.3-.3-.2-.5-.3-.8-.5-2.3-1.6-3.8-3.8-3.6-6.7 0-.6 0-1.1-.3-1.6-.6-.8-.8-1.7-.8-2.7 0-.2-.1-.4-.2-.7zm20.6-3.4c-.3-.2-.4-.3-.5-.4-1-1-1.9-2.1-2.9-3.1-.9-1-1.9-2-3.1-2.7-.9-.6-1.7-.2-1.9.9-.1.8 0 1.6.3 2.4.6 1.8.8 3.6.5 5.5-.2 1.1.2 2 1 2.7.4.4.8.6 1.2 1l.6.6c-.3.1-.4.2-.5.2-1.9-.7-3.1-2.6-3-4.6 0-.3.1-.6.1-.9 0-.3-.1-.6-.2-.8-.8-.2-1.6-.2-2.3.2-1.2.7-2.5 1-3.9.8-.8-.1-1.6 0-2.3.6-.6.5-1.3.7-2.1.9-.2 0-.5.2-.8.3-.1.9-.2 1.8.4 2.6.6.8.8 1.6.7 2.6-.1 1.1.2 2.1.8 3 .8 1.3 1.6 2.5 3.1 3.2 1 .5 1.5 1.3 1.7 2.3.3 1.6 1.5 2.7 2.3 4.1l.1.1c1 .7 1.8 1.6 2.4 2.7.2.4.5.6 1 .6.7-.1 1.4-.2 2.1-.4 1.5-.4 3-.9 4.5-1.3.7-.2 1.4-.3 2.1-.2 2.8.1 5.6.2 8.3.9.4.1.9.2 1.3.3 1.1.2 2.1 0 3.1-.3.2-.1.3-.2.5-.5-.5-.2-.8-.2-1.1-.4-.1-.1-.2-.3-.4-.5.5 0 .8 0 1.1-.1.3 0 .7.2.9-.1-.1-.5-.9-.3-1-1 .3-.1.7-.2 1.3-.3-.5-.2-.7-.3-.9-.4-.6 0-1.1-.1-1.7 0-1.1.2-2.2 0-3.3-.1-1.1-.1-2.1-.3-3.2-.4-.8-.1-1.5-.1-2.3-.2-1.4-.3-2.7-.2-4.1 0-.5.1-1 .1-1.5 0-.7-.1-1.2-.5-1.5-1.1-.3-.8-.7-1.6-1-2.4-.1-.3-.2-.7-.2-1 0-.2.1-.3.2-.6l.4.4c.3.7.6 1.5.9 2.3.6 1.6.9 1.8 2.9 1.6h.1c1.2-.2 2.4-.2 3.6 0 .6.1 1.3.1 2 .1.1 0 .3-.2.5-.3-.2-.1-.3-.3-.5-.3-.9-.2-1.7-.6-2.5-1.1l-1.2-.6c-.4-.2-.9-.5-1.3-.8-1.4-1.2-2.7-2.4-4-3.7-.5-.4-.8-1-1.2-1.5-.3-.5-.4-1.1-.2-1.7h.2c.1.1.1.2.2.2.2 1 .9 1.7 1.6 2.4 1.9 1.8 3.8 3.6 6.2 4.8 1.9 1 3.8 1.4 5.8 1.2.2 0 .4.1.5-.3-1.3-.6-2.7-1.1-3.6-2.3-.9-1.1-2.3-1.8-2.8-3.4.4-.3.7-.6 1.1-.8.8-.3 1.6-.7 2.4-.9.7-.2 1.1-.5 1.3-1.1.2-.8.6-1.5 1.1-2.2.8-1.1.7-2.3-.2-3.4-.3-.4-.7-.7-1.1-1.1-1-.9-2.1-1.8-2.8-3-1-.2-1.8-.1-2.7.2-.7.1-1.6.3-2.6.6zM34.5 79c-.5-.3-.9-.4-1.1-.7-.3-.3-.4-.8-.5-1.2-.1-.4-.4-.6-.7-.7-.8-.3-1.6-.4-2.3.1-1.3.9-2.8 1-4.3 1.5-1.2.4-2.4-.5-2.6-1.8v-.9c0-.3-.4-.5-.7-.5-.3.1-.7.2-1 .3-.6.1-1.2.2-1.8.1-.7-.1-1.2 0-1.7.3-.4.2-.7.4-1.1.6-1.8 1-3.9 1.1-5.9 1.3-.2 0-.4 0-.6-.1-1-.3-1.9-.2-2.7.4-.5.3-.9.3-1.4.1-.2-.1-.4-.2-.6-.2-1.1-.3-2.1.1-2.5 1.2-.3.6-.5 1.2-.7 1.9-.1.3-.1.6-.1.9 0 .8.6 1.2 1.3.9.5-.2.9-.5 1.3-.8 1.3-.8 2.7-1.2 4.3-1.2 1.7.1 3.3 0 5-.1 2.4-.1 4.7-.2 7.1.3.3.1.6.1.9.1 2.3 0 4.5-.2 6.8-.5 1.6-.2 3.2-.6 4.7-1 .2-.1.5-.2.9-.3zm57.6-11.1c0-.2 0-.4-.1-.5-.7-.9-1-2-1-3.1 0-.7-.2-1.4-.5-2.1-.1-.4-.4-.8-.7-1-1.4-1-3-1.3-4.7-1.2l-.2.2c.1.2.2.5.4.7.4.5.9.9 1.4 1.4.5.4 1 .9 1.5 1.3 1.2 1.2 1.4 2.8.5 4.3-.4.6-.7 1.2-.9 1.9-.3.9-.8 1.5-1.8 1.6-.7.1-1.3.4-1.8.9.9.9 2.1 1.7 2.9 2 1.2.3 2.4.7 3.3-.5.1-.1.2-.1.2-.2.6-.5 1.3-.5 2-.3.3.1.6.3.9.4 1.1-.9 1.2-1.1.9-2.1h-.3c-1.2.4-1.6.3-2.4-.6-.3-.3-.5-.6-.7-1-.3-.6-.2-1.1.3-1.5.3-.2.6-.4.8-.6zM91 78.7c.6.1 1 .3 1.3.3.9.1 1.9.2 2.9.3 1.1.1 2.1.2 3.2.2 1.5 0 2.5-.8 3.3-2.1-.5-.1-.8-.1-1.1-.2-.1-.2-.2-.5-.3-.7-1.2.1-2.4.4-3.6.3-1.2 0-2.4-.4-3.5-.6-.8.8-1.4 1.5-2.2 2.5zM8.4 76c.1 0 .3.1.4.1H13c.3 0 .7-.1 1-.3.9-.4 1.7-.8 2.6-1.2.5-.2.9-.4 1.3-.7.2-.1.4-.3.2-.6-.2 0-.4.1-.6.1-2.3.5-4.6.8-7.1.4-1.4-.3-2 .4-2.2 1.8.1.2.2.3.2.4zm73-16.5c1.3-.3 2.6-.1 4-.5-.2-.3-.3-.5-.5-.7-.6-.7-1.2-1.4-1.8-2-.4-.5-.8-.9-1.2-1.3-.2-.2-.5-.4-.7-.5-.3-.1-.7 0-.7.3-.1.2-.2.5-.1.7.1 1.4.4 2.7 1 4zM88.3 77c.3.4.8.4 1.2.6.6.3 1.1.1 1.5-.3.8-.6 1.2-1.4 1.4-2.4.1-.6-.4-1-.9-.8-.4.2-.8.5-1.2.9-.6.6-1.3 1.2-2 2zm3.3-13.9v1.6c0 1 .4 1.7 1 2.4.2.2.4.4.7.2.4-1.7-.3-2.9-1.7-4.2zm-7.3 10.7c.4.7 1 1 1.4 1.5.2.2.3.4.6.5.5.3 1 .4 1.6.1.1 0 .2-.2.2-.3-1.3-.5-2.5-1.1-3.8-1.8z"/><path d="M70.8 56c.4-.1.6-.2.7-.1.4.2.7.5 1.1.8.7.7 1.3 1.4 2.1 2 .7.6 1.2 1.4 1.6 2.1.3.5.4 1 .2 1.6-.2.6-.2 1.3-.2 1.9 0 .8-.2 1.6-.9 2.1-.2.2-.4.3-.7-.1.1-.1.1-.3.3-.5.5-.6.7-1.2.6-2 0-.5.1-1 .2-1.5.2-.6.1-1.2-.2-1.7-.4-.7-.9-1.3-1.5-1.9l-1.8-1.8c-.5 0-.9-.3-1.5-.9z"/></g><path fill="#1E5D8A" d="M86.1 67.1c-.2-.1-.5-.1-.7-.2-.1 0-.1 0-.2-.1h-.1c-.9.1-1.6.2-2.1.9-.1.1-.1.3 0 .4 0 0 .2.1.3.1.8-.6 1.6-.6 2.4-.5h.3c.1-.1.2-.2.2-.4.1-.1 0-.2-.1-.2zM35 62.4c2.6.4 5.1.7 7.7.5 2-.2 4-.7 6.1-.6 2.6.1 5 1.2 7.6 1.4 2.1.2 4.2-.3 6.2-.7 2.5-.5 5-1.1 7.5-1.6.2.7.3-.4.4.3.1.6.3 3 .5 3.6.2.8.4 1.7.2 2.5-.5 1.9-2.7 2.6-4.3 3.7-1.6 1.1-2.7 2.8-4.3 4.1-1.5 1.2-3.9 1.9-5.4.6-.7-.6-1-1.4-1.7-2-1.9-1.8-5.7-.8-7.1-3-.3-.5-.5-1.1-.8-1.7-.8-1.3-2.6-1.5-4-2-2.1-.7-4-2.2-5.1-4.1.5-.1 1-.2 1.5-.2m117.4 33.4c-2 .1-3.9.3-5.9.3-1.1 0-2.1-.1-3.2-.2-1 0-1.9 0-2.9-.1-1.8 0-3.6 0-5.4-.1-1 0-1.9-.2-2.9-.4-.3-.1-.6-.3-.9-.5-.4-.3-.4-.7-.1-1 .2-.3.5-.6.8-.7.6-.2.7-.6.9-1.1.4-1.2.7-2.3 1.5-3.3.5-.6 1.1-1.1 1.8-1.4 1.3-.5 2.7-.8 4.1-.9 3.9-.2 7.8-.1 11.7.5 1.1.2 2.2.3 3.3.4.7.1 1.2.4 1.5 1 .6 1.2 1.2 2.5 1.8 3.7.2.4.4.8 1 .7.4 0 .7.2.7.7 0 .4-.2.8-.6 1-1.5.4-3.1.9-4.6 1.1-.8.4-1.7.3-2.6.3zm5.8-1.8c-.7-1.8-1.5-3.5-2.2-5.1-.2-.4-.6-.5-1-.3-1.8.8-3.7.9-5.6.9-2.9 0-5.7.1-8.6 0-1.8-.1-3.6 0-5.4-.7-1.4 1.7-1.8 3.8-2.2 6 .9.1 1.6.2 2.3.2 1.6 0 3.2 0 4.8.1 1.2 0 2.4.1 3.6.1.8 0 1.6.1 2.3.1 2.7-.1 5.5-.2 8.2-.3 1.4-.2 2.6-.3 3.8-1zm-21.4-5.9c0 .1 0 .2.1.2.3.1.5.2.8.2 3 .1 6 .2 9 .2 1.3 0 2.6 0 3.9-.1.9-.1 1.8-.1 2.9-.6-.8-.1-1.4-.1-1.9-.2-2.7-.2-5.5-.4-8.2-.6-1.1-.1-2.3.1-3.4.2-.7 0-1.4.1-2.1.2-.4.1-.7.4-1.1.5z"/><path fill="#FFF" d="M144 89.3c-.6 0-1.4.3-1.9-.1s-.3-.9.1-1.2c.3-.2.6-.3 1-.5.5-.2 1-.6 1.3-1 .7.1 1.3-.5 1.9-1 .4-.3.8-.6 1.3-.7l1.2-.3c.7-.1 1.5 0 2.2.1.2 0 .4 0 .5.1.2.1.3.2.5.2.8.4 1.8.4 2.6.6.8.2 1.5.6 2.1 1 .5.3 1.5.7 1.6 1.3.4 1.4-2.5 1.6-3.3 1.7-3.1.4-6.3.4-9.4-.1-.5 0-1.1-.1-1.7-.1z"/><g fill="#175E87"><path d="M159.9 87.8c-.1-.2-.2-.3-.3-.4-.5-.6-1-1.1-1.8-.8h-.5c-.1-.1-.1-.2-.2-.3-.4-.7-.7-.8-1.4-.6-.2.1-.5 0-.7-.1-.2-.1-.4-.3-.6-.4-.3.1-.5.2-.7.3-.2-.3-.5-.5-.7-.8-.3-.4-.4-.4-.8-.1-.4.3-.8.3-1.1-.1-.2-.2-.4-.2-.6-.2-.2 0-.4-.1-.5 0-.4.1-.8 0-1.2-.1-.3-.1-.6 0-.8.2-.2.3-.5.6-.8.6-.4.1-.7.3-1 .6-.3.4-.6.3-1 .1-.2-.1-.4-.2-.5-.1-.5.1-1 .3-1.2.9-.1.1-.1.2-.2.3-1.1-.3-1.9 0-2.4 1.2h-.1c-.2.4-.4.7-.6 1 .1.1.2.1.3.2l.1-.1c.5.3 1.1.6 1.7.9 1.3.3 3.1.5 4.2.6 4.8.5 8.8-.3 13.4-1.3.1 0 .1-.1.2-.1.2-.2.4-.3.5-.4-.3-.4-.5-.7-.7-1zm-6.1-1.3c.1 0 .3-.1.4-.1.1.3.1.5-.1.6-.1.1-.2.1-.3.1-.1 0-.2-.2-.2-.3 0-.2.1-.3.2-.3zm-11.3 2.6c-.4-.1-.7-.3-.9-.6 0-.1-.1-.2 0-.3.1-.2.3-.4.4-.6.2-.1.4-.2.7-.1.1.6-.1 1.1-.2 1.6zm14.8-1.2c0 .1-.1.3-.2.4-.1.3-.1.6.1.8 0 0 0 .1.1.2-.1 0-.1.1-.2.1-.6.1-1.1.2-1.7.4-.2 0-.3.1-.5.1-.5.2-1.1.2-1.6.2-.7 0-1.4.1-2.1.1-.4 0-.8.1-1.2.1-.3 0-.6-.1-.9-.1l-2.7-.3-3-.3c-.1 0-.3-.1-.5-.2.2-.3.5-.2.7-.2.4 0 .5-.2.5-.6 0-.3 0-.6-.1-.9-.1-.4 0-.8.3-1.1.3-.3.6-.3.9-.2.1 0 .1.1.2.1.4.3.7.2 1.1-.2.1-.1.1-.1.1-.2.3-.3.6-.5.9-.5.3 0 .5-.1.7-.4.1-.1.1-.2.2-.3.2-.3.5-.4.7-.1.3.6.9.6 1.4.8.1 0 .1 0 .2-.1.3-.4.8-.3 1.2-.2.2 0 .3.2.4.3.2.2.4.4.6.7.1.1.2.3.2.5.2.7.6.9 1.2.6.4-.2.6-.4.8-1.1.3-.1.7-.2 1.1-.3.1 0 .2.1.3.1l.2.2c.1.4.4.6.7.8-.1.5-.1.7-.1.8zm1.5.8c0-.1-.1-.1-.1-.2.1-.2.1-.4.2-.6l.1-.1.1.1c0 .1.1.3.1.5-.2.2-.3.2-.4.3z"/><path d="M157.9 88.1l.1.1c0 .2-.1.3-.2.3l-.1-.1c0-.2.1-.3.2-.3zm-5.1-2.7v.1h.1l-.1-.1c.1 0 0 0 0 0zm0 3.7c-.1.2-.1.3-.1.3-.2.3-.8.5-1.1.4-.3-.1-.7-.2-.9-.6-.1-.2-.1-.5.1-.6.3-.2.7-.4 1-.6.2-.1.4 0 .5.1.3.3.3.7.5 1z"/><path d="M152 89c-.2-.1-.2-.2-.3-.2-.1 0-.2 0-.2.1l-.1.1v.1l.1.1c.2 0 .3-.1.5-.2zm-5.2-1.4c0-.3 0-.6.3-.8.3-.2.7-.2 1 0 .1 0 .1.1.2.2.1.4.1.7-.1 1-.2.3-.5.4-.8.3-.3-.1-.5-.3-.5-.6-.1.1-.1 0-.1-.1zm.7.1s0-.1 0 0c0-.1 0 0 0 0z"/></g></g></svg>