<svg width="38" height="40" fill="none" xmlns="http://www.w3.org/2000/svg"><path d="M37.867 22.552c-.186-.64-.222-1.311-.453-1.938a2.817 2.817 0 0 1-.086-.558 1.944 1.944 0 0 0-.073-.322c-.1-.286-.213-.563-.308-.849a2.65 2.65 0 0 1-.113-1.261 4.65 4.65 0 0 1 .172-.69 6.202 6.202 0 0 0 .059-3.008 6.758 6.758 0 0 0-.88-2.292 7.65 7.65 0 0 0-.906-1.334c-.421-.454-.852-.853-1.291-1.261A10.66 10.66 0 0 0 31.83 7.5c-.54-.295-1.097-.558-1.632-.862a2 2 0 0 1-.707-.617 3.583 3.583 0 0 0-.72-.871c-.347-.251-.676-.524-.988-.817a4.794 4.794 0 0 0-1.441-.907c-.213-.1-.453-.196-.635-.314a4.894 4.894 0 0 0-2.17-.621 18.285 18.285 0 0 0-3.268.09c-.453.05-.947.087-1.414.168a.547.547 0 0 1-.539-.195 5.14 5.14 0 0 0-1.427-1.003A18.076 18.076 0 0 0 14.234.54c-.589-.168-1.192-.304-1.776-.504a.932.932 0 0 0-.512 0 3.517 3.517 0 0 0-1.015.381c-.65.36-1.27.771-1.854 1.23-.244.2-.5.387-.766.558-.648.4-1.31.771-1.962 1.157-.354.209-.72.404-1.051.64-.569.41-1.014.97-1.287 1.615-.14.439-.352.851-.626 1.22a.318.318 0 0 0-.045.36c.108.28.154.58.136.88A1.817 1.817 0 0 0 4.11 9.36c.183.142.359.293.526.454.171.165.369.3.585.399.136.08.278.148.426.204a.984.984 0 0 1 .666.685c.117.314.318.59.58.799.152.14.35.221.557.227.424.031.85.009 1.269-.068.203-.082.426-.1.639-.05a.909.909 0 0 1 .032.576c-.072.48-.006.972.19 1.416.077.157.133.323.168.495.136.567.254 1.139.385 1.71.033.154.076.305.127.454.142.353.212.731.204 1.112 0 .236.036.453.05.708a1.47 1.47 0 0 1 0 .281c-.053.458-.133.913-.24 1.361-.212.68-.364 1.377-.454 2.083a2.12 2.12 0 0 1-.666 1.325c-.453.454-.856.935-1.273 1.407a2.666 2.666 0 0 0-.163.231c-.182.259-.368.517-.553.772-.11.154-.227.304-.331.453-.235.376-.51.724-.82 1.04-.251.24-.489.495-.712.762-.27.331-.591.618-.952.848-.095.06-.18.123-.271.186-.4.286-.793.577-1.201.849a26.646 26.646 0 0 0-2.266 1.629c-.238.19-.445.417-.612.672.061.564.273 1.101.612 1.556.18.256.333.532.453.821.294.735.73 1.404 1.282 1.97l.064.068a4.69 4.69 0 0 0 1.01.857c.169.093.322.21.454.35.435.46.93.86 1.472 1.189.456.282.931.531 1.423.744a.489.489 0 0 0 .667-.182c.121-.187.274-.351.453-.485.402-.307.77-.657 1.096-1.044.222-.304.454-.608.676-.907.299-.427.584-.862.883-1.29.485-.684.988-1.36 1.464-2.046.192-.272.417-.519.67-.735a.766.766 0 0 1 .558-.208.824.824 0 0 0 .236 0c.52-.123.81-.309.784-.835a.423.423 0 0 1 .145-.336c.079-.077.162-.15.249-.218.317-.236.648-.454.947-.712.567-.486 1.178-.908 1.772-1.362a5.716 5.716 0 0 1 1.98-.88 13.695 13.695 0 0 1 2.012-.29 3.96 3.96 0 0 1 1.36.104c.31.042.615.123.906.24a.928.928 0 0 0 .322.028c.155.11.267.27.317.454.027.123.075.241.14.349.227.324.482.628.762.907.662.608 1.36 1.194 2.044 1.77.24.206.444.452.603.726.075.12.142.247.199.377.159.33.421.6.748.767a1.092 1.092 0 0 0 .906.145c.106-.035.215-.06.326-.073a4.189 4.189 0 0 0 1.392-.454c.194-.1.398-.181.607-.263.353-.131.716-.25 1.07-.385a2.606 2.606 0 0 0 1.119-.776c.063-.07.131-.135.203-.196.426-.376.857-.753 1.278-1.134.364-.31.641-.709.807-1.157.1-.3.222-.59.34-.908.257-.562.41-1.166.453-1.783.006-.078.022-.156.045-.231.15-.6.272-1.207.454-1.793a4.453 4.453 0 0 0 .077-2.618l.027.05ZM25.464 3.793a.336.336 0 0 0 .136.182.336.336 0 0 1 .131.285c0 .182 0 .182-.263.25l-.34-.454c0-.19.154-.454-.204-.617.268.027.49.068.54.363v-.009ZM4.084 6.73h.044-.045l-.027.077.027-.077Zm0 1.497.044.037-.045-.037ZM23.32 28.251a.832.832 0 0 1-.317-.031 4.575 4.575 0 0 0-1.305-.2h-.866c-.032-.218.032-.454-.122-.604a.104.104 0 0 1-.027-.086c.136-.272-.082-.454-.2-.635-.031-.05-.054-.109-.104-.213a4.072 4.072 0 0 1 1.07-.146.777.777 0 0 0 0 .754l-.223.14a.254.254 0 0 0 .032.454c.168.095.277.068.453-.109a1.28 1.28 0 0 1 .136-.095c.12.2.308.35.53.422a.673.673 0 0 0 .603-.109.688.688 0 0 1 .453.309c0 .031-.036.14-.063.145l-.05.004Zm-.78-2.727Zm-1.06.09c.06-.085.127-.172.195-.258l.848.095c-.06.037-.114.105-.177.114-.281.045-.558.068-.825.095-.027-.027-.045-.045-.04-.045Zm15.925-2.077c.019.376-.043.752-.182 1.102-.081.318-.158.636-.24.953-.17.642-.306 1.291-.408 1.947a7.194 7.194 0 0 1-.376 1.225c-.059.177-.136.354-.19.535a1.63 1.63 0 0 1-.376.672l-.376-.245c-.096-.277-.182-.544-.277-.83a.716.716 0 0 1-.408-.282.295.295 0 0 0-.199-.109c-.231 0-.326-.15-.453-.33.068-.119.14-.237.2-.332a.404.404 0 0 0-.241-.313.267.267 0 0 0-.308.027.245.245 0 0 0-.086.254c.006.063.03.123.068.173.127.118.104.235.054.385-.05.15.032.232.186.277a.32.32 0 0 0 .09 0h.19c.033.218.064.454.1.653h-.24l.032.518c-.304-.218-.657-.154-.87-.427-.032-.045-.109-.059-.172-.072a.312.312 0 0 0-.331.131.277.277 0 0 0 .077.3.372.372 0 0 0 .317.186.408.408 0 0 1 .404.245.853.853 0 0 1-.164.2c-.208.154-.285.33-.1.571-.093.04-.183.086-.271.136a.367.367 0 0 0-.145.168c-.09.254 0 .518.208.554.209.036.367-.114.426-.363a1.552 1.552 0 0 0 0-.354c.109-.15.209-.286.304-.427.095-.14.195-.263.38-.226.186.036.345-.069.454-.255a.84.84 0 0 0 .154-.335.159.159 0 0 1 .109-.123c.104 0 .122.073.122.154a.345.345 0 0 0 .29.377l.118.045c.045.105-.023.164-.082.214-.181.193-.4.348-.643.453a.4.4 0 0 0-.2.186 4.028 4.028 0 0 1-.906.99.743.743 0 0 0-.816-.091.452.452 0 0 0-.39.553c.004.066.004.13 0 .196a1.698 1.698 0 0 1-.906.236.34.34 0 0 0-.367.167c-.145.245-.399.282-.657.363a.875.875 0 0 0-.453-.485.203.203 0 0 0-.259.045.296.296 0 0 0-.072.21c.031.11.074.218.127.321a.452.452 0 0 1-.453.096 1.204 1.204 0 0 1-.775-.509 1.116 1.116 0 0 1-.136-.25 2.132 2.132 0 0 0-.716-.984c-.453-.413-.907-.817-1.36-1.239-.222-.204-.403-.454-.616-.653a4.343 4.343 0 0 1-.974-1.443 1.23 1.23 0 0 0-.09-.168c.123-.07.242-.148.357-.232a.194.194 0 0 0 .09-.244c-.04-.105-.14-.114-.235-.127a.483.483 0 0 0-.453.23.48.48 0 0 1-.367-.367c-.045-.168-.073-.34-.109-.508a.195.195 0 0 0-.28-.159 1.801 1.801 0 0 0-.21.11c-.054 0-.113.035-.153.05-.091-.065-.06-.114-.041-.178a.345.345 0 0 0-.304-.499.721.721 0 0 1-.362-.082.561.561 0 0 0-.413 0 .844.844 0 0 1-.213 0c0-.159.114-.181.204-.181h.612a4.218 4.218 0 0 1 1.663.4c.05.176.095.362.159.535.113.304.163.33.566.313l.082-.2c.02-.053.036-.108.05-.163.054 0 .09-.028.113 0 .356.17.743.269 1.137.29a.393.393 0 0 0 .35-.1.386.386 0 0 0 .135-.453c-.176-.087-.385-.196-.602-.291-.417-.181-.848-.34-1.265-.535a3.22 3.22 0 0 1-.643-.395 3.994 3.994 0 0 0-1.999-.808l-.272-.05c.032-.272.032-.272.218-.277h.285c.204 0 .277-.154.218-.367 0-.041 0-.086-.027-.123.137-.082.27-.171.398-.267.091-.078.177-.041.268-.05.158 0 .236-.127.181-.259a9.421 9.421 0 0 0-.299-.694.649.649 0 0 0-.181-.204c-.114-.087-.236-.16-.38-.255l.067-.217c.149.047.3.087.453.118a.257.257 0 0 0 .308-.273.704.704 0 0 0 0-.14.34.34 0 0 0-.543-.236 2.176 2.176 0 0 0-.3.263 2.259 2.259 0 0 0-.262 0h-.254c-.068-.236-.254-.35-.503-.454.308-.195.625-.231.906-.386.281-.154.526-.285.789-.426.095.15.15.322.267.386.118.063.204.24.335.326a.331.331 0 0 0 .318.027.783.783 0 0 0 .371-.33c-.04-.05-.09-.146-.136-.146a1.11 1.11 0 0 1-.666-.295l-.113-.077c0-.113.104-.118.172-.15.308-.154.634-.286.933-.453.195-.114.427-.236.386-.54 0-.046.054-.11.09-.155.037-.045.132-.168.19-.24-.05-.114-.126-.146-.203-.118-.15.05-.295.113-.453.177-.159.063-.308.163-.454.231-.421.177-.847.345-1.273.517l-.412.146a2.301 2.301 0 0 1-.132-.794.452.452 0 0 0-.453.145.404.404 0 0 0-.131.38c.031.187.031.378.05.568-.329.219-.67.416-1.025.59-.031-.109-.054-.177-.072-.245a.295.295 0 0 0-.204-.24.503.503 0 0 1-.33-.245.23.23 0 0 0-.191-.096c-.104 0-.15.105-.163.204a.664.664 0 0 0 .271.75c.055.044.105.094.15.149a2.006 2.006 0 0 1-.757.476 2.406 2.406 0 0 0-.05-.395c0-.063-.108-.15-.163-.145-.156.009-.309.044-.453.105-.045 0-.072.136-.063.204.031.11.072.218.122.322a.598.598 0 0 0-.34.454.453.453 0 0 1-.222.295c-.65.48-1.263 1.008-1.835 1.579a.908.908 0 0 0-.254.83c0 .073.127.136.186.087.084-.068.16-.146.226-.232.448-.512.928-.996 1.437-1.447.112.028.22.07.322.127.068.06.121.136.154.222.045.1.05.218.1.313a.305.305 0 0 0 .377.187.303.303 0 0 0 .13-.083 1.47 1.47 0 0 0 .168-.167c.108.01.218.01.326 0a.235.235 0 0 0 .186-.196.254.254 0 0 0-.132-.276.366.366 0 0 0-.176-.073c-.345 0-.608-.25-.993-.231.05-.123.06-.21.109-.25.257-.213.538-.394.838-.54l.376.5v.267c.14.146.292.281.454.404a.307.307 0 0 0 .353-.05l.1-.1c.272-.027.507-.045.738-.077a.204.204 0 0 0 .19-.186.227.227 0 0 0-.194-.232 1.382 1.382 0 0 0-.512 0 .843.843 0 0 1-.816-.127c.018-.13.018-.264 0-.394-.027-.105-.136-.196-.204-.286a.322.322 0 0 1 .286-.236c.267.032.453-.136.707-.186.208.367.208.367.73.453a.455.455 0 0 0 .552.409c0 .267.2.508 0 .808a1.738 1.738 0 0 0-.177 0c-.235.045-.367.231-.258.453.036.073.064.146.086.195-.036.137-.14.146-.226.177a1.87 1.87 0 0 0-.25.132.585.585 0 0 0-.24.622c-.15 0-.276.031-.399.054a.764.764 0 0 1-.784-.204c-.108-.123-.235-.032-.376 0-.122-.177-.258-.354-.526-.286a.34.34 0 0 0-.28.222c-.041.132-.1.259-.159.404a.418.418 0 0 0 .494.322.259.259 0 0 1 .254.082.717.717 0 0 0 .707.163.649.649 0 0 1 .503.037c.04.029.079.062.113.1-.073.118-.19.095-.29.113-.417.082-.838.15-1.255.232a3.947 3.947 0 0 0-1.469.644c-.13.09-.247.197-.349.317a.969.969 0 0 0-.163.336.227.227 0 0 0 .245.273c.16-.01.31-.081.417-.2a3.173 3.173 0 0 1 1.36-.722.602.602 0 0 1 .154 0 .872.872 0 0 1 .212.454c0 .213.186.331.227.504.054.176.141.34.258.48-.335.06-.616.096-.906.16-.453.118-.947.245-1.418.376-.5.189-.96.467-1.36.822-.879.644-1.75 1.306-2.62 1.964l-.253.214a.699.699 0 0 0-.231.453c-.054.368-.1.418-.453.454a1.81 1.81 0 0 0-1.392.872c-.453.621-.928 1.238-1.359 1.883-.612.907-1.219 1.846-1.917 2.722-.037.05-.078.097-.122.14l-1.101.981a.598.598 0 0 1-.744.082 3.894 3.894 0 0 1-.906-.545 1.25 1.25 0 0 0-.276-.177 4.58 4.58 0 0 1-.712-.549c-.326-.3-.689-.553-1.033-.835-.181-.145-.372-.295-.54-.454-.167-.158-.412-.453-.611-.662a1.28 1.28 0 0 1-.123-.204 2.24 2.24 0 0 1 .648-.627c.186-.117.377-.24.571-.34.298-.152.549-.383.726-.667.192-.27.422-.512.684-.717a15.265 15.265 0 0 0 2.07-1.946c.4-.448.775-.916 1.125-1.403a2.72 2.72 0 0 1 .525-.544c.353-.317.673-.668.957-1.048.24-.318.503-.613.752-.908.249-.295.52-.635.766-.966.128-.219.308-.401.525-.531a.186.186 0 0 0 .15-.327.208.208 0 0 0-.322-.077 3.51 3.51 0 0 0-.426.454c-.322.394-.625.798-.938 1.193-.068.086-.145.168-.213.254-.464.62-.978 1.201-1.536 1.738-.281.259-.53.55-.789.826a1.12 1.12 0 0 0-.136.19 4.945 4.945 0 0 1-1.246 1.475 40.88 40.88 0 0 1-1.677 1.398c-.201.154-.379.337-.525.544a1.981 1.981 0 0 1-.685.645 4.332 4.332 0 0 0-1.187.907c-.163-.04-.208-.168-.267-.272-.1-.2-.181-.404-.281-.604a4.039 4.039 0 0 0-.544-.907 1.503 1.503 0 0 1-.372-1.053.481.481 0 0 1 .159-.376c.143-.14.294-.27.453-.39.752-.527 1.514-1.044 2.266-1.566.48-.336.952-.68 1.432-1.012a4.75 4.75 0 0 0 .88-.853c.303-.345.606-.685.906-1.04.14-.163.262-.349.39-.53.126-.182.167-.273.262-.395.568-.72 1.136-1.438 1.704-2.155.105-.119.219-.23.34-.332a2.65 2.65 0 0 0 .811-1.415c.075-.308.13-.62.163-.935.042-.378.138-.748.286-1.098.098-.25.168-.51.208-.776.016-.127.039-.253.068-.377a2.4 2.4 0 0 0 .046-.985 4.669 4.669 0 0 1-.032-.757c.002-.301-.052-.6-.159-.88a3.887 3.887 0 0 1-.308-1.24 1.16 1.16 0 0 0-.059-.276c-.145-.486-.285-.971-.453-1.448a1.668 1.668 0 0 1 0-1.202c.05-.146.075-.3.072-.454a.326.326 0 0 0-.407-.345c-.091.019-.18.045-.268.077l-.195-.159c-.25 0-.5.044-.734.132a1.888 1.888 0 0 1-.793.086.905.905 0 0 1-.752-.43c-.082-.137-.181-.26-.254-.4-.072-.14-.14-.354-.24-.513a3.291 3.291 0 0 0-.399-.404h.354c.232.058.478.037.697-.059a.204.204 0 0 1 .136 0c.295.11.508-.109.748-.204.036 0 .055-.104.05-.159a.118.118 0 0 0-.09-.09h-.907c-.095-.037-.213-.255-.453-.205-.045 0-.109-.054-.159-.09a1.54 1.54 0 0 0-.426-.282 2.336 2.336 0 0 1-.494-.131c-.117-.055-.204 0-.28.104a.213.213 0 0 0 0 .304c.07.06.15.109.235.145a.906.906 0 0 1 .453.281c-.027.11-.059.227-.095.382a.763.763 0 0 1-.14-.028 2.052 2.052 0 0 1-.907-.58 4.03 4.03 0 0 0-.376-.359.281.281 0 0 1-.104-.336c.059-.177-.132-.258-.19-.394.086-.023.172-.046.258-.078a.213.213 0 0 0 .127-.335.508.508 0 0 0-.408-.282A1.164 1.164 0 0 1 3.92 7.6c.068-.068.104-.136.15-.145a.666.666 0 0 0 .502-.386c.028-.063.105-.113.164-.163a.227.227 0 0 0 .063-.295.281.281 0 0 0-.294-.195l-.304.05A3.766 3.766 0 0 1 5.864 4.22c.716-.427 1.441-.835 2.166-1.253.136-.077.263-.163.426-.032.082.064.181 0 .245-.077a.281.281 0 0 1 .349-.077c.04.097.088.19.145.277.064.065.138.122.217.168l.3-.2a.168.168 0 0 0-.028-.277c-.104-.04-.213-.063-.34-.1 0-.063-.036-.136-.059-.213-.022-.077-.05-.14-.077-.227.252-.257.55-.464.88-.608.1.105.095.195 0 .264-.096.068-.213.136-.309.217a.236.236 0 0 0 .068.395.367.367 0 0 0 .454-.1l.163-.213c.453.209.453.209.906-.05.059-.032.109-.068.177-.113 0-.127.054-.264.072-.404a.222.222 0 0 0-.244-.272c-.11.015-.218.042-.322.081 0 .132-.032.245-.046.359-.18 0-.163-.155-.208-.25-.045-.095-.1-.19-.163-.313.282-.188.587-.34.906-.454.284-.104.596-.104.88 0 .07.026.133.065.19.114 0 .172-.127.222-.209.308a.253.253 0 0 0-.061.292.253.253 0 0 0 .061.085.453.453 0 0 0 .345.132c.093-.012.187-.012.28 0 .032 0 .06.059.1.108a1.813 1.813 0 0 1-.788.481.335.335 0 0 0-.326.39 1.358 1.358 0 0 1-1.16-.031 1.217 1.217 0 0 0-.354-.104.195.195 0 0 0-.15.095.19.19 0 0 0 .037.163c.198.183.423.336.666.454.163.059.31.155.43.281.218.214.308.214.59.073l.076-.045a.19.19 0 0 1 .064 0c.027 0 .082.036.095.072.104.236.308.245.521.227a.204.204 0 0 0 .2-.172.4.4 0 0 0-.064-.264 1.939 1.939 0 0 0-.376-.2l.553.023c.34 0 .372 0 .548-.408-.23-.136-.534-.132-.738-.354.031-.027.059-.077.095-.086.286-.097.54-.273.73-.508a.214.214 0 0 0-.114-.382 1.128 1.128 0 0 1-.557-.322c-.027 0-.027-.081-.046-.159.113.002.225.01.336.028a9.66 9.66 0 0 1 1.627.508c.453.177.906.367 1.36.567.2.092.392.204.57.336.254.186.485.404.734.599a.404.404 0 0 1 .177.363.676.676 0 0 0 .34.59c.208.14.394.313.589.454a.453.453 0 0 0 .652 0c.164.136.213.399.485.326.064.175.114.354.15.536.04.34.204.526.566.508.041.181.091.35-.031.508-.123.159-.14.19-.3.186a.403.403 0 0 0-.416.232c.031.217.217.317.367.453a1.009 1.009 0 0 0-.082.332c.032.2.087.397.163.585.027.073.132.123.213.168.097.05.197.094.3.132l.262.122c.05.14.027.336.227.372.2.036.276.032.453.05l.122.145.154.173a.345.345 0 0 0 .562.059c.065-.067.122-.14.173-.218.195.054.385.045.485.263.031.073.185.118.285.127a.25.25 0 0 0 .263-.345.84.84 0 0 1-.095-.354.235.235 0 0 0-.268-.258c-.153.018-.305.05-.453.095-.136.036-.263.09-.399.14l-.349-.204-.294.11c-.073-.318-.073-.318-.43-.355-.073-.031-.055-.104-.069-.163-.059-.322-.059-.322-.371-.377l-.213-.04L20.696 7c.15-.1.308-.045.453-.068.154.177.295.345.454.504a.413.413 0 0 0 .453.131.987.987 0 0 1 .485-.045c.117-.145.235-.286.385-.454h.19a.262.262 0 0 0 .268-.222.25.25 0 0 0-.11-.286c-.126-.068-.271-.127-.393 0-.092.107-.176.22-.25.34l-.453.05-.847-.295c-.195-.227-.041-.453.122-.694.112.095.237.173.372.232.152.011.305-.002.453-.041l.2.131a.213.213 0 0 0 .262 0 .236.236 0 0 0 .073-.295 2.04 2.04 0 0 0-.118-.213l.181-.227c.087.047.178.087.272.118a.335.335 0 0 0 .412-.222.277.277 0 0 0-.081-.3.403.403 0 0 0-.453-.077.3.3 0 0 0-.078.055l-.176.195a2.879 2.879 0 0 0-.34-.082c-.29-.04-.367.027-.453.354 0 .04 0 .086-.037.136h-.176c-.082-.077 0-.127 0-.181.032-.136 0-.232-.113-.264a.177.177 0 0 0-.091 0 1.404 1.404 0 0 1-.743-.263c0-.095-.041-.186-.06-.263-.19-.14-.384 0-.593-.05a1.008 1.008 0 0 0-.222-.68c-.15-.177-.317-.34-.476-.509.363-.19 1.27-.281 2.819-.281.067.131.128.266.181.404a.692.692 0 0 1 0 .218v.136c.227.168.064.454.213.64a.39.39 0 0 0 .245.118c.216-.035.437-.015.643.059.127.063.3-.087.304-.218a.295.295 0 0 0-.25-.3.806.806 0 0 0-.23.027.307.307 0 0 1-.295-.113c.038-.148.052-.301.04-.454a.649.649 0 0 1 0-.454c.3-.081.62-.062.907.055a.768.768 0 0 0 .281.544c.107.095.183.22.218.359.024.15.024.303 0 .454a.454.454 0 0 1-.086.204c-.1.172-.105.25 0 .336a.38.38 0 0 0 .453.113l.308-.209c.055.075.1.158.131.245.037.173.154.223.304.25a.308.308 0 0 0 .34-.104c.077-.114 0-.205-.077-.295a.34.34 0 0 1-.041-.091l.453-.83c.11.028.217.07.317.122.2.128.392.268.576.418.294.235.589.48.874.73.258.23.475.502.644.803-.027.195-.054.381-.086.59-.43.083-.849.212-1.25.386-.401.22-.79.46-1.165.721-.354.264-.658.586-1.006.908a.646.646 0 0 1 .126-.776c-.104-.059-.176-.132-.258-.136a1.472 1.472 0 0 0-.349.036c-.095.2.027.409-.154.558-.086.073-.027.223.064.3.113.081.23.155.353.222 0 .14-.09.245-.245.2a.738.738 0 0 0-.503.086.24.24 0 0 0-.104.39c.065.078.136.151.213.218-.031.095-.07.188-.118.277-.095.163-.226.308-.308.48a.967.967 0 0 1-.639.545 1.355 1.355 0 0 0-.299-.05.535.535 0 0 0-.254.1.195.195 0 0 0-.072.254.29.29 0 0 0 .167.136.375.375 0 0 0 .453-.117.31.31 0 0 1 .105-.082.29.29 0 0 1 .217.281c.023.136.027.277.041.454a.455.455 0 0 1-.168 0 .385.385 0 0 0-.358.068c-.158.1-.226.218-.19.35a.336.336 0 0 0 .304.258c.22.008.439-.003.657-.032a.2.2 0 0 0 .186-.236 1.644 1.644 0 0 0-.073-.417.835.835 0 0 1 .127-.799c.322-.454.612-.907.933-1.361.278-.403.592-.78.939-1.125a7.427 7.427 0 0 1 1.31-1.012c.415-.247.878-.402 1.359-.454a.484.484 0 0 1 .394.086c0 .06-.032.127-.054.195-.06.16-.096.304.1.404.09.045.045.136.045.213a.336.336 0 0 0 .326.323.371.371 0 0 0 .376-.295.304.304 0 0 0-.045-.177c-.068-.105-.154-.2-.227-.3a1.592 1.592 0 0 0 0-.327c0-.09-.186-.15-.04-.3.05.02.1.043.149.069a.778.778 0 0 0 .566.195.566.566 0 0 1 .272.06c.453.253.943.516 1.41.775.068.049.131.104.19.163-.027.091-.063.177-.082.264a.228.228 0 0 0 .244.276.227.227 0 0 0 .128-.054c.063-.045.118-.1.19-.163.14.104.268.19.39.29a.576.576 0 0 1 .285.513.51.51 0 0 0 .182.372.308.308 0 0 0 .299.113c.367-.109.503.146.653.377-.037.168-.173.068-.24.118-.069.05-.114.109-.173.154a.264.264 0 0 0-.072.377c.065.112.14.218.222.318a.933.933 0 0 1-.182.077.34.34 0 0 0-.299.204c-.1.245-.29.268-.507.236a.9.9 0 0 0-.186-.032.144.144 0 0 0-.1.077.16.16 0 0 0 .037.127.72.72 0 0 0 .539.127 1.79 1.79 0 0 0 .326-.077l.453.295c.127-.186-.077-.309-.027-.504l.412-.349a2.025 2.025 0 0 1-.09-.39c.005-.153.023-.305.054-.454.064.036.132.05.159.09.363.49.668 1.022.906 1.584-.036.127-.131.082-.2.091-.18.027-.271.136-.312.34l.372.15a.453.453 0 0 1-.454.213 3.133 3.133 0 0 0-.566 0 .422.422 0 0 0-.109.082c-.086.1-.276.15-.217.327a.553.553 0 0 0 .544.29.624.624 0 0 1 .493 0 .354.354 0 0 0 .363-.036.803.803 0 0 1 .195-.127c.114-.032.231-.056.349-.073.038.078.067.16.086.245a5.88 5.88 0 0 1-.145 2.913 1.47 1.47 0 0 1-.131.3c-.19.29-.386.58-.58.867a3.124 3.124 0 0 1-1.292 1.198l-.272-.195c-.403.204-.453.272-.521.726a7.7 7.7 0 0 1-1.944.934.906.906 0 0 1-.852-.104 4.471 4.471 0 0 0-.453-.277c-.259-.15-.454-.063-.454.227a1.65 1.65 0 0 0 0 .25l-1.164-.227a.807.807 0 0 1-.698.376c.004.112.019.223.045.332a.327.327 0 0 0 .331.217.286.286 0 0 0 .277-.217c.036-.137.045-.277.072-.454.095.027.195.05.294.086.295.109.585.24.907.322.417.1.85.118 1.273.055.425-.039.841-.145 1.233-.313.095-.036.192-.066.29-.091a.56.56 0 0 1 0 .204.258.258 0 0 1-.127.123c-.09 0-.19 0-.28.031a.243.243 0 0 0-.224.27c.004.044.02.085.046.12a.21.21 0 0 0 .055.078c.172.09.172.231.15.4-.023.167.117.208.23.258a1.707 1.707 0 0 0-.104.354c.008.115.03.23.064.34-.145 0-.281-.054-.422-.063a.322.322 0 0 0-.358.244.322.322 0 0 0 .29.323c.168.031.34.031.54.05.001.122.01.245.027.367a.331.331 0 0 0 .33.286.276.276 0 0 0 .313-.322 2.62 2.62 0 0 0-.109-.372c.037-.077.082-.164.118-.25a.232.232 0 0 0 0-.268c-.14-.154.073-.263.041-.385-.032-.123-.131-.236-.172-.363a.34.34 0 0 1 .299-.354c.04-.082.1-.154.154-.24l-.308-.255c.027-.054.032-.095.054-.109l.494-.308c.286.054.54.113.802.15.195.027.286-.105.218-.3a1.456 1.456 0 0 0-.118-.213c-.077 0-.154 0-.195.05-.181.167-.39 0-.58.063-.159-.181-.385-.086-.58-.14l-.032-.032c-.032-.032 0-.073 0-.082l1.088-.608c.05.086.095.168.145.245a.34.34 0 0 0 .317.168.308.308 0 0 0 .204-.086.2.2 0 0 0 .027-.264 2.59 2.59 0 0 0-.272-.28c.213-.287.562-.41.802-.65.24-.24.49-.485.734-.73a5.45 5.45 0 0 1 .508 1.574.085.085 0 0 1 0 .037c.196.43.32.89.367 1.36-.1.046-.213.092-.322.15a.263.263 0 0 0-.122.323.26.26 0 0 0 .267.222.916.916 0 0 0 .186 0l.104-.04c.105.167.136.258 0 .358-.136.1-.222.331 0 .485a.11.11 0 0 0 .037.028c.299.072.335.308.312.553l-.031-.063ZM22.427 5.803l.032-.04-.032.04-.022-.031.022.031Z" fill="#A07761"/><path d="M19.577 5.427a.25.25 0 0 0-.404-.046c-.073.073-.14.152-.2.236.075.092.135.194.178.304.084.31.097.634.036.949-.181.063-.367.108-.54.181a1.016 1.016 0 0 0-.308.204.227.227 0 0 0 .123.4c.244.063.49.118.761.177 0 .2 0 .39-.027.576-.02.203-.053.405-.1.603-.045.168 0 .377-.14.518l-.422-.24c-.258.167-.28.212-.204.403.078.273.26.505.508.644a1.74 1.74 0 0 1-.25.808 1.52 1.52 0 0 0-.208.05c-.208.082-.276.204-.168.4a.454.454 0 0 1 0 .49c-.194.362-.39.725-.58 1.088-.09.168-.168.34-.235.518a.142.142 0 0 0 .017.114.14.14 0 0 0 .096.063.226.226 0 0 0 .295-.073c.158-.218.326-.426.453-.649.127-.222.267-.454.403-.699.046-.065.097-.126.154-.181.013.04.021.08.023.122-.036.245.036.372.24.418a.224.224 0 0 0 .24-.11.224.224 0 0 0 .027-.09c0-.09-.031-.2 0-.277a.554.554 0 0 0-.249-.735l.181-.394.114-.046c.002.167.027.334.072.495.097.15.243.26.413.313.072-.245.362-.354.299-.635a1.766 1.766 0 0 1-.304-.368c-.077-.172-.28-.113-.399-.272 0-.118.028-.259.05-.395.224-1.117.356-2.25.395-3.39a.85.85 0 0 1 .045-.213 1.044 1.044 0 0 1-.14-.53 1.363 1.363 0 0 0-.264-.74M22.514 7.963a.276.276 0 0 0 .38.032c.07-.059.135-.123.195-.19.159.058.309.104.367.28a.454.454 0 0 0 .118.146.272.272 0 0 0 .49-.068.594.594 0 0 1 .249-.268 1.6 1.6 0 0 0 .272-.186.38.38 0 0 1 .358-.077c.09.028.182.044.276.045.084-.014.167-.038.245-.072l.09.081c.254.232.322.25.572.082.132-.105.287-.177.453-.209a.204.204 0 0 0 .127-.304 3.41 3.41 0 0 1-.223-.3.422.422 0 0 0-.367-.253l-.253-.046c.036-.109.068-.195.095-.281a.186.186 0 0 0-.109-.236 2.568 2.568 0 0 0-.267-.073c-.027 0-.05-.04-.077-.059l-.068-.354-.453-.136a.702.702 0 0 0-.508.032c-.154.068-.172.204-.222.336-.05.115-.116.224-.195.322a.394.394 0 0 0 .09.585.53.53 0 0 0 .576 0c.113-.077.222-.163.326-.24a1.047 1.047 0 0 1 .603.767c-.122.104-.177 0-.253-.041-.245-.195-.504-.34-.794-.064a.299.299 0 0 1-.127.06c-.139.028-.275.07-.407.122-.124.074-.24.159-.35.254a2.612 2.612 0 0 0-.398-.272c-.168-.073-.281.109-.412.15l-.268-.091c-.043.04-.084.082-.122.127a.255.255 0 0 0 0 .376M14.723 17.66a.81.81 0 0 0 .535-.304c.086-.086.168-.172.25-.263-.2-.263-.21-.263-.517-.145 0 0-.055 0-.096-.032a1.526 1.526 0 0 1 .304-1.112c.14-.002.278-.023.412-.063.12-.075.227-.165.322-.268.118.1.209.25.376.172.121-.06.24-.127.354-.2.073.069.154.128.24.178.07.032.146.046.222.04a.185.185 0 0 0 .178-.185.186.186 0 0 0-.024-.091.417.417 0 0 0-.453-.245.371.371 0 0 1-.313-.068 1.138 1.138 0 0 0-.222-.1 2.811 2.811 0 0 1-.421.15 4.752 4.752 0 0 1-.517.04 1.448 1.448 0 0 1-.453-.975.227.227 0 0 0-.032-.136 1.28 1.28 0 0 0-.272-.25.226.226 0 0 0-.312.041c-.064.277.199.522.117.826a1.24 1.24 0 0 1-.697-.259.663.663 0 0 1 0-.549c.038-.087.069-.179.09-.272.05-.168.027-.272-.118-.3a1.708 1.708 0 0 1-.498-.267h-.086l-.19.286-.304-.16a.453.453 0 0 0-.367 0 .242.242 0 0 0-.16.25c.004.035.015.07.033.1a.504.504 0 0 0 .172.15c.082.045.204.04.258.1.159.16.36.27.58.317.023.29.046.572.068.867h-.303a.567.567 0 0 0-.453.204c-.331.363-.667.722-.993 1.085a.209.209 0 0 0 0 .3c.056.054.115.106.177.154a.58.58 0 0 1 .231.453c.012.117.035.233.068.345-.168.041-.308.068-.453.11a.272.272 0 0 0-.204.285.304.304 0 0 0 .358.227c.14-.027.276-.064.412-.1a.191.191 0 0 0 .154-.245 1.088 1.088 0 0 0-.072-.204.696.696 0 0 1 .109-.041c.222-.036.394-.109.349-.4 0-.058.054-.136.09-.199a.378.378 0 0 0-.167-.554c-.069-.036-.15-.045-.223-.077a.19.19 0 0 1-.072-.281c.122-.186.285-.34.476-.454l.349.1c.1.3.104.295.33.454a.39.39 0 0 1 .16.163c.116.366.141.756.072 1.134a.786.786 0 0 1-.2-.027c-.072-.027-.131-.09-.204-.118a.222.222 0 0 0-.303.24.4.4 0 0 0 .05.182c.052.116.13.218.226.3.144.064.297.108.453.131.05.24-.077.454-.072.7-.022.46-.15.909-.376 1.31-.114.241-.204.495-.3.745-.095.25-.149.417-.222.626a4.473 4.473 0 0 0-.271.758c-.082.48-.123.97-.159 1.456.003.128.04.251.109.359.077.145.158.331.376.304.217-.027.236-.195.29-.345.162-.443.286-.898.371-1.361.143-.78.343-1.547.599-2.296.23-.672.407-1.362.607-2.047.063-.213.118-.426.172-.626v-.023Zm-1.495-2.246h-.037.037Zm1.146.622c-.022.172-.027.345-.04.517a1.86 1.86 0 0 1-.118.567l-.476-1.965c.163-.108.317 0 .453-.027.16.274.219.595.168.908M19.378 19.607a.255.255 0 0 0-.163-.304c-.122-.059-.254-.1-.404-.159 0-.222.046-.453.06-.658a1.71 1.71 0 0 1 .23-.717c.166-.27.376-.511.621-.712l.789-.68c.056-.04.115-.075.177-.105.072.095.131.186.204.268a.312.312 0 0 0 .421.036.534.534 0 0 0 .127-.14c.054-.087.177-.16.127-.287-.05-.127-.2-.136-.322-.145h-.222c.032-.082.059-.132.077-.186.02-.075.044-.15.073-.222a.314.314 0 0 0-.132-.481l-.25-.155c-.063.078-.14.127-.153.196-.025.157-.04.316-.046.476-.24.31-.551.559-.906.726-.272.118-.53.263-.811.404-.145-.09-.335-.06-.453-.213.118-.259.408-.264.562-.454.082-.187.108-.393.077-.595a.213.213 0 0 0-.236-.186.455.455 0 0 0-.14.028.349.349 0 0 1-.4 0c-.085-.06-.185 0-.253.068a.381.381 0 0 0-.09.453c.063.173.031.223-.123.295-.086.037-.186.037-.226.146a.36.36 0 0 0 .294.517c.085.001.17-.008.254-.027l.326.485c-.263.404-.521.799-.784 1.194 0 0-.054.022-.104.045a.976.976 0 0 1-.222-.685l.598-.259a.825.825 0 0 0-.684-.454.271.271 0 0 0-.3.336c.024.101.056.2.096.295l-.177.127a.3.3 0 0 0-.154.322.373.373 0 0 1-.131.377.304.304 0 0 0 0 .427.319.319 0 0 0 .453.031c.085-.058.165-.124.24-.195.032.041.05.055.05.064a6.206 6.206 0 0 1-.734 1.252 1.45 1.45 0 0 1-.236.24 6.691 6.691 0 0 1-.118-.29c-.032-.086-.1-.29-.276-.272-.177.018-.181.163-.227.277-.077.186 0 .326.2.413.081.031.199 0 .253.104a.383.383 0 0 1-.05.118l-.589.68a44.3 44.3 0 0 0-1.146 1.39.83.83 0 0 0-.154.34.304.304 0 0 0 .176.349.29.29 0 0 0 .29-.118 1.43 1.43 0 0 0 .16-.236c.085-.132.167-.268.262-.39.027-.037.1-.027.159-.041-.073.24-.154.454-.2.658-.045.204 0 .308.095.331a.34.34 0 0 0 .327-.15c.077-.1.149-.204.213-.313.068-.104.122-.222.199-.322a7.599 7.599 0 0 1 1.319-1.361c.348-.274.653-.598.906-.962.181-.277.345-.563.535-.867l.154.032c.078.017.156.028.236.032a.313.313 0 0 0 .28-.218l-.004.027Zm-1.899.94-1.36 1.302s-.045 0-.108.036c.233-.365.499-.708.793-1.026.227-.344.453-.68.698-1.016.245-.336.453-.721.757-1.116.027.15.068.227.05.286a3.346 3.346 0 0 1-.807 1.533M32.691 12.492c-.05.122.036.163.123.213.04.033.076.07.108.109l-.136.186a.635.635 0 0 0-.136.535.75.75 0 0 1-.04.536.232.232 0 0 0 .263.295c.077 0 .158-.06.222-.041.166.062.33.133.489.213a.962.962 0 0 1-.109.16.348.348 0 0 0-.118.344c.05.24-.1.372-.235.53a1.265 1.265 0 0 0-.943-.312c-.09.313.227.363.317.544l-.095.068c-.272.182-.294.236-.127.454a.786.786 0 0 1 .132.35c.016.086.037.17.063.254.35.031.404.027.485-.032.19-.15.132-.372.136-.508.304-.195.566-.359.825-.531a.217.217 0 0 0 .081-.254c0-.06-.05-.15-.022-.173a.75.75 0 0 0 .145-.59l.272-.068c.218.16.377.389.453.65.032.153 0 .24-.19.24a.67.67 0 0 0-.408.09.24.24 0 0 0-.118.143c-.01.03-.013.062-.01.094a.24.24 0 0 0 .028.09c.047.08.108.152.181.209a.26.26 0 0 0 .376-.06c.068-.085.123-.18.173-.258h.217c.3-.04.354-.09.358-.386a3.74 3.74 0 0 0-.054-.453c.158.04.294.077.453.104a.388.388 0 0 0 .349-.095.173.173 0 0 0 .054-.236.947.947 0 0 1-.625-.322.25.25 0 0 0-.304-.068c-.254.113-.453-.137-.661-.082l-.2-.295-.816-.045c.096-.35-.285-.332-.407-.568.05-.213.108-.453.163-.676a.51.51 0 0 0-.077-.086c-.127-.09-.259-.172-.39-.263-.131-.09-.213-.077-.245 0" fill="#A07761"/><path d="M11.66 15.246a.684.684 0 0 0 .117-.082c.258-.27.586-.46.948-.553a.649.649 0 0 0 .172-.077.168.168 0 0 0 0-.304c-.114-.05-.24-.073-.358-.114a.997.997 0 0 1-.213-.086c-.177-.132-.345-.268-.521-.408l-.037-.078a.172.172 0 0 0 0-.045c-.1-.281-.163-.322-.453-.263-.118.027-.235.063-.385.109l.082-.454c.344-.204.371-.25.267-.572a4.214 4.214 0 0 0-.19-.422c.208-.1.308.06.453.123a.716.716 0 0 0-.055.412.57.57 0 0 0 .49.45.25.25 0 0 0 .313-.14c.05-.114.154-.146.249-.196.106-.063.201-.145.28-.24a.164.164 0 0 0 .013-.201.163.163 0 0 0-.053-.049.494.494 0 0 0-.258-.082c-.11.015-.218.041-.322.078a.393.393 0 0 1-.39-.105.857.857 0 0 1 .907-.553c.111.008.223.008.335 0 .007-.099.025-.197.054-.29.046-.1.132-.182.064-.318a.824.824 0 0 0-.748-.118c-.172.027-.2.181-.267.28-.182.042-.35.087-.517.114-.168.027-.227.236-.326.395a.507.507 0 0 0-.707.036.241.241 0 0 0 0 .404c.077.068.167.127.249.186-.213.395-.213.395-.072.753a.858.858 0 0 0-.413.495.204.204 0 0 0 .19.263c.136 0 .268 0 .454-.04-.03.083-.065.165-.105.245-.154.25-.154.258.06.453.031.033.058.07.08.11l-.112.095c-.25.195-.25.353.022.48a.675.675 0 0 1 .29.227c.136.186.245.196.453.082M28.79 11.044c.12.033.243.059.367.077.027 0 .045.041.072.069.027.027-.023.145-.032.236.105.104.209.222.327.326a.371.371 0 0 0 .412 0c0-.082.04-.168.063-.263a.567.567 0 0 1 .644 0c-.06.058-.113.121-.159.19a.286.286 0 0 0-.036.214c.09.181.196.355.317.517a.172.172 0 0 0 .172.032c.041 0 .069-.086.082-.14.014-.055 0-.096 0-.141 0-.046.036-.118.118-.1a.635.635 0 0 1 .068.626.594.594 0 0 0-.027.454l.235.109c.172.081.263 0 .317-.15.186-.054.4.064.535-.136.06-.254-.108-.431-.217-.608a.694.694 0 0 1 .453-.404c.078-.015.153-.038.227-.068a.231.231 0 0 0 .104-.286c-.041-.132 0-.304-.177-.363a.267.267 0 0 0-.186 0 .56.56 0 0 0-.172.154 2.216 2.216 0 0 0-.168.273l-.761.136a.672.672 0 0 0-.485-.586c-.04-.127-.063-.236-.104-.34-.04-.104-.15-.195-.3-.145-.149.05-.23.09-.312.118l-.865-.254.145-.286a.71.71 0 0 1 .503.131c.066.044.137.08.213.105a.277.277 0 0 0 .358-.34.417.417 0 0 0-.204-.3.548.548 0 0 1-.204-.077.575.575 0 0 0-.453-.105c-.29 0-.395.35-.685.359-.036 0-.072.054-.109.086a.164.164 0 0 0-.05.077 1.04 1.04 0 0 1-.176.327.321.321 0 0 0 .145.476M26.121 18.709a.665.665 0 0 1 .422 0c-.118.177-.223.34-.34.526-.1.022-.197.052-.29.09a.195.195 0 0 0-.091.282c.05.078.116.143.195.19.1.045.203.083.308.114a1.12 1.12 0 0 0-.15.363c-.02.138-.068.27-.14.39a.245.245 0 0 0 .2.318.534.534 0 0 0 .453-.095.793.793 0 0 1 .652-.204.715.715 0 0 0 .49-.146c.163-.095.33-.181.494-.281.163-.1.34-.213.525-.327.244.052.497.015.716-.104-.032-.286-.267-.354-.453-.427-.186-.072-.33.132-.453.264a.832.832 0 0 0-.63.117c-.157.08-.321.147-.49.2a2.538 2.538 0 0 0-.987-.508c.045-.136.145-.068.208-.104a.992.992 0 0 1 .562-.187c.027 0 .059 0 .086-.036a.265.265 0 0 0 .124-.27.262.262 0 0 0-.038-.097c-.102-.14-.23-.26-.376-.354-.109-.064-.272-.027-.453-.041-.05-.2-.231-.245-.426-.268-.195-.023-.281-.054-.422-.063a.74.74 0 0 0-.28.036.213.213 0 0 0-.096.345.756.756 0 0 0 .703.3M32.642 27.82c-.1.04-.211.05-.317.027a1.884 1.884 0 0 1-.64-.38l.504-.414v-.521c.052-.019.104-.04.154-.064.15-.077.181-.172.109-.3a.28.28 0 0 0-.218-.163c-.09 0-.186-.023-.28-.027a.534.534 0 0 0-.558.272c-.027.055-.068.105-.086.136l-.657.041a.454.454 0 0 1-.118-.567.494.494 0 0 0 .054-.182.197.197 0 0 0-.07-.165.194.194 0 0 0-.174-.039c-.068 0-.168.064-.186.118-.06.186-.263.223-.363.368 0 .104 0 .209.036.331a2.93 2.93 0 0 0-.335-.095.285.285 0 0 0-.28.122.287.287 0 0 0 .094.34.308.308 0 0 0 .354.05l.208-.113.286.331.453-.163a.743.743 0 0 0 .698.231c.086.146.032.25-.073.377-.176.218-.15.336.077.504.05.04.118.063.154.108.25.265.561.462.907.572.145.055.298.09.453.105a.254.254 0 0 0 .272-.15c.081-.164.154-.336.235-.517a.828.828 0 0 0-.72-.173M13.586 4.614c.089.252.089.525 0 .776a.263.263 0 0 0 .037.223c.07.09.149.171.235.245a.803.803 0 0 0-.077.168.265.265 0 0 0 .13.326c.039.02.081.029.124.028a.656.656 0 0 0 .227-.05c.086-.032.163-.114.249-.123a.625.625 0 0 0 .453-.25.453.453 0 0 1 .59-.131.407.407 0 0 0 .48-.054.864.864 0 0 1 .666-.164.552.552 0 0 0 .535-.222l.086-.104c.12.034.242.058.367.072a.118.118 0 0 0 .127-.154.978.978 0 0 0-.06-.186c.082-.05.186-.086.232-.155.1-.16.19-.327.272-.499a.476.476 0 0 0-.571-.2c-.263.105-.25.364-.245.586a.317.317 0 0 1-.367.064.516.516 0 0 0-.58.054c-.218.195-.499.24-.72.422-.06-.454-.146-.522-.531-.504-.313 0-.371.087-.335.409a.457.457 0 0 1 0 .136c-.19.173-.419.3-.667.372-.031-.35-.14-.676.087-.98a.226.226 0 0 0-.068-.2 1.911 1.911 0 0 0-.454-.14.181.181 0 0 0-.208.235M27.254 25.706a.34.34 0 0 0 .222 0 .217.217 0 0 0 .109-.24c-.032-.15-.118-.296 0-.455l.453.041c.04-.05.077-.081.104-.118.027-.036.068-.1.104-.159.06.03.123.055.186.077.058.025.12.043.181.055a.185.185 0 0 0 .222-.132.214.214 0 0 0-.09-.286.39.39 0 0 0-.48 0l-.132.1c-.209-.136-.209-.136-.168-.208l.304-.032c.01-.153.03-.304.059-.454a.217.217 0 0 0-.218-.29c-.11-.002-.22.01-.326.036l-.272.045c0-.136.023-.227.023-.322a.369.369 0 0 0-.323-.398.367.367 0 0 0-.185.026.272.272 0 0 0-.145.109.419.419 0 0 0 .3.644l.117.023.25.58h-.277c-.09 0-.263.096-.263.273v.09a.177.177 0 0 1-.113.069.16.16 0 0 1-.109-.068c-.027-.073-.036-.154-.059-.227-.059-.2-.163-.277-.344-.213a.778.778 0 0 1-.367.036.195.195 0 0 0-.236.218 2.1 2.1 0 0 1-.032.662 1.463 1.463 0 0 0-.33-.04.259.259 0 0 0-.195.358.455.455 0 0 0 .29.3.992.992 0 0 1 .453.23.511.511 0 0 0 .313.078.227.227 0 0 0 .163-.136.228.228 0 0 0-.082-.195 1.958 1.958 0 0 0-.358-.137v-.245c.213-.036.421-.063.512-.294 0-.05.122-.06.204-.096.045.077.073.136.104.182.032.045.172.231.268.336.052.058.12.102.195.127M35.792 19.634c-.2.041-.404.055-.607.041a.208.208 0 0 0-.195.227c.04.227.1.454.15.69h-.168a.173.173 0 0 0-.19.168 1.752 1.752 0 0 0 0 .69c.113.299 0 .512-.114.812-.209-.227-.508-.24-.62-.518a.358.358 0 0 0-.137-.122.28.28 0 0 0-.349.04.258.258 0 0 0-.068.3.254.254 0 0 0 .263.163c.109 0 .213 0 .295-.027a.785.785 0 0 1 .258.454.285.285 0 0 0 .403.209c.198-.123.413-.213.64-.268.063 0 .13-.127.162-.213.14-.332.11-.454-.127-.617a.304.304 0 0 1-.063-.078c-.177-.394.245-.585.227-.907l.367-.354.244.186c-.303.2-.303.2-.294.522a.74.74 0 0 1-.04.222c-.073.309.04.413.398.345a.686.686 0 0 1 .24-.53.199.199 0 0 0 .068-.164 3.21 3.21 0 0 1 .036-.754c-.208-.163-.412-.33-.625-.494a.253.253 0 0 0-.172-.055M13.355 8.74c.063-.065.117-.137.163-.214l.318.159c.08.049.163.093.249.131a.294.294 0 0 0 .344-.09.29.29 0 0 0-.077-.377l-.208-.173c.024-.115.04-.231.045-.349a.218.218 0 0 0-.077-.177.258.258 0 0 0-.217 0c-.11.088-.213.184-.309.286a.231.231 0 0 1-.394-.045.689.689 0 0 1-.059-.132.313.313 0 0 0-.385-.19.511.511 0 0 1-.308 0l.158-.132c.136-.11.195-.227.136-.368-.059-.14-.185-.34-.28-.517l-1.097.526a.634.634 0 0 1-.376-.39.308.308 0 0 0-.345-.195.294.294 0 0 0-.272.295c.211.177.387.392.517.635.104.236.317.259.557.123.064-.037.109-.118.204-.068 0 .453.19.644.644.68.077.005.154.005.23 0 .141 0 .2.046.21.19a1.318 1.318 0 0 0 0 .191.327.327 0 0 0 .407.286.403.403 0 0 0 .213-.086M10.622 10.709c.03-.056.055-.114.077-.173.109-.222.236-.263.453-.113a.386.386 0 0 0 .345.118.998.998 0 0 0 .657-.495.277.277 0 0 0-.027-.213.19.19 0 0 0-.168-.046c-.136.032-.268.082-.408.127 0-.326 0-.326-.254-.757.186-.15.417-.268.521-.504-.05-.195-.208-.186-.344-.19a.453.453 0 0 1-.363-.178c-.163-.181-.276-.154-.507.05 0 .186.181.245.295.35a.191.191 0 0 1 0 .29 1.814 1.814 0 0 1-.195.14c-.232-.085-.254-.276-.345-.421a.194.194 0 0 0-.29-.05.272.272 0 0 0-.136.281.826.826 0 0 0 .367.581c.136.082.277.15.413.231.027 0 .036.064.054.105-.544 0-.512-.041-.639.426-.362-.145-.535-.127-.725.087a.2.2 0 0 0 .086.308.235.235 0 0 0 .095 0c.267-.024.536.021.78.132a.24.24 0 0 0 .29-.105" fill="#A07761"/><path d="M17.628 11.798c-.154.022-.308.068-.453.104-.263-.336-.57-.24-.906-.073a1.47 1.47 0 0 1-.127-.158c-.19-.286-.286-.323-.58-.223-.136.041-.268.086-.403.123-.3.077-.327.122-.277.476l-.036.077c-.372.032-.372.032-.64-.163l-.452-.318c-.177.096-.358.186-.535.286a.222.222 0 0 0-.1.245.246.246 0 0 0 .204.232c.163.036.335.05.494.072.2.295.268.327.54.268.092-.02.183-.048.271-.082a.907.907 0 0 0 .34-.145c.083-.11.148-.232.19-.363h.513c.04 0 .081.041.145.073a1.72 1.72 0 0 0-.028.263.35.35 0 0 0 .086.209.739.739 0 0 0 .58.14c.1 0 .2-.072.2-.177 0-.258.168-.38.363-.512a.609.609 0 0 1 .117.068.544.544 0 0 0 .617.068.24.24 0 0 0 .167-.295.245.245 0 0 0-.285-.186M30.521 30.339c.247-.05.497-.083.748-.1.28 0 .453-.236.684-.304l.168-.06c.077-.222.154-.426.213-.634a.268.268 0 0 0-.227-.35.973.973 0 0 0-.28 0c-.2.023-.277.104-.282.309-.004.204.046.313-.072.453h-.222s-.023 0-.032-.031c0-.314-.059-.395-.186-.454a.453.453 0 0 0-.453.068c-.023.127-.05.254-.072.386-.24 0-.268-.245-.454-.327-.23.032-.493-.036-.697.195.027.15.054.3.077.454l-.907.376a.314.314 0 0 0 .109.454.363.363 0 0 0 .48.023c.113-.085.239-.15.372-.195.082-.047.16-.102.231-.164a9.271 9.271 0 0 0-.072-.376h.113a.698.698 0 0 0 .752.272M22.364 17.552c-.04-.041-.082-.1-.131-.114a1.096 1.096 0 0 1-.563-.308.29.29 0 0 0-.353-.05c-.131.059-.258.177-.385.172-.295 0-.494.19-.739.281a.224.224 0 0 0-.145.226.222.222 0 0 0 .027.092c.057.088.12.171.19.25a.868.868 0 0 0-.244.19.513.513 0 0 0-.077.309c.022.11.058.217.109.317a3.571 3.571 0 0 0-.354-.118.226.226 0 0 0-.245.105.264.264 0 0 0 .11.395c.113.067.258.059.348.213a.382.382 0 0 0 .473.19.38.38 0 0 0 .153-.104l.308-.281c-.023-.214.253-.168.29-.372l-.186-.286.073-.118c.108-.195.09-.286-.091-.377-.086-.04-.177-.068-.258-.104.104-.313.108-.309.34-.454.031.109.058.209.095.304a.236.236 0 0 0 .28.118.158.158 0 0 0 .11-.182v-.195l.34-.09.24.222c.1-.06.23-.082.285-.227M10.387 31.428a.932.932 0 0 0-.172.154c-.404.454-.798.907-1.21 1.334a5.99 5.99 0 0 1-.67.595c-.232.186-.5.335-.721.535-.562.508-1.102 1.035-1.66 1.552a3.173 3.173 0 0 1-.58.485c-.149.113-.279.25-.384.404a.127.127 0 0 0 0 .127.536.536 0 0 0 .172.041h.04c.214-.184.452-.336.708-.454a.454.454 0 0 0 .176-.15c.304-.517.907-.739 1.233-1.23a.177.177 0 0 1 .077-.049c.227-.108.43-.263.594-.454.121-.123.25-.24.385-.35a3.71 3.71 0 0 0 1.006-.88l.303-.276c.299-.282.56-.601.78-.949a.863.863 0 0 0 .104-.258.15.15 0 0 0-.054-.123.15.15 0 0 0-.132 0M35.202 25.452a.25.25 0 0 0-.404.208c.005.09.02.178.046.264-.277.177-.331.476-.48.712-.032.04 0 .154.045.209.072.076.15.146.235.208a.907.907 0 0 0-.086.277c.036.212.036.428 0 .64-.036.145.105.263.24.313a.234.234 0 0 0 .327-.109.282.282 0 0 1 .267-.154.413.413 0 0 0 .213-.082c.109-.081.209-.181.313-.276 0-.454-.095-.577-.517-.6a1.628 1.628 0 0 1-.521-.081.373.373 0 0 1 .195-.336.29.29 0 0 0 .095-.381c-.032-.068-.086-.132-.118-.2s0-.054 0-.104l.213-.023c.072.11.154.213.245.309.322.281.607.213.83-.2a.753.753 0 0 0-.907-.345 1.62 1.62 0 0 0-.254-.25M25.278 24.916c.027-.073.064-.145.09-.218a.29.29 0 0 0 0-.086c0-.15-.226-.186-.158-.372h.481a.259.259 0 0 0 .262-.35 1.876 1.876 0 0 1-.163-.685l-.267-.108c-.258-.096-.331-.041-.322.25a.722.722 0 0 0 0 .094.209.209 0 0 1-.136.223c-.208.077-.412.14-.63.217-.081-.095-.145-.186-.222-.263a.244.244 0 0 0-.308 0 .2.2 0 0 0-.068.25c.095.336.172.39.54.395h.162c-.031.09-.059.163-.09.258-.136-.031-.259-.045-.376-.081a.547.547 0 0 0-.494.09.214.214 0 0 0-.064.255.78.78 0 0 0 .39.335.37.37 0 0 0 .399-.072.727.727 0 0 1 .131-.05l.159.109a.489.489 0 0 0 .485.095c.145-.05.127-.209.177-.318M29.52 27.235c.027.107.062.211.104.313l-.095.1c-.186.213-.177.331.045.503.059.046.154.05.163.15 0 0-.022.027-.031.027a.96.96 0 0 0-.784.232c-.05.05-.15.045-.223.072a.372.372 0 0 0-.158.096.54.54 0 0 0-.09.254c0 .109.076.163.171.2a.452.452 0 0 0 .454-.028.96.96 0 0 1 .716-.163c.092.012.185-.001.271-.036a.956.956 0 0 1 .413-.091c.094-.007.186-.024.276-.05a.33.33 0 0 0 .182-.354.246.246 0 0 0-.232-.2 2 2 0 0 0-.285 0H30.1c0-.277.326-.204.408-.426a1.308 1.308 0 0 1-.177-.694c0-.105-.073-.164-.159-.214-.086-.05-.303 0-.453 0a.23.23 0 0 0-.2.277M9.77 5.608a1.059 1.059 0 0 0-.045.145c-.036.218 0 .313.15.4a.403.403 0 0 0 .48-.055.209.209 0 0 0 0-.327c-.073-.054-.154-.1-.254-.163.073-.104.127-.19.168-.254h.734c.078-.01.157-.01.236 0a.553.553 0 0 0 .57-.14 1.36 1.36 0 0 0 1.134.222.25.25 0 0 0 .163-.141.186.186 0 0 0-.104-.236c-.064-.036-.155-.027-.223-.054-.344-.137-.756-.118-1.006-.454 0 0-.059 0-.127-.032a1.88 1.88 0 0 1-.453.295c-.19.064-.408.04-.602.086a2.827 2.827 0 0 0-.454.186 3.524 3.524 0 0 0-.453-.15A.23.23 0 0 0 9.48 5a.232.232 0 0 0 0 .218c.094.141.197.276.308.404M31.296 24.276a1.754 1.754 0 0 0-.453-.032c-.16 0-.223.064-.281.26a1.192 1.192 0 0 0-.032.199 1.06 1.06 0 0 1-.34 0 .263.263 0 0 1-.204-.236c0-.286-.258-.368-.417-.517-.29.163-.362.28-.245.453.075.14.108.297.096.454a.36.36 0 0 0 .498.336c.088-.033.172-.072.254-.118a.575.575 0 0 0 .485.168c.294-.041.589-.182.906 0 .136.081.304-.105.267-.282a1.46 1.46 0 0 0-.081-.25c.119-.047.236-.102.349-.163a.126.126 0 0 0 .066-.095.127.127 0 0 0-.039-.109c-.127-.118-.29-.236-.453-.131a.411.411 0 0 1-.35.05M20.769 10.777c-.028.222-.06.421-.077.621a.295.295 0 0 0 .04.177c.123.168.508.145.562-.05.087-.244.218-.47.386-.667l-.345-.181c-.023-.087-.05-.177-.072-.259-.223-.104-.499-.045-.653-.286l.077-.454c.204-.09.394-.163.576-.254a.182.182 0 0 0 .09-.14.191.191 0 0 0-.109-.132.742.742 0 0 0-1.01.327c-.036.05-.086.095-.123.15a.359.359 0 0 0-.076.308c.045.127 0 .19-.105.272a.236.236 0 0 0-.032.372.454.454 0 0 0 .358.196c.168 0 .336-.064.513 0ZM9.58 9.17c0-.172-.036-.34-.06-.513a.25.25 0 0 0-.208-.227L9.136 8.4a3.683 3.683 0 0 1-.14-.404c0-.14 0-.281-.032-.422a.24.24 0 0 0-.032-.09.181.181 0 0 0-.24-.083.694.694 0 0 0-.377.704c.05.336 0 .417-.258.558-.1.05-.204.09-.299.145a.25.25 0 0 0-.059.454.258.258 0 0 0 .34.082c.3-.15.598-.304.653-.69 0-.105.072-.168.213-.14.005.087.018.173.04.258.035.08.08.157.132.227-.09.177-.159.331-.24.476-.127.227-.082.35.158.422a.48.48 0 0 0 .453-.05c0-.204.164-.404.136-.653M31.205 17.846c.172-.022.345-.036.517-.072a.575.575 0 0 0 .245-.127.19.19 0 0 0 .063-.254c-.045-.087-.136-.16-.231-.114-.209.07-.433.083-.648.036a2.07 2.07 0 0 0-.372.041.182.182 0 0 1-.2-.086c-.053-.086-.08-.181 0-.25.25-.186.173-.408.105-.653h-.33c-.037-.082-.064-.159-.1-.227-.1-.177-.24-.186-.367 0a1.482 1.482 0 0 0-.11.209c-.135-.095-.235-.24-.425-.172-.114.04-.154-.069-.218-.132a.358.358 0 0 0-.575.136c-.032.1.05.259.145.263.134.007.269.007.403 0 .127.1.136.282.308.304.172.023.376.032.49-.181a.2.2 0 0 1 .317-.073c0 .173.027.34.045.522-.084.126-.16.258-.226.395a.155.155 0 0 0 .056.188c.02.014.042.022.066.025h.408c.109.281.358.3.62.263M8.334 3.321c-.15-.03-.304-.03-.454 0-.086 0-.136.15-.086.227a.454.454 0 0 0 .34.227h.417c-.045.09-.072.136-.095.186-.082.181-.027.317.14.372a.385.385 0 0 0 .4-.064.711.711 0 0 1 .108-.095.204.204 0 0 1 .258 0c.046.045.082.095.127.14a.358.358 0 0 0 .422.119.52.52 0 0 1 .412 0 .494.494 0 0 0 .231 0 .235.235 0 0 0 .222-.332 2.565 2.565 0 0 0-.195-.326 2.037 2.037 0 0 1-.983.086l-.154-.74a.603.603 0 0 1-.453.19 2.888 2.888 0 0 1-.653-.058M26.57 11.19a2.528 2.528 0 0 0-.35-.15c-.104-.032-.217.086-.217.195a.204.204 0 0 0 .181.19c.123 0 .245-.027.38-.045l.295.295a1.33 1.33 0 0 0 .06.417c.058.114.199.186.267.245 0 .117.013.232.04.345a.308.308 0 0 0 .19.118.344.344 0 0 0 .345-.122c.109-.145.195-.309.29-.454-.167-.25-.358-.032-.57-.054.009-.153.027-.304.054-.454.045-.204.145-.245.34-.15.048.028.095.058.14.09l.072.427c.35.127.35.127.526-.077v-.045c-.104-.186-.317-.322-.24-.585 0-.041-.05-.114-.095-.155a.482.482 0 0 0-.38-.14c-.187.117-.286.34-.508.394-.372-.422-.372-.422-.812-.281M29.692 31.582c-.1-.082-.2-.154-.304-.227-.104-.073-.213-.064-.317.077-.05.064 0 .204-.227.186-.031-.159.027-.395-.19-.503a.828.828 0 0 0-.63-.127.359.359 0 0 0-.476-.296.245.245 0 0 0-.226.26.272.272 0 0 0 .272.267c.122 0 .249-.027.412-.046.02.086.05.168.09.246a.423.423 0 0 1 .064.453c-.032.073.04.205.09.295.23.127.487.196.748.2a.313.313 0 0 0 .123-.077c.063-.064.122-.132.177-.195h.253a.254.254 0 0 0 .259-.173.268.268 0 0 0-.118-.326M15.195 6.575a.227.227 0 0 0-.313-.19.813.813 0 0 0-.2.122c-.117.086-.167.222-.081.326a.671.671 0 0 1 .113.622.354.354 0 0 0 0 .227.51.51 0 0 1 .027.317.226.226 0 0 0 .186.277c.168.046.313 0 .34-.154.027-.154.145-.263.326-.218.182.046.3-.063.454-.1.169-.011.338-.011.507 0a.222.222 0 0 0 .177-.2.237.237 0 0 0-.095-.249.371.371 0 0 0-.453-.054c-.082.045-.155.1-.213.136a1.114 1.114 0 0 1-.812-.454v-.195a1.377 1.377 0 0 0 0-.19M27.57 6.865c.091 0 .186.036.282.036a.258.258 0 0 0 .277-.17c.013-.037.017-.076.013-.115v-.413l-.453-.313a.795.795 0 0 0-.367-.604.176.176 0 0 0-.268.1c-.027.122-.05.245-.063.336-.2.1-.372.172-.53.267a.25.25 0 0 0-.064.205.26.26 0 0 0 .15.158c.15.023.301.035.453.037a.5.5 0 0 0 .589.453M29.841 14.847a.228.228 0 0 0 .163.29.299.299 0 0 0 .363-.145c.045-.077.077-.163.122-.254.227.017.453.049.675.095.238.08.47.175.694.286.185-.186.358-.345.516-.522a.318.318 0 0 0 .06-.213.184.184 0 0 0-.077-.117.181.181 0 0 0-.137-.028c-.303.073-.589-.068-.906-.04h-.453c-.4 0-.64.303-.934.49a.33.33 0 0 0-.086.167M15.43 14.783c.138.03.28.03.417 0 .16-.062.311-.141.454-.236a.227.227 0 0 0 .063-.295.907.907 0 0 0-.181-.213c-.127-.113-.268-.218-.408-.331.026-.062.049-.126.068-.19a.26.26 0 0 0-.136-.318 1.567 1.567 0 0 1-.453-.322.254.254 0 0 0-.34.063.227.227 0 0 0 0 .3c.127.14.267.267.453.453-.14.182-.036.382.068.577l-.258.258c.063.168.154.259.285.277M36.58 24.3c-.132-.355-.132-.355-.521-.559.008.086.008.173 0 .259a.25.25 0 0 0 .145.308c.064.03.13.055.199.073 0 .172-.04.308-.204.381-.045-.077-.073-.132-.109-.182a1.2 1.2 0 0 0-.104-.158.76.76 0 0 0-.14-.127.361.361 0 0 0-.39.058.323.323 0 0 0-.037.264c.08.188.174.37.282.544a.259.259 0 0 0 .108.086c.147.06.299.109.453.146.127.027.272 0 .336-.11a.675.675 0 0 1 .317-.267.63.63 0 0 0 .299-.331.639.639 0 0 0-.612-.386M26.592 28.805c.222.015.433.101.603.245a.303.303 0 0 0 .394.032.327.327 0 0 0 .15-.322.659.659 0 0 0 0-.096c0-.154-.082-.24-.24-.227a1.04 1.04 0 0 1-.594-.131.453.453 0 0 0-.268-.068.815.815 0 0 1-.453-.1h-.167a.699.699 0 0 1-.277.535s-.05.041-.068.064c-.122.14-.217.3-.118.454.1.154.259.145.454.1.05-.11.086-.2.13-.282.137-.236.205-.272.454-.222" fill="#A07761"/><path d="M27.738 30.239c.091-.182.1-.331 0-.454a.571.571 0 0 0-.285-.154 1.13 1.13 0 0 0-.372 0c-.14 0-.271.05-.421.077 0-.1-.027-.182-.04-.254a.277.277 0 0 0-.2-.24c-.132-.037-.209.054-.281.13a.502.502 0 0 0-.113.205.218.218 0 0 0 .145.304c.13.036.271.06.407.086a.307.307 0 0 1 0 .454.214.214 0 0 0 0 .268.363.363 0 0 0 .599 0c.075-.146.139-.298.19-.454l.371-.023M14.315 10.06h-.181a.477.477 0 0 0-.032.494.993.993 0 0 1 .453.2c.005.03.005.06 0 .09-.059.132-.199.137-.308.196-.213.104-.23.29-.045.453.061.051.13.093.204.123.118.04.285.072.353-.036.118-.196.39-.3.358-.581a.554.554 0 0 0-.068-.123c-.031-.05-.072-.095-.113-.154a1.06 1.06 0 0 1 .512-.413c.077-.04.06-.209 0-.245a.404.404 0 0 0-.177-.04 4.798 4.798 0 0 0-.512.067.543.543 0 0 1-.412-.022M25.916 10.863c.06-.086.073-.218.25-.218l.086.127a.344.344 0 0 0 .485.14c.145-.077.267 0 .403 0a.244.244 0 0 0 .3-.267.337.337 0 0 0-.141-.286c-.104-.063-.218-.113-.3-.154l-.575.204c-.09-.09-.163-.173-.245-.24-.226-.196-.362-.164-.512.1l-.072.126-.177.06-.172.063a.222.222 0 0 0-.086.354.452.452 0 0 0 .756 0M31.224 10.463c.108.035.212.084.308.146a.638.638 0 0 0 .716.054 2.06 2.06 0 0 1 .997-.236c.036 0 .09-.045.1-.082a.128.128 0 0 0-.032-.122c-.25-.19-.47-.418-.648-.676a4.687 4.687 0 0 0-.34-.331c-.036-.037-.104-.037-.204-.069.081.368.453.6.358.967-.295.172-.485 0-.653-.182a.625.625 0 0 0-.602.531ZM29.91 22.407c.121.059.257.1.398.154v.25c0 .276.222.399.453.263.13-.083.254-.174.372-.273.072.06.127.128.199.146a.75.75 0 0 0 .317 0 .209.209 0 0 0 .082-.345.34.34 0 0 0-.385-.109.272.272 0 0 1-.372-.132c.086-.06.168-.127.245-.2a.186.186 0 0 0 .031-.167.221.221 0 0 0-.145-.1 4.583 4.583 0 0 0-.707 0 1.921 1.921 0 0 0-.48.177.189.189 0 0 0-.086.154.205.205 0 0 0 .095.14M35.465 17.007c-.077-.182-.127-.313-.19-.454a.155.155 0 0 0-.24-.045 6.29 6.29 0 0 1-.548.454c-.141.136-.273.167-.413.054-.222-.177-.453-.086-.67-.036a.213.213 0 0 0-.082.35.453.453 0 0 0 .593.13.969.969 0 0 1 .53-.113c.084.08.173.153.268.218a.904.904 0 0 0 .3.132c.199.045.33-.123.267-.322 0-.041-.05-.078-.069-.123a.243.243 0 0 1 0-.082l.254-.163ZM17.456 9.075a1.33 1.33 0 0 0-.235.136.263.263 0 0 0-.082.204c.06.144.07.304.027.454-.036.145.086.231.2.29a.262.262 0 0 0 .308-.036c.09-.077.154-.172.086-.286a.3.3 0 0 1 0-.313c.078-.205.193-.395.34-.558.116-.126.222-.261.317-.404.05.006.1.015.15.027.1 0 .208.032.244-.068a.363.363 0 0 0 0-.267.735.735 0 0 0-.24-.214.186.186 0 0 0-.24.086c-.033.088-.06.177-.082.268l-.77.322v.359M5.77 5.526c.047 0 .095-.01.14-.027a.548.548 0 0 1 .593.159c.157.13.324.246.499.35a.349.349 0 0 0 .367 0 .504.504 0 0 0 .054-.123c.064-.327 0-.4-.317-.404a.507.507 0 0 1-.186 0c-.086-.032-.208-.082-.222-.145-.068-.254-.276-.282-.485-.331 0-.078-.007-.156-.022-.232a.259.259 0 0 0-.367-.186.453.453 0 0 0-.227.159c-.08.14-.136.294-.163.454a.323.323 0 0 0 .335.367M28.804 27.806a.313.313 0 0 0 .127-.413.33.33 0 0 0-.354-.176c-.109 0-.23.077-.322.045-.294-.09-.48.1-.688.227a.258.258 0 0 0 0 .413c.159.097.28.246.344.422a.453.453 0 0 0 .517.131c.185-.059.15-.213.127-.354v-.145c.09-.054.176-.095.249-.15ZM24.172 22.86a.276.276 0 0 0 .33-.117l.119-.205a.451.451 0 0 0 .697-.186c.06-.08.13-.151.209-.213 0-.245-.027-.49-.05-.735a.304.304 0 0 0-.308-.24c-.109 0-.154.05-.209.254a.35.35 0 0 1-.036.086h-.14a.298.298 0 0 0-.091.027c-.122.06-.154.172-.064.263.091.091.164.136.25.209l-.358.358a2.834 2.834 0 0 0-.453 0 .208.208 0 0 0-.155.29.295.295 0 0 0 .236.21M14.6 2.205c.227 0 .454-.027.708 0-.027.081-.032.136-.064.159-.031.022-.208.136-.154.258a.626.626 0 0 0 .227.223.87.87 0 0 0 .258.109.254.254 0 0 0 .335-.236c0-.114-.031-.246.06-.35a.862.862 0 0 1-.064-.109.453.453 0 0 0-.512-.322c-.077 0-.168-.059-.25-.104a2.635 2.635 0 0 0-.96-.3c-.118.177 0 .3.04.427.069.236.123.263.377.258M22.033 3.516a2.9 2.9 0 0 0-.354.046c-.349-.245-.453-.295-.752-.268a.453.453 0 0 0-.294.109 2.035 2.035 0 0 0-.232.454c0 .031 0 .095.046.131a.353.353 0 0 0 .566.032c.059-.073.082-.172.136-.25a.286.286 0 0 1 .345-.063.186.186 0 0 1 .058.25c0 .045-.05.081-.063.127a.368.368 0 0 0 .3.412.299.299 0 0 0 .316-.226c.041-.182.068-.372.095-.559a.19.19 0 0 0-.167-.195ZM25.441 17.424c0-.072.04-.181.09-.2.218-.072.091-.276.173-.403a.454.454 0 0 0 0-.454.454.454 0 0 0-.222-.218.792.792 0 0 0-.549.06c-.14.045-.154.185-.167.312a.783.783 0 0 1-.05.132c-.14.322-.136.331.154.517l.109.073c.04.454.04.454.453.4a1.84 1.84 0 0 1 0-.219M33.598 24.017c.423.134.868.18 1.31.137a.935.935 0 0 0 .253-.114c-.126-.231-.371-.213-.566-.354 0-.059 0-.104.023-.15a.566.566 0 0 0 .036-.186c.004-.063-.095-.186-.222-.172-.127.014-.286.182-.408.322a3.166 3.166 0 0 0-.267-.113.316.316 0 0 0-.354.04.381.381 0 0 0-.059.4.332.332 0 0 0 .254.19ZM18.993 5.213c0-.231-.06-.322-.295-.308a.815.815 0 0 0-.276.059.25.25 0 0 0-.163.259c0 .25.022.499.036.757a1.546 1.546 0 0 0-.172.214.387.387 0 0 0 .356.586.209.209 0 0 0 .174-.196v-.331l.313-.218c0-.15 0-.29.022-.454v.027c0-.131 0-.263.027-.39M23.706 14.76l-.132-.321c.453-.127.517-.454.544-.822a.17.17 0 0 0-.032-.136.172.172 0 0 0-.122-.068.304.304 0 0 0-.209.064c-.09.108-.17.225-.24.35-.077.099-.137.21-.177.33a.91.91 0 0 0 .05.327c-.113 0-.204.027-.294.032-.09.004-.254 0-.376 0-.209 0-.24.082-.222.408.207.053.418.096.63.127a.507.507 0 0 0 .58-.277M20.51 14.688a.335.335 0 0 0 .132-.036.219.219 0 0 0 0-.359c-.118-.104-.258-.186-.363-.295a.223.223 0 0 1 .114-.367c.054 0 .122 0 .18-.046.06-.045.137-.19.064-.326-.072-.136-.217-.19-.312-.091-.178.15-.364.289-.558.417a.762.762 0 0 0-.294.481c.248.236.529.435.834.59a.42.42 0 0 0 .185.032M15.81 10.85a.37.37 0 0 1 .427.194c0 .037.077.05.122.073a.29.29 0 0 0 .38-.073.31.31 0 0 0 .041-.426c-.163-.232-.385-.404-.552-.64-.168-.236-.454-.132-.576.15-.032.086-.086.163-.122.25a.386.386 0 0 0 .086.417c.06.032.126.051.195.054ZM16.377 17.878a.285.285 0 0 0 .336-.109.254.254 0 0 0-.041-.34 1.072 1.072 0 0 1-.277-.58.453.453 0 0 0-.39-.355.417.417 0 0 0-.389.345c0 .086-.05.172-.077.254l.054.168a1.035 1.035 0 0 0 .784.617ZM28.659 14.824a.177.177 0 0 0 .059-.163 1.08 1.08 0 0 1 .086-.822c.027-.059 0-.14 0-.272-.313.154-.657.136-.789.513l.254.336a.549.549 0 0 1-.34.454.194.194 0 0 0-.05.317.354.354 0 0 0 .453.127c.105-.027.186-.127.308-.068-.108-.154-.145-.295.037-.454M27.933 22.098c.032.058.067.114.105.168.122.09.244.19.38.272a.24.24 0 0 0 .363-.1.676.676 0 0 1 .544-.399.394.394 0 0 0 .294-.218.2.2 0 0 0-.032-.258c-.276-.259-.539-.204-.702.14 0 .032 0 .078-.027.091a.452.452 0 0 1-.209.086c-.09 0-.172-.072-.262-.086a.85.85 0 0 0-.322 0 .213.213 0 0 0-.132.304ZM30.548 31.745c-.28-.04-.412.177-.566.345a.3.3 0 0 0-.032.386.263.263 0 0 0 .38.032c.25-.185.557-.274.867-.25a.29.29 0 0 0 .317-.227c0-.068.027-.136.04-.208a.907.907 0 0 0-1.006-.078ZM6.793 4.982c.079.052.173.077.267.073.185-.033.365-.085.54-.155a.222.222 0 0 0 .122-.177 2.126 2.126 0 0 1 .022-.794c0-.095-.072-.181-.172-.181a.801.801 0 0 0-.589.272c0 .123.027.25.04.39-.122.073-.194.105-.253.15a.236.236 0 0 0 .023.422ZM18.965 14.965l.54.118c-.069.104-.11.172-.155.231a.282.282 0 0 0-.027.272.322.322 0 0 0 .276.223.362.362 0 0 0 .386-.123c.081-.113.154-.236.226-.354a.21.21 0 0 0-.007-.234.208.208 0 0 0-.06-.056c-.1-.05-.205-.077-.309-.118l-.077-.05a6.027 6.027 0 0 0-.077-.272.552.552 0 0 0-.548-.032.354.354 0 0 0-.168.395ZM27.856 26.863a.304.304 0 0 1 .3 0 .312.312 0 0 0 .176.054.303.303 0 0 0 .168-.063.405.405 0 0 0 .072-.454c-.077-.114-.195-.082-.299-.064l-.24.046c-.181-.268-.453-.259-.72-.259a.33.33 0 0 0-.331.222.314.314 0 0 0 .163.354.774.774 0 0 0 .711.123M9.045 10.482c-.226-.3-.58-.259-.906-.318-.059 0-.145.055-.204.1-.059.045-.131.14-.2.2-.067.059-.08 0-.122 0a.94.94 0 0 1 .09.1c.178.254.268.285.55.199l.208-.072c.092.156.194.308.303.453.123.15.204.145.454.032-.041-.195-.078-.39-.123-.585a.372.372 0 0 0-.063-.127M8.479 5.921a.326.326 0 0 0 .33-.136c.091-.109 0-.204-.027-.322a.767.767 0 0 0 .127-.118.213.213 0 0 0 0-.331 3.72 3.72 0 0 0-.303-.295 1.023 1.023 0 0 0-.268-.077c-.06.28-.21.533-.426.721a.454.454 0 0 0-.045.082.173.173 0 0 0 .054.25c.18.093.368.169.562.226M9.44 7.396a.367.367 0 0 1 .081.045c-.027.236 0 .245-.172.336-.172.091-.163.105-.159.213a.386.386 0 0 0 .236.327.299.299 0 0 0 .353-.05c.073-.059.127-.136.195-.2.204-.19.245-.317.082-.526a1.97 1.97 0 0 1-.308-.626 2.566 2.566 0 0 0-.345.068.258.258 0 0 0-.176.254c0 .114.117.136.213.159ZM33.349 17.737a.53.53 0 0 0-.399.223c-.1.122-.027.231.032.345a.41.41 0 0 1 .027.145c-.159.072-.322.127-.453.209a.212.212 0 0 0-.086.302c.02.034.05.061.086.079l.226.145.368-.082.19-.35c.027-.054.081-.117.068-.163a.396.396 0 0 1 .131-.417.294.294 0 0 0 .055-.127c.031-.136-.091-.313-.213-.309M21.97 10.604a.331.331 0 0 0 .426.318c.263-.046.186-.34.358-.454.05-.036.036-.172.036-.263a.19.19 0 0 0-.077-.114 3.905 3.905 0 0 1-.68-.394c-.045-.032-.145 0-.19 0-.136.122-.172.295-.063.4a.69.69 0 0 1 .19.498M7.427 10.513a.493.493 0 0 0-.52.19c.085.192.171.391.262.582a.173.173 0 0 0 .1.095c.205.068.416.117.63.145a.226.226 0 0 0 .235-.245.227.227 0 0 0-.045-.118.908.908 0 0 0-.159-.168.908.908 0 0 1-.308-.508c-.05.1-.122.045-.195.027ZM26.42 22.456a.335.335 0 0 0 .354-.249c.044-.084.097-.163.158-.236.114.1.2.19.3.263a.241.241 0 0 0 .335-.059.24.24 0 0 0-.118-.354 2.141 2.141 0 0 0-.363-.072c.028-.096.05-.193.068-.29a.132.132 0 0 0-.163-.123.646.646 0 0 0-.163.095c-.231.209-.453.427-.693.644.022.232.086.368.285.381ZM27.893 9.247c.091-.037.18-.08.267-.127a.359.359 0 0 1 .209-.426c.081-.041.158-.095.276-.168l-.33-.331a.222.222 0 0 0-.263-.037.38.38 0 0 0-.182.141.762.762 0 0 1-.39.381.258.258 0 0 0-.072.404.371.371 0 0 0 .485.163ZM16.99 3.598a.654.654 0 0 1-.453.549.209.209 0 0 0 0 .377.453.453 0 0 0 .317 0c.198-.09.381-.21.544-.354.136-.138.258-.29.362-.454-.045-.06-.077-.14-.136-.173a3.612 3.612 0 0 0-.385-.163c-.118.032-.258.064-.277.204M15.562 9.302V8.98c-.182-.041-.336-.068-.485-.11a.34.34 0 0 0-.386.1.368.368 0 0 0-.04.454c.043.1.116.186.208.245a.625.625 0 0 0 .625.073c.177-.086.096-.277.096-.427M24.96 12.596a.576.576 0 0 1 .43-.113.217.217 0 0 0 .2-.211.218.218 0 0 0-.022-.102.073.073 0 0 0 0-.041.681.681 0 0 1-.223-.454.291.291 0 0 0-.376-.186c-.113.04-.131.195-.04.368 0 0 .027.022.031.036l.046.227c-.232.081-.521.045-.558.417.181.118.367.186.535.05M5.234 7.196a.358.358 0 0 0-.15.114 7.823 7.823 0 0 0-.308.354.381.381 0 0 0-.036.095c0 .095.05.2.077.309-.06.063-.123.113-.168.172a.2.2 0 0 0-.054.127.336.336 0 0 0 .294.318.28.28 0 0 0 .295-.25 1.667 1.667 0 0 0-.06-.322c.078-.114.291-.127.264-.3-.027-.172.14-.25.145-.39 0-.076-.03-.149-.082-.204a.317.317 0 0 0-.217 0M29.52 9.338c.17-.073.348-.13.53-.168.104-.027.204-.066.299-.118.027 0 .027-.127 0-.159a.3.3 0 0 0-.168-.072c-.372-.027-.743-.06-1.12-.077a.453.453 0 0 0-.18.054.267.267 0 0 0-.087.327.535.535 0 0 0 .725.213ZM27.004 17.987c.131-.012.261-.032.39-.06a.66.66 0 0 0 .453.269.226.226 0 0 0 .236-.309.907.907 0 0 0-.308-.422l-.454.123a1.102 1.102 0 0 1-.122-.146c-.059-.09-.095-.217-.236-.19-.14.027-.145.15-.185.25a1.13 1.13 0 0 0-.046.131.273.273 0 0 0 .263.354M35.864 22.393c-.15.05-.154.186-.204.304-.09-.009-.181-.009-.272 0a.29.29 0 0 0-.176.477.362.362 0 0 0 .503.059c.064-.055.125-.114.181-.177h.399a.968.968 0 0 0 .022-.554.454.454 0 0 0-.453-.09M13.205 7.128c.14.006.276.044.4.11.29.153.484.035.538-.287a.214.214 0 0 0-.23-.277c-.137 0-.277.078-.409-.031a.485.485 0 0 0-.648 0c0 .345.064.453.35.476M30.956 9.737c.313.182.549 0 .784-.14a.187.187 0 0 0-.045-.309 1.467 1.467 0 0 0-.362-.09.724.724 0 0 0-.358.05c-.078.04-.11.172-.168.271h-.358c-.127 0-.168.087-.159.241.007.045.019.09.037.132a.552.552 0 0 0 .63-.164M6.517 8.05c-.204.05-.385.09-.562.145a.15.15 0 0 0-.09.195.327.327 0 0 0 .271.286h.204c.109.109.19.204.286.281a.349.349 0 0 0 .358 0 .218.218 0 0 0 0-.3c-.14-.204-.3-.39-.453-.598M22.803 14.198a.195.195 0 0 0 .068-.336c-.036-.036-.068-.077-.109-.086a.584.584 0 0 1-.453-.454c-.128.02-.253.05-.376.091a.272.272 0 0 0-.082.454c.159.149.337.274.53.372.134.04.276.04.409 0M26.832 16.675c.133.012.267.012.4 0 .04-.136.072-.222.199-.267.271-.096.539-.218.561-.59a.267.267 0 0 0-.33 0 .651.651 0 0 1-.544.1c-.204.131-.109.335-.168.485h-.249a.114.114 0 0 0-.085.135c.004.019.013.037.026.051.059.05.122.118.19.123M22.418 17.91c-.109-.046-.226-.082-.34-.123l-.2.323c-.149.063-.271.1-.375.158a.246.246 0 0 0-.082.368.35.35 0 0 0 .594.054c.07-.099.133-.202.19-.308l.2-.041a.19.19 0 0 0 .19-.182.24.24 0 0 0-.177-.25ZM14.904 19.761a.168.168 0 0 0 .209.145.906.906 0 0 0 .426-.177c.12-.159.221-.333.299-.517a.128.128 0 0 0 0-.09.3.3 0 0 0-.209-.237c-.14-.036-.407.087-.426.218-.018.132-.067.336-.294.381a1.133 1.133 0 0 0 0 .277M31.88 19.52c-.19.069-.38.141-.561.223a.363.363 0 0 0-.222.29c0 .066.01.132.027.196l.059.054a.647.647 0 0 0 .67 0 .772.772 0 0 0 .277-.576.218.218 0 0 0-.25-.168M17.737 10.786a.413.413 0 0 0-.489-.286.403.403 0 0 0-.209.127v.363a.386.386 0 0 0 .082.213.644.644 0 0 0 .643.195.203.203 0 0 0 .16-.205.204.204 0 0 0-.024-.09 3.2 3.2 0 0 1-.186-.317M30.71 8.735c.07.037.148.056.227.054a.765.765 0 0 1 .485.127.303.303 0 0 0 .367-.027c-.172-.3-.321-.6-.711-.608-.163 0-.172-.164-.313-.227-.063.113-.122.204-.172.3a.245.245 0 0 0 .118.38ZM16.854 2.958c.145.145.208.359.412.427l.159-.19a3.044 3.044 0 0 1-.35-.387 1.604 1.604 0 0 0-.58-.453.412.412 0 0 0-.507.036l.454.594h.407M34.917 24.998a.245.245 0 0 0 0-.4 4.102 4.102 0 0 0-.612-.222.33.33 0 0 0-.34.2.25.25 0 0 0 .104.327c.1.072.222.117.322.186.227.145.349.086.544-.091M28.953 17.379c-.109-.114-.208-.213-.163-.395 0-.05-.068-.14-.127-.172a.78.78 0 0 0-.272-.073.254.254 0 0 0-.272.14.245.245 0 0 0 .05.3c.177.132.367.245.385.454l.06.054a.281.281 0 0 0 .38 0c.09-.086.09-.195-.041-.33M28.93 22.81a.38.38 0 0 0-.267 0c-.109.023-.14.191-.023.305l.163.081c.099.044.194.094.286.15a.558.558 0 0 0 .784-.105.24.24 0 0 0 0-.263c-.036-.086-.113-.1-.195-.1a.704.704 0 0 0-.136.023.697.697 0 0 1-.625-.081M13.496 9.738c.2-.021.403.015.584.104a.262.262 0 0 0 .209-.055.2.2 0 0 0 .031-.172.731.731 0 0 0-1.083-.345.212.212 0 0 0-.04.046.491.491 0 0 0-.023.122c.032.15.177.313.322.3ZM21.249 11.811c-.09 0-.222.041-.25.104a.48.48 0 0 1-.385.295c-.077 0-.145.114-.208.182a.158.158 0 0 0 0 .196.157.157 0 0 0 .054.044.453.453 0 0 0 .594-.095c.059-.068.064-.181.177-.2.235-.04.276-.222.317-.394a.268.268 0 0 0-.3-.132ZM15.117 3.226a.25.25 0 0 0-.086-.295c-.059-.05-.127-.095-.185-.136-.06-.041-.055-.082-.087-.118a1.816 1.816 0 0 0-.122-.14.163.163 0 0 0-.272.05 8.683 8.683 0 0 0-.163.485c-.05.163.04.272.213.276h.453c.095 0 .195 0 .231-.122M30.395 30.942c.044.044.099.076.158.096.15.045.3.081.453.118a.2.2 0 0 0 .259-.146c.059-.172.108-.349.176-.567a.453.453 0 0 0-.163-.032c-.265.089-.538.15-.815.182-.127 0-.173.254-.064.35M8.048 6.316a.168.168 0 0 0 0 .281.28.28 0 0 0 .308.023c.102-.066.2-.137.295-.213.122.042.248.075.376.1a.23.23 0 0 0 .258-.164.332.332 0 0 0-.036-.258.295.295 0 0 0-.25-.082c-.276.054-.543.14-.81.218a.512.512 0 0 0-.16.095M28.042 12.705a.244.244 0 0 0-.208.222.286.286 0 0 0 .195.245.34.34 0 0 0 .186.028.452.452 0 0 1 .453.081c.109.082.263-.036.236-.177-.028-.14-.032-.24-.046-.376a1.624 1.624 0 0 0-.834-.023M33.013 11.376a.358.358 0 0 0 .453.19c.172-.1.331-.218.512-.336l-.081-.172c-.114-.227-.231-.272-.453-.159-.123.064-.25.127-.367.195a.208.208 0 0 0-.091.282M29.338 25.733c-.041-.15-.09-.295-.15-.477a1.155 1.155 0 0 0-.752.227.177.177 0 0 0-.032.168.453.453 0 0 0 .195.19c.162.054.327.098.494.132.168.037.29-.081.245-.24ZM16.268 15.9a.452.452 0 0 0-.172.081c-.113.118-.122.25-.027.318.07.06.158.096.25.104.294 0 .588-.054.906-.09a.09.09 0 0 0 .059-.041.27.27 0 0 0-.023-.132.145.145 0 0 0-.063-.063 1.716 1.716 0 0 0-.907-.16M15.367 3.807a.19.19 0 0 0-.131.29.412.412 0 0 0 .108.15c.17.117.375.173.58.159a.267.267 0 0 0 .2-.363 2.215 2.215 0 0 0-.2-.286c-.213 0-.385.023-.557.05ZM32.026 18.087c-.269.037-.526.13-.757.272-.036.078-.063.16-.081.245 0 .082.13.159.253.163a.815.815 0 0 0 .744-.404c.067-.104-.037-.294-.16-.276ZM7.613 7.242a.167.167 0 0 0-.132 0c-.104.072-.194.154-.276.218a2.158 2.158 0 0 0-.25.25.232.232 0 0 0 .06.362.371.371 0 0 0 .362.04.281.281 0 0 0 .132-.117 7.68 7.68 0 0 0 .163-.635.174.174 0 0 0-.06-.114M23.139 10.849c.15.04.308.054.453.1a.33.33 0 0 0 .372-.132.273.273 0 0 0 .054-.304.314.314 0 0 0-.313-.172.384.384 0 0 0-.176.054 1.046 1.046 0 0 1-.535.155c-.06.2.027.267.14.299M5.348 6.289c.05-.309.05-.309 0-.454a.286.286 0 0 0-.49-.113.749.749 0 0 0-.172.272.268.268 0 0 0 .277.376c.13-.02.26-.053.385-.095M12.082 6.493l.122-.327c.073-.204-.04-.344-.254-.295-.213.05-.349.123-.498.173-.086.186-.064.322.063.413a.575.575 0 0 0 .567.036ZM30.616 13.517s0 .023.055.06a.419.419 0 0 0 .19 0 .14.14 0 0 0 .082-.196 3.297 3.297 0 0 1-.2-.717v-.045a.181.181 0 0 0-.308-.036 2.065 2.065 0 0 0-.15.453.172.172 0 0 0 .078.155c.185.036.24.163.267.326M6.435 6.289a.453.453 0 0 1-.25-.363c0-.027-.04-.046-.067-.073-.222.041-.277.227-.345.4-.068.172-.027.317.145.38.119.042.242.068.367.078a.23.23 0 0 0 .232-.132.218.218 0 0 0-.082-.29ZM30.163 24.054c.268.014.535-.043.775-.163.027 0 .027-.11 0-.16a.156.156 0 0 0-.104-.086 5.53 5.53 0 0 0-.594-.122.605.605 0 0 0-.235.059c-.145.177-.046.454.15.454M28.767 18.436c-.027 0-.059-.027-.086 0a.584.584 0 0 0-.453.354.287.287 0 0 0 .113.404.413.413 0 0 0 .544-.104.172.172 0 0 0 0-.132.486.486 0 0 1-.077-.454s-.032-.05-.05-.072M29.891 17.683c.032-.046-.054-.132-.104-.118a.62.62 0 0 0-.453.717.264.264 0 0 0 .14.172c.145.037.304.096.454 0 0-.04.022-.081 0-.1a.581.581 0 0 1-.041-.657M19.332 13.676a.15.15 0 0 0 .02-.193.15.15 0 0 0-.052-.047 2.45 2.45 0 0 0-.362-.077.407.407 0 0 0-.358.081.42.42 0 0 0-.136.377c.354.209.616 0 .906-.14M27.317 9.67a.195.195 0 0 0 .118-.128.19.19 0 0 0-.06-.163 4.132 4.132 0 0 0-.602-.254c-.072 0-.172.036-.294.063.022.105 0 .214.058.268a.757.757 0 0 0 .78.213ZM16.885 14.407a.222.222 0 0 0 0 .3.354.354 0 0 0 .426.103c.098-.048.192-.104.281-.167a.164.164 0 0 0 0-.277.584.584 0 0 0-.698.04M31.178 19.126a1.454 1.454 0 0 0-.362-.209.282.282 0 0 0-.222.041.666.666 0 0 0-.19.2.177.177 0 0 0 .063.245.452.452 0 0 0 .222.068c.168 0 .335-.05.575-.086-.04-.128-.04-.223-.086-.26ZM28.16 10.282c.05-.027.114-.154.09-.186a3.497 3.497 0 0 1-.303-.5c0-.026-.086-.045-.122-.036-.084.02-.166.05-.245.087v.322a.364.364 0 0 0 .562.313M12.603 9.465a.453.453 0 0 0-.254.368.277.277 0 0 0 .14.277.326.326 0 0 0 .34-.046l.095-.122c.123-.155.145-.29.073-.381a.453.453 0 0 0-.394-.096ZM17.067 8.263a.34.34 0 0 0 .607-.164c.032-.118.1-.254 0-.358-.1-.105-.231 0-.34.05l-.25.131a.254.254 0 0 0 0 .34M7.024 6.52c-.131.077-.258.164-.408.259.02.079.045.156.077.231.02.042.05.08.086.11a.294.294 0 0 0 .454-.073c.045-.082.08-.169.104-.259a.214.214 0 0 0-.068-.25.226.226 0 0 0-.263 0M31.944 31.523c-.204 0-.281.159-.377.29.088.106.182.206.281.3.145.118.313.081.453-.082a.276.276 0 0 0-.058-.413.598.598 0 0 0-.304-.095M33.349 26.4c-.055 0-.141.032-.177.04-.145.146-.136.327 0 .391.174.067.355.114.54.14a.223.223 0 0 0 .176-.113.232.232 0 0 0-.045-.213 2.832 2.832 0 0 0-.499-.245M34.16 13.295a.495.495 0 0 1 .317-.404c-.181-.159-.24-.186-.317-.132a8.752 8.752 0 0 0-.517.4.2.2 0 0 0 0 .254c.154.123.453.068.508-.118M32.66 26.078a1.97 1.97 0 0 0 .454-.073.128.128 0 0 0 .081-.1c0-.036 0-.086-.036-.159-.181-.054-.372-.122-.567-.163a.177.177 0 0 0-.226.118.35.35 0 0 0 .05.263.346.346 0 0 0 .24.114M22.22 16.44c-.214.122-.24.285-.078.453a.331.331 0 0 0 .39.118.29.29 0 0 0 .15-.317c0-.327-.177-.413-.454-.245M29.351 12.565a.33.33 0 0 0-.127.176.204.204 0 0 0 .096.24.452.452 0 0 0 .499.034.254.254 0 0 0 .072-.083.631.631 0 0 0 0-.227.494.494 0 0 0-.54-.14ZM17.578 7.219c.186-.073.286-.195.272-.336a.491.491 0 0 0-.05-.127.58.58 0 0 0-.453-.063.263.263 0 0 0-.145.453.29.29 0 0 0 .372.091M33.715 25.152a.493.493 0 0 0-.453.123c0 .05-.054.145-.027.217a.326.326 0 0 0 .177.196.326.326 0 0 0 .453-.218c.09-.19.036-.304-.159-.318M22.01 15.74a.213.213 0 0 0 .213-.249.369.369 0 0 0-.375-.357.368.368 0 0 0-.182.053.208.208 0 0 0-.125.261.21.21 0 0 0 .057.089.586.586 0 0 0 .412.204ZM16.214 6.851a.29.29 0 0 0 .313-.154.399.399 0 0 0-.095-.4.335.335 0 0 0-.354.028c-.095.054-.208.109-.185.24.01.077.047.148.104.2a.453.453 0 0 0 .217.086ZM23.728 18.382c-.027-.04-.104-.09-.15-.077a.272.272 0 0 0-.172.122.453.453 0 0 0 .073.454.363.363 0 0 0 .407.073c.073-.037.068-.15 0-.29a2.156 2.156 0 0 0-.154-.287M22.35 12.837c-.031.063 0 .172.023.218a.427.427 0 0 0 .498.167.27.27 0 0 0 .155-.159.235.235 0 0 0-.068-.204.993.993 0 0 0-.381-.154.285.285 0 0 0-.227.132ZM24.05 16.621a.489.489 0 0 0-.421.122c-.069.078-.001.269.099.364.061.026.125.047.19.063a.276.276 0 0 0 .322-.204.263.263 0 0 0-.19-.327M17.737 22.17a.214.214 0 0 0-.082.25.304.304 0 0 0 .277.214.204.204 0 0 0 .222-.137c.045-.113.081-.23.127-.367a.379.379 0 0 0-.544.04ZM20.574 24.272a.249.249 0 0 0 .313-.263.954.954 0 0 0-.045-.227.2.2 0 0 0-.227-.127 1.603 1.603 0 0 0-.172.081c-.109.11-.177.195-.145.322a.304.304 0 0 0 .276.214ZM15.653 18.64a.29.29 0 0 0 0-.38.411.411 0 0 0-.476-.028.304.304 0 0 0 .027.422.362.362 0 0 0 .43 0M35.837 16.004a.6.6 0 0 0-.209.082l-.095.104a.195.195 0 0 0 .064.318.588.588 0 0 0 .267.054.272.272 0 0 0 .254-.286.295.295 0 0 0-.281-.272ZM19.49 20.224a.277.277 0 0 0-.294.11c-.086.104-.059.244.073.371l.072.06a.2.2 0 0 0 .33-.119.851.851 0 0 0 0-.186.254.254 0 0 0-.194-.236M10.137 3.03a2.85 2.85 0 0 0-.217.4c0 .032 0 .086.027.14.056.027.113.05.172.069a.249.249 0 0 0 .336-.3 1.14 1.14 0 0 0-.082-.268.145.145 0 0 0-.236-.04ZM23.357 15.677c.108-.059.208-.136.33-.217a.449.449 0 0 0 0-.123.131.131 0 0 0-.063-.068.53.53 0 0 0-.625.177.186.186 0 0 0 0 .172c.043.06.108.1.181.114a.453.453 0 0 0 .222-.055" fill="#A07761"/><path d="M28.83 14.842a.277.277 0 0 0-.162.15.848.848 0 0 0-.041.268c.118-.095.227 0 .34 0a.411.411 0 0 0 .394-.204.154.154 0 0 0-.037-.218.155.155 0 0 0-.076-.027 1.607 1.607 0 0 0-.417 0M26.91 13.617a.33.33 0 0 0 .163-.313c-.032-.2-.281-.336-.417-.222a.454.454 0 0 0-.181.363c.002.04.013.078.031.113a.38.38 0 0 0 .404.06ZM32.691 19.852a.655.655 0 0 0 .231 0 .208.208 0 0 0 .136-.327 3.471 3.471 0 0 0-.322-.313 2.725 2.725 0 0 0-.221.34.218.218 0 0 0 .176.314M33.036 25.102a.282.282 0 0 0 .064-.34c-.055-.14-.181-.163-.308-.168a.231.231 0 0 0-.259.159.69.69 0 0 0 .032.267.394.394 0 0 0 .453.082M16.029 9.012a.272.272 0 0 0 .267-.164c.037-.086.068-.172.1-.254-.04-.05-.068-.104-.109-.113a.507.507 0 0 0-.534.195.15.15 0 0 0 0 .131.345.345 0 0 0 .29.205M12.96 6.03c.004.07.02.14.046.204.116.032.234.054.354.068a.24.24 0 0 0 .213-.213.318.318 0 0 0-.227-.313.34.34 0 0 0-.385.254ZM31.056 15.972a.25.25 0 0 0-.09.286.304.304 0 0 0 .357.145h.046a.21.21 0 0 0 .09-.367l-.027-.027a.258.258 0 0 0-.376 0M26.297 12.12a.454.454 0 0 0-.376.118c-.118.127-.086.258.027.308a.398.398 0 0 0 .453-.04.278.278 0 0 0 .091-.2.186.186 0 0 0-.177-.186M22.142 12.9a.214.214 0 0 0 0-.354c-.177-.104-.344-.072-.54.114 0 .04-.026.136 0 .177a.412.412 0 0 0 .55.063M17.04 12.982a.245.245 0 0 0-.1.413.258.258 0 0 0 .303.063.29.29 0 0 0 .204-.231.402.402 0 0 0-.036-.15.345.345 0 0 0-.372-.095ZM34.64 18.264a.308.308 0 0 0-.367.127.245.245 0 0 0 .077.322c.073.021.147.036.222.045a.235.235 0 0 0 .231-.195.263.263 0 0 0-.163-.3ZM13.536 4.02a.285.285 0 0 0 .3-.177.259.259 0 0 0 0-.209.373.373 0 0 0-.527.027.62.62 0 0 0 0 .182.25.25 0 0 0 .245.177M22.106 11.78c.127-.064.1-.178.086-.286a.856.856 0 0 0-.036-.182.154.154 0 0 0-.19-.086l-.132.072c-.14.137-.159.236-.086.359a.281.281 0 0 0 .358.122ZM29.8 13.63a.7.7 0 0 0-.171.073 1 1 0 0 0-.091.105.757.757 0 0 0-.045.082.173.173 0 0 0 .15.267.398.398 0 0 0 .262-.054.35.35 0 0 0 .05-.395.2.2 0 0 0-.154-.077ZM12.403 4.769a.204.204 0 0 0 .263-.132.674.674 0 0 0 0-.222l-.14-.114a.24.24 0 0 0-.331.036.209.209 0 0 0 .036.323c.057.049.123.086.195.109M25.7 22.384a.778.778 0 0 0-.06.2.323.323 0 0 0 .342.282.322.322 0 0 0 .153-.05.227.227 0 0 0 .068-.164.246.246 0 0 0-.186-.24 1.18 1.18 0 0 0-.317-.028ZM14.515 4.02a.181.181 0 0 0-.082.322.371.371 0 0 0 .508.032.146.146 0 0 0 0-.204.363.363 0 0 0-.454-.15M25.935 15.754c.1.035.207.047.312.037a.185.185 0 0 0 .131-.217.282.282 0 0 0-.494-.083.168.168 0 0 0 .046.273M25.01 15.818c0-.077-.09-.154-.195-.154a.652.652 0 0 0-.412.127.455.455 0 0 0 0 .172.213.213 0 0 0 .15.086.856.856 0 0 0 .321-.05.286.286 0 0 0 .118-.181M21.06 12.864a.235.235 0 0 0-.042.3.393.393 0 0 0 .453.027.25.25 0 0 0 0-.304.308.308 0 0 0-.42 0M25.273 14.91c.01-.095.01-.19 0-.285a.538.538 0 0 0-.453.09.191.191 0 0 0 0 .286.267.267 0 0 0 .453-.09ZM25.894 27.997a.2.2 0 0 0 .118-.122.296.296 0 0 0-.032-.15.517.517 0 0 0-.54-.109.103.103 0 0 0-.045.077c0 .204.182.236.318.3a.29.29 0 0 0 .181.027M25.215 13.368a.294.294 0 0 0-.453-.069.186.186 0 0 0 .072.305.941.941 0 0 0 .276 0 .158.158 0 0 0 .144-.169.158.158 0 0 0-.026-.077M27.186 15.187a.263.263 0 0 0-.209 0 .212.212 0 0 0-.108.236.151.151 0 0 0 .096.136.15.15 0 0 0 .058.01h.33a.309.309 0 0 0-.167-.396M23.27 10.028a.29.29 0 0 0 .223 0c.092-.077.175-.164.249-.259a.417.417 0 0 0-.535-.04.2.2 0 0 0-.072.154.267.267 0 0 0 .136.168M23.715 17.501c-.136 0-.145.146-.177.245a.455.455 0 0 0 0 .187c0 .081.063.15.154.14.092-.015.183-.036.272-.063 0-.114-.036-.205-.059-.295-.045-.173-.104-.232-.195-.214M26.41 13.926a.422.422 0 0 0-.416-.132.239.239 0 0 0-.103.253.24.24 0 0 0 .04.087.294.294 0 0 0 .303.073.642.642 0 0 0 .131-.045.154.154 0 0 0 .046-.236ZM18.045 24.59a.3.3 0 0 0 0-.31.304.304 0 0 0-.385.028.227.227 0 0 0 0 .3.28.28 0 0 0 .38 0M26.076 13.345c.063-.109 0-.204-.06-.318a.388.388 0 0 0-.348.146c-.032.045-.06.127-.037.163a.264.264 0 0 0 .164.127.258.258 0 0 0 .28-.118ZM5.954 6.97a.168.168 0 0 0-.045-.16 3.845 3.845 0 0 0-.408-.23c-.05.09-.104.14-.104.194a.204.204 0 0 0 .068.164c.11.055.227.095.349.118a.168.168 0 0 0 .14-.086ZM26.687 5.122c.104 0 .154-.09.177-.186a.186.186 0 0 0-.154-.2c-.154-.036-.2 0-.331.228a.281.281 0 0 0 .308.158ZM13.605 10.595a.245.245 0 0 0 0 .336.222.222 0 0 0 .294 0 .195.195 0 0 0 0-.29.213.213 0 0 0-.285-.05M23.465 17.224a.232.232 0 0 0-.33-.022.177.177 0 0 0 0 .25.29.29 0 0 0 .34-.023.155.155 0 0 0 0-.204M27.313 13.522a.172.172 0 0 0-.204.063.182.182 0 0 0 .068.241.294.294 0 0 0 .335-.045c-.118-.227-.122-.236-.2-.259ZM26.275 14.865s.036-.1 0-.118a.745.745 0 0 0-.213-.163c-.041 0-.11 0-.14.027-.082.095-.06.254 0 .263.103.016.208.016.312 0M31.55 31.096a.378.378 0 0 0 0 .155c.045.072.227.027.276-.073a.137.137 0 0 0-.027-.123.187.187 0 0 0-.217-.012.186.186 0 0 0-.055.053M35.633 28.56c.05.118.059.2.104.236a.113.113 0 0 0 .19-.041.16.16 0 0 0-.036-.15c-.054-.036-.131-.027-.258-.045ZM28.949 33.134h.081a.393.393 0 0 0 0-.127h-.136a.57.57 0 0 0 .046.14M14.148 3.752c0 .023 0 .06.032.073.032.013.05 0 .073-.023a.164.164 0 0 0-.037-.068h-.068" fill="#A07761"/></svg>