<svg width="41" height="38" fill="none" xmlns="http://www.w3.org/2000/svg"><path fill-rule="evenodd" clip-rule="evenodd" d="M1.817 14.33a1.976 1.976 0 0 1 1.2-2.278c4.769-1.875 19.014-7.372 22.986-7.718 3.138-.274 6.093.042 7.76.292.843.127 1.469.81 1.567 1.657.277 2.4.837 7.358 1.143 10.841.293 3.343 2.232 9.393 3.358 12.689.407 1.192-.354 2.473-1.599 2.67L8.79 37.12a2 2 0 0 1-2.265-1.544L1.817 14.329Z" fill="#FFE180"/><path fill-rule="evenodd" clip-rule="evenodd" d="M34.053 30.052c.04-.015.08-.026.122-.036.618-.149 1.028-.697.921-1.248l-.628-3.248-.418-2.157-.52-2.687a.882.882 0 0 1-.011-.069l-.273-2.383-.596-3.571a.876.876 0 0 0-.02-.092l-.715-2.57a.897.897 0 0 0-1.034-.639l-1.873-.005a20.272 20.272 0 0 0-7.384 1.37l-2.154.835c-.52.1-1.05.152-1.58.153l-2.31.006a11.258 11.258 0 0 0-4.072.774l-3.035 1.187-4.314.832a.894.894 0 0 0-.71 1.048l.14.717.413 2.14.437 2.255a.9.9 0 0 1 .014.105l.153 2.108c.003.044.01.089.02.132l.506 2.235a.89.89 0 0 1 .02.134l.154 2.177c.004.065.016.13.035.192l1.341 4.499c.106.547.683.902 1.307.818a.804.804 0 0 0 .151-.038l3.095-1.058a.886.886 0 0 1 .096-.027l3.624-.807a.912.912 0 0 1 .139-.02l4.434-.28a.908.908 0 0 0 .113-.014l2.627-.507a.892.892 0 0 1 .183-.016l3.51.053c.07.001.14-.006.208-.02l4.395-.97a.876.876 0 0 0 .124-.037l3.365-1.271ZM2.28 11.507l.43 2.223a.896.896 0 0 0 1.051.708l6.099-1.175 4.783-1.306 2.49-.384 2.163-.13 2.386-.46 4.139-.329c1.609-.127 3.174-.589 4.594-1.354a.895.895 0 0 0 .71-1.048l-.43-2.223c-.11-.57-.732-.931-1.384-.805l-6.663 1.284a.915.915 0 0 1-.097.014l-5.317.434a.902.902 0 0 0-.187.035l-5.424 1.638a.905.905 0 0 1-.09.022l-3.855.744-4.414.85c-.653.126-1.094.692-.984 1.262Zm35.03 16.954.022.162c.004.035.005.07.005.106v.06c.012.444-.094.892-.294 1.296-.205.403-.5.76-.85 1.05a3.77 3.77 0 0 1-1.18.659l-.16.054c-.034.01-.069.019-.103.027l-.06.015-.06.014c-.089.022-.178.044-.273.06l-.68.134-1.332.262-2.497.492c-.558.112-1.003.19-1.458.27l-.48.085-4.785.928-1.275.246-.64.124c-.053.01-.122.026-.18.047l-.063.024-.018.008-.076.03-.301.122-1.197.483-.59.238-.018.008c-.043.017-.087.035-.121.044a.74.74 0 0 0-.026.009l-.038.012-.076.018-.304.075.158-.038-2.358.565-.561.132-.283.068-.142.033a.85.85 0 0 1-.186.028l-.074.001-.15.004-.303.007-.63.015c.005.003-.112.008-.23.012l-.16.006c-.074-.004-.747.012-1.723.04l-.38.01-.199.006h-.03l-.072.003a2.656 2.656 0 0 0-.119.012l-.06.007-.052.01-.104.02-.212.043-.436.086-.912.18-.469.094c-.056.012-.11.02-.164.028a5.814 5.814 0 0 0-.068.01l-.082.013c-.05.008-.1.016-.15.02a7.445 7.445 0 0 0-.115.007c-.117.008-.234.016-.351.009-.028-.002-.056-.002-.083-.002-.05 0-.1-.001-.15-.008l-.23-.025a3.615 3.615 0 0 1-.873-.238l-.103-.04-.098-.05-.193-.098-.18-.113-.031-.02a.69.69 0 0 1-.056-.037l-.081-.064-.06-.045a2.656 2.656 0 0 1-.1-.08l-.143-.136a3.585 3.585 0 0 0-.07-.066l-.062-.072-.007-.008-.114-.133a2.779 2.779 0 0 1-.514-1.094c-.01-.056-.018-.118-.025-.176a9.073 9.073 0 0 0-.004-.037l-.021-.18-.025-.216-.069-.55-.157-1.358-.01-.086a2.064 2.064 0 0 0-.014-.093l-.032-.168-.063-.337-.126-.674-.25-1.341-.124-.666-.03-.165-.018-.077-.004-.017-.022-.08-.06-.221c-.008-.035-.018-.07-.027-.104L3.011 26.9l-.086-.315-.042-.157a.79.79 0 0 1-.028-.135l-.044-.632-.043-.63a1.235 1.235 0 0 0-.021-.175c-.009-.043-.019-.079-.028-.112l-.013-.049-.08-.297-.313-1.158-.144-.5a8.012 8.012 0 0 0-.008-.031c-.015-.066-.026-.117-.034-.201l-.028-.26-.108-.96c-.01-.138-.02-.248-.029-.345l-.014-.139v-.006c-.008-.048-.016-.1-.025-.138a20.215 20.215 0 0 0-.009-.04c-.035-.165-.074-.349-.131-.65a74.2 74.2 0 0 0-.386-2.084c.003.015-.023-.041-.035-.084l-.036-.125-.142-.5-.28-.988-.068-.243-.017-.062c-.017-.06-.035-.12-.045-.17l-.093-.485-.182-.936a4714.445 4714.445 0 0 1-.338-1.685c-.049-.24-.084-.428-.112-.586-.014-.069-.02-.128-.025-.184l-.003-.03-.004-.046c-.005-.047-.01-.093-.012-.137-.015-.298.007-.5.033-.652l.042-.199a.664.664 0 0 1 .031-.106l.019-.055.055-.162.088-.192c.023-.06.06-.122.101-.193l.035-.06c.035-.07.086-.14.143-.219.027-.036.054-.074.082-.115l.057-.065c.074-.085.199-.23.374-.392.237-.211.565-.443.93-.613l.138-.062c.045-.021.091-.041.139-.056l.278-.095.093-.024c.152-.038.298-.074.438-.1.33-.067.582-.117.674-.134l-.21.044c.74-.142 1.36-.252 1.973-.362l.02-.003c.173-.026.352-.105.496-.22a1.056 1.056 0 0 0 .365-1.036l-.1-.528-.294-1.537L5.93 4.1a.568.568 0 0 1 .028-.298.744.744 0 0 1 .466-.42c.068-.023.158-.04.25-.057l.119-.023.197-.038.057-.01c.047-.01.094-.02.13-.023a.769.769 0 0 1 .61.171c.078.071.137.158.165.255.01.035.022.093.032.15l.006.029.038.196.124.637.028.146.151.78.076.388.037.193.02.086.007.025a1.075 1.075 0 0 0 .708.715c.148.045.305.058.457.037l.057-.008.048-.01.095-.018.19-.037 1.492-.287.366-.07.182-.035.058-.012c.04-.007.08-.014.132-.03l.03-.007.072-.021.086-.03.173-.06.34-.12c.015-.013-.153.046-.343.113l-.05.017-.155.055-.024.008a1.16 1.16 0 0 1-.05.017l-.082.02-.014.004a.762.762 0 0 1-.055.013l-.048.007a.214.214 0 0 1-.053.003l.104-.02.119-.031c.05-.014.092-.03.134-.044l.072-.025.4-.14.805-.278 1.612-.555.217-.075c.197-.068.393-.136.588-.196a11.845 11.845 0 0 1 2.476-.49c.203-.017.425-.027.627-.033l.467-.012c.404-.016.492-.023.582-.03.071-.006.144-.012.382-.023l.073.013c.389-.025.674-.035.954-.043l.21-.006.053-.002.048-.003.016-.002a1.062 1.062 0 0 0 .674-.313 1.176 1.176 0 0 0 .148-.19c.07-.107.137-.26.163-.42a.523.523 0 0 0 .022-.196c0-.038 0-.08-.008-.122a.948.948 0 0 0-.012-.085l-.015-.071-.002-.013c-.037-.186-.071-.362-.06-.345l-.003-.007-.085-.453-.128-.601-.106-.501-.021-.101-.037-.175-.014-.069-.009-.05a.599.599 0 0 1 0-.105.619.619 0 0 1 .198-.376.852.852 0 0 1 .176-.124.885.885 0 0 1 .19-.069l.6-.129.036-.004a.554.554 0 0 1 .083-.008.963.963 0 0 0 .158-.022.171.171 0 0 1 .094-.003.71.71 0 0 1 .458.333c.02.041.041.09.051.145l.025.132.015.086.093.522.206 1.13c.005.025.01.064.016.113.032.24.094.715.354 1.042.083.105.189.17.26.21a1.102 1.102 0 0 0 .68.125l.053-.008.045-.01.184-.035c.061-.012.2-.035.332-.058l.289-.05h.002c.107-.02.221-.041.305-.055.28-.052 1.338-.295 1.504-.337.056-.014.931-.083 1.21-.052l.078.009c.047.005.095.01.142.021l.158.034.073.016c.163.045.352.1.583.207l-.026-.017.036.015.067.028.098.052a3.3 3.3 0 0 0 .072.038c.042.022.084.043.124.068l.076.05c.099.064.198.128.286.206.089.065.166.142.243.218l.083.082.14.169c.047.052.085.11.123.168l.006.01.061.092c.021.03.04.061.055.095l.1.195a1.4 1.4 0 0 1 .052.13l.028.074.039.103.026.106.02.082c.012.043.023.087.033.132l.043.228.085.454.172.91.087.455.043.227c.006.03.009.051.012.074l.004.028.012.115.192 1.844.012.115.002.02.005.039.012.068c.012.075.029.133.045.19l.013.05.124.447.247.896c.145.515.282 1.033.42 1.552.02.082.042.163.064.245l.239.9.12.451c0 .006.002.011.004.017a.827.827 0 0 1 .02.088l.006.028c.004.021.009.043.011.072l.03.232.231 1.856.082.623.001.01c.005.047.008.073.01.13l.004.158.01.317.037 1.284.01.323v.04l.003.05a1.045 1.045 0 0 0 .03.188l.02.079.152.633.307 1.275 1.231 5.109.166.683.019.076c.022.089.044.178.05.26Zm-9.302-13.752a1 1 0 0 0-1 1v.712a1 1 0 0 0 1 1h.719a1 1 0 0 0 1-1v-.712a1 1 0 0 0-1-1h-.719Zm-6.796 1.355a1 1 0 0 0-1 1v.712a1 1 0 0 0 1 1h.718a1 1 0 0 0 1-1v-.712a1 1 0 0 0-1-1h-.718Zm-7.797 2.358a1 1 0 0 1 1-1h.719a1 1 0 0 1 1 1v.713a1 1 0 0 1-1 1h-.719a1 1 0 0 1-1-1v-.713Zm-6.62 1.565a1 1 0 0 1 1-1h.718a1 1 0 0 1 1 1v.712a1 1 0 0 1-1 1h-.718a1 1 0 0 1-1-1v-.712Zm1.186 5.425a1 1 0 0 1 1-1H9.7a1 1 0 0 1 1 1v.712a1 1 0 0 1-1 1H8.98a1 1 0 0 1-1-1v-.712Zm2.36 4.422a1 1 0 0 0-1 1v.713a1 1 0 0 0 1 1h.718a1 1 0 0 0 1-1v-.713a1 1 0 0 0-1-1h-.718Zm5.26-6.987a1 1 0 0 0-1 1v.712a1 1 0 0 0 1 1h.719a1 1 0 0 0 1-1v-.712a1 1 0 0 0-1-1H15.6Zm.36 6.423a1 1 0 0 1 1-1h.718a1 1 0 0 1 1 1v.712a1 1 0 0 1-1 1h-.718a1 1 0 0 1-1-1v-.712Zm5.438-6.78a1 1 0 0 1 1-1h.718a1 1 0 0 1 1 1v.713a1 1 0 0 1-1 1H22.4a1 1 0 0 1-1-1v-.712Zm6.792-1.358a1 1 0 0 1 1-1h.718a1 1 0 0 1 1 1v.712a1 1 0 0 1-1 1h-.718a1 1 0 0 1-1-1v-.712Z" fill="#1E5D8A"/></svg>