<svg width="64" height="27" fill="none" xmlns="http://www.w3.org/2000/svg"><path d="M18.84 1.891a1.058 1.058 0 0 1-.346-.577l.035.01a.817.817 0 0 0-.163-.325.451.451 0 0 1-.082-.55 5.15 5.15 0 0 1 1.933-.263l.37.028.368.024.026.001c.258.011.51.022.763.027.446.016.908.028 1.36.057.745.04 1.45.12 2.144.19.272.043.54.103.805.182l.18.049.022.022c.398.088.803.144 1.21.168l.035.004c.38.03.817.075 1.244.14 1.035.155 1.965.3 2.902.464.466.085.931.189 1.385.286l.776.153.369.062c.16.03.32.06.48.095.482.113.947.21 1.444.346l1.303.31c.28.094.545.133.815.192.148.03.296.058.443.094l.063.013c.208.046.419.088.626.14.683.148 1.373.26 2.066.338.346.065.736.118 1.114.208.506.101 1.015.18 1.506.26.308.045.629.098.94.153.223.043.45.095.67.147.157.04.318.076.481.107l.437.081c.252.038.502.09.749.156.77.167 1.466.582 1.98 1.183.067.077.124.162.172.252l.042.091c.124.262.252.533.35.807.034.118.055.24.063.362l.02.182.16.042.164.045c.068.018.136.032.205.042l.188.027c.485.072.984.142 1.481.19.758.07 1.524.132 2.272.194l1.377.13c.148.016.295.04.44.065l.1.02.447.078c.45.076.912.157 1.365.249a4.1 4.1 0 0 1 .595.19l.145.05a.24.24 0 0 1 .149.218.2.2 0 0 1-.14.235.59.59 0 0 1-.216.014 5.33 5.33 0 0 0-1.122.001l-.097.01c-.317.019-.637.06-.948.1-.122.014-.241.032-.367.044l-.06.06.045.043a.158.158 0 0 0 .063.064l.126.044c.142.057.287.104.435.142.313.076.633.146.938.212l.021.005.525.107c.243.068.538.133.831.207l.186.042c.352.09.714.178 1.067.281.421.135.871.254 1.296.386l.318.093c.065.021.128.047.19.077l.018.02c.098.047.17.088.158.195a.276.276 0 0 1-.224.275 1.22 1.22 0 0 1-.26.007l-.245-.02c-.283-.027-.566-.048-.846-.097-.563-.089-1.123-.2-1.692-.314a31.608 31.608 0 0 0-2.748-.415c-.39-.036-.777-.094-1.16-.175a16.515 16.515 0 0 0-2.245-.285c-.223-.018-.45-.032-.672-.05l-.33-.024-.016.016c-.037.125.07.17.127.19.233.102.46.191.703.265.41.129.814.28 1.209.455.189.083.384.153.573.223l.346.129c.122.044.24.098.353.16a.282.282 0 0 1 .14.264.2.2 0 0 1-.064.172.18.18 0 0 1-.167.015 24.57 24.57 0 0 1-.982-.284l-.214-.064-.182-.058-.155-.054-.6-.17-1.707-.522c-.132-.038-.27-.064-.402-.09l-.324-.069c-.186-.048-.369-.106-.548-.16-.066-.023-.135-.049-.201-.065l-.13-.042c-.066-.022-.135-.048-.21-.067a.547.547 0 0 0-.461.088c-.315.2-.666.336-1.034.4-.4.088-.804.155-1.211.2-.135.014-.27.029-.405.05a3.413 3.413 0 0 1-1.08-.033l-.353-.052a7.366 7.366 0 0 1-.648-.112 23.896 23.896 0 0 1-2.483-.724l-.154-.055a23.27 23.27 0 0 0-2.323-.72c-.305-.074-.601-.17-.89-.266l-.422-.135c-.223-.074-.446-.141-.67-.209h-.001c-.494-.139-.963-.302-1.438-.46-.262-.086-.526-.188-.781-.281l-.46-.173c-.33-.119-.68-.244-1.04-.36-.144-.05-.289-.096-.434-.14-.872-.286-1.772-.581-2.638-.936-.58-.243-1.181-.458-1.76-.67-.366-.127-.74-.265-1.11-.403-.286-.112-.579-.236-.86-.354a12.278 12.278 0 0 0-.553-.237l-.46-.173a4.722 4.722 0 0 1-.463-.17l-.825-.338-.586-.25a1.74 1.74 0 0 0-.306-.099 7.322 7.322 0 0 1-1.227-.366l-.029-.029c-.223-.08-.469-.163-.695-.24l-.237-.074a8.705 8.705 0 0 1-1.736-.794 6.521 6.521 0 0 1-.777-.59l-.031-.032Z" fill="#A07761"/><path d="m49.925 10.327-.022.022c-.003.003.02.019.022.022.004.003.085-.028.01-.047M45.358 6.227l-.03.283c-.017.387-.093.77-.227 1.132a.528.528 0 0 0-.04.216c-.005.088.005.142.065.17a.175.175 0 0 0 .226-.042.555.555 0 0 0 .117-.181c.038-.088.065-.179.087-.245l.021-.06a4.26 4.26 0 0 0 .06-1.704.38.38 0 0 0-.041-.136.158.158 0 0 0-.08-.079.135.135 0 0 0-.065.066c-.021.135-.036.27-.05.405l-.018.175" fill="#A07761"/><path d="m45.292 6.217-.03.283a3.67 3.67 0 0 1-.224 1.116.776.776 0 0 0-.046.236.219.219 0 0 0 .106.236.24.24 0 0 0 .282-.067.68.68 0 0 0 .133-.203c.035-.082.064-.166.087-.251l.021-.06c.138-.567.16-1.157.066-1.736a.526.526 0 0 0-.057-.157.227.227 0 0 0-.108-.108l-.015-.016a.166.166 0 0 0-.125.125c-.021.135-.036.27-.05.405l-.018.176-.022.021Zm.218-.692c.04-.003.088.044.098.098a.4.4 0 0 1 .051.145 4.24 4.24 0 0 1-.063 1.72c-.022.066-.058.192-.108.31a.566.566 0 0 1-.124.194.205.205 0 0 1-.248.058c-.088-.038-.089-.126-.083-.201a.792.792 0 0 1 .043-.226c.151-.453.237-.926.254-1.405.023-.195.04-.39.055-.568a.148.148 0 0 1 .097-.097M38.298 4.051c.072.314.034.641-.11.926a.183.183 0 0 0-.016.053.206.206 0 0 0 .131.243.186.186 0 0 0 .21-.108c.13-.261.179-.556.138-.848a1.345 1.345 0 0 0-.096-.327.132.132 0 0 0-.07-.07c-.028-.028-.097.003-.197.046a.177.177 0 0 0-.006.07" fill="#A07761"/><path d="M38.228 3.982a.727.727 0 0 0-.003.084c.074.298.04.61-.097.882a.149.149 0 0 0-.025.075.282.282 0 0 0 .182.319.252.252 0 0 0 .29-.146c.136-.272.187-.58.145-.884a1.576 1.576 0 0 0-.1-.343.204.204 0 0 0-.107-.108.383.383 0 0 0-.245.061l-.018.019-.022.04Zm.38-.032c.044.107.077.219.096.333.044.297-.005.6-.138.866a.217.217 0 0 1-.254.127.245.245 0 0 1-.158-.277.212.212 0 0 1 .024-.076c.14-.277.176-.596.104-.9a.446.446 0 0 1 .005-.113c.185-.09.263-.086.32.04ZM40.347 8.72a.49.49 0 0 0 .01.154.285.285 0 0 0 .114.114.147.147 0 0 0 .17-.043.259.259 0 0 0 .043-.081c.051-.286.042-.58-.028-.864a.607.607 0 0 0-.13-.218.272.272 0 0 0-.091.028.19.19 0 0 0-.022.078c-.023.277-.059.565-.057.817" fill="#A07761"/><path d="M40.278 8.713a.397.397 0 0 0 .014.183.327.327 0 0 0 .145.145.205.205 0 0 0 .138.017.2.2 0 0 0 .116-.075.326.326 0 0 0 .05-.1 2.184 2.184 0 0 0-.029-.895.724.724 0 0 0-.146-.24l-.022-.022a.27.27 0 0 0-.147.027.18.18 0 0 0-.053.135l-.06.813-.006.012Zm.138-.928c.03-.031.116-.04.135-.021a.776.776 0 0 1 .136.23c.07.29.08.59.029.883a.467.467 0 0 1-.053.11.179.179 0 0 1-.213.048.29.29 0 0 1-.13-.13.507.507 0 0 1-.008-.194l.057-.817c.022-.021.015-.09.04-.103M63.184 25.738l-.028-.029a1.85 1.85 0 0 0-.268-.118l-.434-.147c-.611-.205-1.244-.42-1.867-.62-.491-.141-1.02-.302-1.52-.44l-.265-.078c-.406-.113-.83-.207-1.202-.316-.245-.064-.5-.132-.748-.187-.454-.117-.922-.23-1.379-.356l-.019-.019a5.54 5.54 0 0 1-.589-.22l-.176-.07a.285.285 0 0 1-.085-.086l-.054-.054.022-.022.018-.018a.062.062 0 0 1 .044-.044l.534-.047c.445-.04.904-.081 1.362-.097l.145-.005a7.178 7.178 0 0 1 1.599.046c.108.014.217.009.323-.014a.301.301 0 0 0 .224-.344.364.364 0 0 0-.216-.334l-.208-.083a5.888 5.888 0 0 0-.847-.292 56.524 56.524 0 0 0-1.944-.416l-.645-.133-.145-.032c-.204-.043-.418-.088-.629-.112l-2.014-.23c-1.063-.121-2.16-.245-3.235-.378-.71-.087-1.424-.215-2.12-.336l-.273-.049a4.096 4.096 0 0 1-.506-.126l-.23-.067-.024-.261a2.167 2.167 0 0 0-.076-.525c-.135-.397-.29-.787-.464-1.169l-.057-.138a1.934 1.934 0 0 0-.25-.382 5.195 5.195 0 0 0-2.79-1.785c-.356-.106-.717-.18-1.073-.256l-.629-.136c-.23-.055-.46-.116-.683-.178a23.73 23.73 0 0 0-.956-.232 45.62 45.62 0 0 0-1.34-.268c-.701-.133-1.431-.27-2.136-.457a18.658 18.658 0 0 0-1.595-.348c-.965-.15-1.922-.35-2.868-.598-.287-.08-.576-.152-.853-.229l-.123-.029-.635-.155c-.384-.09-.796-.172-1.174-.294-.62-.165-1.25-.339-1.86-.507-.61-.167-1.369-.377-2.058-.56a13.6 13.6 0 0 0-.689-.153c-.226-.046-.349-.069-.522-.11l-1.091-.269a48.348 48.348 0 0 0-1.98-.47c-1.336-.282-2.65-.511-4.148-.798a27.957 27.957 0 0 0-1.776-.254l-.047-.004c-.603-.054-1.2-.159-1.786-.314l-.262-.08a9.15 9.15 0 0 0-1.154-.288 58.052 58.052 0 0 0-3.068-.367c-.667-.043-1.31-.1-1.949-.14L4.56 8.037a15.02 15.02 0 0 1-.528-.053c-.176-.02-.355-.044-.534-.054a7.34 7.34 0 0 0-2.825.294.665.665 0 0 0-.095.407.68.68 0 0 0 .167.388c.11.135.184.295.216.466.065.328.235.627.484.852l.04.04c.342.322.708.616 1.094.882.776.5 1.605.91 2.47 1.223l.341.122c.324.118.658.24.989.365l.06.022a9.89 9.89 0 0 0 1.747.587c.15.035.294.087.431.157l.848.386c.378.172.769.351 1.15.527l.671.284c.224.093.45.182.68.287l.788.364c.394.182.807.37 1.216.542.523.218 1.056.432 1.575.634a60.39 60.39 0 0 1 2.501 1.035c1.223.549 2.507 1.01 3.742 1.452l.627.228c.5.182 1.004.38 1.473.569l.665.272c.36.153.737.306 1.112.444.68.25 1.376.484 2.046.712l.945.32.595.215c.384.141.784.285 1.187.401l.082.026.18.048c1.066.3 2.108.7 3.116 1.09l.224.086c1.157.447 2.337.83 3.535 1.147.305.08.626.133.934.192l.503.091a5.1 5.1 0 0 0 1.553.093l.574-.05c.588-.044 1.172-.12 1.751-.226a4.383 4.383 0 0 0 1.504-.542.75.75 0 0 1 .655-.106c.104.03.205.068.303.103l.176.064.296.103c.249.086.513.176.771.253.154.049.312.081.466.117.193.04.384.09.573.148.802.267 1.615.542 2.402.812l.806.275.226.084.252.09.29.096 1.426.471a.296.296 0 0 0 .258-.017.297.297 0 0 0 .101-.253.403.403 0 0 0-.213-.42 4.025 4.025 0 0 0-.501-.245 9.308 9.308 0 0 0-.485-.198c-.271-.109-.551-.22-.82-.345a15.416 15.416 0 0 0-1.716-.706c-.35-.119-.7-.275-.995-.41l-.016-.015c-.082-.038-.218-.099-.169-.262l.02-.019c.144.02.288.034.433.047l.965.105c1.084.103 2.16.277 3.223.522.546.133 1.1.235 1.657.303 1.236.163 2.522.401 3.935.729.814.19 1.62.372 2.406.535.4.081.811.125 1.207.172l.352.046c.128.015.257.013.384-.003a.406.406 0 0 0 .349-.394c.02-.166-.093-.236-.229-.303l.003-.003Zm-17.5-1.826a.082.082 0 0 1-.045-.082.056.056 0 0 1 .037-.037c.017-.017.033-.02.047-.01.08.023.105.067.099.099-.007.031-.05.05-.123.034l-.015-.004Zm12.684 1.114-.019.018a.198.198 0 0 1-.088.006 17.53 17.53 0 0 0-2.343-.472l-.796-.122-.38-.062-.9-.151-1.216-.225c-.544-.089-1.145-.216-1.718-.314-.213-.04-.437-.056-.65-.077l-.242-.023c-1.044-.108-2.06-.294-3.006-.474a1.435 1.435 0 0 1-.378-.134l-.095-.051.107-.012a9.643 9.643 0 0 1 1.592-.005l.418.019c.214.008.43.025.65.027l.488.038c.166.012.333.01.499-.006a.403.403 0 0 0 .31-.221.443.443 0 0 0-.06-.409.586.586 0 0 0-.379-.254 51.024 51.024 0 0 1-2.253-.581c-.314-.084-.63-.193-.925-.302-.296-.109-.51-.173-.768-.25a10.335 10.335 0 0 0-.947-.211l-.026-.025a.237.237 0 0 0-.193.031.23.23 0 0 0-.1.168c-.062.225-.02.38.125.456a.761.761 0 0 0 .202.07l.522.11.456.101c.243.059.473.16.68.3l.054.054-.075.019a1.495 1.495 0 0 1-.716.026 43.243 43.243 0 0 0-.943-.158.495.495 0 0 0-.37.048.437.437 0 0 0-.12.323 1.972 1.972 0 0 1-.392 1.024 1.78 1.78 0 0 1-1.151.677 11.45 11.45 0 0 1-2.95.368.278.278 0 0 1-.082-.02l-.025-.024a1 1 0 0 1-.09-.714c.006-.063.015-.122.018-.182.041-.81.211-1.606.504-2.358.059-.169.093-.345.1-.524a.245.245 0 0 0-.13-.168.244.244 0 0 0-.203.059c-.083.133-.15.274-.201.422a9.254 9.254 0 0 0-.527 2.786l-.006.113a.95.95 0 0 1-.153.57.471.471 0 0 0-.094.006 1.127 1.127 0 0 1-.23-.005 20.86 20.86 0 0 1-2.267-.503c-.39-.11-.765-.228-1.121-.36-.274-.099-.557-.189-.828-.279-.27-.09-.554-.18-.825-.276-.362-.13-.727-.278-1.077-.415l-.715-.279a6.968 6.968 0 0 0-.692-.23c-1.281-.34-2.544-.81-3.779-1.284l-.138-.05a13.08 13.08 0 0 0-.793-.264l-.441-.141a32.858 32.858 0 0 1-2.737-1.06c-.347-.152-.712-.287-1.052-.428l-.516-.192-.813-.313c-.683-.26-1.38-.519-2.085-.8-.617-.243-1.24-.505-1.846-.754l-.447-.186-.602-.258-.283-.128-.001-.132a1.33 1.33 0 0 1 .008-.23l.023-.206c.045-.355.09-.722.165-1.083a2.74 2.74 0 0 1 .117-.388c.03-.082.062-.17.086-.25.04-.12.06-.243.064-.368a.243.243 0 0 0-.162-.23.27.27 0 0 0-.257.08.934.934 0 0 0-.289.51c-.069.43-.123.825-.17 1.214-.021.166-.026.336-.038.499l-.01.207a.497.497 0 0 1-.481-.032l-.041-.04-1.188-.515c-.53-.23-1.08-.457-1.61-.693-.28-.118-.567-.236-.844-.345a20.254 20.254 0 0 1-.895-.37l-1.292-.575-.46-.21-.438-.195-.277-.128.019-.018.034-.104c.021-.066.046-.135.061-.2l.095-.348c.122-.452.251-.922.36-1.386a.754.754 0 0 0-.04-.359.198.198 0 0 0-.19-.19.247.247 0 0 0-.237.15 1.806 1.806 0 0 0-.129.395 101.7 101.7 0 0 0-.198 1.38l-.087.537-.019.018-.019-.019a.77.77 0 0 1-.245-.033l-.982-.358a26.965 26.965 0 0 1-2.545-.998A7.493 7.493 0 0 1 2.046 9.84a1.568 1.568 0 0 1-.539-1.162c.26-.12.541-.187.828-.195.474-.02.87-.016 1.257.008l.336.025c1.185.08 2.385.145 3.585.254l.139.014c1.13.08 2.256.22 3.373.422.591.124 1.186.27 1.765.412l.704.174c.041.01.08.027.117.048l.072.035c.022.179.004.359-.052.528l-.03.125a1.21 1.21 0 0 0 .036.754c.037.08.091.15.158.209a.123.123 0 0 0 .12.032.12.12 0 0 0 .09-.09c.01-.036.018-.071.025-.107l.03-.207c.015-.155.043-.308.084-.458a4.43 4.43 0 0 1 .217-.501c.03-.07.065-.135.099-.207.885-.038 5.612.834 6.41 1.182l.018.02a1.936 1.936 0 0 1-.213.529l-.159.159a3.91 3.91 0 0 0-.417 2.7c.03.167.08.329.15.482a.152.152 0 0 0 .089.09.216.216 0 0 0 .157-.037l.005-.126c.009-.122.014-.254.016-.383.003-.129.007-.336 0-.506-.009-.78.217-1.54.647-2.184.242-.382.358-.428.774-.331a141.056 141.056 0 0 1 4.329 1.036c.1.028.197.066.29.115l.145.07.018.019-.052.21-.094.385-.012.044c-.093.283-.121.583-.082.88.026.144.066.287.12.424a.248.248 0 0 0 .138.14.098.098 0 0 0 .079-.003c.069-.037.087-.088.077-.191.02-.435.114-.862.277-1.264.142-.382.26-.444.682-.34l.186.048 2.932.736c.736.188 1.488.334 2.221.475l.868.17c.299.06.6.145.897.222l.252.071a.552.552 0 0 1 .141.03l.044.043.007.05c.019.02.01.067-.012.095a4.805 4.805 0 0 0-.702 1.5 19.79 19.79 0 0 1-.178.57l-.172.545a1.708 1.708 0 0 0-.085.976c.022.071.05.14.087.205l.047.091.069-.068a.55.55 0 0 0 .115-.16c.101-.316.197-.639.292-.955l.2-.655a5.53 5.53 0 0 1 .633-1.438c.037-.037.081-.08.096-.14a.867.867 0 0 0 .075-.075.762.762 0 0 1 .386-.332.776.776 0 0 1 .513-.017 39.12 39.12 0 0 0 1.702.374l.918.176c.46.084.937.176 1.403.28l.305.062c.642.11 1.266.313 1.851.603.049.028.1.05.154.067l.101.038a3.033 3.033 0 0 1 1.69 1.69c.13.324.259.664.377 1.001.015.046.027.094.036.142a.45.45 0 0 0 .178.334c.05.05.073.135.086.23l.014.1c.09.428.17.5.582.582l.877.154.742.118.277.046c.308.053.625.108.943.139.54.054 1.094.108 1.625.153.77.071 1.568.146 2.35.23.576.057 1.17.171 1.74.273l.484.085a1.7 1.7 0 0 1 .334.103l.154.054.022.022-.025.025a.296.296 0 0 1-.316.177h-.063a19.87 19.87 0 0 1-3.373-.037 6.413 6.413 0 0 0-.78-.018c-.181.005-.285.07-.309.196a.445.445 0 0 0 .205.498c.12.05.244.086.371.109 1.459.247 2.893.627 4.286 1.136.224.076.452.14.683.19l.292.068 1.12.284.592.149-.015.129-.01.003Z" fill="#A07761"/></svg>