<?xml version="1.0" encoding="utf-8"?><!DOCTYPE svg PUBLIC "-//W3C//DTD SVG 1.1//EN" "http://www.w3.org/Graphics/SVG/1.1/DTD/svg11.dtd"><svg xmlns="http://www.w3.org/2000/svg" viewBox="0 0 30 30"><g fill="#FFF"><path d="M8.689 27.347c-.187-.108-.375-.212-.558-.323-.428-.265-.869-.51-1.276-.805-.515-.372-.829-.908-1.118-1.464-.327-.628-.502-1.296-.587-1.993a.286.286 0 0 1-.002-.065c.11-1.02.204-2.037.335-3.052.111-.866.356-1.705.647-2.528a21.24 21.24 0 0 1 .988-2.351 6.505 6.505 0 0 1 2.828-2.895c.882-.472 1.83-.787 2.798-1.03 1.458-.366 2.938-.592 4.445-.624 1.383-.028 2.673.332 3.898.959 1.042.535 1.903 1.287 2.671 2.157.442.5.897.997 1.269 1.557.568.857.919 1.807 1.142 2.802.104.466.188.938.265 1.409.164 1.018.001 2.002-.331 2.967-.049.145-.1.29-.148.435l-.27.6c-.014.017-.029.03-.043.049-.171.226-.328.466-.517.676-.386.426-.862.748-1.316 1.097a3.885 3.885 0 0 1-1.946.784c-1.305.159-2.59.06-3.84-.368a5.925 5.925 0 0 1-.744-.337c-.125-.063-.231-.163-.354-.236-.195-.121-.317-.106-.479.058a3.63 3.63 0 0 0-.228.264c-.475.596-.958 1.185-1.549 1.674-1.381 1.142-2.951 1.479-4.685 1.073-.193-.044-.385-.109-.576-.167l-.719-.323zM2.064 7.263c.092-.075.18-.161.278-.228.222-.149.47-.13.716-.093.313.047.609.156.887.305.24.13.443.313.618.522.381.454.703.95.988 1.467.225.409.42.833.628 1.253.125.251.253.502.368.756.161.355.158.729.096 1.106-.044.256-.056.521-.172.761a.526.526 0 0 1-.523.278 2.445 2.445 0 0 1-.8-.249 1.46 1.46 0 0 1-.503-.409c-.403-.525-.799-1.056-1.203-1.581a16.221 16.221 0 0 1-1.1-1.598c-.198-.331-.285-.697-.344-1.071a17.093 17.093 0 0 1-.096-.669c-.007-.06 0-.125 0-.188l.162-.362zM26.143 5.535c.219.157.424.328.549.567.069.133.133.283.142.429.029.472.014.946-.105 1.41a2.411 2.411 0 0 1-.379.771c-.367.526-.728 1.057-1.1 1.58a3.01 3.01 0 0 1-.368.414.704.704 0 0 1-.74.172 3.92 3.92 0 0 1-.684-.286c-.338-.186-.528-.494-.609-.868-.102-.457-.044-.907.051-1.355.245-1.154.841-2.109 1.683-2.92a.524.524 0 0 1 .389-.145c.249.006.499.041.748.062.027.003.057.01.085.016.111.052.225.103.338.153zM20.214 8.062c-.219.462-.519.839-.992 1.057a1.572 1.572 0 0 1-1.947-.518.975.975 0 0 1-.185-.67c.078-.759.178-1.513.396-2.246.17-.566.403-1.102.748-1.587a.953.953 0 0 1 .915-.42c.441.039.843.164 1.144.515a.995.995 0 0 1 .255.559c.065.837.088 1.675-.098 2.501-.06.276-.156.541-.236.809zM10.031 4.099a4.762 4.762 0 0 1 2.417 2.272c.349.687.269 1.348-.144 1.979a.968.968 0 0 1-.66.432 2.756 2.756 0 0 1-.446.033c-.165.003-.321.011-.471.104-.177.114-.338.086-.487-.087-.232-.27-.46-.549-.662-.84a7.47 7.47 0 0 1-1.205-3.003c-.045-.251-.103-.5-.048-.757.065-.31.258-.474.575-.478.277-.003.529.101.782.189.119.044.231.103.349.156z"/></g></svg>
