<svg id="Layer_1" data-name="Layer 1" xmlns="http://www.w3.org/2000/svg" width="67.8mm" height="70mm" viewBox="0 0 192.18 198.43"><defs><style>.cls-1,.cls-2{fill:#1e5d84}</style></defs><path class="cls-1" d="M158.91 144.11a13.71 13.71 0 00-3.32-1.6c-.5-.12-1.42.92-1.92.82a.64.64 0 00-.45 0 .55.55 0 00-.26.36.53.53 0 00.36.67 12.11 12.11 0 012.75 1.29 17.39 17.39 0 012.37 1.69 3.47 3.47 0 011.31 2.45 4.6 4.6 0 01-.05.74.93.93 0 000 .46.72.72 0 00.35.34.66.66 0 00.5 0 .58.58 0 00.36-.4c.07-.28.11-.52.16-.79.16-1.06.54-2.05-.07-3s-1.18-2.48-2.09-3.03zm-2.36 4.7c-.74-.82-3-1-3.91-1.57-.46-.28-1-.21-1.5-.47a.74.74 0 00-.43-.15.51.51 0 00-.39.25.57.57 0 00.14.79 13.34 13.34 0 012.34 2.16 21.88 21.88 0 011.86 2.44 4.56 4.56 0 01.83 2.88 3.28 3.28 0 01-.14.76c0 .14-.06.22-.1.41a.59.59 0 00.17.5.72.72 0 001 0 .84.84 0 00.14-.24l.06-.2.13-.39c.34-1.06 1-2.45.61-3.54s-.07-2.79-.81-3.63zM154 154.7c-.37-1.08-2-1.76-3-2.43a7.4 7.4 0 00-1.44-.82.73.73 0 00-.45-.1.53.53 0 00-.38.25.51.51 0 00.16.77 4.39 4.39 0 012 2.33 11.34 11.34 0 01.64 3c.15 1-.05 2.06 0 3.17a2.69 2.69 0 00.59 1.59.73.73 0 001-.06.6.6 0 00.14-.58c-.08-.22-.14-.28-.18-.39-.28-.88.39-1.86.51-3s.76-2.64.41-3.73zm15.93-49.23a5.67 5.67 0 00-1.49-2l-.74-.66c.1.19.21.38.34.58a6.28 6.28 0 011.07 1.3 5.55 5.55 0 011 1.5 3.62 3.62 0 01.17.56 5.55 5.55 0 00-.35-1.28z"/><path class="cls-1" d="M170 116.87a.43.43 0 01-.14-.31 1.11 1.11 0 000-.19c0-.12-.07-.24-.11-.36a.52.52 0 01-.19-.38v-.21a6 6 0 01-.15 1 40.85 40.85 0 00-.71 4.1 14.12 14.12 0 01-.46 2 7.18 7.18 0 01-.32.81h-.21a.91.91 0 00-.26.19.41.41 0 000-.2v-.07a.4.4 0 01-.29.18 2 2 0 00-.62.19.12.12 0 01-.05 0l-.12.07a.85.85 0 00-.15 1 .51.51 0 01-.61.72.45.45 0 01-.45-.22 3.35 3.35 0 01-.44-1v.08a.5.5 0 000 .14 1.19 1.19 0 00.11.47 1.23 1.23 0 00.76.66 1 1 0 001.14-.77 3.83 3.83 0 000-.46c0-.21.25-.42.5-.63l.1-.11v.12a.77.77 0 000 .34l.05.2a2.65 2.65 0 01.11.74 3.57 3.57 0 01-.29 1.47 6.64 6.64 0 01-1.89 2.46 2.92 2.92 0 01-2.64 1 9.14 9.14 0 00-1.68-.36 2.51 2.51 0 00-1.83.55c-.5.4-.82.86-1.19 1.19a1.72 1.72 0 01-1.12.57 3.84 3.84 0 01-1.29-.63 3.24 3.24 0 00-.88-.37 2.1 2.1 0 00-1 0 7.73 7.73 0 00-1.61.72c-.49.26-1 .52-1.45.75a4.38 4.38 0 01-2.81.58 1.67 1.67 0 01-1-.78 4.67 4.67 0 01-.34-.63 3.91 3.91 0 01-.16-.69 3.87 3.87 0 00-.53-1.78 2.23 2.23 0 00-.78-.69 2.53 2.53 0 01-.59-.37l-.09-.09h-.12a1 1 0 01-.68-.48 1.5 1.5 0 01-.16-.76l.34-.3.06-.06c.16-.26.36-.44.63-.79a2.28 2.28 0 00.28-.59c0-.1.06-.19.08-.29s0-.12 0-.22a.9.9 0 000-.25 4.07 4.07 0 00-.21-.5 2.22 2.22 0 010-.34 3.91 3.91 0 01.1-.91 4.6 4.6 0 01.74-1.68c.33-.5.87-1 1.25-1.63a5.14 5.14 0 00.73-2.07 9.28 9.28 0 000-2.11c-.07-.69-.2-1.36-.21-2a4.86 4.86 0 01.36-1.87c.1-.29.3-.54.45-.91a1.86 1.86 0 00.07-1.14 13.67 13.67 0 01-.63-1.91 3.43 3.43 0 01.33-1.88 12.14 12.14 0 00.79-1.89c.35-1.37 0-2.74.16-4.07a3.11 3.11 0 01.74-1.81 3 3 0 01.36-.35.61.61 0 00.26-.47.6.6 0 00-.24-.48.42.42 0 00-.53 0 3.82 3.82 0 00-1.09 1.24 4.79 4.79 0 00-.49 1.6c-.15 1.1-.05 2.22-.19 3.28s-1 1.85-1.52 2.89a2.32 2.32 0 00-.14 1.72c.17.56.49 1 .66 1.52.41 1-.28 1.92-.7 3a1.46 1.46 0 00-.07.19q-.1.42-.18.84a4.33 4.33 0 000 .72c0 .57.14 1.12.22 1.66a6.93 6.93 0 01-.22 1.59 3.31 3.31 0 01-.44 1.35 24.83 24.83 0 01-1.82 2.51 7.07 7.07 0 00-.38.61 9.15 9.15 0 00-.35 1.2 2.93 2.93 0 01-.1.37v1.13l-.06.28-.05.15-.45.72a1 1 0 01-.13.29v.33c-.41.28-.32.13-.69.46l-.15.12a1.5 1.5 0 00-.3.48 2.43 2.43 0 00-.14.48 1.93 1.93 0 00.1 1 8.86 8.86 0 001.13 1.37 4.5 4.5 0 00.92.89c.89.48 1.27.69 1.6 1.67.18.48.49 1.29.75 1.83a4.31 4.31 0 001.64 1.41c1 .62 2.76.3 3.83 0s1.41-1.38 2.36-1.9a1.83 1.83 0 011.46-.18c.49.16.95.48 1.48.68a2.2 2.2 0 001.54.14 16.11 16.11 0 00-.45 3.07 3.2 3.2 0 00.6 2 6.16 6.16 0 001.55 1.24 3.54 3.54 0 011.68 2.94 13 13 0 010 1.87v.47a.86.86 0 00.1.58.73.73 0 001.2-.06.74.74 0 00.1-.35v-.23l.05-.46c0-.31.07-.63.09-.94 0-.64.42-1 .36-1.7a5.27 5.27 0 00-.32-2.11 7.64 7.64 0 00-1.48-1.92c-.89-.74-2-1.38-2.2-2.57a9.31 9.31 0 01-.09-1.84v-.48a.42.42 0 000-.15 5.33 5.33 0 00.42-.4 8.31 8.31 0 011.16-1.14 1.46 1.46 0 011.4-.28 4 4 0 001.59.57 3.26 3.26 0 001.66-.43 12.12 12.12 0 002.56-2.16 7.19 7.19 0 001.7-2.93 4.76 4.76 0 00.11-1.19l.08-.06.61-1a6.4 6.4 0 001-2 4.91 4.91 0 00.1-1.19v-1.17a4.28 4.28 0 01-.11-.8z"/><path class="cls-1" d="M190 96.38a4 4 0 00-.89-1.08 11.45 11.45 0 00-1-.73A33.78 33.78 0 00184 92.5c-.33-.16-.67-.31-1-.48l-1-.5a4.09 4.09 0 01-1.5-1 1.88 1.88 0 01-.33-.68c-.08-.29-.14-.66-.24-1.07a7.4 7.4 0 00-1.05-2.34 10.8 10.8 0 00-3.65-3.29 17.3 17.3 0 00-4.43-1.74c-2.93-.7-5.62-1.23-8.54-.64-.77.16-2 .11-2.76.35s-1.09 1.2-1.68 1.46c-.36.16-.71.32-1.06.5a19.52 19.52 0 00-3.65 2.37 20.21 20.21 0 00-3.21 3.33 40.35 40.35 0 00-2.77 3.46 35.5 35.5 0 01-2.59 3.7 16.5 16.5 0 01-1.43 1.79c-.13.13-.28.24-.42.37a18.36 18.36 0 00-2.46 1.79.32.32 0 00-.1.1l-.11.18-.12.23a3.18 3.18 0 01-.28.43 5.07 5.07 0 01-.68.78 7.54 7.54 0 01-1.79 1.16c-1.31.65-2.78 1.07-4.24 1.71a11.49 11.49 0 00-2.12 1.2 18.21 18.21 0 00-1.78 1.58 17.23 17.23 0 01-3.38 2.84 21.42 21.42 0 01-5.59 2.31c-2.79.22-6.2.78-8.82 1h-2.93c-3-.08-6.12-.24-9.2-.25h-3.38a138.63 138.63 0 00-20.1.46 51.16 51.16 0 00-8.31 1.66 31.38 31.38 0 00-4.95 1.59l-.62.28a93.85 93.85 0 00-16.4 8.59c-1.85 1.19-6.64 4.84-11.6 7.6-4.88.57-9.72 1-12.67-2.64-.9-2.08-.87-4.75-2.81-6.44a5.82 5.82 0 00-3.49-1.46 8.1 8.1 0 00-2-.24 5.5 5.5 0 00-2.45.53A5 5 0 006.08 127a7.67 7.67 0 01-2.78 4.21 5.16 5.16 0 00-1.56 4.4 3.56 3.56 0 00-.23 1 2.83 2.83 0 00.83 2.34l.12.1a19.75 19.75 0 001.32 3.24 5.33 5.33 0 00.1 1.51 2.93 2.93 0 00.58 1.2 6 6 0 00.8.74 4.07 4.07 0 011 1.26 7.1 7.1 0 01.45 1.72 3.21 3.21 0 00.53 1.2 2.56 2.56 0 00.56.52 1.92 1.92 0 00.78.27 2.5 2.5 0 01.76.11 1.64 1.64 0 01.57.37c.38.33.72.9 1.24 1.44a4.59 4.59 0 001.85 1.16 8.14 8.14 0 002.08.39H17l.08.24a4.86 4.86 0 01.18.88 4.94 4.94 0 00.26 1 2.86 2.86 0 00.62.93 2.13 2.13 0 001 .63 2.43 2.43 0 001.13.06c.69-.12 1.28-.35 1.89-.41a1.7 1.7 0 011.54.52 2.16 2.16 0 002 .75 4.39 4.39 0 00.95-.43 4.6 4.6 0 01.85-.38 3.34 3.34 0 011.78-.13c.3 0 .6.14 1 .17a2.37 2.37 0 001.09-.22 6.94 6.94 0 001.63-1.17 4.49 4.49 0 011.55-.89 14.41 14.41 0 013.76-.13 4 4 0 002.09-.6s1.94-.93 2-1.05a4.23 4.23 0 01.56-.56l.31-.28c.78-.13 1.6-.27 2.48-.48s3.62-.33 4.22 1l.08.21a7.91 7.91 0 00-.35.79 18.1 18.1 0 00-.7 5.07 4 4 0 01-.68 2.05 11.52 11.52 0 01-2 1.52 6.59 6.59 0 00-1.67 2.11 9.51 9.51 0 00-.51 1.24L44 167a1 1 0 000 .57 2.36 2.36 0 01.15 1.17c-.86 1.52-2 3.12-2 4.77s1 3.45 1 5a33.54 33.54 0 01-1.54 9.31 19.18 19.18 0 00-1.19 4.92 5.15 5.15 0 00.66 2.85 4.47 4.47 0 002.39 1.87 11.56 11.56 0 002.6.42c.77.07 1.57-.68 2.4-.59s1.66 1 2.54 1a6.15 6.15 0 002.77-.64 3.77 3.77 0 002-2.42 4.16 4.16 0 00-.47-3 7 7 0 00-.82-1.15l-.24-.26a3.58 3.58 0 00-.29-.27 5.29 5.29 0 00-.58-.41 4.85 4.85 0 01-.81-.6 3 3 0 01-.57-.75 3.78 3.78 0 01-.35-1.93c0-.79.05-1.55.13-2.32a18.71 18.71 0 011.09-4.53 17.66 17.66 0 012.22-4.15 19 19 0 011.33-1.66 24.05 24.05 0 012.36 3.55 14.9 14.9 0 002.71 3.12 24.7 24.7 0 012.93 3.13c.4.57.71 1.2 1.19 1.8a17.77 17.77 0 001.14 3.41c1 2 2.8 3.16 4 4.75.68.88.57 2.17 1.54 2.74s3 .41 4.09.6a17.9 17.9 0 003.29.3 5.79 5.79 0 003.31-.95 2.85 2.85 0 001-1.57 6.4 6.4 0 00.35-2.08 5 5 0 00-2.06-2.92 11.61 11.61 0 00-1.77-.78c-.55-.25-1.1-.47-1.51-.67a4.2 4.2 0 01-1.1-1.16c-.27-.37-1.73-2.95-2-3.44-1-2-2.69-3.07-4.2-4.39a7.54 7.54 0 01-2.48-4.94 5.34 5.34 0 01.79-2.6 14 14 0 00.09-3.59l.12-.25a3.14 3.14 0 01.49-.6 3.57 3.57 0 01.48-.55c.18-.19.65-.51.85-.67a9.58 9.58 0 012.69-1.44c2-.82 3.88-.63 5.94-1.37a33.38 33.38 0 006-3 15.22 15.22 0 002.53-2.08 8 8 0 011.38-.94c.06 0 .47-.16.51-.23.8-.3 1.18-1.06 2-.86a5.63 5.63 0 012.15.89 6.62 6.62 0 001.36 1.16 6 6 0 001.52-.12c.47 0 2.28-.72 3-.6s.77 0 1.31.63c0 0 1.05.86 1.26 1a3.88 3.88 0 001.81.32 8.54 8.54 0 002.67-.46 12 12 0 014.57-1 13.94 13.94 0 012.41.49 3.38 3.38 0 002.53-.68 3 3 0 012-.72 8 8 0 012 .24 3.64 3.64 0 002.33-.27c.41-.14.61-.75 1.06-.87a.72.72 0 00-.22-1.38.65.65 0 00-.24 0h-.15l-.31.08-.61.16a4.25 4.25 0 01-1.15.16 2.76 2.76 0 01-1.07-.29 1.65 1.65 0 01-.45-.29 2.8 2.8 0 00-.61-.4 3.47 3.47 0 00-2.74.32 12.45 12.45 0 01-2.2 1 3.41 3.41 0 01-2.19-.36 3.52 3.52 0 00-1.41-.19 6.37 6.37 0 00-1.33.22 12.77 12.77 0 00-2.42.93 5.78 5.78 0 01-2.22.66 3.7 3.7 0 01-1.11-.06c-.33-.08-.68-.21-.71-.39s-.15-.34-.28-.57a.92.92 0 00-.14-.2l-.12-.14a3 3 0 00-1.56-.9 4.45 4.45 0 00-2.71.24l-.54.17a2.62 2.62 0 00-.66.18 1 1 0 01-.34.07 3.94 3.94 0 01-.58-.06 1.19 1.19 0 01-.41-.19 2.08 2.08 0 00-.48-.5c-.33-.27-.49-.63-.84-.87a8.49 8.49 0 00-2.26-1.21c-.82-.23-1.83 1.7-2.65 2a2.86 2.86 0 00-1.2.64l-.56.55a12.12 12.12 0 01-4.15 3.65 29 29 0 01-5.56 2.28c-1.91.6-3.89 1-5.81 1.71a8.23 8.23 0 00-4.6 3.79 6 6 0 00-.56 1.63 5.44 5.44 0 01-.42 1.44 10.85 10.85 0 00-1 3.17 7.73 7.73 0 00.71 3.32 12.82 12.82 0 001.74 2.83c.69.86 1.44 1.65 2.17 2.43a15.77 15.77 0 011.94 2.5c.59.89 3 3.68 3.66 4.58a6.07 6.07 0 002.8 1.76 7.36 7.36 0 012.64 1.66 2.16 2.16 0 01.59 1.33 2.07 2.07 0 01-.45 1.38c-.67.78-1.85.78-2.89.75a17.67 17.67 0 01-3.18-.31 7.69 7.69 0 01-2.89-1.24 7.81 7.81 0 01-2.09-2.34c-.55-.91-.58-2.2-1-3.2 0 0-2.92-3.35-3.05-3.46a25 25 0 00-2-4c-.84-1.2-1.74-2.29-2.66-3.37a27 27 0 00-3-3c-.55-.47-1.12-.91-1.66-1.39l-.39-.37-.13-.12c.34-.33.69-.66 1.06-1a18.69 18.69 0 014-2.6c.35-.19.74-.31 1.11-.47a7.14 7.14 0 01.93-.44 15.71 15.71 0 001.34-1.21c1.34-1.25 2.82-2.37 4.27-3.5a32.05 32.05 0 005.16-4.41c1.44-1.76 1.93-3.93 3-5.83.53-.95.14-1.66.71-2.58.29-.46 1.51-1.15 1.82-1.6l.12-.16.06-.09a1.19 1.19 0 00.08-.16.85.85 0 00-.1-.8 1 1 0 00-.63-.41 1 1 0 00-.81.23 3.68 3.68 0 00-.32.43l-.24.33-.47.68c-.31.44-.61.9-.91 1.35l-1.76 2.71a30.84 30.84 0 01-3.94 4.91 60.77 60.77 0 00-4.33 4.86c-.68.85-1.6 1.45-2.3 2.28-.35.42-1.11 1.08-1.46 1.49a4 4 0 01-.73.57 41.19 41.19 0 00-6.36 3.94 20.41 20.41 0 00-7.24 12.65 11.13 11.13 0 000 5.17 4.16 4.16 0 00.75 1.32 5.8 5.8 0 001.07.9 12.14 12.14 0 011.76 1.39 1.67 1.67 0 01.44.69.67.67 0 01-.06.56 2.51 2.51 0 01-.59.67.8.8 0 01-.32.23 1.52 1.52 0 01-.41.14c-1.3.29-2.63-.45-4.28-.51a16.36 16.36 0 01-2.38-.68c-.72-.15-1.66.37-2.07-.12a2.71 2.71 0 01-.53-1.94c0-.74-.43-1.42-.2-2.18s1.19-1.6 1.42-2.39.39-1.59.56-2.39c.64-3.19 1.19-5.57.91-8.79-.1-1.6-.52-4.15-.08-5.63a6.29 6.29 0 011-2 .94.94 0 00.18-.57 8.45 8.45 0 01.26-2.37 12.16 12.16 0 011.85-1.45 7.46 7.46 0 002.1-2 5.19 5.19 0 00.66-1.41 10.65 10.65 0 00.28-1.41 6.7 6.7 0 01.52-1.62 17 17 0 014.5-4.54 38.55 38.55 0 015.65-3.09 10.93 10.93 0 005.1-4.35 6.79 6.79 0 00.5-1.72 7.73 7.73 0 00.14-1.77v-1.62a7.18 7.18 0 01.11-1.39 2.09 2.09 0 01.32-.67c.13-.12.14-.12.3-.11a1.93 1.93 0 01.69.27 5.56 5.56 0 01.74.52c.28.33.49.82 1 1.38a3.73 3.73 0 00.84.71 7.31 7.31 0 00.87.46 19.16 19.16 0 013.06 1.29 11.16 11.16 0 012.05 2.53 5.2 5.2 0 001.41 1.35 4.61 4.61 0 001.84.64 32.31 32.31 0 004.58.3 5.06 5.06 0 001.86 0h.59c1 0 2.06.1 3.07.22l1.39.21.65.15c2.09 1.14 4.3 2.58 6.43 3.54a5.8 5.8 0 001.07.66 4.68 4.68 0 001.35.39 2.32 2.32 0 001.62 0c.2 0 4.66-1.46 4.84-1.36 1.73.95 6.15-.38 8.72-.41 1.28 0 4.38-2.5 5.78-2.91.46-.14 5.32-10.47 6.39-11.56 2-2.09 3.15-5.27 2.43-6.84-.36-.74-.72-1.46-1.09-2.17-.75-3.35-4.71-7.66-6.48-10.73-.1-.31-.2-.62-.28-.93a6.78 6.78 0 01.79-3.89 17.39 17.39 0 002.83-1.77c1.22-1 2.25-2.15 3.38-3.12a12.18 12.18 0 013.88-2.19 22.7 22.7 0 004.26-1.92 6.93 6.93 0 001.77-1.66 4.21 4.21 0 00.34-.52l.15-.28c.05-.11 2.69-1.61 2.76-1.83 0 0 3.19-4.66 4.92-7a35 35 0 012.83-3.44 15.3 15.3 0 013.46-2.65 20.45 20.45 0 0113.75-2.36c.89.81 1.76 1.63 2.59 2.51a15.28 15.28 0 011.28 1.43 5.11 5.11 0 01.78 1.61 15.74 15.74 0 01.37 1.84 3.71 3.71 0 00.42 1.16 4.11 4.11 0 00.82.92 4 4 0 001 .59 1.72 1.72 0 01.28.17l.28.25a3.32 3.32 0 01.82 1.32 4.93 4.93 0 01.2.8l.1 1 .2 1.94a37.14 37.14 0 01.32 3.87c-.06 1.27-.4 2.54-.52 3.89v.58a3.87 3.87 0 01-1.93.6 6.3 6.3 0 00-2.07.36 2.86 2.86 0 00-1.63 1.71 5.8 5.8 0 00-.22 2l-.21.73a8.52 8.52 0 01-.48 1.27 1.65 1.65 0 000-.21 2.1 2.1 0 00-.26-.76l-.05-.12.06.22a3.17 3.17 0 01.13 1.06v.07a.44.44 0 01.28.31 3.94 3.94 0 01.08.68 6.48 6.48 0 001.1-1.39 9 9 0 011.14-3.07 1.75 1.75 0 011.45-.36c.24 0 .51.11.85.16a3.11 3.11 0 001.13 0 5.13 5.13 0 001.83-.9 10.7 10.7 0 013.26-1.34 4.23 4.23 0 001.38-.78.88.88 0 00.58-.06l.53-.25a10.62 10.62 0 001-.6 9.74 9.74 0 004.36-8.16 5.3 5.3 0 00-.66-2.59zM66.37 137.49a1 1 0 01.51-.61 3.75 3.75 0 00-.51.61zM175 88.86c-.94-.72-5.27-4-6.2-4.67 0 0 3.24-.07 3.27-.06a16.15 16.15 0 013.23 1.42c.09.26 2.83 2.17 3.08 3.83a4.07 4.07 0 01.08 1.7c-.39.36-3.41-2.19-3.46-2.22zm12.87 13.67a7.7 7.7 0 01-2.85 3.16 8.68 8.68 0 01-.95.51l-.19.09a1 1 0 00-.49.09 1.24 1.24 0 00-.31.26l-.13.1a2.64 2.64 0 01-1.42.26 13.66 13.66 0 00-1.37.07c.17-1.5.71-3 .95-4.74a.41.41 0 00.05.17 1.26 1.26 0 001.84.5.46.46 0 00.17-.63 1 1 0 00-1.09-.45h-.1a.46.46 0 00-.78.18 12.26 12.26 0 00.09-1.36c0-.77-.47-1.2-.56-1.82a13.5 13.5 0 01.17-2c0-.35.05-.81 0-1.31a1.29 1.29 0 00.42.12l.05.09a.46.46 0 00.45.12.53.53 0 00.34-.8c-.2-.34-.78-.46-1.12-.6a.35.35 0 00-.3 0A3.68 3.68 0 00180 93c.48.27 1 .47 1.43.68 1.35.57 2.7 1.09 4 1.75a2 2 0 00-.43.52 4.61 4.61 0 00-.48 1.75 4 4 0 00.24 1.89 3 3 0 001.4 1.57 2.81 2.81 0 002.24.07 8.08 8.08 0 01-.51 1.3zm-64.38 10.85zM20.24 155.43l.23.08z"/><path class="cls-1" d="M166.64 124.45v-.07a.31.31 0 010 .08v-.01zm14.67-29.66h.05zm-29.62 94.62a4.75 4.75 0 00-2.05-1.52 4.39 4.39 0 00-1.29-.29h-.18a7.67 7.67 0 01-.95 0 3.37 3.37 0 01-.8-.17 2 2 0 01-1.15-.82 6.82 6.82 0 01-.53-3.56 32.71 32.71 0 00-.18-4.31c-.16-1.44-.38-2.86-.6-4.27l-.34-2.11-.08-.53c0-.16-.14-.9-.14-1.08a1.06 1.06 0 000-.31v-.12c-.11-.66.29-1.11.8-1.82a4.28 4.28 0 00.7-1.35 6 6 0 00.17-1.46 11.83 11.83 0 000-1.34 4.61 4.61 0 010-1.06 4 4 0 01.28-.92c.14-.33.35-.68.55-1.09a7.68 7.68 0 00.5-5.44 11.12 11.12 0 00-1-2.45 7.4 7.4 0 00-.73-1.13.6.6 0 00-.86.77 6.37 6.37 0 01.55 4.76 8.85 8.85 0 01-.35 1.1c-.14.34-.31.67-.5 1a9.72 9.72 0 00-1 2.48c-.35 2 .49 3.56-.08 5.09a6.84 6.84 0 00-.84 2.48 2.32 2.32 0 00.08.7 1.89 1.89 0 00.09.36 37.94 37.94 0 01.81 7.21c-.07 1.08-.18 2.18-.29 3.22a19.32 19.32 0 00-.21 3.28 43.16 43.16 0 01-1.85-11 71.28 71.28 0 01.08-7.45c0-1.24.18-2.48.3-3.72l.21-1.86c0-.16 0-.3.05-.48a.47.47 0 00-.3-.47.63.63 0 00-.84.5c-.6 4.95-1.52 9.87-1.63 14.93a29.77 29.77 0 003.15 14.84 6 6 0 001.34 1.64c.59.48 1.1 1.28 1.63 1.49a4.8 4.8 0 011.43.89c.43.38-.13.82.07 1.25a.56.56 0 01.07.25.59.59 0 01-.06.26.53.53 0 01-.41.4 8.67 8.67 0 01-.89.06c-.61 0 .77 0 .15-.07-1.29-.08-2.52.08-3.76.06a17.9 17.9 0 01-3.67-.31 5.27 5.27 0 01-1.64-.6 1.76 1.76 0 01-.89-1.21 1.6 1.6 0 010-.38 2.78 2.78 0 000-.34.75.75 0 00-.24-.42.93.93 0 00-.83-.21 1 1 0 00-.66.58 2 2 0 00-.07.62 3.64 3.64 0 00.36 1.58 4.68 4.68 0 003.39 2.29 18.19 18.19 0 003.86.39s2.86 0 3.51.12 1.43-.29 2.12-.29.32.06 1.15-.46a1.91 1.91 0 001-1.93.3.3 0 00.16 0 .7.7 0 00.25-.15l.13-.13c.13-.13.34-.17.75-.27s1.55-.57 1.75-1.06c.42-1 1.65-1.66 1.5-2.42a5.57 5.57 0 00-1.05-2.22zm-3 3.46a.32.32 0 00-.07.19.67.67 0 01-.1.45c-.05.07-.17.1-.35.09a.3.3 0 00-.26.1c0 .05.47-1.49-.08-2a7.55 7.55 0 00-2.63-1.75 2.44 2.44 0 01-1.12-.75 1.92 1.92 0 01-.23-.31 4 4 0 00.87.56 5 5 0 001.81.41 14.89 14.89 0 001.68-.07c.54 0 .06 0 .57.08a2.27 2.27 0 012 1.88.11.11 0 000 .08c.22.42-1.86.74-2.12 1.04zm-28.95-21.22l.33-.1.51-.17a10.65 10.65 0 001-.39 8.81 8.81 0 001.93-1.17 7.16 7.16 0 001.59-1.74 12.08 12.08 0 001-2 17.36 17.36 0 011.62-3.43 2.11 2.11 0 011.52-.85h.49c.14 0 .47 0 .62-.13a.68.68 0 00.21-.59.53.53 0 00-.41-.44c-1.35-.36-3.37-2.81-4.64-1.88-.62.46-1.9 3.76-2.27 4.44a11 11 0 00-.54 2.16 10.71 10.71 0 01-.39 1.84c-.29.58-.11.91-.62 1.34a7 7 0 01-1.73 1l-.48.19a4.79 4.79 0 00-.53.2.8.8 0 00-.38.92 1 1 0 00.64.7 1 1 0 00.53.1zm5.91 4.94a28.36 28.36 0 011.88-3.75 2.76 2.76 0 011.69-1 2.33 2.33 0 01.53-.06h.25a.54.54 0 00.35-.16c.35-.38.17-1.68-.3-1.7a12.47 12.47 0 00-2.8-.1 5.41 5.41 0 00-2.21 1c-.66.51-.78 2-1.14 2.77-.2.4-.29.65-.46 1l-.48.91a44.24 44.24 0 01-2.31 3.79 21.1 21.1 0 00-1.21 1.94c-.17.34-.35.69-.49 1l-.11.28a.85.85 0 000 .53 1 1 0 001.82.11l.24-.53a7.69 7.69 0 01.52-.87 12.82 12.82 0 011.3-1.62 17.46 17.46 0 002.93-3.54zm3.42 4.58a1.35 1.35 0 00.36-.36.55.55 0 000-.54.63.63 0 00-.83-.3 13.23 13.23 0 00-2.87 1.81 5.78 5.78 0 00-1.71 2.94c-.29 1.07-.32 2.19-.64 3.21a7.19 7.19 0 01-.64 1.45l-.2.34a.84.84 0 00-.07.7 1 1 0 00.47.54.9.9 0 00.83 0 .94.94 0 00.33-.29l.14-.2.24-.36a7.85 7.85 0 00.44-.73c.26-.5.48-1 .69-1.51l1.18-2.91a18.79 18.79 0 011.3-2.62 4.19 4.19 0 01.98-1.17zm.93 7.61l.13-.12a.34.34 0 01.12-.08.79.79 0 00.15-.12.66.66 0 00.21-.64.67.67 0 00-.81-.56 6.86 6.86 0 00-1.24.44 3.19 3.19 0 00-1.15.92 3.32 3.32 0 00-.55 2.5v1.3a2.93 2.93 0 00.15 1.42 1 1 0 00.82.46 2.7 2.7 0 00.41 0 1 1 0 00.54-.21 1.13 1.13 0 00.31-1.28.33.33 0 00-.06-.1c.05-.13.1-.25.14-.37a9.18 9.18 0 00.22-.91c.12-.64.14-1 .24-1.5a2.72 2.72 0 01.37-1.15zm-2 4.12zm.51.68a.08.08 0 010-.05.85.85 0 00.16-.14 1.3 1.3 0 00.15-.18.75.75 0 01-.36.37zm3.94-3.39a.78.78 0 00-.48-.53.81.81 0 00-.92.26 12.29 12.29 0 00-1 1.46 2.25 2.25 0 00-.26.86 2.4 2.4 0 00.08.74c.06.22.14.42.17.61a.67.67 0 010 .28.68.68 0 01-.21.29.88.88 0 000 1.14.76.76 0 00.67.25 1.25 1.25 0 00.34-.1l.22-.1a2.2 2.2 0 00.83-.67 2.78 2.78 0 00.4-1 6.4 6.4 0 00.16-1.64 10.81 10.81 0 00-.1-1.18c-.04-.01.18-.38.1-.67zm51.39-92.14a.37.37 0 00-.51-.2h-.05a1 1 0 00-1.12.32.48.48 0 00-.08.56 1.57 1.57 0 001.83.78.47.47 0 00.28-.68c-.12-.27-.19-.53-.35-.78zm1.85 5.76c-.09-.32-.48-.54-.74-.22a.81.81 0 000 1.13.78.78 0 001.12-.1.51.51 0 00-.38-.81zM156.68 91a3 3 0 01-.66-.18 1 1 0 00-.59.28c-.46.44-.27.38-.32.94a1.9 1.9 0 01-.41 1.12c-.56.56-2.59-.14-2.17 1.24a2.31 2.31 0 00.48.7c.09-.22.13-.34.19-.51a1.86 1.86 0 01.31-.69 2.5 2.5 0 00.56-.18 2.28 2.28 0 00.75-.43 1.85 1.85 0 00.57-1 3.51 3.51 0 00.07-.41.89.89 0 000-.14c0-.08.15-.27.46-.4s.33-.13.51-.18.14 0 .32-.09h.06zm-9.43 37.81a2.77 2.77 0 01-.12-.41 2.82 2.82 0 01-.47-2.57l-.1.15a2.13 2.13 0 00-.25.54s0 .11-.13.27a1.63 1.63 0 00-.3.78 1 1 0 00.31.79 2.72 2.72 0 00.47.29l.09.09.05.11.12.16a.77.77 0 00.79.17h.08a.49.49 0 01-.54-.37zm1.75-3.15a3.33 3.33 0 00-.68 2.6.54.54 0 01-.12.44v.09c0 .03.08-.08.12-.15a.84.84 0 00.08-.45l.18-.23a2.9 2.9 0 00.2-.33 2.62 2.62 0 00.15-.39 3.82 3.82 0 00.14-1.18 1.28 1.28 0 00-.06-.35zm2.59 5a4.29 4.29 0 01-.1-1.82c0-.68.07-1.2-.78-1a.51.51 0 01-.51-.19 1.12 1.12 0 00-.41 1.39c.21.49.69.68.92.93a1.35 1.35 0 01.3.42.87.87 0 00.69.43zm6.24-3.12c-.09.39-.21.77-.31 1.1a6 6 0 01-.56 1.53c0 .3-.25.57-.6.43a1.37 1.37 0 01-.84-1.92 2.74 2.74 0 01.78-1.07c.33-.28.55-.44.6-.83a1.14 1.14 0 00-.44.13 1 1 0 00-.43.53c-.09.33-.45.58-.77.91a1.08 1.08 0 00-.31 1.1 2.57 2.57 0 00.26.56 2.57 2.57 0 01.15.29 1.21 1.21 0 00.25.37 1 1 0 00.73.29.86.86 0 00.82-.53 1.29 1.29 0 00.08-.26l.06-.12c0-.08.07-.16.1-.23s.1-.3.15-.44a5.57 5.57 0 00.25-.83 3.13 3.13 0 000-.44 2.55 2.55 0 00.03-.57zm3.06.28a2.22 2.22 0 01.52-1.5c.42-.5 1.09-.83 1.14-1.54a.94.94 0 00-.73.25 1.51 1.51 0 00-.17.2l-.11.09a1.14 1.14 0 00-.19.19 2.88 2.88 0 00-.32.39 3 3 0 00-.47.84 2.56 2.56 0 00-.1.48 1 1 0 01-.05.25 2 2 0 000 .34.93.93 0 00.3.57.89.89 0 00.24.17.87.87 0 01-.06-.73zm1.45-27.82a1 1 0 00-.28-.35.49.49 0 01.06.75 4.41 4.41 0 00-.75 2 1.74 1.74 0 01-.68 1.08l-.13.11h-.05a2.65 2.65 0 01-.62.34 2.49 2.49 0 01-2.54-.29 3.23 3.23 0 002.08 1.13 2.66 2.66 0 001.5-.29 2.27 2.27 0 001.08-1.23 5.23 5.23 0 00.21-2.1 1.73 1.73 0 01.05-.45c0-.06.08-.2.1-.35a.83.83 0 00-.03-.35zm-13.1 10.45a.42.42 0 01-.35-.59 5.32 5.32 0 011.22-2c.79-.81 1.85-1.34 2.07-2.55.27-1.42-.47-3 .83-4.11a.47.47 0 01.41-.11.5.5 0 00-.61 0 4.89 4.89 0 00-1.17.94 2.8 2.8 0 00-.45.7 2.72 2.72 0 00-.19.87 11.8 11.8 0 000 1.4c0 .38 0 .38-.13.59a7.69 7.69 0 01-1 .88 3.7 3.7 0 00-1 1.32 5.22 5.22 0 00-.43 1.48v.38a.88.88 0 00.09.56.93.93 0 00.73.45zm8.97 4.07c.36-.64 1.13-.81 1.6-1.31.94-1-.43-1.44-.46-2.5a1.56 1.56 0 01.26-.93 3.53 3.53 0 00-.82 1.52 2.15 2.15 0 00.1 1.36.67.67 0 01.06.12c-.13.15-.33.33-.55.55a2.21 2.21 0 00-.65 1.16 1.64 1.64 0 00.21 1.27 2.47 2.47 0 00.42.51l.16.09a1.63 1.63 0 01-.33-1.84z"/><path class="cls-1" d="M159.06 112.62c0-.07 0-.12.06-.12s-.02.07-.06.12zm-4.57 9.72v.21a1.84 1.84 0 01-.25.86.46.46 0 01.43.13 1 1 0 001 .17 1.21 1.21 0 00.28-.39 2.68 2.68 0 00-.06-.52c-.06-.4-.2-.79-.24-1.19v-.15a2.42 2.42 0 01-.49-1.38 1.16 1.16 0 01.23-.63 2 2 0 00-.86 1 2.75 2.75 0 00-.13 1.39c.03.16.07.36.09.5zm-3.49-2.15c-1.52-1.58.33-4.19.49-6a13.75 13.75 0 01.19-1.62v-.45c0 .08-.11.15-.16.24a4.37 4.37 0 00-.37 1.36 8.73 8.73 0 000 1.21 3.85 3.85 0 010 .8c-.06.48-.71 1.42-.84 2.32a5 5 0 00-.06 1.34 1.86 1.86 0 000 .36.73.73 0 00.34.47 1 1 0 00.59.12.49.49 0 01-.18-.15zm2.47-6.55a.47.47 0 01-.06.15 3.88 3.88 0 01.22 2.11c-.35 1.36-1.68 2.19-1.63 3.64a1.27 1.27 0 000-.33v-.13a1.38 1.38 0 01.12-.36 3.78 3.78 0 01.55-.67 4.69 4.69 0 00.91-1.13 2.72 2.72 0 00.29-1.72 6.48 6.48 0 00-.4-1.56zm6.29-20.33a5.12 5.12 0 01.05 1.61c0 .32-.15.61-.22.92v.12a1 1 0 00.14.29 1 1 0 01.28-.45 2.91 2.91 0 00.47-.57 1.89 1.89 0 00.22-1.1 2.67 2.67 0 00-1.21-1.72l-.38-.27a1 1 0 00-.56-.21h-.13a1.56 1.56 0 011.34 1.38zm-2.05 3.35c-.08-1 .38-1.85.36-2.72a4.12 4.12 0 00-.65 1.62 2.34 2.34 0 00.48 1.68 1.72 1.72 0 01-.19-.58zm6.01 20.51c.28-.9 1.12-1.32 1.69-2a1 1 0 00-.54-.46 1.1 1.1 0 00-.85 0 1 1 0 00-.59 1 2.23 2.23 0 000 .27v.1l-.09.15a2.36 2.36 0 00-.25 1.18 1.69 1.69 0 00.12.44.86.86 0 00.13.25l-.06.1a1.26 1.26 0 00-.16.63 1.41 1.41 0 00.47 1.08 1.21 1.21 0 00.29.19h.31a4.7 4.7 0 01-.47-2.93zm2.68.83a1.45 1.45 0 00-.64-.87 1.31 1.31 0 00-.09.94.43.43 0 010 .39c.41 1.12.74 2 0 3a.58.58 0 00.32-.37 4.11 4.11 0 00.23-1.61 2.56 2.56 0 000-.27 1.53 1.53 0 00.18-1.21z"/><path class="cls-2" d="M170.21 93.88v.1h1a1.38 1.38 0 00-.56-1.08.93.93 0 00-1.35 1.19 1.5 1.5 0 001 .67c.63.15.89-.82.27-1-.08 0-.25-.11-.31-.09s-.1.12-.08.28c.06.62 1 .66 1 0a1.13 1.13 0 00-.34-.81c-.45-.46-1.16.24-.71.71z"/><path class="cls-2" d="M169.42 93.41c-.09.87 1.16 1.32 1.46.41a.71.71 0 00-.48-.87.9.9 0 00-1 .5.8.8 0 001.09 1.12c.7-.45.59-1.72-.37-1.67-.64 0-.65 1 0 1l-.2-.21.14-.35.38.07c.06-.63-.94-.63-1 0z"/><path class="cls-2" d="M178.42 91.64c-1.06-2-2.9-2.29-4.63-3.65-.13-.22-2.34-2-2.56-2.22-.88-.79-.43-1-1.38-1.58-.23-.19.54-.45.3-.62l-1.56-1.19a1.87 1.87 0 00-1.39-.4c-3.68-1.41-7.58-.8-11.41 1.52-3 1.82-5 3.76-5.84 6.16a2.52 2.52 0 00-.64.52 15.37 15.37 0 00-3.61 7.42 3.15 3.15 0 01.71-.58c.37-.22 2.24-1 2.5-.63.61.79-.91 3-1 4 0 .11-.4 1.93-.53 2.74-.18 1.09-1.37 2.13-1.37 3.24s.89 1.66.87 2.66-1 2.47-1.17 3.53a1 1 0 010 .1c.09 1.85.67 3.89-.52 5.45s-2 2.12-2.38 4a15.74 15.74 0 000 3.22c0 .38-1.43 1.45-1.72 1.38.1.83.4.81 1 1.77 1.51 2.5 4.35 6.2 7.68 5.55 1.5-.3 2.26-1.49 3.78-1.3s2.2 1.42 3.8 1.21a4 4 0 002.52-1.39c.35-.36.75-1.59 1.17-1.81.22-.11.51.19 1.23.2 2.83.05 4.21 0 5.39-3.06a97.84 97.84 0 002.84-9.69c.53-1.31-.59-4.4-.63-4.58.38-2-1.67-5.82-1.66-5.84-1.45-3.23-3.88-4.94-5.21-8.28a6.63 6.63 0 01-.49-2.18 6.75 6.75 0 00-.94-3.38 6.19 6.19 0 01-.32-5.2c.19-.61 1.15-.35 1 .27 0 .07 0 .13-.05.2a.49.49 0 01.05.3 5.83 5.83 0 00.55 3.52c.11 0 .68 1.69 1.07 2.58a14.8 14.8 0 01.52 2.06 11.1 11.1 0 002.7 5.45 12.61 12.61 0 011.4 1.8 8.47 8.47 0 011.14 2 9.45 9.45 0 011.18 3.12 15.56 15.56 0 00.84 3.56c.11.39.4 1.28.44 1.44v.17a2.62 2.62 0 00.46-.77 9.53 9.53 0 012.17-4 6.5 6.5 0 003.09-.36c2.62-1.26 3-4.82 3.17-7.42a21.16 21.16 0 00-2.56-11.01zm-20.27.28a1.57 1.57 0 011.61 1.39 5.12 5.12 0 01.05 1.61c0 .32-.15.61-.22.92v.12a.84.84 0 00.77.65.51.51 0 01.34.62c-.17.68-.61.9-1.05.82a.33.33 0 01-.14 0 1.47 1.47 0 01-1.78-1.43c-.11-1.31.83-2.55.06-3.71a.5.5 0 01-.1-1 .41.41 0 01.46-.09zM151 93a2.07 2.07 0 01.67-.87c.37-.29.91-.35 1.23-.6s.43-.94.71-1.3a1.88 1.88 0 011-.76 1.35 1.35 0 01.49 0 2.39 2.39 0 012 .48h.14c.58-.26 1.09.6.51.87a1.72 1.72 0 01-.28.08.41.41 0 01-.65.2l-.21-.13a3 3 0 01-.66-.18 1 1 0 00-.59.28c-.46.44-.27.38-.32.94a1.9 1.9 0 01-.41 1.12c-.56.56-2.59-.14-2.17 1.24.16.54 1.09 1 .63 1.66s-1.4.19-1.78-.24A2.84 2.84 0 01151 93zm-2.15 16.82a5.32 5.32 0 011.22-2c.79-.81 1.85-1.34 2.07-2.55.27-1.42-.47-3 .83-4.11a.48.48 0 01.42-.11c.41-.23.93.38.57.82-.79 1 0 2.58-.12 3.92a2.06 2.06 0 01-.17 1.38 3.78 3.78 0 01-1.49 1.25 5.26 5.26 0 00-1.92 2.68.51.51 0 01-.87 0 2.08 2.08 0 01-.19-.65.42.42 0 01-.31-.59zm-.54 18.4a.54.54 0 01-.12.44.51.51 0 01-1 .11 2.77 2.77 0 01-.12-.41c-1.29-1.48-.35-4.46 1.68-4.58a1.27 1.27 0 011.75.8.5.5 0 01-.48.63c-1.38-.11-1.86 1.94-1.67 3.05zm4.08 2.62a.52.52 0 01-.84-.22 4.29 4.29 0 01-.1-1.82c0-.68.07-1.2-.78-1a1 1 0 01-.48-1.26c.88-1.12 2.15-.5 2.73.57a3 3 0 01-.49 3.77zm1.2-15c-.36 1.43-1.84 2.27-1.62 3.86a.48.48 0 01-.25.43l-.14.08a.53.53 0 01-.61-.08c-1.52-1.58.33-4.19.49-6a13.75 13.75 0 01.19-1.62 1.86 1.86 0 01.78-1.74.38.38 0 01.41 0 1.45 1.45 0 01.75 0 .5.5 0 01.3.73 2.27 2.27 0 00-.44 2 .54.54 0 01-.08.36 3.88 3.88 0 01.26 2.04zm4.29 10.72a12 12 0 01-1 3.53c0 .3-.25.57-.6.43a1.37 1.37 0 01-.84-1.92 2.74 2.74 0 01.78-1.07c.4-.34.63-.48.62-1.06a.5.5 0 011-.13.61.61 0 010 .14zm.53-6.07c-1-.47-.74.83-.75 1.47a3.5 3.5 0 01-.07.65 2.44 2.44 0 01-.25 1.48 1.81 1.81 0 01-2.61.9 3.19 3.19 0 01-.69 0 .41.41 0 01-.31-.62.74.74 0 01.16-.76.51.51 0 01.78-.1 1 1 0 001 .17 1.21 1.21 0 00.28-.39 2.68 2.68 0 00-.06-.52c-.06-.4-.2-.79-.24-1.19v-.15a2.42 2.42 0 01-.49-1.38c.06-.89.85-1.14 1.64-1.13 1-.47 2.45-.14 2.4 1.17a.51.51 0 01-.75.46zm1.52-4.2a.5.5 0 01-1 .27.51.51 0 01-.44-.2 1.63 1.63 0 01-.35-1.86c.36-.64 1.13-.81 1.6-1.31.94-1-.43-1.44-.46-2.5s.77-1.57 1.46-2.07c.39-.29 1 .29.68.68-1.09 1.49.8 2.81.27 4.46-.32 1.24-2.07 1.24-1.69 2.59zm7.14 7.1a2 2 0 00-.62.19.12.12 0 01-.05 0l-.12.07a.85.85 0 00-.15 1 .51.51 0 01-.61.72.45.45 0 01-.45-.22 1.87 1.87 0 01-.24-2.15 2.48 2.48 0 012.09-.67c.6.16.76 1.03.19 1.12zm-3.39-6.28c.34-1.11 1.55-1.49 2-2.51.24-.5.87-.17.93.26a4.66 4.66 0 01-.72 1.88l-.13.16a1.4 1.4 0 00-.17 1.1.43.43 0 010 .39c.43 1.17.78 2-.15 3.09a.41.41 0 01-.33.13H165a.48.48 0 01-.41-.6c-.36-1.22-1.26-2.52-.87-3.84zm-1.17 7.48a.5.5 0 01.86-.51c.68 1.14-.17 2-.88 2.88a1.66 1.66 0 000 .32c0 .71-.22 1.7-1.18 1.46-.53-.14-.57-.56-.45-1a2.22 2.22 0 01.52-1.5c.43-.51 1.11-.83 1.14-1.57zm-.78-25.06a.5.5 0 01.35.85 4.41 4.41 0 00-.75 2 1.74 1.74 0 01-.68 1.08l-.13.11h-.05a2.65 2.65 0 01-.62.34c-1 .37-2.42.33-2.86-.76a.44.44 0 01-.45-.35c-.4-1.62 1.72-.91 2.51-1 1.32.09 1.12-2.26 2.72-2.21zm9.38-5.75a.3.3 0 010 .08 1.94 1.94 0 01-.15.24 2.41 2.41 0 01-3.11-.07 1.09 1.09 0 01-.63-.68 1 1 0 01.44-1.09l.14-.11c-.08 0 .32-.29.33-.3a2.11 2.11 0 01.43-.2 2.41 2.41 0 011 0 1.3 1.3 0 01.85.39 1.17 1.17 0 01.2.29.94.94 0 01.54 1.51z"/></svg>