<svg id="Layer_1" data-name="Layer 1" xmlns="http://www.w3.org/2000/svg" width="46.84mm" height="50mm" viewBox="0 0 132.77 198.43"><defs><style>.cls-1{fill:#1e5d84}</style></defs><path class="cls-1" d="M68.42 164.38a5.93 5.93 0 00-1.08-.43c-1.5-.44-3-.31-4.21-.61a2.84 2.84 0 01-1.42-.92 7.65 7.65 0 00-.78-.86 2.62 2.62 0 00-1.36-.61 4.77 4.77 0 00-.64 0 2.44 2.44 0 01-.43 0 7.81 7.81 0 01-1-.12 1.25 1.25 0 01-.31-.12h-.05v-.14a1.08 1.08 0 00-.16-.29 1.14 1.14 0 00-.15-.17l-.11-.09a3.5 3.5 0 00-.6-.35 3.36 3.36 0 00-1.39-.25 8.38 8.38 0 01-1 0 2.5 2.5 0 01-.38-.06.77.77 0 01-.2-.09 2.51 2.51 0 01-.47-.56 5.3 5.3 0 00-.82-1 2.39 2.39 0 00-1.58-.58 2.62 2.62 0 00-1.52.51 3.42 3.42 0 00-1 1.08 3.7 3.7 0 00-.4 1.35 4.18 4.18 0 01-.2.86c-.06.16-.14.32-.22.49a1.17 1.17 0 00-.32-.15 1.2 1.2 0 00-.91.15c-.39.28-.47.57-.74.76a1.68 1.68 0 01-.38.23l-.22.07a1.64 1.64 0 00-.27.09.92.92 0 00-.51.75 1.17 1.17 0 00.3.9 1.21 1.21 0 001 .39 3.6 3.6 0 00.5-.13.77.77 0 00.22.16 3.93 3.93 0 00-.06.48c-.07.81 0 1.53-.06 2.15a2.74 2.74 0 01-.45 1.49 2.68 2.68 0 01-.54.59 10.94 10.94 0 00-.89.78 2.54 2.54 0 00-.43.67h-.06a1.56 1.56 0 00-1.18-.11 1.6 1.6 0 00-.69.44v.15c0 .04-.06 0-.08 0s0 0 0-.11a1.37 1.37 0 000-.29.87.87 0 00-.29-.53 1 1 0 00-1.25-.09 1.44 1.44 0 00-.44.57 1.61 1.61 0 00-.16.54 2.07 2.07 0 00.2 1.14 2.39 2.39 0 00.81.92 2 2 0 001.26.31 2.25 2.25 0 00.72-.18.85.85 0 00.21.14h.12l-.1.1c-.19.16-.48.34-.82.61a3.32 3.32 0 00-1 1.15 5.87 5.87 0 00-.4 2.44.78.78 0 01-.17.45 2.52 2.52 0 01-.25.27l-.36.33a.6.6 0 00-.12.11 1 1 0 00-.75-.42 2.81 2.81 0 00-1.32.39 5.15 5.15 0 01-.56.2 1 1 0 00-.5.67 1.14 1.14 0 00.31 1 1.24 1.24 0 001.09.32.49.49 0 01-.06-.16V181a.31.31 0 010 .07l.06.16a.43.43 0 000 .07h.14l.16-.05-.07.05a.26.26 0 01-.1 0h-.06a1.13 1.13 0 00.58.5l-.15.73-.32.21c.1-.1 0 0-.11.06a2.14 2.14 0 00-.61.55 3 3 0 00-.5 1.25 6.49 6.49 0 000 2.12 8.71 8.71 0 00.46 1.95 4.3 4.3 0 001.3 1.89 2.75 2.75 0 00.62.38c.22.08.41.13.56.17l.31.09.1.07a7.51 7.51 0 01.92 1.27 3.18 3.18 0 00.87.84 3.71 3.71 0 001 .47l.47.14c.15 0 .26.08.5.13l.45.07h.11a5.18 5.18 0 01.72 1v.08h-.22l-.84.15a48.58 48.58 0 01-5.66.76 8.28 8.28 0 01-2.74-.2A6.58 6.58 0 0133 194.8c-.74-.58-1.41-1.27-2.12-1.93a9.28 9.28 0 00-1.12-.94c-.41-.28-.83-.52-1.25-.75a7.06 7.06 0 01-2.27-1.66 2.43 2.43 0 01-.31-.54 1.2 1.2 0 00.26-.4.77.77 0 00.06-.23 1.05 1.05 0 00.14-.41 1.91 1.91 0 000-.43l-.07-.49c0-.39-.06-.78-.07-1.16v.11a3.57 3.57 0 00.46.67 3.18 3.18 0 001.19 1 1.63 1.63 0 001 .06 1.78 1.78 0 00.86-.53 2.19 2.19 0 00.56-1.82 2.38 2.38 0 00-.3-.82 1.15 1.15 0 00-.14-.17l-.21-.22a1.09 1.09 0 00-.73-.32.94.94 0 00-.93.63.79.79 0 00-.06.22 1.22 1.22 0 00-1.17 0 1.15 1.15 0 00-.54.64 10.19 10.19 0 01.22-2.08c.13-.55.4-1.13.65-1.83a7.18 7.18 0 00.33-1.18 3.24 3.24 0 00-.1-1.48c-.15-.45-.26-.69-.32-.94a2.86 2.86 0 01-.08-.72c0-.59.11-1.26.13-2a7.68 7.68 0 01.1-1.83c.07-.31.19-.69.26-1a2.37 2.37 0 000-1.32 7.7 7.7 0 01-.37-.93 1.64 1.64 0 01.1-.89 4.58 4.58 0 01.2-.46.59.59 0 000-.64.57.57 0 00-.16-.15 1 1 0 00.14-1 1.13 1.13 0 00-.43-.48l-.23-.14a3.87 3.87 0 01-.37-.32 2.87 2.87 0 01-.72-1.8 6.18 6.18 0 010-1c0-.14.06-.28.11-.51a3.28 3.28 0 00.07-.78 3.2 3.2 0 00-.44-1.5 4.84 4.84 0 01-.44-1 12 12 0 01-.5-2.18c-.13-.77-.25-1.59-.46-2.43a10.34 10.34 0 00-.4-1.27 2.27 2.27 0 01-.22-.85 6 6 0 01.08-1v-.06c.24.33.41.65.71 1a2.13 2.13 0 003 .1 1.89 1.89 0 00.47-.69l.09-.26a1.53 1.53 0 000-.38 1 1 0 00-1.28-1 .94.94 0 00-.57.46.35.35 0 01-.41.17.34.34 0 01-.25-.34.39.39 0 01.09-.23 1.22 1.22 0 00-.23-.29 1.16 1.16 0 00-.73-.3 1.11 1.11 0 00-.9.42.8.8 0 000-.15c-.14-.59-.37-1-.42-1.19a4.57 4.57 0 01-.1-.9 11.76 11.76 0 011-4.24c.55-1.44 1.23-2.87 1.84-4.44l.05-.15a1 1 0 00.06-.2 1.26 1.26 0 000-.27 1.5 1.5 0 00-.26-.88 1.57 1.57 0 00-.66-.55 1.66 1.66 0 00-.74-.11 2.2 2.2 0 01-.85-.08 6.15 6.15 0 01-1.78-1 11.32 11.32 0 00-1.54-1l.16.05a3 3 0 001.83 0 3.5 3.5 0 001.65-.91 2.47 2.47 0 00.77-1.75 1 1 0 00-.16-.79 1 1 0 00-.53-.36.71.71 0 00-.87.37 1.4 1.4 0 01-1.25.71 2.34 2.34 0 00-1.14.29 5.39 5.39 0 01-.59.32l-.17.06a1.21 1.21 0 00-.33.08.81.81 0 00-.49.52 1 1 0 00.31 1 13.51 13.51 0 01-2-.8c-.63-.33-1.17-.91-2-1.36a2.45 2.45 0 00-1.36-.26c0-.14 0-.28.05-.43a3.54 3.54 0 00-.17-1.72.7.7 0 00-.35-.35 3.56 3.56 0 00-.41-.17l-.79-.22s-.09 0 0 0 0-.06-.06-.09a.49.49 0 00-.17-.18.7.7 0 00-.48-.11.59.59 0 00-.42.25.51.51 0 000 .49 1.3 1.3 0 00.35.51.81.81 0 00.23.22.68.68 0 00.33.06 1.31 1.31 0 01.25 0s.1.09.14.15a1.29 1.29 0 01.17.5 8.27 8.27 0 01-.2 2.29.63.63 0 00.48.6.81.81 0 00.38 0c.15 0 .24-.09.32-.11a1.29 1.29 0 01.94 0c.56.23.8 1 1.49 1.65a9 9 0 002.23 1 3.94 3.94 0 01.89.48c.27.21.57.47.85.71a11 11 0 002 1.49 4.29 4.29 0 00.72.33c-.38 1-.75 2-1.12 3-.26.78-.53 1.42-.84 2.21a8.36 8.36 0 00-.64 2.56 5.23 5.23 0 000 .76 3.53 3.53 0 00.21.65 1 1 0 010 .19v.3l.1.59a18.66 18.66 0 01.28 2.34 3.31 3.31 0 00.31 1.32c.18.41.38.73.51 1.08a9.62 9.62 0 01.55 2.25 16 16 0 00.42 2.41c.23.8.59 1.54.82 2.27.55 1.44.12 3.08.87 4.78a3.61 3.61 0 00.81 1.08 6.1 6.1 0 001.11.78.53.53 0 00.18 0 4.66 4.66 0 00-.45 1.16.54.54 0 00-.29.32A2.87 2.87 0 0123.9 171a2.92 2.92 0 00-1.48 1.58 1.65 1.65 0 00.16 1.28 1.41 1.41 0 01.15.38c0 .07 0 0-.06 0s-.3.28-.56.51a2.57 2.57 0 00-.77 1.17 2.48 2.48 0 00.09 1.46c.14.41.32.71.39.91a2 2 0 01-.12 1.32 8.7 8.7 0 00-.52 2.1 2.69 2.69 0 00.22 1.29 1.52 1.52 0 00.43.59 1.25 1.25 0 01.28.23l.09.11a.22.22 0 00.09.07.74.74 0 01.52.8l-.36.24a.17.17 0 00-.09.11 4 4 0 00-.26 1.95 2.1 2.1 0 00.47 1 3.84 3.84 0 00.83.64 5.2 5.2 0 00.91.39l.31.1a3.37 3.37 0 00.73 1.55 5.21 5.21 0 001.87 1.22 9.07 9.07 0 013.4 2.7 10.2 10.2 0 003.6 2.71 11.41 11.41 0 004.5.73c.74 0 1.52-.07 2.22-.09s1.47 0 2.23 0a11.25 11.25 0 002.33-.32 3.26 3.26 0 002.23-1.6 2.65 2.65 0 00-.52-2.88 4.85 4.85 0 00-1-.85 4.34 4.34 0 00-1.25-.51 6.16 6.16 0 01-1-.26 3.24 3.24 0 01-.71-.44 2.57 2.57 0 01-.53-.65 7.3 7.3 0 00-.71-1 3.25 3.25 0 00-.53-.51 4.2 4.2 0 00-.6-.38c-.39-.19-.7-.32-.91-.45a1 1 0 01-.41-.44 3.1 3.1 0 01-.26-.83 2.41 2.41 0 01.18-1.59 1.23 1.23 0 01.19-.31 2 2 0 00.78-.46 1.87 1.87 0 00.5-.88 5.1 5.1 0 00.09-.68.92.92 0 010-.19v-.27a7.92 7.92 0 01.24-1 3.4 3.4 0 01.38-.79c.22-.31.18-.26.66-.64a1.8 1.8 0 00.52-.8 3.15 3.15 0 00.11-.64v-.22a1 1 0 000-.28 1.08 1.08 0 00-.06-.39 1.09 1.09 0 00-.29-.43l-.08-.05a.64.64 0 01.08-.14l.29-.43.16-.22.09-.12c.17-.17.49-.34.85-.62a7.68 7.68 0 00.89-.83 3.33 3.33 0 00.93-2.41c-.7-1 1.72-1.87 1.85-3.66a9.38 9.38 0 000-2.32 4.32 4.32 0 010-1 2.67 2.67 0 01.33-.93 11 11 0 001-2 16.11 16.11 0 00.29-2l1.24-.21v.05l.16.21a1.69 1.69 0 00.41.48 2.38 2.38 0 001.14.4h.57a4.12 4.12 0 00.57-.08 1.09 1.09 0 01.84.08 2.82 2.82 0 01.75.6 5.48 5.48 0 00.87.69 2.47 2.47 0 001.12.46 6.12 6.12 0 001.12 0 2.35 2.35 0 011.75.49 8.76 8.76 0 01.7.75 3 3 0 001 .71c1.46.65 3 .45 4.3.66A4.69 4.69 0 0167 166a4.27 4.27 0 01.43.18 1.05 1.05 0 001 0 1.15 1.15 0 00.52-.88 1 1 0 00-.53-.92zm-40.54 21.19a.28.28 0 01.18 0 .34.34 0 01-.09.2c-.07.08-.14.06-.16 0a.11.11 0 01.07-.2zm-3.23-12.84c0-.22 0-.39-.12-.29s.14-.09.3-.17c-.06.15-.11.31-.18.46zm-.11 7.27v.44a1.5 1.5 0 010 .4c-.07.3-.2.65-.26 1.05 0 .22-.06.44-.08.66l-.08-.09a1.33 1.33 0 01-.12-.94 8.25 8.25 0 01.44-1.48l.08-.21c-.01.04.01.09.02.17zm20.59-16.47v.05zm.62-1.45l-.31.2-.17.08a1 1 0 01.18-.15.59.59 0 01.3-.15zm-.4.2l-.1.05.08-.05zm-3.65 10.24h.09a1 1 0 000 .35.73.73 0 01-.09-.35zm-2 12.42z"/><path class="cls-1" d="M132 128.6a12.86 12.86 0 00-.53-2.16 17.32 17.32 0 00-.81-2 3.65 3.65 0 00-.74-1.13 4.15 4.15 0 00-1.09-.8c-.81-.4-1.33-.1-2-.23s-2 .06-2.57-.12-1.85-1.67-1.83-1.69a3 3 0 00.09-1 3.27 3.27 0 001.11-1.32 8.57 8.57 0 00.48-1.39c.1-.35.9-.69 1.06-1.14a4.87 4.87 0 00.34-1.62 3.2 3.2 0 00-.59-1.84 3.62 3.62 0 00-1.37-1.18 5.44 5.44 0 01-1-.5 1 1 0 01-.25-.26v-.07a1.94 1.94 0 000-.42 1.64 1.64 0 00-.19-.48 1.5 1.5 0 00-.34-.38 3.41 3.41 0 00-.79-.49l-.13-.06v-.15a3 3 0 00.33-.54 1.94 1.94 0 00.09-1.37 2.24 2.24 0 00-.62-1 2.74 2.74 0 00-1.91-.68 5.1 5.1 0 00-.8.06 2.44 2.44 0 00-.59.15 2 2 0 00-.35-.79 2.47 2.47 0 00-.47-.53 2 2 0 00-.66-.37 2.68 2.68 0 00-1.2-.06h-.39a1.79 1.79 0 00-.79.33l-.19.14h-.1a2.26 2.26 0 01-.5 0 1 1 0 01-.32-.09l-.11-.09a2.15 2.15 0 00-.47-.43.73.73 0 00-.19-.07 5.9 5.9 0 00-2.76-.1 4 4 0 00-1 .42 3.27 3.27 0 00-.32-.33 2.21 2.21 0 00-1.35-.52 2.28 2.28 0 00-1.37.42 2.37 2.37 0 00-.81 1.07 6.24 6.24 0 00-.29 1 2.26 2.26 0 00-.78-.22 2.4 2.4 0 00-1.65.45 5.4 5.4 0 00-.54.52 1.3 1.3 0 00-.33.7h-.07a.41.41 0 00-.12-.09.9.9 0 00-.28-.12h-.12l-.26-.1a3.37 3.37 0 00-.71-.28 1.25 1.25 0 00-1 .19 3.3 3.3 0 00-.58.53 1.37 1.37 0 00-.33.84 1.39 1.39 0 01-.07.51.29.29 0 000 .13 1.58 1.58 0 01-.79 1.43l-.38-.08h-.22.07a1 1 0 00-.2 0c-.29.07-.27.16-.37.2a2.59 2.59 0 00-.4.41 3.05 3.05 0 00-.49 1 8.83 8.83 0 01-.59 1.88.71.71 0 01-.63.45c-.3 0-.65 0-1 .07s-1.36-.34-1.65-.11a3.66 3.66 0 00-.79 1.13 5.81 5.81 0 00-.2 1.26c0 .37.24.93.2 1.24s.3.39.15.66a5.91 5.91 0 01-.58.79 4.16 4.16 0 00-.59.87 1.67 1.67 0 000 1.06.14.14 0 000 .07.93.93 0 00-.22.47 1 1 0 00.07.55l.12.26a2.58 2.58 0 01.21.86 5.2 5.2 0 01-.21 1.46L88 124c-.2.07-.47-.17-.74-.39a.62.62 0 00-.36-.17 1 1 0 00-.71.46.8.8 0 00-.07.2 5.67 5.67 0 00-2.17.07 9.45 9.45 0 00-1.62.59 12.49 12.49 0 01-1.6.53 19.74 19.74 0 01-3.3.61 8.8 8.8 0 01-1.62 0 4.24 4.24 0 01-.74-.12l-.82-.23a8.37 8.37 0 00-3.68-.27 13.6 13.6 0 00-1.74.47 7.26 7.26 0 01-1.49.35 3.84 3.84 0 01-2.67-.77 5.87 5.87 0 00-1.83-.69c-.63-.12-1.18-.18-1.78-.25a38.51 38.51 0 00-7 .14c-2.36.34-4.46 1.34-6.66 1.06a32.8 32.8 0 01-3.3-.73 7.91 7.91 0 00-1.76-.2 8.78 8.78 0 00-1.75.26 26.22 26.22 0 00-3.37.82 9.37 9.37 0 00-1.63.78l-.38.25a1.08 1.08 0 00-.43.68 1.14 1.14 0 00.16.77 1 1 0 00.79.48 1.28 1.28 0 00.72-.27 2.23 2.23 0 01.33-.2 5.08 5.08 0 01.7-.35 8.23 8.23 0 011.51-.44c1-.21 2.16-.28 3.31-.4a13.82 13.82 0 014.45.68 1 1 0 00-.31.53 1.31 1.31 0 00.62 1.36 1.34 1.34 0 00.75.17l-.13.28c-.12.24-.22.52-.36.82a4 4 0 01-.23.47 2.72 2.72 0 00-.24.36.89.89 0 00-.08.47.9.9 0 00.43.63.6.6 0 00.66 0 10 10 0 011.22-.67 3.59 3.59 0 001.23-.9 2.53 2.53 0 00.56-1.45 2.39 2.39 0 00-.52-1.68.52.52 0 00-.11-.1 21.43 21.43 0 002.3-.42 12.38 12.38 0 013.13-.45h2.51a.8.8 0 00-.23.11 1.21 1.21 0 00-.45 1.09 1.31 1.31 0 00.76 1 .84.84 0 00-.05.31 1 1 0 00.19.64 1 1 0 001.52.1c.2-.28.65-.46 1-.91a1.18 1.18 0 00-.09-1.5 2.56 2.56 0 00-1.34-.59c-.2-.06-.38-.13-.57-.2h-.1a13.27 13.27 0 013.35.39 5.45 5.45 0 011.31.53 14.23 14.23 0 001.61.91 4.22 4.22 0 002.19.31 7 7 0 001.89-.57 8.61 8.61 0 012.9-1 12.29 12.29 0 013.15.51 6.85 6.85 0 003.65-.51c.54-.2 1.07-.4 1.59-.55a11.29 11.29 0 001.66-.52 13.52 13.52 0 013.12-1.28 3.73 3.73 0 011.59.13 1.34 1.34 0 00.6.28 1.79 1.79 0 00.37.18 6.69 6.69 0 000 .77v.12a2.81 2.81 0 00-.55.27l-.1.06a1.05 1.05 0 00-.81-.36 1 1 0 00-.89.53 1.33 1.33 0 00-.1.28.86.86 0 00-.06.23 1.26 1.26 0 000 .51 1.68 1.68 0 00.56.88 2.49 2.49 0 00.43.29 3 3 0 00.57.15 2.64 2.64 0 00.49 0c-.13.22-.27.44-.43.66a13.72 13.72 0 00-2.11 3.89h-.16c-.25.08-.44-.28-.4-.57v-.28a.9.9 0 00-.19-.15 1 1 0 00-1.13.09 1 1 0 00-.34.81 1.6 1.6 0 00.19.65 2.44 2.44 0 00.33.47c.09.11.18.26.28.4a1.4 1.4 0 00.88.63h.11a11.5 11.5 0 000 2.75 13 13 0 001.45 4.47 8.22 8.22 0 001.5 2 5 5 0 002.39 1.28c.53.1.79.1 1.14.16a6.59 6.59 0 01.89.19 7.06 7.06 0 011.69.88 5.21 5.21 0 002.5.93 17.26 17.26 0 002.33-.09l2.17-.2a13.78 13.78 0 002.31-.28 7.66 7.66 0 001.58-.57 17.84 17.84 0 01-.64 4.67 21.28 21.28 0 01-.94 2.68l-.29.67c-.11.26-.2.52-.28.77l-.43 1.42a6.44 6.44 0 01-.49 1.18 4.79 4.79 0 01-.76.95c-.32.33-.7.68-1.07 1.11a7 7 0 00-1 1.46 3.23 3.23 0 00-.31 1 6.44 6.44 0 000 .81v.09l-.07.16a3.38 3.38 0 01-.31.45l-.24.32-.22.31a4.83 4.83 0 00-.5.79 3.23 3.23 0 00-.18.52v.12a.85.85 0 000 .23 2.2 2.2 0 000 .35c0 .29.05.49.06.61a1.11 1.11 0 01-.26.14 5.74 5.74 0 00-.81.4 5.49 5.49 0 00-.73.61 3.68 3.68 0 00-1 1.72 6.53 6.53 0 00-.15 1.7 10 10 0 010 1.37c0 .45-.11.91-.2 1.39a13.27 13.27 0 00-.27 2.17c-.27-1.21-.44-2.46-.73-3.71a14.64 14.64 0 00-.93-2.58 3.69 3.69 0 01-.25-1 4.5 4.5 0 01.09-1.07 7.53 7.53 0 01.46-1.14 2.38 2.38 0 00.17-.91 2.1 2.1 0 00-.22-.88c-.24-.48-.33-.63-.25-1 0-.13.08-.2.26-.32a5.54 5.54 0 00.59-.42 4.17 4.17 0 001.52-2.46 4.71 4.71 0 00.06-.74v-.19a1 1 0 00-.06-.28.88.88 0 00-.38-.47 1 1 0 00-1.18.11.89.89 0 00-.28.66v.31c-.1.79-.48.89-1.4 1.31a2.92 2.92 0 00-1.38 1.19 2.5 2.5 0 00-.21.48 1.7 1.7 0 00-.09.64 3.17 3.17 0 00.24.94.92.92 0 01.06.39 2.79 2.79 0 010 .51 1.76 1.76 0 01-.37.82 5.38 5.38 0 00-.67 1.47L88 170a2.23 2.23 0 00-.18-.85 2.53 2.53 0 00-.38-.58 1.17 1.17 0 00-1.3-.42 1 1 0 00-.63.76.94.94 0 00.13.69c.2.28 0 .73-.24 1s-.34.39-.3.64a1.45 1.45 0 000 .62 1.1 1.1 0 00.31.5 1.31 1.31 0 00.87.31.91.91 0 00.75-.45c.1-.16.26-.31.39-.48a2.11 2.11 0 00.48-.88 3.17 3.17 0 00.1.76 6.22 6.22 0 00.69 1.48l.67 1.12c.42.74.85 1.51 1.26 2.3s.83 1.62 1.19 2.45a11.14 11.14 0 00.6 1.29v.05a1 1 0 00-.47.76 2.71 2.71 0 00.12.7l.24 1c.16.68.33 1.37.56 2.07a9.16 9.16 0 00.81 1.77 1.06 1.06 0 00-.81-.14 1.16 1.16 0 00-.54.32.29.29 0 01-.38 0 .43.43 0 01-.2-.38.27.27 0 010-.16v-.05a.38.38 0 00-.09-.1 1.1 1.1 0 00-1.22-.2 1.11 1.11 0 00-.36 1.69c.18.2.28.27.41.42s.25.29.41.44a1.59 1.59 0 001.21.53 1.93 1.93 0 001.33-.38 2 2 0 00.26-.25 2.08 2.08 0 00.16-.21 1 1 0 00.16-.3.92.92 0 000-.54c.31.46.63.9 1 1.31a31 31 0 012.35 3.31 7 7 0 01.71 1.69 1.08 1.08 0 010 .59c0 .1 0 .14-.2.24a2.85 2.85 0 01-1 .3.63.63 0 000-.19 5.06 5.06 0 00-.11-1.69 1.74 1.74 0 00-.91-1.06.31.31 0 00-.35 0h-.07v-.15a.86.86 0 000-.63 1 1 0 00-.9-.53 1.11 1.11 0 00-.57.19 2.24 2.24 0 00-.38.37 1.67 1.67 0 00-.39 1 2.25 2.25 0 00.2 1 2.52 2.52 0 00.56.85 3.38 3.38 0 00.55.47.91.91 0 00.34.2.28.28 0 00.12-.05h.08a1.22 1.22 0 00.15.4 3.92 3.92 0 01-.76 0c-1.13-.16-2.33-.94-4.07-1.17a7 7 0 01-1.71-.21 2.66 2.66 0 01-.62-.38.67.67 0 01-.23-.33 4.88 4.88 0 010-1.11.91.91 0 00.32-.29c.18-.36.63-.59 1-1a1.33 1.33 0 00.58-1.43 7.32 7.32 0 00-.78-1.24 1.12 1.12 0 00-.69-.58 1 1 0 00-1 .25 1 1 0 00-.25.65c-.6-.88-1.22-1.57-1.76-2.28.26-.14.53-.23.87-.4a1.37 1.37 0 00.73-1 1.6 1.6 0 00-.3-1.38 1.38 1.38 0 00-1-.51 1 1 0 00-.85.48 1.07 1.07 0 00-.13.78 1.59 1.59 0 00.24.49c.06.09 0 .16-.12.06s0-.1-.12-.15a.85.85 0 00-.4 0 4.62 4.62 0 01-.38-.73 2.55 2.55 0 01-.13-.29 1.13 1.13 0 00.19-.31 1.06 1.06 0 00.07-.3 2.18 2.18 0 000-.24 3.85 3.85 0 00-.15-.7 2.89 2.89 0 00-.29-.7 11.22 11.22 0 00-.67-.94l-.36-.43a2.73 2.73 0 00-.27-.3 2.28 2.28 0 01-.16-.34l-.22-.49-.19-.43s0-.23-.17-.53a1.74 1.74 0 00-.25-.41l-.21-.23a5.66 5.66 0 00-.43-.42c-.59-.5-1.17-.87-1.64-1.28a3.44 3.44 0 01-1-1.44 3.51 3.51 0 01-.16-.6 1 1 0 00.72.18 1 1 0 00.53-.22 1.07 1.07 0 00.31-.57 4.6 4.6 0 00.41-1.29 5.14 5.14 0 00.13-1.29 3.52 3.52 0 00-.1-.65 1.46 1.46 0 00-.12-.33s0-.17-.1-.29a1.21 1.21 0 00-.24-.35.93.93 0 00-1.19-.16.81.81 0 00-.41.73 2.15 2.15 0 01-.47 1.18c-.06-.15-.12-.29-.19-.43-.35-.65-.77-1.2-1.08-1.79a3.37 3.37 0 01-.17-.42 4 4 0 00-.08-.56 1.3 1.3 0 00-.44-.46.65.65 0 000-.43 7.22 7.22 0 010-3.72l.23-.9a3.11 3.11 0 01.31-.67 5.76 5.76 0 00.88-1.86 4.8 4.8 0 00.09-1.09 8.61 8.61 0 00-.05-.94 3.5 3.5 0 01.32-1.59c.23-.56.54-1.15.83-1.71.15-.28.3-.57.46-.84l.25-.41.12-.21v-.11a.66.66 0 00.3-.2.85.85 0 00.19-.51 1 1 0 00-.54-.88 1 1 0 00-.56-.07 2.79 2.79 0 00-.39.1 2 2 0 00-.72.43 5.31 5.31 0 00-.85 1.16c-.11.17-.21.32-.31.45l-.37.46-.13.17a.8.8 0 00-.08-.36 1.07 1.07 0 00-.68-.57 1.12 1.12 0 00-.62 0c-.28.12-.7 0-1.19.11a1 1 0 00-.8 1 2.79 2.79 0 00.49 1.2 1.69 1.69 0 00.35.56 1.18 1.18 0 00.74.33 1.09 1.09 0 00.42-.06 7.84 7.84 0 00-.3 1.34c0 .35-.14.7-.23 1.07a20.47 20.47 0 00-.63 2.49 8.18 8.18 0 00.06 2.71c0 .16.08.32.12.48h-.07c-.32-.05-.57-.42-.82-.76a.91.91 0 00-.9-.43l-.26.06a1.79 1.79 0 01-.37.08 1.05 1.05 0 00-.73.56 1.32 1.32 0 00-.16.74 1 1 0 00.53.76 3.07 3.07 0 00.85.63 3.15 3.15 0 00.92.36h.65a1.14 1.14 0 00.84-.41c0 .14.09.29.14.43l.19.49a9.36 9.36 0 00-1.17-.15l-2.09-.15-.51-.05a.64.64 0 00-.57.19.66.66 0 00-.18.57.5.5 0 00.44.42c1.38.2 2.81.13 4 .81.3.12.36.43.5.77s.26.65.4 1a14.72 14.72 0 01.76 1.92c.35 1.26.32 2.76 1 4.12s1.92 2.35 2.56 3.35a3.41 3.41 0 01.39.79.93.93 0 01.07.33 2.51 2.51 0 00.07.39 2 2 0 00.14.35l.14.28a2.36 2.36 0 00.22.33c.15.17.3.31.42.43a3.22 3.22 0 01.28.3.2.2 0 000 .06l.1.21a1.17 1.17 0 000 .11 1.85 1.85 0 00-.12.33 3 3 0 00-.1.69 1.55 1.55 0 000 .5c0 .19.09.27.11.34l.19.49c.07.19.14.37.22.54.17.36.36.69.55 1 .79 1.28 1.75 2.3 2.44 3.38a7.32 7.32 0 01.79 1.65 7.19 7.19 0 01.25 1.88 4.08 4.08 0 00.27 1.25 3 3 0 00.83 1.14 4.8 4.8 0 002.27.92c.73.13 1.43.19 2.1.27a8.22 8.22 0 011.93.47 7 7 0 002.2.36 7.8 7.8 0 001.1-.08c.33-.05.67-.08 1-.11a9.7 9.7 0 002.15-.34 2.55 2.55 0 001-.64 2.31 2.31 0 00.51-1.1 4.66 4.66 0 00-.26-2.21 11.46 11.46 0 00-.87-2 20.14 20.14 0 00-1.7-2.45 99.38 99.38 0 01-1.63-5.67c-.24-.95-.5-1.91-.7-2.85a4.79 4.79 0 01.18-2.66c.14-.46.33-.84.49-1.44a6.77 6.77 0 00.17-1.62 3.15 3.15 0 01.55-2.13 6 6 0 011.08-.63 3.41 3.41 0 00.8-.6 2.8 2.8 0 00.56-.91l.09-.25a1.58 1.58 0 00.07-.34 3.09 3.09 0 000-.53v-.42a3.15 3.15 0 01.57-1l.22-.32a2.83 2.83 0 01.17-.25 2.37 2.37 0 00.5-.94 2.3 2.3 0 000-1 1.25 1.25 0 010-.51 2.57 2.57 0 01.4-1.1 10.58 10.58 0 01.85-1.11 12.33 12.33 0 001-1.2 4.67 4.67 0 00.64-1.49 14.29 14.29 0 01.76-2.81 24.32 24.32 0 001.09-2.78 19.57 19.57 0 00.62-2.95 25.07 25.07 0 00.17-3v-1.13a2.22 2.22 0 000-.28 5.91 5.91 0 00.64-.68 6.55 6.55 0 001.44-3.56l1.23-.07c1.48 0 3-.2 4.43-.18a6.25 6.25 0 011 .11c.31.07.65.2 1 .31a3.25 3.25 0 001.37.16 3.82 3.82 0 001.21-.5.68.68 0 00.21-.17l.26-.34a1.3 1.3 0 011.19-.12l.29.11.37.05a1.5 1.5 0 00.47 0l.33-.09a4.55 4.55 0 001.1-.59 3.46 3.46 0 011.51-.78c.25 0 .6 0 1.07-.09a2.13 2.13 0 001.37-.79 4.43 4.43 0 00.49-1.12.25.25 0 010-.07.23.23 0 01.06-.06c.07-.06.09-.07.1-.07h.3a1.76 1.76 0 00.9-.18 1.61 1.61 0 00.73-.71 2.59 2.59 0 00.22-.71.45.45 0 000-.08l.17-.1a3.78 3.78 0 001.11-.63 3.47 3.47 0 001-2.52v-1l.08-1a9.3 9.3 0 00.12-2.45zm-73.7.55a.2.2 0 01.16-.18 1.6 1.6 0 00-.13.31.31.31 0 01-.01-.13zm.3.3a.32.32 0 01-.16 0l-.07-.07.16.06h.11zm26.22 54.9h-.07s.03-.03.09 0zm43.14-50l-.07.11c-.14.25-.23.52-.29.58a.37.37 0 00-.09.21v.18a1.54 1.54 0 01-.37 0h-.21a1.26 1.26 0 00-.53.12 1.46 1.46 0 00-.49.51 1.41 1.41 0 01-.14.18 1.59 1.59 0 00-.22.28.6.6 0 000 .56.93.93 0 00.22.27 3.14 3.14 0 01-.41.22c-.17.07-.33.15-.5.21a2.31 2.31 0 01-.46.16 6.15 6.15 0 00-1.14.07 4.23 4.23 0 00-1.11.45c-.34.17-.68.4-1 .56a2.08 2.08 0 01-.94.27 1.58 1.58 0 01-.46-.08 1.38 1.38 0 00-.7 0 4.78 4.78 0 00-1.11.45 1.09 1.09 0 00-.33.27.69.69 0 00-.11.48h-.06a4.08 4.08 0 01-1 0c-.3-.06-.64-.23-1-.34a9.93 9.93 0 00-1.17-.16 19.27 19.27 0 00-2.28 0c-1.28.08-2.53.22-3.77.32a4.28 4.28 0 00-.15-.51c-.15-.41-.33-.73-.45-1a4.41 4.41 0 01-.42-1.82 13 13 0 01.34-2.05 3.94 3.94 0 00.08-1.25 5.15 5.15 0 00-.33-1.17c-.31-.77-.78-1.33-1-1.93a6.11 6.11 0 01-.2-2v-1.11c0-.19 0-.37-.06-.57a2.43 2.43 0 00-.21-.56 13.31 13.31 0 01-.48-2.07 8.59 8.59 0 010-2.15v-.53a.56.56 0 00-.21-.6.67.67 0 00-1 .48 11.33 11.33 0 00.07 4.38 11.79 11.79 0 01.47 2.09c0 .68-.22 1.38-.17 2.19a6.44 6.44 0 00.74 2.15 3.24 3.24 0 01.43 1.86 7.55 7.55 0 01-.89 1.83 3.18 3.18 0 00-.35 1.26 2.82 2.82 0 00.31 1.34 7.67 7.67 0 01.84 1.85 4.25 4.25 0 010 1.81 4.3 4.3 0 01-2.11 2.81 7.5 7.5 0 01-3.81.61c-1.53 0-3 .34-4.17.1a4.67 4.67 0 01-1.7-.74 7.86 7.86 0 00-1-.59 3.55 3.55 0 00-.65-.22l-.56-.1a4.75 4.75 0 01-3.4-1.69 8.71 8.71 0 01-1.51-3.79 8.91 8.91 0 01.4-4.13 25 25 0 012-3.79 8.1 8.1 0 00.84-2.09 13.48 13.48 0 00.25-2.21 17.4 17.4 0 00.31-4.44 4.69 4.69 0 00-.32-1.15l-.12-.28-.03-.05a.83.83 0 00-.16-.21.7.7 0 00-.19-.15 1.05 1.05 0 01.21-.5 6.75 6.75 0 01.62-.7c.21-.24.91-.39 1-.73a2.93 2.93 0 000-1c0-.29-.37-.66-.28-1a4 4 0 01.4-.83 1.47 1.47 0 01.61-.6.93.93 0 01.81.06h.58a.11.11 0 00.07 0 2.76 2.76 0 00.68-.59 2.3 2.3 0 00.3-.88 8.19 8.19 0 01.31-1.65 1 1 0 01.45-.55c.23-.14.3-.07.69 0a2.47 2.47 0 001-.11 1.66 1.66 0 00.83-.57 1.91 1.91 0 00.45-.91c0-.43-.09-.6 0-.81a8.42 8.42 0 01.49-1 1 1 0 000 .16 1 1 0 00.15.29c0 .09.32.26.3.24a1 1 0 01.25.2 1.34 1.34 0 00.49.33 1.2 1.2 0 00.64 0 1.58 1.58 0 001-.55v-.06l.36-.7a.33.33 0 000-.15.74.74 0 01.09-.41h.2a4.72 4.72 0 011.07.63 1 1 0 00.84.4 1.07 1.07 0 00.9-.55 5.26 5.26 0 00.26-.57 1.76 1.76 0 01.17-.36.51.51 0 00.07-.15c0-.21.12-.57.12-.54a1.79 1.79 0 01.6 0 1.27 1.27 0 00.48.37 1.14 1.14 0 001.11-.15l.39-.34a3.43 3.43 0 01.33-.24h.09a3.17 3.17 0 01-.21.31l-.21.3a4.64 4.64 0 00-.33.67 6.75 6.75 0 00-.26.76 2.24 2.24 0 00-.07 1c0 .11 0 .21.08.32l.06.15.11.21a1.46 1.46 0 00.32.37.35.35 0 00.22.11l.05-.29a1 1 0 01.1-.24v.11a1.36 1.36 0 000 .2 1 1 0 00.27.75 1.07 1.07 0 00.55.26.8.8 0 00.81-.4 2.48 2.48 0 00.31-.77 3.65 3.65 0 000-.93c0-.33.09-.32.11-.33a1.41 1.41 0 00.06-.51c0-.47-.18-1-.16-1.43a4.09 4.09 0 00.83.47 2.6 2.6 0 00.64.15 1 1 0 00.41 0 2.18 2.18 0 00.38-.07c.37-.11.67-.22 1-.32h.1a1.24 1.24 0 00.11.36s.07.12.08.15v.06a2.17 2.17 0 00-.59.62 6.07 6.07 0 00-.65 2.08 12.38 12.38 0 00-.38 1.72 3.36 3.36 0 01-.12.56.77.77 0 00.22.85.8.8 0 001.15-.12 16.11 16.11 0 011.47-1.56 2.32 2.32 0 00.58-1 3.53 3.53 0 00.14-.87.63.63 0 000-.23v-.17a.63.63 0 01.34-.14.9.9 0 01.25 0 .93.93 0 00.4-.09 1 1 0 00.5-.56v-.11.2a3.23 3.23 0 000 1.3 2 2 0 00.42.77 2.76 2.76 0 00.54.46 3.33 3.33 0 00.51.27c.06 0 0 0 .09.08a1.21 1.21 0 01.17.25v.07a1.81 1.81 0 00.2.85 2.49 2.49 0 00.45.58 2.92 2.92 0 00.53.43 2.58 2.58 0 00.6.28c.15.06.17.07.2.1a.59.59 0 01.15.16 4.62 4.62 0 01.39.7l.22.43a2 2 0 00-.2.51 2.43 2.43 0 00-.1.73c0 .22 0 .42.06.57a1.9 1.9 0 010 .35.84.84 0 01-.26.07 2.18 2.18 0 01-.38 0h-.19a1.47 1.47 0 00-.3.08 1.43 1.43 0 00-.49.32 1.34 1.34 0 00-.34 1.11v2.18a7.92 7.92 0 00.42.69 6.17 6.17 0 002.46 2.12c2 1 4.36.12 5.19 1.56a4.75 4.75 0 01.57 1.1 3.36 3.36 0 00-.75.27 3.58 3.58 0 00-1.06.26 2.32 2.32 0 00-1.15 1.12 4.86 4.86 0 00-.37 1.56 5.16 5.16 0 00.06 1.61 3 3 0 00.81 1.63 2.26 2.26 0 00.93.53 1.88 1.88 0 001.21-.1 4 4 0 001.31-1.16 2.78 2.78 0 01-.14 1.18 2.1 2.1 0 01-.31.54 2.62 2.62 0 01-.22.25l-.08.1h-.33a.78.78 0 00-.34.11.77.77 0 00.07.25zm-10.35-26.6a1.23 1.23 0 000-.19 1.62 1.62 0 01.02.23zm-1.44-1.75zm.67-.76a.85.85 0 01.16.17l-.79.55.79-.56a1.25 1.25 0 00-.16-.17h-.06l-.49.18h.1l.38-.14zm4 3zM88.08 124l-.14.08h-.1c.1-.08.22-.08.24-.08zm-.78 3.39a.41.41 0 010 .17 1.89 1.89 0 00-.11-.25.3.3 0 01.11.08zm-.3 1.75a.42.42 0 010-.27 1.51 1.51 0 00.06.37 1 1 0 00.16.34l-.07-.06a.85.85 0 01-.15-.38zm-8.71 22.74a1.29 1.29 0 00.13-.28l.08.31s-.12.02-.21-.03zm-3.69 1.94zm55.08-17.67z"/><path class="cls-1" d="M121.39 124.73a1.7 1.7 0 01.51 0c.15 0 .52 0 .64-.28a.69.69 0 00-.51-1 3.62 3.62 0 00-2.26.36c-.71.43-1.23 1-1.77 1a4.73 4.73 0 00-.6.13 1.45 1.45 0 00-.41.22 1.9 1.9 0 00-.31.23 3.08 3.08 0 00-.46.6l-.29.42c-.21.29-.38.58-.56.81s-.24.27-.19.24 0 0-.09.06a2.47 2.47 0 00-.44.29 1.4 1.4 0 00-.31.43c0 .07-.06.13-.09.19a1.32 1.32 0 00-.09.3 1.77 1.77 0 00.08.84.52.52 0 00.06.17s0-.1.08-.12-.13.2-.26.36a1.84 1.84 0 00-.4.7 1.58 1.58 0 000 .71 3.4 3.4 0 010 .49v.55a9.62 9.62 0 01-.31 2.15 3.55 3.55 0 00-.17 1.23 3.3 3.3 0 00.13.64 1 1 0 00.75.72 1.1 1.1 0 001-.39 1.16 1.16 0 00.21-1.15 1.5 1.5 0 01.13-.64l.39-1a3.12 3.12 0 00.19-.68c0-.21.07-.41.09-.61a5.26 5.26 0 01.14-1 1.66 1.66 0 01.13-.35l.06-.12.12-.17a3.66 3.66 0 00.38-.57 1.22 1.22 0 00.11-.77l.11-.08a3.75 3.75 0 001.13-1 1.94 1.94 0 00.25-.54 2.29 2.29 0 00.08-.42c0-.21 0-.29-.07-.09.06-.12 0-.15.45-.37a2.62 2.62 0 00.64-.44 3.32 3.32 0 00.43-.55c.55-.85.58-1.36 1.3-1.5zM110.05 115a1.77 1.77 0 00-.25.3 2.25 2.25 0 00-.28.83 2.35 2.35 0 000 .26 2.48 2.48 0 000 .33 4.83 4.83 0 00.29.84 3.44 3.44 0 01.23.76v.11a.72.72 0 00-.39.23 1 1 0 00.06 1.27 1.2 1.2 0 00.68.3 1.57 1.57 0 001.71-.9 2.92 2.92 0 00.26-1.13v-.89a2.52 2.52 0 010-.46s-.12.11.13-.22a1.57 1.57 0 00.19-.27l.08-.16v-.11a1.59 1.59 0 00.13-.72v.1a1.24 1.24 0 00-.08-.69v.31a1.51 1.51 0 000-.37.94.94 0 00-.16-.32.67.67 0 00-.34-.62 1.18 1.18 0 00-1.73.71 1.72 1.72 0 01-.15.41c-.06.08-.1 0-.09-.09s-.15.08-.29.19zm.24 3.38a.23.23 0 010 .01zm-1.43-3.29l.16-.15a2 2 0 00.39-.56.93.93 0 00.1-.6.23.23 0 01.06-.12s.22-.09.31-.18a1 1 0 00.37-.68.88.88 0 00-.19-.6.57.57 0 00-.53-.2c-.32 0-.63 0-1 .11a3.11 3.11 0 00-1.07.44 1.92 1.92 0 01-.6.29 1 1 0 00-.23.11 1.7 1.7 0 00-.31.25 1.44 1.44 0 00-.39.67 1 1 0 00-.05.24.15.15 0 010 .08.48.48 0 01-.1.29 1.59 1.59 0 01-.64.55l-.46.19a.89.89 0 00-.46.56 1 1 0 00.07.75.91.91 0 00.83.47 1.43 1.43 0 00.23 0h.35l.5-.06a3.72 3.72 0 001-.33 2.56 2.56 0 001.09-.93 2.49 2.49 0 00.16-.33l.12-.06a1.43 1.43 0 00.29-.2zm-.53.31s-.03.01 0 0zm-3.33-3.01a6.15 6.15 0 00.84-.53c.22-.18.45-.38.48-.51v-.06a.14.14 0 01-.08-.09v-.11a1.3 1.3 0 00.18.15.85.85 0 00.82.08.74.74 0 00.38-1 2.44 2.44 0 00-.72-.79 2.47 2.47 0 00-1.18-.39 2.2 2.2 0 00-1.21.3c-.3.19-.5.33-.49.38s.09.09 0 .11a.94.94 0 01-.38 0c-.32-.1-.66-.21-1-.34a3.9 3.9 0 00-1.07-.25.85.85 0 00-.75.39 1.1 1.1 0 00-.12.87 1.07 1.07 0 00.74.73c.24.06.18.07.23.1l.1.08.55.49a3.12 3.12 0 001.12.67 1.9 1.9 0 001 .06 3 3 0 00.56-.34zm11.06 1.89a.74.74 0 01.57.3.83.83 0 01.08.58 1.21 1.21 0 00.23.79 1.52 1.52 0 00.64.57 2.86 2.86 0 00.78.22h.43a.91.91 0 00.63-.06 1 1 0 00.53-.91 1.05 1.05 0 00-.21-.57 1.59 1.59 0 01-.16-.19l-.1-.14a4.28 4.28 0 01-.32-.56c-.09-.18-.08-.24-.17-.44a2.64 2.64 0 00-.42-.78 2.09 2.09 0 00-.85-.66 2.52 2.52 0 00-.93-.22 1.59 1.59 0 00-.43.06.76.76 0 00-.2.06 1.86 1.86 0 00-.41.12.88.88 0 00-.41 1.24.89.89 0 00.72.59zm-16.82 5.21a2.86 2.86 0 00-.53.51c-.58.76-.68 1.58-1.21 2.09a2 2 0 01-.21.18 1.06 1.06 0 00-.29.37 1 1 0 00.15.88.83.83 0 001 .25l.62-.3a6.56 6.56 0 001.09-.75 2.39 2.39 0 00.23-.22l.17-.14.38-.27a8.63 8.63 0 001.05-.7 3.35 3.35 0 00.93-1.24c.19-.42.29-.75.4-1a7 7 0 00.4-1.24 2.24 2.24 0 000-.82 1.26 1.26 0 00-.44-.76.87.87 0 00-.78-.07.57.57 0 00-.34.61c0 .76-.92 1.13-1.48 1.79a4.78 4.78 0 01-.72.58zm-1.64-.79a9.33 9.33 0 011.08-.7 9.23 9.23 0 001.37-.93c.59-.68-.27-1.48-.8-1.12a2.76 2.76 0 01-1.39.31 8.25 8.25 0 00-1.62.06 1.9 1.9 0 00-1 .55 3.82 3.82 0 00-.49.74 3.56 3.56 0 01-.25.36l-.46.48a3 3 0 00-.55.81 1.94 1.94 0 00-.14 1 3.53 3.53 0 01.12 1.34.45.45 0 01-.34.3 2.85 2.85 0 01-.29 0 1.25 1.25 0 00-.49.06.9.9 0 00-.49 1.07.94.94 0 00.42.57 1.46 1.46 0 00.59.17 2.4 2.4 0 001.86-.58 3.1 3.1 0 00.64-.71 2.8 2.8 0 00.4-1 3.79 3.79 0 01.26-1.06 3.5 3.5 0 001-1c.49-.65.28-.42.57-.72zm2.75 13.81a3.49 3.49 0 00.37-.47c.09-.15.17-.3.25-.46a6 6 0 00.36-.94 8.54 8.54 0 00.27-1.8 9.92 9.92 0 00-.06-1.78 3.71 3.71 0 00-.79-1.78 1 1 0 00-.42-.36.69.69 0 00-.55 0 .63.63 0 00-.28.88 2.15 2.15 0 01.08 1.58 6.92 6.92 0 01-.64 1.51l-.74 1.38a5.68 5.68 0 01-.77 1.2 2.82 2.82 0 00-.48 1 1.73 1.73 0 000 .68 1.48 1.48 0 00.28.64c.38.41.51.36.64.54a1.65 1.65 0 01.28.65c.09.48 0 1.08.08 1.7a.77.77 0 00.42.6 1 1 0 00.72 0 1 1 0 00.58-.5 1.17 1.17 0 00.1-.41v-.26a1.87 1.87 0 01.17-.61 2.68 2.68 0 00.28-1 1.87 1.87 0 00-.42-1.36c-.11-.13-.18-.2-.24-.26s.26-.11.51-.37zm-.61.42c0-.05 0 0 0 0zm-7.63-2.88a.8.8 0 00-.56.09.69.69 0 00-.29.44.65.65 0 00.43.78 1.41 1.41 0 01.8 1.17 2 2 0 01-.27 1.34 7.67 7.67 0 01-.75 1.08.92.92 0 01-.15.17l-.27.26a2.18 2.18 0 00-.59 1 11.94 11.94 0 00-.41 3.38v.85a2.18 2.18 0 00.07.49.73.73 0 00.53.45 1 1 0 001.09-.6 1.13 1.13 0 00.06-.36.87.87 0 010-.19 1.65 1.65 0 01.06-.32 6.63 6.63 0 01.63-1.29c.12-.22.25-.49.36-.73a3.4 3.4 0 01.31-.52c.23-.29.64-.71 1-1.11a3.26 3.26 0 00.6-.91 3.66 3.66 0 00.25-1.06 4.19 4.19 0 00-1.2-3.57 3.23 3.23 0 00-1.7-.84zm11.11 5.35a.83.83 0 00-.86-.22.79.79 0 00-.45 1.07 1.8 1.8 0 01-.17 1.81 6.64 6.64 0 00-.46.73 2.18 2.18 0 00-.18.62 2.22 2.22 0 000 .57 8.13 8.13 0 01.12.82 5.46 5.46 0 01-.27 1 .79.79 0 00.19.78 1 1 0 00.72.26.94.94 0 00.72-.44l.05-.09.15-.09a1.84 1.84 0 00.94-.91 3.82 3.82 0 00.27-1.22 3.16 3.16 0 01.15-.78 4.27 4.27 0 000-2.32 2.9 2.9 0 00-.59-1.06c-.04-.24-.14-.32-.33-.53zm20.9-3.34l-.06-.21a1.12 1.12 0 00-.26-.38.83.83 0 00-.71-.19.78.78 0 00-.68.74 3.16 3.16 0 01-.66 1.59 2.66 2.66 0 00-.46 1.48c0 .23 0 .48.1.52s0 0 .08 0h-.08a.83.83 0 00-.32.2 1 1 0 00-.32.61 1 1 0 00.11.63.76.76 0 00.62.35 2.42 2.42 0 001.08-.13 2.1 2.1 0 00.93-.78 3.64 3.64 0 00.42-.94 7.54 7.54 0 00.42-1.65 3.37 3.37 0 00-.22-1.78zm-78.56 1.24c-.66.11-1.32.12-2 .22a3.11 3.11 0 00-1.1.37 2 2 0 00-.88 1.07 4 4 0 00-.18 1.17 3 3 0 01-.11.7 2.58 2.58 0 01-.71 1.18h.09l-.72.49a1 1 0 01-.51.24c-.29.05-.65-.33-.84-.78a.74.74 0 00-.08-.69.92.92 0 00-.73-.37.91.91 0 00-.74.4c-.11.17-.25.31-.35.5a2.08 2.08 0 00-.3 1.39 2 2 0 00.9 1.29 4.23 4.23 0 002.58.58 4.63 4.63 0 001.32-.27 6.16 6.16 0 001.17-.6A4.37 4.37 0 0044 138a3.86 3.86 0 00.13-1.35 4.21 4.21 0 010-.7c0-.36.51-.82 1.18-1.09l.5-.2a.66.66 0 00.53-.49.69.69 0 00-.78-.87zm-10.82.51a2.17 2.17 0 00.26.27 1.91 1.91 0 00.74.37 2.13 2.13 0 001.67-.33 5.25 5.25 0 001-.9l.6-.62c.07-.08.13-.11.11-.13s-.14 0-.18-.06v-.11a.68.68 0 01.27.24 3.66 3.66 0 01.31.46c.08.22.39.57.69.56a.77.77 0 00.83-.89c-.08-.35-.12-.71-.18-1.1a2.89 2.89 0 00-.42-1.26 1.89 1.89 0 00-1.38-.77 2 2 0 00-1.48.54 2.55 2.55 0 00-.23.24 3.69 3.69 0 00-.23.3c-.11.19-.18.35-.26.52a3.69 3.69 0 01-.53.91 1.39 1.39 0 01-.35.31 1.14 1.14 0 00-.19-.1 1 1 0 00-.87.12.93.93 0 00-.41 1 1 1 0 00.23.43zm-5.08 5.46a.76.76 0 001.17-.09 4.67 4.67 0 00.93-2.15 2.24 2.24 0 00-1.37-2.16 5.3 5.3 0 00-2.37-.18h-1.05a4.78 4.78 0 01-.53-.06 1 1 0 00-.87.41 1.14 1.14 0 00-.17 1 1 1 0 00.39.55 1.19 1.19 0 00.64.23l1 .1a4 4 0 011.38.4 2.2 2.2 0 01.34.23.72.72 0 01.29.42 1 1 0 010 .43.82.82 0 00.22.87zm-2.29 8.19a1.08 1.08 0 00.54.51 1.28 1.28 0 00.82 0 1.16 1.16 0 00.72-.67 1.29 1.29 0 00-.14-1.12s.07 0 .09.07.05.12.09.12.05 0 .17-.05.68-.12 1.25-.32a1.25 1.25 0 00.72-.32 1 1 0 00.27-.6.87.87 0 00-.14-.55.63.63 0 00-.43-.24 6.87 6.87 0 01-1.62-.68 1.79 1.79 0 00-2 .46 2.91 2.91 0 00-.6 1.94 3.34 3.34 0 00.07.94 4.42 4.42 0 00.19.51zm16.69-4.37a1.06 1.06 0 00-.61-.64.81.81 0 00-.69.1.89.89 0 00-.42.87.51.51 0 01-.34.58 1.13 1.13 0 01-.68 0 2.25 2.25 0 00-1.22-.09l-.38.09h-.52a.9.9 0 00-.63.56 1 1 0 000 .65 1 1 0 00.35.49 1.45 1.45 0 00.51.21 7.69 7.69 0 01.8.28 3 3 0 001.88.16 2.83 2.83 0 001.81-1.21 2.45 2.45 0 00.38-1.11 1.83 1.83 0 00-.24-.94zm-18.21 12.57a2.43 2.43 0 000 1.76 3.72 3.72 0 00.2.4.93.93 0 00.4.36.89.89 0 00.47.08h.66a.93.93 0 00.54-.14 1 1 0 00.32-1h.08c.29 0 .62 0 1 .06a5.75 5.75 0 00.58 0 2.78 2.78 0 00.82-.13 2.09 2.09 0 001.25-1.2 2.37 2.37 0 00.08-1.43 2.91 2.91 0 00-.2-.61 1.36 1.36 0 00-.2-.37.6.6 0 00-.41-.2.77.77 0 00-.83.85c.09.41-.19.89-.51.78-.15 0-.28-.13-.5-.24a3.78 3.78 0 00-.74-.29 2.54 2.54 0 00-1.67.07 2.42 2.42 0 00-1.34 1.25zm14.89 7.48a3.14 3.14 0 00.23-.48 1.1 1.1 0 000-.74.92.92 0 00-1.56-.36.72.72 0 01-1 0c-.27-.24-.33-.32-.58-.3 0 0-.25-.1-.52-.11a1 1 0 00-.7.24 1.15 1.15 0 00-.35 1 1.11 1.11 0 00.44.76c.16.15.33.32.52.48a2.07 2.07 0 001.43.54 2.43 2.43 0 001.54-.41 2.17 2.17 0 00.55-.62zm-9.36-.58a3 3 0 01-1.25.18 1.18 1.18 0 00-1 .89 2.9 2.9 0 00.18 1.47 1.13 1.13 0 001.34.93.93.93 0 00.56-.38 1.49 1.49 0 00.23-.62.19.19 0 01.15-.09.89.89 0 00.44-.23 3.39 3.39 0 00.36-.33l.2-.19a1.18 1.18 0 00.21-.32 1 1 0 00.07-.74 1 1 0 00-.75-.69 1 1 0 00-.74.12zm6.02 18.77a.15.15 0 00.07 0v-.06zm-7.08.92a.24.24 0 01-.13-.11c0-.06-.1.09-.15.15a1 1 0 00.32 1.53 1.16 1.16 0 001.61-.53c.15-.34.35-.64.54-1.06a1.62 1.62 0 000-1.36 1.87 1.87 0 00-1.1-1.05 1.85 1.85 0 00-.41-.07 1.6 1.6 0 00-.59.05 1.09 1.09 0 00-.75.87 1.07 1.07 0 00.25.86.79.79 0 00.58.28.23.23 0 01.19.28.24.24 0 01-.36.16zm-1.52-4.83a1.23 1.23 0 00.78-.1c.32-.16.66-.22 1.07-.4a1.52 1.52 0 00.88-1 1.83 1.83 0 00-.05-1.43 2.07 2.07 0 00-.23-.36 1.46 1.46 0 00-.53-.4 1 1 0 00-1.14.21 1.08 1.08 0 00-.31.8 1.15 1.15 0 00.21.57.19.19 0 01-.12.28.27.27 0 01-.31-.19v-.09c0-.03-.15 0-.22 0a1 1 0 00-.57.3 1.07 1.07 0 00.55 1.79zM38.6 195a1 1 0 00.23.73 1 1 0 001 .33.94.94 0 00.59-.45c.1-.18.22-.33.37-.55a1.48 1.48 0 00.19-.87 1.27 1.27 0 00-1-1.15c-.46-.1-.94.06-1.31 0a1.76 1.76 0 01-.55-.22.9.9 0 00-1 .27 1.16 1.16 0 00-.23 1.17 1.21 1.21 0 00.44.58 4.18 4.18 0 00.4.24 5.47 5.47 0 00.86.47c.06 0 .12.05.13 0s0 0-.14-.36a.85.85 0 010-.39c0-.14.17-.34.1-.2a1.43 1.43 0 00-.08.4zm-9.27-5a1 1 0 00.37.88.88.88 0 00.67.19c.33-.06.72.18 1.2.27a1.06 1.06 0 001.16-.48 5.69 5.69 0 00.37-1.25 1.08 1.08 0 00-.7-1.4 1.1 1.1 0 00-1.13.33 1.57 1.57 0 01-.31.18 4.17 4.17 0 00-.46.15l-.11.06h-.2a1.12 1.12 0 00-.86 1.07zm5.14-18.89a2.48 2.48 0 00.41-.85 1.78 1.78 0 000-.46 1.43 1.43 0 00-.15-.72.94.94 0 00-1.11-.46.78.78 0 00-.59.6.61.61 0 01-.94.34c-.27-.22-.2-.28-.45-.29a1.25 1.25 0 00-.77-.22 1.1 1.1 0 00-.66.3 1 1 0 00-.28 1.12 1 1 0 00.3.39c.09.07.17.17.27.25a6.57 6.57 0 00.61.51 2.46 2.46 0 003.36-.51zm8.24-17.5a2 2 0 001.08-.24.93.93 0 00.45-.61 1.13 1.13 0 00-.14-.8 1.08 1.08 0 00-.63-.45v-.46a2.18 2.18 0 000-.27 2.64 2.64 0 000-.28 2.54 2.54 0 00-.43-1.25 2.63 2.63 0 00-1.8-1.1l-.24-.05a1.26 1.26 0 00-.42-.12.91.91 0 00-.7.29.71.71 0 000 1 3 3 0 01.63.65 1.09 1.09 0 01.23.73 1.75 1.75 0 00-.14.56 2.12 2.12 0 002.07 2.35zm0-2.06a.47.47 0 01.25-.05 1.33 1.33 0 00-.34.1.14.14 0 01.12-.05zm-6.44 6.54a3.61 3.61 0 003.59-.52l.24-.25a1 1 0 00.2-.56 1.23 1.23 0 00-.54-1.11 1.3 1.3 0 00-1.4 0 1.59 1.59 0 00-.47.48h-.06c-.06 0 .05-.08 0-.1a.59.59 0 00-.08-.11.49.49 0 01-.1-.29 1.64 1.64 0 01.12-.68 2 2 0 01.21-.41.94.94 0 00.3-.83.74.74 0 00-1.07-.53 8.19 8.19 0 00-1.92 1.39 2.22 2.22 0 00-.14 2.66 2.47 2.47 0 001.12.86zm20.32-23.21a.62.62 0 01.25.15l.07.05v-.07a3.1 3.1 0 00-.09-.36 1.56 1.56 0 00-.21-.43c-.16-.24-.34-.45-.54-.7a1 1 0 00-.64-.47 1.15 1.15 0 00-.67.07.87.87 0 00-.46.48 1.1 1.1 0 000 .61 4.91 4.91 0 01.08.86 8.7 8.7 0 000 .89 1.88 1.88 0 00.46 1.1 2.27 2.27 0 001.36.65 3 3 0 001.13-.1 2.84 2.84 0 001.67-1.06l.08-.1.14-.16a1 1 0 00.19-.42.83.83 0 00-.2-.69.8.8 0 00-1-.21 2 2 0 01-.79.17 2.72 2.72 0 01-.83-.14c-.09 0-.26-.14 0-.12zm-5.06 2.79zm-3.34.63a1 1 0 00.37.47 3.52 3.52 0 00.38.25 1.86 1.86 0 001 .28 1.57 1.57 0 001.18-.65 2.47 2.47 0 00.43-1c.06-.12 0 0 0 0a2.74 2.74 0 01.26-.28 1.6 1.6 0 00.21-.23 1.49 1.49 0 00.12-.14 1.33 1.33 0 00.29-.29c.63-1-.38-1.79-.87-1.47a7.24 7.24 0 01-1.56.2 1.54 1.54 0 00-1.27 1.4.78.78 0 000 .22.67.67 0 00-.36.22 1 1 0 00-.18 1.02zm1.13-1.36c.07 0 .09 0 .09.06s-.19 0-.38 0a.61.61 0 01.29-.06zM52 152.88a.88.88 0 00-.19.64.86.86 0 00.56.75.47.47 0 01.35.5 2.64 2.64 0 01-.27.68 1.4 1.4 0 000 1.1 1.49 1.49 0 00.91.8 2.6 2.6 0 00.7.09h.11l.15.1a.94.94 0 00.61.28 1 1 0 00.93-.64 1 1 0 000-.65 2.37 2.37 0 00-.2-.47 2.62 2.62 0 00-.59-.72v-.15a3 3 0 000-.6 2.38 2.38 0 00-.41-1.08 2.09 2.09 0 00-1.9-1 1 1 0 00-.76.37zm3 2.39c-.13-.1-.21-.15-.2-.18s.12.08.2.18zM68.85 159a1.47 1.47 0 01-1.43-.09.6.6 0 01-.21-.29c0-.05-.1-.1-.25-.23l-.24-.23-.14-.13a1.39 1.39 0 00-.26-.29 1.08 1.08 0 00-1.28 0 .83.83 0 00-.35.55 1.9 1.9 0 00.08.53c.07.25.1.53.16.83a2.27 2.27 0 001.2 1.64 2.87 2.87 0 002.09.24 2.6 2.6 0 001.5-1 1 1 0 00.38-.79.85.85 0 00-.32-.59.84.84 0 00-.93-.15zm2.76-19.36a2.79 2.79 0 00.32.67l.07.13a.62.62 0 00-.14.14 1 1 0 00.06 1 1 1 0 00.47.36 1.4 1.4 0 00.59.07 1.53 1.53 0 001-.55 1.89 1.89 0 00.41-1 1.37 1.37 0 000-.28V140a1.17 1.17 0 010-.24c0-.08 0 .05 0 0a2.38 2.38 0 01.21-.35 2.37 2.37 0 00.15-.28L75 139a1.39 1.39 0 00.19-.36c.33-1.13-.84-1.61-1.23-1.18a6.44 6.44 0 01-1.46.57 1.52 1.52 0 00-.89 1.61zm.73.6h-.07l-.12.08.12-.1zm-6.88-9.82a.7.7 0 00-.18-.34 1.14 1.14 0 00-.36-.26 1 1 0 00-.49-.08 1 1 0 00-.32.08.61.61 0 01-.17.08 1.25 1.25 0 00-.63.51c-.16.23-.26.55-.42.8a1.13 1.13 0 00-.14 1.23.93.93 0 00.54.48 1.43 1.43 0 00.78-.08 3.18 3.18 0 00.53-.14 1 1 0 00.59.12A1 1 0 0066 132v-.14a.84.84 0 00.11-.21 1 1 0 00-.65-1.23zm-4.41 17.02a2.12 2.12 0 00-.93.33 1.42 1.42 0 00-.36.33 1.3 1.3 0 00-.35.66c-.11 1.11 1 1.37 1.34 1a.44.44 0 01.53 0c.17.13.09.28.11.47a1.1 1.1 0 00.6.77 1.37 1.37 0 001 .09c.25-.09.31-.21.52-.29a1.07 1.07 0 00.88-.68.9.9 0 00-.14-1 2.16 2.16 0 00-.86-.39c-.22-.07-.43-.19-.39-.25s.08-.07-.08-.29a2.18 2.18 0 00-.91-.62 2.09 2.09 0 00-.96-.13zm-.34-3.44a4 4 0 01-.35-.36 1.58 1.58 0 00-1-.54 1.82 1.82 0 00-1.13.07 1.5 1.5 0 00-.8.75 1 1 0 00.13 1 1.1 1.1 0 00.71.43 1 1 0 00.56-.11c.24-.12.58.14.68.43a2.61 2.61 0 00.12.29.28.28 0 00.11 0 .71.71 0 00.26.06.92.92 0 00.54-.08 1 1 0 00.57-.71 1.39 1.39 0 000-.76 1 1 0 00-.4-.47zm21.47 18.62a1 1 0 00-.76.21 10.41 10.41 0 00-1.17 1 1.39 1.39 0 00-.33 1.38c.13.44.48.83.54 1.22a1 1 0 00.45.81 1 1 0 001.53-.52c.09-.28.11-.3.15-.42a3.36 3.36 0 00.14-.61 6 6 0 00.11-.61 4 4 0 000-.53c0-.13 0-.14-.08-.14s-.1 0-.06-.11a1.19 1.19 0 00.27-.8.9.9 0 00-.79-.88zm-3.02-1.83l.08-.06.15-.1a2.2 2.2 0 00.67-.75 2.18 2.18 0 00.3-1.19 2.26 2.26 0 00-.89-1.76 1 1 0 00-.79-.38.89.89 0 00-.6.32.88.88 0 00-.14.93.82.82 0 010 .7.71.71 0 01-.49.36 1.6 1.6 0 00-1.17 1.27 1.89 1.89 0 00.94 1.92 1 1 0 001.63-1L79 161c0-.08.1-.16.16-.21zm-.69-.29h.09a.92.92 0 01.14.14.87.87 0 01.11.22 1.15 1.15 0 00-.19-.28zm7.89 2.98a1.1 1.1 0 00.53-1.11c0-.13 0-.11.08-.13s.36.06.74-.34a1.64 1.64 0 00.29-.39 2.08 2.08 0 00.18-.53 1.71 1.71 0 00-.18-1.08 1.74 1.74 0 00-.82-.79 1.6 1.6 0 00-.69-.14 1.24 1.24 0 00-.7.26 1.1 1.1 0 00-.42 1.07.69.69 0 00.26.43 1.46 1.46 0 00-.31.14 2 2 0 00-.52.41l-.06.08s-.06.14-.07.15a1.08 1.08 0 00-.08.19 1.43 1.43 0 00-.09.41 1.28 1.28 0 00.15.78 2.3 2.3 0 00.65.65.89.89 0 001.06-.06zm-9.81-19.2a3.4 3.4 0 00-1.51 1 2.61 2.61 0 00-.39.8c-.06.2-.05.16 0 .18a1 1 0 01-.22.44c0 .07-.12.11-.11.15a1.28 1.28 0 00-.6.09 1 1 0 00-.44 1 1 1 0 00.34.55 2 2 0 00.5.28 2.39 2.39 0 002-.18A2.84 2.84 0 0077 148a2.44 2.44 0 00.48-1c.1-.87 0-1-.27-1 .91-1-.09-2.09-.66-1.72zm.56-6.63a1.19 1.19 0 00-.56 1.28 3.62 3.62 0 00.72 1.22 2.34 2.34 0 01.15.27 1.15 1.15 0 00.25.33 1.1 1.1 0 001.76-.76 1.59 1.59 0 00-.11-.65v-.11c0-.04.13-.24.13-.31v-.14c0-.07 0 0 0 0l.11-.13a1.44 1.44 0 00.16-.33 1 1 0 000-.67 1.07 1.07 0 00-.71-.7.73.73 0 00-.72.15 10.37 10.37 0 01-1.18.55zm-.47-9.07a1 1 0 00-1 .24 1 1 0 00-.29.67c0 .38-.49.55-.8.42-.15 0-.26-.11-.33-.12h-.1s-.22 0-.31.05a1.13 1.13 0 00-.66.47 1.09 1.09 0 00-.14.65 1.23 1.23 0 00.51.82 1 1 0 00.41.17l.33.06c.22 0 .45.09.69.11a2 2 0 001.46-.39 2.47 2.47 0 001-1.24 2.11 2.11 0 00.08-.79 1.9 1.9 0 00-.15-.61 1 1 0 00-.7-.51zm6.18 2.83A1.34 1.34 0 0083 131a1 1 0 00-.5-1 .75.75 0 00-.84 0c-.35.25-.86.48-1.31.79a2.65 2.65 0 00-.26.21h.08a.52.52 0 01-.25.08h-.29a1 1 0 00-.66.13.89.89 0 00-.37.46 1.06 1.06 0 00.12 1 1.63 1.63 0 00.38.34l.3.23a1.9 1.9 0 001.8.33 2.16 2.16 0 001-.61 2.45 2.45 0 00.47-.76 2.1 2.1 0 00.13-.46.22.22 0 00-.06-.13v-.06z"/><path class="cls-1" d="M80.05 131c-.1 0-.19.11-.17.12a.42.42 0 00.17-.12zm12.48 24.48a3.24 3.24 0 001.08-1.1 6.63 6.63 0 00.62-1.16 5.7 5.7 0 00.16-.55 2.54 2.54 0 000-.29 3 3 0 00.1-.67.89.89 0 00-.39-.69 1 1 0 00-.55-.15.9.9 0 00-.75.39 4.22 4.22 0 01-1.13 1 1.57 1.57 0 00-.68 1.12v.65a3 3 0 01-.18.8.9.9 0 00.59.86 1 1 0 001.13-.21zm-4.01-2.77a2.91 2.91 0 00.78-.42 2.15 2.15 0 00.7-1 1.36 1.36 0 00.06-.63 1.82 1.82 0 00-.19-.64 1 1 0 00-.6-.52 1 1 0 00-.61 0 .74.74 0 00-.52.75c0 .19-.22.31-.46.33s-.5 0-.81 0a1.16 1.16 0 00-.55.19 1.47 1.47 0 00-.43.43 1.74 1.74 0 00-.2.42v.1c0 .02.06.18-.21.39a1 1 0 00-.41.58 1.2 1.2 0 000 .6 1 1 0 00.32.47.83.83 0 00.6.15c.32-.05.53-.05.85-.11a1.64 1.64 0 001-.48c.29-.31.4-.6.48-.64s.05 0 0 0zm14.2-2.41a1 1 0 00-1.85-.5c-.15.33-.57.58-.84 1.09a2.64 2.64 0 00-.16.69 1.05 1.05 0 00.11.43 1.13 1.13 0 00.13.87 1.08 1.08 0 00.69.51 1.77 1.77 0 00.83 0 1.55 1.55 0 001.19-1.35 3.87 3.87 0 00-.06-1.19c0-.05-.05 0-.1 0s0-.1 0-.15a1.45 1.45 0 00.06-.4zm-2 1a1 1 0 00-.2.07.94.94 0 00-.28.21v-.08a.78.78 0 01.43-.21zM85.7 178.13a1 1 0 00-.73.33 1.05 1.05 0 00-.18 1.1 1.1 1.1 0 00.7.63 2.59 2.59 0 00.84.21 2.21 2.21 0 001.62-.65 3.27 3.27 0 00.92-1.23 2.94 2.94 0 00.19-.72 1.7 1.7 0 000-.39 1.41 1.41 0 00-.17-.75 1 1 0 00-1.11-.42.83.83 0 00-.58.6c-.09.41-.54.7-1 .89s-.72.31-.41.32c.08.03.29.12-.09.08zm-16.65-28.8a2.17 2.17 0 00-.8-.09h-.28a1.6 1.6 0 00-.37.15 1 1 0 00-.19 1.59 1.11 1.11 0 00.67.28.35.35 0 01.34.29.42.42 0 01-.17.41.36.36 0 01-.25.06v.06a1.22 1.22 0 00-.1.34 1.13 1.13 0 001.2 1.29 1 1 0 00.85-.58c.14-.43.34-.74.51-1.23a2.12 2.12 0 00-1.41-2.57zM6.74 100.88a2.87 2.87 0 001.58.15l1.68-.33a1.25 1.25 0 011 .08 4.86 4.86 0 001.5.16 1.13 1.13 0 00.62-.32 1 1 0 00.26-.78 1.46 1.46 0 01-.05-.48.9.9 0 01.06-.27 1.47 1.47 0 01.21-.38c.1-.15.26-.36.43-.62a2.87 2.87 0 00.43-1 2.49 2.49 0 00-.18-1.56 8.91 8.91 0 011.21 1.31 9.14 9.14 0 001.06 1.12 2.85 2.85 0 00.83.55 2 2 0 001.46.06 2 2 0 001.05-1 2.72 2.72 0 00.11-.25 1.9 1.9 0 00.11-.34 2.06 2.06 0 00.05-.51v-.32a.72.72 0 010-.23 2.59 2.59 0 01.05-.54 2.14 2.14 0 01.18-.56l.1.87v.59a1.09 1.09 0 00.15.41 1.07 1.07 0 00.79.5 1.46 1.46 0 00.77-.15l.24-.17.17-.12.32-.25c.22-.17.43-.34.63-.52s.5-.47.74-.71c.31.33.61.53.8.71a1 1 0 01.32.47 5.11 5.11 0 01.06 3.21 2.46 2.46 0 01-.84 1.16 9.08 9.08 0 01-1.54.89c-.3.15-.59.29-.95.51a3.39 3.39 0 00-1 .92 6.58 6.58 0 00-.92 2.13 3.46 3.46 0 01-.72 1.37 5.91 5.91 0 00-1.32 1.95 3.34 3.34 0 00-.17 1.45 4.19 4.19 0 00.4 1.28 13.32 13.32 0 01.85 1.61 1.13 1.13 0 01.05.54v.14a2.77 2.77 0 01-.19.3 2.77 2.77 0 00-.35.62 2 2 0 00-.13 1 1.8 1.8 0 00.34 1 1.92 1.92 0 00.36.36l.08.06a1.22 1.22 0 01.23.47 3.08 3.08 0 01.13.78 5.48 5.48 0 00.2 1.18 3 3 0 00.73 1.19l.08.08a.49.49 0 00.2.11l.43.12a2.17 2.17 0 00.34.06.77.77 0 01.23.06 1.12 1.12 0 01.49.5 2.68 2.68 0 01.19.42.79.79 0 010 .13 1 1 0 010 .19v.61a2 2 0 000 .42 3 3 0 00.09.35 2.93 2.93 0 00.74 1.25 2.46 2.46 0 00.44.34 2 2 0 00-2.35 1 2.64 2.64 0 00-.3 1 2.72 2.72 0 00.15 1.17 2.17 2.17 0 00.85 1.05 2 2 0 002.1.1 1.06 1.06 0 00.68-.48.86.86 0 00.08-.67.75.75 0 00-.75-.6 1 1 0 01-.66-.2 1.5 1.5 0 00.36 0 1.25 1.25 0 00.82-.41 1 1 0 00.24-.95 1.26 1.26 0 00-.35-.52 3.92 3.92 0 00-.32-.25l.23.09a3.92 3.92 0 011 .38 2.12 2.12 0 01.6.76 6.07 6.07 0 00.66 1 .8.8 0 00.85.21c.16 0 .63.5.76.53a6.59 6.59 0 011.49.53 32.27 32.27 0 006-.4c.44-.27 3.86-2.9 2.07-3.21-2.68 1.11-6.74 1-7.68 1.68a.73.73 0 01-.67.06 3.25 3.25 0 01-.54-.56 1.22 1.22 0 00-.87-.37.56.56 0 01-.32 0 .64.64 0 01-.23-.2c-.12-.19-.2-.47-.34-.74a1.66 1.66 0 00-.7-.69c-.27-.15-.54-.25-.75-.37a2.32 2.32 0 01-.55-.44 2.1 2.1 0 01-.49-1.3l-.1-.81v-.82a2.59 2.59 0 00-.27-1 2.32 2.32 0 00-.77-.82 4.21 4.21 0 00-.9-.41c-.25-.09-.26-.13-.29-.2s-.1-.32-.07-.34.09-.39.16-.74a2.21 2.21 0 00-.12-1.27 1.55 1.55 0 00-.59-.7 1.17 1.17 0 00-.35-.13v-.14a5.31 5.31 0 00.55-.83 2.08 2.08 0 00.17-.7 3 3 0 000-.6 3.07 3.07 0 00-.33-1.06 4.13 4.13 0 00-.22-.42 4.5 4.5 0 00-.27-.43c-.19-.27-.37-.48-.48-.65A.75.75 0 0121 110a1.37 1.37 0 01.08-.46c0-.09.08-.2.12-.3a1 1 0 01.13-.22c.23-.35.65-.72 1.07-1.27.76-1.15.91-2.3 1.44-3a2.62 2.62 0 011-.87 7.79 7.79 0 001.57-.88A6 6 0 0028 99.78a6.16 6.16 0 000-3.51c-.52-1.22-1.65-1.76-2.17-2.6a2.64 2.64 0 00-2.37-.42 13.73 13.73 0 01-1.13 1.16v-.06l-.09-.77v-.2a.94.94 0 00-.11-.36 1 1 0 00-.55-.48 1 1 0 00-.72 0 5.76 5.76 0 00-1.12.81 14.07 14.07 0 00-1.1 1 5.09 5.09 0 00-.52.6l-.11.17-.06.13a5 5 0 00-.37-.4 5.48 5.48 0 00-.58-.48 5.05 5.05 0 00-3-.92 6.48 6.48 0 00-.77.08.89.89 0 00-.48.21.82.82 0 00-.25.54c0 .11-.25.83-.17 1.07a1.25 1.25 0 010 .81 1.48 1.48 0 01-.51.57 2.11 2.11 0 00-.6.57 1.9 1.9 0 00-.31 1 3.07 3.07 0 00-.62-.27 4 4 0 00-2.53.22 2 2 0 00-.94.26c-.38.2-.69 1.18-.71 1.34a.91.91 0 00.63 1.03zm17.41 26.29l-.09.06a1 1 0 01-.24.08 1.66 1.66 0 00.14-.13.44.44 0 01.17-.15 1 1 0 010 .11h.05a.2.2 0 01-.03.03zm-6.61-31.23a1.09 1.09 0 01.08-.15c0 .07-.07.16-.11.22s.01-.01.03-.07z"/><path class="cls-1" d="M4.77 106.13a7 7 0 003.29 1 7.62 7.62 0 002.94-.89.9.9 0 011 .32c.64.65 1.57-.18 1.15-.75a5.1 5.1 0 00-1-1.22 3.19 3.19 0 00-1.66-.67 5.58 5.58 0 00-1.63.15 3.13 3.13 0 01-.52.07H7.7a13.3 13.3 0 01-1.41 0 2.16 2.16 0 01-1.23-.43.57.57 0 01-.2-.45l.1-.31a.76.76 0 00-.1-.66A1 1 0 003.7 102a1.06 1.06 0 00-.48.48 2.44 2.44 0 00-.2.43 2.18 2.18 0 00.32 2 4.27 4.27 0 001.43 1.22zm-.57 5.22a1.3 1.3 0 01.38-.32 4.07 4.07 0 01.53-.31 8.57 8.57 0 011.17-.44c.82-.28 1.72-.36 2.72-.57a11 11 0 011.54-.23.79.79 0 00.76-.62.64.64 0 00-.06-.47.52.52 0 00-.4-.24 27.89 27.89 0 01-3.07-.8 4.49 4.49 0 00-3.33.42 5.86 5.86 0 00-1.32 1.09 10 10 0 00-1 1.33 7.17 7.17 0 01-.69 1.34.61.61 0 01-.2.14.89.89 0 00-.46.46 1 1 0 00.5 1.27 1.06 1.06 0 00.82.06 2.72 2.72 0 00.51-.24 3.23 3.23 0 00.75-.66c.36-.48.59-.94.85-1.21zm4.19 3.94c-.3-.1-.56-.19-.77-.24s-.29-.06-.49-.12a3.92 3.92 0 01-.76-.32l-.93-.53a1 1 0 00-1.24.46.8.8 0 00.12.85 1.87 1.87 0 01.27.4 4.07 4.07 0 001.26 1.66 3.42 3.42 0 002.36.57 4 4 0 001.86-.66c.15-.1.22-.13.54-.31a.87.87 0 00.39-.67.84.84 0 00-.18-.61.59.59 0 00-.54-.2 4.14 4.14 0 01-1.89-.28zm-4.51 3.64a.9.9 0 00-.59.81 1.2 1.2 0 00.11.5l.13.32a3.82 3.82 0 00.81 1.22 4 4 0 001.26.79 6.88 6.88 0 002.68.49 8.64 8.64 0 002.4-.34c.19 0 .39-.11.58-.14a2.32 2.32 0 01.33 0 .76.76 0 00.46-.16.8.8 0 00.32-.74.57.57 0 00-.48-.52 15.9 15.9 0 01-2.45-.66 7 7 0 00-2.28-.31 2.56 2.56 0 01-2-.5l-.16-.26-.19-.29a.81.81 0 00-.93-.21zm7.18 6.82a1.14 1.14 0 00.47-.76.72.72 0 00-1-.7 2.79 2.79 0 01-1.11.35 2.26 2.26 0 00-1.29.71 1.46 1.46 0 00-.25.48v-.14c0-.03 0 0 0 0s-.27.16-.37.21a4 4 0 01-.66.28 4.49 4.49 0 01-2.14.37 4.4 4.4 0 00-.68-.1.86.86 0 00-.69.6.9.9 0 00.25.94 3.76 3.76 0 00.67.37 5.59 5.59 0 002.5.64 5.06 5.06 0 001.38-.14 3.27 3.27 0 001.41-.66 3 3 0 00.55-.6l.19-.29a2 2 0 00.18-.36c.2-.46.07-.51.21-.75a2.92 2.92 0 01.38-.45zm12.47-27.04a1 1 0 000-.67 1.14 1.14 0 00-.79-.67 1.1 1.1 0 00-.84.22 5.15 5.15 0 00-.65.38 2 2 0 00-.77 1.46 2.88 2.88 0 00.2 1.48 2.7 2.7 0 00.35.59l.34.33a1 1 0 00.75.31 1 1 0 00.9-.66 1 1 0 00-.07-.77 1.2 1.2 0 01.1-1.17.43.43 0 01.2-.22 1.38 1.38 0 00.28-.61zm-.29.59s.02.01 0 0zm-12.56 13.51c.37.1.69.22 1 .3s.73.12.94.19a3.5 3.5 0 01.71.3 6.54 6.54 0 001 .42 3.27 3.27 0 002.36-.19c.19-.08.31-.16.53-.26a.94.94 0 00.56-.63.9.9 0 00-.12-.67.55.55 0 00-.56-.24 2.27 2.27 0 01-1.82-.53 3.51 3.51 0 00-.68-.6 2.31 2.31 0 00-1.23-.35c-.84 0-1.48.4-2.13.44a2.72 2.72 0 01-.49 0 .73.73 0 00-.75.39 1.06 1.06 0 000 .82 1 1 0 00.68.61zm3.95 6.87a3.08 3.08 0 001-1c.24-.31.38-.55.48-.69a2.44 2.44 0 01.39-.4 3.14 3.14 0 01.57-.44 1.19 1.19 0 01.46-.18.93.93 0 00.66-.49.87.87 0 00.06-.67.58.58 0 00-.48-.37 12.24 12.24 0 00-2.21-.29 3.32 3.32 0 00-.61.13 2 2 0 00-.33.16 3.4 3.4 0 00-.28.21 2.74 2.74 0 00-.65.87c-.29.57-.42 1.24-.82 1.19l-.16-.06a1.14 1.14 0 00-.38-.13.84.84 0 00-.72.36 1 1 0 00-.16.81 1.44 1.44 0 00.49.66 2.36 2.36 0 001.21.57 2.4 2.4 0 001.48-.24zm5.67 3.96l.47-.37a.9.9 0 00.39-.75.86.86 0 00-.3-.62.58.58 0 00-.6-.09 10.16 10.16 0 01-2.17.17 1.86 1.86 0 00-1.24.74 1.8 1.8 0 00-.29.82 1.83 1.83 0 00.07.75c.08.26.15.38.19.33s.07-.06.1-.06 0 .06 0 .06-.42.35-.63.34h-.21a.78.78 0 00-.4 0 .93.93 0 00-.6.48.83.83 0 00.08.9 2.11 2.11 0 00.62.44 2.73 2.73 0 002.61-.08 2.48 2.48 0 00.63-.51 1.91 1.91 0 00.45-.86 2.53 2.53 0 00.06-.78v-.23s-.14.07 0-.09.47-.37.77-.59zm-4.43 8.14h.67a2 2 0 001.28-.25 2.41 2.41 0 001-.86 2.52 2.52 0 00.27-.66 1.13 1.13 0 00-.38-1.25 1.07 1.07 0 00-1-.15.9.9 0 00-.51.48c-.12.31-.59.41-.94.35s-.52-.05-.71.14c0 0-.23.12-.39.28a1 1 0 00-.31.57 1.14 1.14 0 00.27.88 1 1 0 00.75.47zm40.49-3.04a1.09 1.09 0 00-.76-.57.81.81 0 00-.67.19c-.25.23-.71.29-1.13.62a1.1 1.1 0 00-.32 1.39 2.4 2.4 0 001.1.91l.5.33a1.05 1.05 0 00.9.12 1.12 1.12 0 00.76-.78 1.14 1.14 0 00-.07-.76 1.12 1.12 0 00-.34-.43 1.09 1.09 0 00.03-1.02zm-.07 1.16a.36.36 0 01-.12.18h-.06l.1-.12a1.4 1.4 0 00.1-.16.22.22 0 01-.02.1zm-.11-.27c-.12-.14.08-.11.12.09zm-3.28 11.86a1.18 1.18 0 00.23.53v.1a.32.32 0 00.07.1l.13.16v.07a1.9 1.9 0 001.36 1 2 2 0 001.17-.19 2.7 2.7 0 00.65-.52h-.07a1.86 1.86 0 00.25-.17.81.81 0 00.51-.56 1.76 1.76 0 000-.93 1.45 1.45 0 00-.76-.93 1.38 1.38 0 00-1.28 0 1 1 0 00-.38.34v.08h.2c.09 0 .2.14.17.17s-.07 0-.14 0a2.32 2.32 0 00-.47-.24 1.85 1.85 0 00-1-.15.86.86 0 00-.6.37 1.11 1.11 0 00-.04.77zm1.12.17zm.39.75l-.11.06h-.12l-.12-.65c0 .06.09.12.15.18a1.41 1.41 0 00.36.24zm3.14 6.97a1.41 1.41 0 01-1.22-.27 2 2 0 01-.3-.26h-.07a1.05 1.05 0 00-.24-.28 1.11 1.11 0 00-.64-.26 1.19 1.19 0 00-1 .44 1 1 0 00-.07.94 4.3 4.3 0 00.25.74 2 2 0 001.3 1.11 3 3 0 001.57.11 2.64 2.64 0 00.68-.25 2.31 2.31 0 00.32-.22 1.18 1.18 0 00.51-.59 1 1 0 00-.29-1.11.79.79 0 00-.8-.1zm-9.55.53a2.86 2.86 0 00-.89-.1 2.46 2.46 0 00-1.6.53 2 2 0 00-.33.38 1 1 0 00-.15.73 1.33 1.33 0 00.93 1 1 1 0 00.49.69.76.76 0 00.84 0c.34-.27.87-.37 1.36-.78a1.34 1.34 0 00.45-.87 1.4 1.4 0 00-.27-1 1.75 1.75 0 00-.83-.58zm-1.82 1.69zm.91-6.93a1 1 0 00-.29.69c0 .37-.47.58-.79.47a2.53 2.53 0 00-.33-.1h-.1s-.21 0-.3.06a1.11 1.11 0 00-.61.47 1 1 0 00-.14.63 1.16 1.16 0 00.51.85 1.14 1.14 0 00.42.16h.33c.11 0 .45.07.69.08a2 2 0 001.44-.42 2.43 2.43 0 00.93-1.27 2.39 2.39 0 00.06-.8 2 2 0 00-.17-.59 1 1 0 00-.58-.52 1 1 0 00-1.07.29zM67.28 143a2.54 2.54 0 01-1.37 0 1.41 1.41 0 00-1.23.38 4.82 4.82 0 00-.44.55 4.85 4.85 0 01-.5.61.94.94 0 00-.05 1 1 1 0 001 .56 1.72 1.72 0 00.29-.05h.49a5.87 5.87 0 00.6-.16 5.13 5.13 0 001.12-.4 3.42 3.42 0 00.51-.33 1.66 1.66 0 00.23-.23 1.17 1.17 0 00.47-.6c.25-1.03-.69-1.57-1.12-1.33zm-4.09 11.58a.58.58 0 01.16-.05 1 1 0 00.06-.24 1.08 1.08 0 00-.48-1 1.13 1.13 0 00-1.58.47c-.1.24-.1.4-.16.55l-.21.51a1.55 1.55 0 000 1.23 1.91 1.91 0 00.81 1 1.59 1.59 0 001 .2 1 1 0 00.81-.77 1 1 0 00-.61-1.21c-.15-.12-.08-.59.2-.69zM66 135.49a4.06 4.06 0 00-.6-.27 1.09 1.09 0 00-.9.11 1.12 1.12 0 00-.55.94 1 1 0 00.09.44l-.1.12a1.24 1.24 0 00-.26.73 1 1 0 00.25.68 1 1 0 00.9.31 1.16 1.16 0 00.6-.28c.24-.24.69-.23 1.16-.44a1.12 1.12 0 00.55-1.4 2.05 2.05 0 00-1.14-.94zm-1.23 1.93a1 1 0 01-.18-.11l.2.09zM36.81 176.3a2 2 0 001.37.57 1.58 1.58 0 00.38-.05h.19a2.15 2.15 0 00.32-.13 1.07 1.07 0 00.53-1.27 1 1 0 00-.67-.62 1.27 1.27 0 00-.63 0 .25.25 0 01-.28-.23.36.36 0 01.19-.36.14.14 0 01.16.05v-.21a1.15 1.15 0 000-.32 1.16 1.16 0 00-.79-.92 1.18 1.18 0 00-1.09.25 1 1 0 00-.28.84c0 .38 0 .73-.06 1.2a1.67 1.67 0 00.66 1.2zm59.25-17.52a.91.91 0 00-.09.67.77.77 0 00.76.61 3.46 3.46 0 001.85-.41 1.73 1.73 0 00.73-1.94 4 4 0 00-1.16-1.53 5.11 5.11 0 01-.5-.65c-.07-.11-.13-.23-.2-.36a.9.9 0 00-.66-.42 1.19 1.19 0 00-1.3 1 1.37 1.37 0 00.28 1l.22.32a3.2 3.2 0 01.42.88s0 .13.09.15.27 0 .22.19a1.09 1.09 0 00-.66.49zm-7.95-12.38a.87.87 0 00-.78.23.46.46 0 01-.53.08.71.71 0 01-.33-.43 1.24 1.24 0 01-.06-.35.16.16 0 000-.06c0-.07 0-.13-.07-.19a1.18 1.18 0 00-.66-.6 1 1 0 00-.74.05 1.14 1.14 0 00-.65.87 2.89 2.89 0 00.12.81 5 5 0 00.23.76 2.09 2.09 0 001.2 1.2 2.48 2.48 0 001.78.14 2.15 2.15 0 00.82-.46 1.74 1.74 0 00.29-.38 1.26 1.26 0 00.25-.76.94.94 0 00-.87-.91zm-4.38-4.57l.2-.32a.84.84 0 00-.69-1.28 1 1 0 00-.35-.33.92.92 0 00-.78-.08 1.93 1.93 0 00-.37.21l-.15.07a3 3 0 00-.5.29c-.61.39-1 1.28-2.27 1.26a.93.93 0 00-.54 1 1 1 0 00.31.59 1.48 1.48 0 00.61.27 3.49 3.49 0 001.67.1 4 4 0 002.86-1.78z"/><path d="M113 123.91a.93.93 0 00.53-.11c.65-.21 1.18-.43 1.83-.64a1.27 1.27 0 00.86-1v-.11l-.11-.32c-.11-.1-.11-.32-.21-.43l-.33-.32c-.1-.11-.21-.21-.21-.32a.82.82 0 00-.75-.43 1.86 1.86 0 00-1.29.21 1.36 1.36 0 00-.75 1c0 .11-.11.22-.11.43s-.11.11-.11.11a1.37 1.37 0 00-.64.53l-.11.11v.11a1.33 1.33 0 00.86 1c0 .21.21.21.54.21z" fill="#1e5d84"/></svg>