<svg id="Layer_1" data-name="Layer 1" xmlns="http://www.w3.org/2000/svg" width="68.19mm" height="70mm" viewBox="0 0 193.31 198.43"><defs><style>.cls-1{fill:#1e5d84}</style></defs><path class="cls-1" d="M190.93 66.7a2.43 2.43 0 0 0-2.5-2.47 8 8 0 0 0-2.49 0 13.17 13.17 0 0 1-2.35 0c-.88 0-1.62-.13-2.5-.13-1.46 0-2.93-.14-4.4 0h-1.18c-.88-.14-1.76-.14-2.64-.28a2.72 2.72 0 0 1-2.05-1.09c-.3-.41-.74-1-1-1.37a5.77 5.77 0 0 0-3.23-2.46 2.18 2.18 0 0 0-2.2.27c-.15.14-.45.14-.59.28a2.61 2.61 0 0 0-.74-.28 5 5 0 0 0-2.49-.41 12.52 12.52 0 0 0-3.82.69c-1 .27-1.91.54-2.94.82a6.67 6.67 0 0 1-2.35.13 3.16 3.16 0 0 0-2.64.55 9.81 9.81 0 0 0-2.35 2.46c-.44.69-.88 1.51-1.32 2.19-1 1.64-2.05 3.15-2.94 4.79a20.53 20.53 0 0 0-1.61 3c-.44.82-.88 1.64-1.32 2.32a7.69 7.69 0 0 1-2.2 2.6 6.62 6.62 0 0 0-1.33 1.51L134 81.06a6.89 6.89 0 0 0-1 1 7 7 0 0 0-.88 1 5.63 5.63 0 0 1-1.91 1.78c-1.32.82-2.64 1.64-3.81 2.46a5.26 5.26 0 0 1-1.76.82 13.33 13.33 0 0 0-2.5.82 37.42 37.42 0 0 1-4.26 1.51c-1 .41-2 .68-2.94 1-.58.14-1.32.28-2.05.41a8.93 8.93 0 0 0-3.23.55 8.86 8.86 0 0 1-3.82.41 31.86 31.86 0 0 0-3.52-.13 19.65 19.65 0 0 1-2.94-.14c-2.79-.28-5.73-.28-8.66-.69-1.62-.27-3.23-.41-4.85-.54a38 38 0 0 0-5.58-.69h-2c-2.94.14-5.88.14-8.81.55-1.18.14-2.35.41-3.53.55a19.55 19.55 0 0 0-4 .68 8.73 8.73 0 0 1-2.06.55 30.09 30.09 0 0 0-6 1.64c-1.76.55-3.52 1.37-5.13 2.05a.54.54 0 0 0-.3.14c-1 .68-1.91 1.37-2.93 2a3.31 3.31 0 0 1-.89.55 13.62 13.62 0 0 0-4.4 3 3.87 3.87 0 0 1-.73.41c-.74.41-1.33 1-2.06 1.36a2.6 2.6 0 0 1-1 .69c-1.32 1-2.64 1.78-3.82 2.73a5.78 5.78 0 0 0-1.76 1.92 3.66 3.66 0 0 1-1 1.09c-1 .69-1.91 1.51-2.94 2.33-.74.68-1.62 1.23-2.35 1.91a34.94 34.94 0 0 1-3.52 2.87c-.15.14-.3.28-.3.41l-2.05 2.33-4.41 4.51a37.54 37.54 0 0 1-4.4 3.7c-.88.54-1.62 1.23-2.5 1.77l-.44.41c-1.32 1.51-2.5 3-3.82 4.52-1 1.23-.58 1.37 0 2.32a.14.14 0 0 0 .15.14 1.66 1.66 0 0 0 1.47.68 3.62 3.62 0 0 0 2.24-.76 4.41 4.41 0 0 1 1.61-.82c.3 0 .44-.27.74-.41 1.32-1 2.93-1.37 4.25-2.46a.57.57 0 0 1 .44-.14c1.47-.55 2.65-1.37 4.12-2 .14-.14.29-.14.44-.27.73-.55 1.61-1 2.35-1.51a7.59 7.59 0 0 0 1.61-1.37 6.23 6.23 0 0 1 2.06-1.78 17.73 17.73 0 0 0 3.38-2.37 4.11 4.11 0 0 1 1.18-1 33.32 33.32 0 0 0 3.37-2.87 14.67 14.67 0 0 1 1.45-1.19 6.9 6.9 0 0 0 1.76-1.78 2 2 0 0 1 1.47-.82c0 .27.15.41.15.55a16 16 0 0 0 .15 2.6 5 5 0 0 0 .14 1.5 19 19 0 0 1 1 5.06 19.78 19.78 0 0 1 .44 4.1 11.35 11.35 0 0 1 .15 3.15c-.3 2.19-.74 4.51-1 6.7a7 7 0 0 0 0 3 4.15 4.15 0 0 1 0 1.92c-.15 1.5-.29 3-.44 4.51a9.6 9.6 0 0 1-1.91 5.47c-1.17 1.5-2.05 3.15-3.08 4.65-.88 1.37-1.62 2.74-2.35 4.1a7.2 7.2 0 0 1-2.5 3 2.06 2.06 0 0 0-.58.55c-.15.27-.44.55-.59.82-.3 1-.59 2-.88 3.15v.82c0 .82.14 1.64.14 2.46a2.42 2.42 0 0 0 .15 1.09c.15 1 .44 1.78.59 2.74a18.73 18.73 0 0 1 .73 2.73c.3 1.64.74 3.42.3 5.06v.41c.14 1.37.29 2.74.44 4.24v2.33a18.86 18.86 0 0 0 .29 3 2.83 2.83 0 0 0 .44 1c.29.27.59.54.88.54a4.43 4.43 0 0 0 1.91.14 26.77 26.77 0 0 1 5.73 0c.29 0 .44.14.73 0a5.77 5.77 0 0 0 2.94-1.78.42.42 0 0 0 .14-.27 1.65 1.65 0 0 0 .15-1.64 1.24 1.24 0 0 0-1.47-.69h-.44c0-.27-.14-.54-.14-.82s-.15-.82-.3-1.09a8 8 0 0 1-.15-2.74c.15.41.3.55.3.82a2.4 2.4 0 0 0 1.71 1.5c.29.13.73.13 1 .27a3.16 3.16 0 0 0 2.49 0 9.83 9.83 0 0 1 2.79-.27 12.61 12.61 0 0 1 2.21.13 1.71 1.71 0 0 0 1.91-1.77v-1.1a1.13 1.13 0 0 0-.15-.68 4.78 4.78 0 0 0-3.08-2.6 7.38 7.38 0 0 1-1.57-.55c-.29-.13-.44-.41-.59-.54-.29-.41-.44-.69-.73-1.1a2.51 2.51 0 0 1-.59-1.64c-.29-2.32-.59-4.51-.88-6.84v-.82a24.77 24.77 0 0 1 .88-3.42 23.26 23.26 0 0 1 1.62-4.1c.14-.28.29-.69.44-1.1a13.09 13.09 0 0 1 1.17-1.91 6.24 6.24 0 0 0 1-1.64 3.2 3.2 0 0 1 .59-1 23.33 23.33 0 0 1 3.52-4l.29-.27a19.38 19.38 0 0 0 2.79-4 15.23 15.23 0 0 1 1.47-2.59 17.23 17.23 0 0 1 2.42-3.19 2.86 2.86 0 0 0 .44-.68 30 30 0 0 0 1.56-3.83 1 1 0 0 0 .14-.68 22.79 22.79 0 0 1 1.18-6.3 30 30 0 0 0 1-5.19 2.29 2.29 0 0 0 0-1.37 1.8 1.8 0 0 1 .44-1.92 3.06 3.06 0 0 0 2.49.14 34 34 0 0 0 3.53-1.09c1.61-.55 3.23-1.1 5-.41h.59a7.65 7.65 0 0 1 3.52.82c.15.13.29 0 .59.13a22.19 22.19 0 0 1 4.55 1.65c.29.13.73.27 1 .41a14.56 14.56 0 0 1 4.55 1.91 18 18 0 0 0 5.14 1.92l1.76.41c.59.27 1.32.54 1.91.82a5 5 0 0 0 1.91.54 3.59 3.59 0 0 1 1.61.41 3.17 3.17 0 0 0 1.62.55 14.63 14.63 0 0 0 3.37.55 43.53 43.53 0 0 1 4.55.68c.74.14 1.62.28 2.5.41h4.85a13.55 13.55 0 0 0 2.35-.27 1.63 1.63 0 0 1 .73-.14 6.69 6.69 0 0 0 1.61-.13h.74a6.56 6.56 0 0 1-.44 1.77c-.44.82-.88 1.64-1.32 2.33a3 3 0 0 0-.44 1.64c0 .41.14.82.14 1.09a11.05 11.05 0 0 0 1.47 3.56 5.36 5.36 0 0 1 .74 2.6 26.45 26.45 0 0 0 .29 3.42 52.57 52.57 0 0 1 .73 6.7 1 1 0 0 0 .15.55 6 6 0 0 1 .15 2.73v2.74c0 .82.14 1.64.14 2.6 0 2.18-.14 4.24 0 6.42a20.3 20.3 0 0 1 .15 3v2.88a2.94 2.94 0 0 0 .88 2.32c.15.14.3.27.3.41a5.22 5.22 0 0 0 1 2.46c.15.28.15.55.3.82.44 1.1.73 2.19 1.17 3.29a14.14 14.14 0 0 1 1 3.28 7.21 7.21 0 0 0 1.76 3.69 2.23 2.23 0 0 0 2.2 1 13.19 13.19 0 0 1 2.35.14 5.57 5.57 0 0 0 1.47 0 11.92 11.92 0 0 1 2.35-.28 6.11 6.11 0 0 0 2.2-.41 3 3 0 0 0 1.62-1.37 1.16 1.16 0 0 0-.15-1.5c-.59-.68-1-1.23-1.61-1.92a2.58 2.58 0 0 1-.44-.68 1.13 1.13 0 0 1 .88-.27 4.49 4.49 0 0 0 1.32 0 19.52 19.52 0 0 0 2.93-.41 3.36 3.36 0 0 0 2.21-1.1c.14-.27.29-.54 0-.68a8.21 8.21 0 0 0-2.06-2.33 14.11 14.11 0 0 1-1.61-.82 8.46 8.46 0 0 0-3.09-1.09 3.09 3.09 0 0 1-1-.27.92.92 0 0 1-.73-.69 8 8 0 0 1-.15-3.69 21.23 21.23 0 0 0 .15-5.34 30.53 30.53 0 0 1-.15-6.29 23.94 23.94 0 0 0-.29-5.6c-.15-1.37-.15-2.74-.29-4.11v-.41c.14-2.05.58-4 .29-6v-.41a35.94 35.94 0 0 1 .44-3.83 13.9 13.9 0 0 1 .88-3.28 39.44 39.44 0 0 1 1.62-3.69 18.12 18.12 0 0 0 1.17-3.69 10.29 10.29 0 0 1 .88-3 45.46 45.46 0 0 0 2.06-4.65 27.13 27.13 0 0 1 2.05-4.11 19.28 19.28 0 0 0 2.5-6.83c.29-1.51.59-3.15 1-4.65a35 35 0 0 0 1.47-5.48 8.1 8.1 0 0 1 1.17-3.14 23.38 23.38 0 0 0 2.06-4.24c.29-.82.58-1.64.88-2.6s.58-1.78.88-2.74.44-1.64.73-2.32a30.28 30.28 0 0 1 5.73-8.48 2.67 2.67 0 0 1 1.32-.82 20.23 20.23 0 0 1 2.79-.68 30.89 30.89 0 0 1 6-1.1 3.94 3.94 0 0 0 2.64-1.23 18 18 0 0 1 1.62-1.64 14.84 14.84 0 0 1 3.52-2.19 5.75 5.75 0 0 0 1.18-.68 8.26 8.26 0 0 0 1.76-1.23 15.38 15.38 0 0 0 1.32-1.78 3.8 3.8 0 0 0 1-2.74 17.91 17.91 0 0 0 .14-2.73 4.75 4.75 0 0 0 .15-1.64zm-40.52-3.83a1.81 1.81 0 0 1 1.47-.28c2.2.41 4.11-.54 6.16-1.09a7.44 7.44 0 0 1 3.53-.41c0 .13.14.27.14.41a7.83 7.83 0 0 0 1.47 5.33c.59 1 1.18 1.78 1.76 2.74-.29.54-.73 1.09-.44 1.78a1.38 1.38 0 0 1-.29.68 2.52 2.52 0 0 0-.44 1.78 12.91 12.91 0 0 0 .14 2.32 6.43 6.43 0 0 0 .45 2.33 1.68 1.68 0 0 1 .14.82.49.49 0 0 1-.14.41h-.74c-.29-.14-.44-.27-.73-.41a11.51 11.51 0 0 1-2.21-2.28 3.41 3.41 0 0 0 1.18-3.42 6.52 6.52 0 0 1-.44-2.87 4.05 4.05 0 0 0-.44-1.23 12.74 12.74 0 0 0-.88-2.48 3.69 3.69 0 0 1-.3-1.23 3.15 3.15 0 0 0-.88-1.51c-.14-.13-.44-.41-.58-.41a1.31 1.31 0 0 1-.89-.41 1.67 1.67 0 0 0-1.61-.27 22.38 22.38 0 0 0-3.82 1.5 3.57 3.57 0 0 0-.73.41l-1.76-.41a1.61 1.61 0 0 1 .88-1.77zm-26.87 28.72c-.15.27-.3.41-.3.68v.28A1.1 1.1 0 0 1 123 92c.1-.14.39-.28.54-.41zm-62.11 41.17c-.15.68-.44 1.5-.59 2.18a11.11 11.11 0 0 0-.73 3.7 12.34 12.34 0 0 1-.74 3.14 1.83 1.83 0 0 1-1.17 1.37l-1.32.82a2.65 2.65 0 0 0-.44.69 1.68 1.68 0 0 0 .44.54v.28c-.15.41-.44 1-.59 1.36-1 1.64-1.91 3.15-2.94 4.79a1.06 1.06 0 0 0-.29.55 9 9 0 0 1-1.76 2.32 30.11 30.11 0 0 0-5.14 6.16c-.29.54-.73 1-1 1.5a33.92 33.92 0 0 0-2.49 5.75c-.15.41-.15.68-.59 1-.59 0-.88-.68-1.32-.41s-.44.69-.88 1a3.5 3.5 0 0 0-.88 2.33c-.15.41.14.54.58.68l1.62.41a1.7 1.7 0 0 0 .14.82c.15.82.3 1.78.44 2.6a6.28 6.28 0 0 1 .3 2.87c-.3 1.78.44 3.28 1.32 4.79a5.62 5.62 0 0 0 1.91 2.19 2.85 2.85 0 0 0 2 .68 1.59 1.59 0 0 1 1.33.68.64.64 0 0 1 .14.83 1.46 1.46 0 0 1-.73.13h-.44a12.57 12.57 0 0 0-4.55-.13c-.44 0-1 .13-1.47-.28s-.59-1-.88-1.5-.44-1-.74-1.37a9.79 9.79 0 0 0-.88-1.78 7.71 7.71 0 0 1-.59-1.64c-.14-1.09-.29-2.33-.44-3.42s-.44-1.91-.58-2.87-.44-1.51-.59-2.33c0-.27-.15-.54-.15-.82A3.37 3.37 0 0 0 36 170a6.58 6.58 0 0 1 1.35-2c.15-.13.29-.13.44-.27.73-1.23 1.91-2.05 2.64-3.28.15-.14.3-.41.44-.55a19.41 19.41 0 0 0 2.5-3.56 10.44 10.44 0 0 1 2.2-2.73 10.36 10.36 0 0 0 2.21-2.74 3.23 3.23 0 0 1 .88-1.09 5.5 5.5 0 0 0 1-1.51 4.67 4.67 0 0 1 .74-1.09.71.71 0 0 0 .29-.55 7 7 0 0 1 1.76-2.73 6.43 6.43 0 0 0 1.47-2.33 7.21 7.21 0 0 1 .88-1.78c.15-.13.3-.27.3-.41a3 3 0 0 1 1.61-1.91 1.4 1.4 0 0 0 .59-.68c.15-.28.15-.55.29-.69a4.41 4.41 0 0 0 .74-3.28 2.19 2.19 0 0 1 .73-1.64 1.91 1.91 0 0 0 .73-1.51c0-1.09.59-1.64 1.77-1.91a2.17 2.17 0 0 1-.15 1zM36 176.11c0 .28 0 .41-.44.55a9.67 9.67 0 0 1-.3-2 1.69 1.69 0 0 1 .74 1.45zm89.56-48.55a.4.4 0 0 0-.14-.27c.14 0 .14-.14.29-.14s.15.14.29.27a.57.57 0 0 0-.44.14zm28.19-22.3v-.13c.18 0 .03.13.03.13zm12-22.29a17.77 17.77 0 0 0-3.67 4.24c-.14.14-.14.27-.29.41s-.15 0-.15.14c-.14-.14-.29-.28-.29-.41a4.84 4.84 0 0 1 0-2.87A1.4 1.4 0 0 0 160 82.7a7.47 7.47 0 0 1-1.76-.14 3.13 3.13 0 0 0-1.91.27c-.29-.27-.15-.54-.15-.82a1.4 1.4 0 0 0-.14-1.5.91.91 0 0 0-1.33-.41 2 2 0 0 0-1.32 1.78 1.75 1.75 0 0 0 .88 1.78 12.51 12.51 0 0 0 1.33.27 3.19 3.19 0 0 1-.3 1.64 12.44 12.44 0 0 0-.88 4.65 7.34 7.34 0 0 0 .44 2.46c.15.55.15 1.23.3 1.92v.68a1 1 0 0 0 1 1h1.32c0 .27.15.41.15.55v.13a35.08 35.08 0 0 1-2.64 6.43c-.15.27-.44.41-.59.68a1.69 1.69 0 0 1-.29-1.64c.14-.54.29-1.09.44-1.64a3.7 3.7 0 0 0 .14-1.23 6.29 6.29 0 0 0-.29-1.64v-.41c-.44-1.1-1-1.23-1.91-1a6.17 6.17 0 0 1-.88.28 13 13 0 0 1-.15-2.33 2.81 2.81 0 0 0-.29-1.91 11.28 11.28 0 0 1-.73-2.06 7.91 7.91 0 0 0-.59-1.64 1.46 1.46 0 0 0-1.47-1 .58.58 0 0 1-.44-.13 6.82 6.82 0 0 1-.44-1 1.36 1.36 0 0 0-.59-.68 1 1 0 0 0-1.61.13 1.23 1.23 0 0 0-.15 1.23c.29.83.44 1.51.74 2.33a3.16 3.16 0 0 1 .29 1.09 19.92 19.92 0 0 0 1.32 4.24 2.46 2.46 0 0 0 .88 1.23 1.73 1.73 0 0 1 .59 1.37V98c0 1.23.44 2 1.91 2v.82c0 .41-.15.82-.15 1.23a1.6 1.6 0 0 1-.15.82 2.19 2.19 0 0 0 .15 1.64c.15.14.15.41.29.55a1.2 1.2 0 0 0 1.77.55 3.36 3.36 0 0 0 .73-.42 3.93 3.93 0 0 1-.29 1.24 3.76 3.76 0 0 0-.44 1.36A29.75 29.75 0 0 1 151 114a4.58 4.58 0 0 0-.44 1.91c-.14 1-.29 1.78-.44 2.74-1.17.41-1.76-.14-2.35-1-.44 0-.73.14-1.17.14a1.88 1.88 0 0 0-.29 1.5 13 13 0 0 0 .58 1.92 4.93 4.93 0 0 0 .59 1.23c.29.41.59.68.88 1.09a7.06 7.06 0 0 0-.29 1c-1 2-2.06 4.1-2.94 6.15a25.93 25.93 0 0 0-2.35 7.39 12.11 12.11 0 0 1-.88 2.46 25.09 25.09 0 0 0-2.79 9.58v1.36a44.19 44.19 0 0 1-.15 6.3 15.62 15.62 0 0 0 .3 4.51 21.4 21.4 0 0 1 .44 4.38 20.18 20.18 0 0 1-.29 2.73 20.3 20.3 0 0 0 .29 5.2 10.36 10.36 0 0 1-.15 4.24 12.43 12.43 0 0 0 .59 5.61 10.28 10.28 0 0 0 1 1.64 1.65 1.65 0 0 0 1.17.68c.74.14 1.47.41 2.06.55.29.13.58.13.73.27a8.78 8.78 0 0 1 1.47 1c0 .27-.15.27-.29.27a10.38 10.38 0 0 1-2.94.14 2.29 2.29 0 0 0-1.62.55 2.5 2.5 0 0 1-.88-1.23 14.6 14.6 0 0 1-1.46-6 10.12 10.12 0 0 0-.59-3 6.38 6.38 0 0 1-.3-1.64c0-1-.14-1.92-.14-2.74a16.7 16.7 0 0 1 .14-6V168c0-1.5-.14-3-.14-4.65a3.7 3.7 0 0 1 .14-1.23 14.34 14.34 0 0 0 .15-2.6c.15-1.64-.15-3.28-.15-4.78v-1.1a16.5 16.5 0 0 0 .3-3.83 13.46 13.46 0 0 1 .88-5.33 7.24 7.24 0 0 0 .44-3.56.76.76 0 0 0-.59-.82 1 1 0 0 0-1.61.69 10.57 10.57 0 0 1-.74 2.87 15.82 15.82 0 0 0-1 3.55A7.14 7.14 0 0 0 136 149a29.78 29.78 0 0 0-.59 6.29c0 .28-.15.55-.15.82v2.19c0 .41.15.82.15 1.1a28.76 28.76 0 0 0 .15 6.15v1c-.59.14-1.18.41-1.62.55a.91.91 0 0 0-.73.95 9 9 0 0 0 .29 3.42c.3.69.74 1.23 1.47 1.23a1.58 1.58 0 0 1 .73.28 13.74 13.74 0 0 1 .59 2.46 8.44 8.44 0 0 0 .3 1.91 6.39 6.39 0 0 1 .14 2.88 36.14 36.14 0 0 0 .15 5.6 5.43 5.43 0 0 0 1 3.29l.44.82a5.07 5.07 0 0 0 1.32 1.77c.88.69 1.47 1.51 2.2 2.19.3.28.44.55.3.82-.15 0-.3.14-.59.14a25.23 25.23 0 0 1-4.55.14 2.78 2.78 0 0 1-1-.28 1.2 1.2 0 0 1-1-1 10.72 10.72 0 0 1-1-3 7.73 7.73 0 0 0-.73-2.6 13.35 13.35 0 0 1-.59-1.37 16.26 16.26 0 0 0-1.32-3.42 1.6 1.6 0 0 1-.15-.82v-1.09a1.32 1.32 0 0 0-1-1.37.54.54 0 0 1-.3-.14 3 3 0 0 1 0-1.64 8.34 8.34 0 0 0 0-2.73c-.15-1.78 0-3.56 0-5.34v-4.38c0-1.36.15-2.73.15-4.1a2.42 2.42 0 0 0-.15-1.09v-.82a10.61 10.61 0 0 1 1.91-.28 1.34 1.34 0 0 0 1.47-1.36 8.12 8.12 0 0 0-.59-3.7c-.15 0-.29-.13-.44-.27-.44-.14-.59-.41-.88-.82-.44-1-.44-1-1.32-.82s-1 0-1-.69a10.66 10.66 0 0 1-.15-2.18 9.41 9.41 0 0 0-.29-2.88 2 2 0 0 0-.29-.82c-.59-1.36-1.18-2.6-1.91-4a2 2 0 0 1 .14-2.19 21.15 21.15 0 0 0 1.18-1.78c.15-.14.15-.27.29-.41a13.32 13.32 0 0 0 .88-3.28c0-.28.15-.41 0-.69a24.7 24.7 0 0 0-.44-4.78 3.91 3.91 0 0 0-.73-1.64c.15-.55.59-.69 1.17-.55a1.52 1.52 0 0 0 1.33-.55.81.81 0 0 0 .29-1 6.26 6.26 0 0 1-.74-2.32 1.1 1.1 0 0 0-.58-.82 7.25 7.25 0 0 1-1.47-1.51c-.15 0-.29-.13-.44-.13-1-.14-1.47 0-1.91.82-.15.41-.15.68-.29 1.09a1 1 0 0 1-.44 1c-.44.14-.59-.14-.74-.41s-.73-1-1-1.37a1.54 1.54 0 0 0-1.91-.41 4.31 4.31 0 0 1-1.9.41 1.4 1.4 0 0 0-1.47 1.09c-.15.28-.15.55-.3.83s-.73.27-1 .41a1.09 1.09 0 0 0-.3 1.64 1.2 1.2 0 0 0 .59.27 6.85 6.85 0 0 1 .73-.14 1.62 1.62 0 0 1 2.06 1 7.27 7.27 0 0 0 1.17 2.05 2.27 2.27 0 0 0 .59.55 1.22 1.22 0 0 0 1.62.14 4.37 4.37 0 0 0 1-.69c.45-.27.89-.54 1.47-.82a1.87 1.87 0 0 1 .3.82 14.74 14.74 0 0 1 .29 2.46c0 .69-.15 1-.88 1.1s-1.62.27-2.35.41c-.44.14-.88.14-1.17.27a6.46 6.46 0 0 1-2.46.14 10.13 10.13 0 0 0-2.06 0 14.33 14.33 0 0 1-3.38-.27l-.29-.28a6.17 6.17 0 0 0 .44-.95 1.24 1.24 0 0 0-.15-1.24 2.82 2.82 0 0 0-1.32-1.23c-.29-.13-.88-.13-.88-.68.3-.27.59 0 .88 0a2.16 2.16 0 0 0 2.5-1.37 1.09 1.09 0 0 0-.44-1.09 1.14 1.14 0 0 0-.59-.28 4.64 4.64 0 0 1-1.76-1.09 2.82 2.82 0 0 0-1.47-.68c-.59 0-.88.13-.88.68a2.31 2.31 0 0 0 .73 2.32 8.75 8.75 0 0 0 .59.83 11.34 11.34 0 0 1-1.92.33 9.06 9.06 0 0 1-1.32 1.09c-.59.41-.59 1-.88 1.64-.29 0-.44-.13-.73-.13a16.88 16.88 0 0 0-2.65-.14 5.2 5.2 0 0 1-3.23-.82 6.11 6.11 0 0 0-2.64-1 17.26 17.26 0 0 1-5.14-1.78c-1.32-.68-2.64-1.23-4-1.77-.59-.28-1.18-.28-1.91-.55a21.86 21.86 0 0 0-3.23-1.09c-1.62-.55-3.23-1-4.85-1.51a11.26 11.26 0 0 0-6-.14 24.38 24.38 0 0 0-6.16 2.6c-.15.14-.44.14-.59.28h-.15a3.26 3.26 0 0 1 1.93-2.68l.88-.41a44.43 44.43 0 0 1 4.41-2.6 12.38 12.38 0 0 1 2.79-1.23 18.19 18.19 0 0 0 2.49-1c-.14.14-.14.41-.29.55-.15.41.29.68.59 1a8.23 8.23 0 0 0 2.79 1.23 5.78 5.78 0 0 0 4-.68.3.3 0 0 0 .29-.28 1.38 1.38 0 0 0 .15-1.78 3.17 3.17 0 0 0-2.64-1 6.08 6.08 0 0 1-2.21 0c-.44.13-1 .13-1.46.27a1.38 1.38 0 0 0 .58-.68 1 1 0 0 0-1-1.23 5.54 5.54 0 0 0-1.62.27 45.79 45.79 0 0 0-7.49 3.14 14.13 14.13 0 0 0-2.35 1.65l-1.76 1.23a5.08 5.08 0 0 0-2.05 2.18c0 .14-.15.28-.15.42a9.1 9.1 0 0 0-1.62 3.82 1.19 1.19 0 0 1-1 1 .6.6 0 0 1-.15-.82c.73-1.09.59-2.46.88-3.69A1.25 1.25 0 0 0 61 122a1.62 1.62 0 0 0-2.35.55c0 .13-.15.27-.15.41 0 .68-.44 1-.88 1.37a3.35 3.35 0 0 0-1.17 3.55c.29 1.37.88 1.78 2.05 1.78h.59v.68a18.39 18.39 0 0 0-1.17 2.47c-.15.13-.3.27-.3.41a2 2 0 0 1-1.32 1.5 1.45 1.45 0 0 0-.59.68 2.65 2.65 0 0 0-.44 1.1 14.57 14.57 0 0 1-1.46 3.42 2.11 2.11 0 0 1-.89 1.09 4.15 4.15 0 0 0-1.17 2.19 1.65 1.65 0 0 1-.59 1.23c-.58.82-1.32 1.51-1.91 2.33a34.46 34.46 0 0 0-2.49 3.83 9.68 9.68 0 0 1-1.62 2.59c-.44.42-.73 1-1.17 1.37L41.76 157c-.3.41-.59.83-.88 1.24l-2.21 3.69a9.71 9.71 0 0 1-1.17 1.5c-.3.41-.74 1-1 1.37s-.73.82-1 1.23c-.88 1.1-2 2.19-2.49 3.56a8.79 8.79 0 0 0-.44 1.91 4.73 4.73 0 0 0 0 2v.41a17.09 17.09 0 0 0 .88 5.48 2.92 2.92 0 0 1 .14 1.09c-.14 0-.29.14-.29 0-1-.27-1-.27-1.47.41a11.66 11.66 0 0 0-.88 1.37.5.5 0 0 0 .44.82c.59 0 .88.41 1.18.41a3 3 0 0 0 1.32-1 4.64 4.64 0 0 1 .73 1.78c.3 1.09.59 2.19.88 3.14a10.28 10.28 0 0 0 1 2.19 1.74 1.74 0 0 1 .15 1.23 1.88 1.88 0 0 0 1 2.47c.15.13.3.13.45.27s.44.27.44.55-.3.41-.59.54a7.77 7.77 0 0 1-1.76.28c-1.47 0-2.79 0-4.26.13h-.44a.81.81 0 0 1-.74-.41 3.57 3.57 0 0 1-.44-1.77v-1.51a23.83 23.83 0 0 1-.14-7.25 4.27 4.27 0 0 0-.15-1.37c0-.13-.15-.27-.15-.54a26.85 26.85 0 0 0-.88-4.79c-.14-.41-.14-.82-.29-1.23a5.71 5.71 0 0 1-.44-2.19v-3.42a2.65 2.65 0 0 1 1.47-2.6 6.87 6.87 0 0 0 2.79-3.55 3.15 3.15 0 0 1 .88-1.51 5.3 5.3 0 0 0 .88-1.5 14.18 14.18 0 0 1 1.61-2.33c1-1.5 2.06-2.87 3.09-4.37a8.19 8.19 0 0 0 .44-1c.29-.82.58-1.64.88-2.6.14-.41 0-.82.14-1.09s.15-.41.15-.55c.44-.14.59 0 .59.27.44.55.88.41 1.47.28a.76.76 0 0 0 .14-1.37 2.11 2.11 0 0 0-.88-.28c-.29 0-.73.14-1.17.14a6.78 6.78 0 0 1 0-2.46 4 4 0 0 0-.15-2.6 3.27 3.27 0 0 1 0-2.05c.15-.68.3-1.51.44-2.19 0 .14.15.14.15.27s.29.14.44 0c.59 0 .88-.27.73-.82a1.82 1.82 0 0 0-.73-1.23c-.15 0-.29.14-.44.14.15-.68.29-1.23.44-1.91a5.39 5.39 0 0 0 .29-2.19v-.82a1.58 1.58 0 0 1 .15.82 2.26 2.26 0 0 0 .88 2c.29.27.59.68.88 1 .59.54 1.32.27 2.06 0a1.17 1.17 0 0 0 .58-1.24 6 6 0 0 0-2.05-4.1 1.16 1.16 0 0 0-.74-.27 1.82 1.82 0 0 0-1.61 1.37 21.4 21.4 0 0 0-.44-4.38 1.23 1.23 0 0 1 .15-1.23c.29 0 .58.13.88.13a1.67 1.67 0 0 0 2-1.64 8.54 8.54 0 0 0-.29-1.77c0-.14.15-.28.29-.55a1.38 1.38 0 0 0 0-1.51c-.14-.13-.14-.27-.29-.41a3 3 0 0 0-2.94-1.77 3.24 3.24 0 0 0-1 .13v-.68c0-1.1-.14-2.19-.14-3.15a7.35 7.35 0 0 0-.3-2.6c-.58-1.91-1.61-2-3.37-1.09a5.12 5.12 0 0 0-2.05 2.27c-.15.14-.15.27-.29.41-1.18 1-2.2 2-3.38 3-.59.54-1.32 1.09-1.91 1.64a11.61 11.61 0 0 1-2.2 1.64 5.44 5.44 0 0 0-1.91 1.64 7.56 7.56 0 0 1-2.05 1.67 10.6 10.6 0 0 0-3.38 2.74 8.62 8.62 0 0 1-2.94 2c-2.05 1.23-4.11 2.32-6 3.42-.14.14-.44.14-.59.27a.52.52 0 0 1 .15-.68 16.2 16.2 0 0 1 1.94-1.32 7.89 7.89 0 0 0 1.17-.82c1.62-1.37 3.23-2.74 4.7-4.24l.15-.14c1.17-1.77 2.94-3.14 4.4-4.78a3.83 3.83 0 0 1 .89-.69 6.19 6.19 0 0 0 2-1.78 9.86 9.86 0 0 1 2.2-1.91 3.15 3.15 0 0 0 .74-.55 18.8 18.8 0 0 1 3.82-3 2.15 2.15 0 0 0 1-1.23 2.4 2.4 0 0 1 .74-1 64.31 64.31 0 0 1 7-5.2 12.49 12.49 0 0 0 1.47-1.1 7.81 7.81 0 0 1 2.5-1.64 17.66 17.66 0 0 0 2.79-1.78 16 16 0 0 1 1.61-1.09 2 2 0 0 1 .88-.14.42.42 0 0 1 .15.28 1.22 1.22 0 0 0 .44 1.64c.3.14.44.41.74.68v.41a.81.81 0 0 0 .44 1 15.9 15.9 0 0 1 1.76 1.37 3 3 0 0 0 2.05.82v.14A46.45 46.45 0 0 0 55 112a5.14 5.14 0 0 0 .15 1.5 2.52 2.52 0 0 0 2.02 1.5 2.45 2.45 0 0 0 2.35-2.19 5.17 5.17 0 0 1 .15-1.51c0-.41.29-.68.73-.82s.59-.13.74-.27.73-.14 1-.41a9.34 9.34 0 0 1 1.77-.82 2 2 0 0 0 1.32-2.74.48.48 0 0 0-.15-.41 1 1 0 0 0-1-.68h-1.62c-.15-.28-.15-.41-.3-.55a1.81 1.81 0 0 0-2-1.09v-1c.15-.14.15-.27.29-.41.88-.55.74-1.37.74-2.05a2 2 0 0 0-1.47-1.51 1 1 0 0 0-.59-.13 4.18 4.18 0 0 1-2.49-1.51 1.77 1.77 0 0 0 .58-.41 11.82 11.82 0 0 1 2.06-.68l2.49-.41h.59a13.61 13.61 0 0 1-.88 1.37c.59.41 1 1.09 1.91 1.23.29 0 .44.27.73.41a3.39 3.39 0 0 0 2.79.54 3.86 3.86 0 0 0 2.06-1.23.8.8 0 0 0 .15-.95 4.19 4.19 0 0 1-.44-2.33c1.17-.55 3.67-.82 6.6-.82A4.08 4.08 0 0 1 73.91 95a1.66 1.66 0 0 0-.73.68.78.78 0 0 0 0 1.1c1.61 1.64 3.37 2.46 5.87 1.36a1.35 1.35 0 0 0 .88-1.36 1.63 1.63 0 0 0-.15-.83 1.46 1.46 0 0 1 .15-1.09 1.75 1.75 0 0 0 .29-1.23c.3-.27.74-.14 1.18-.14l2.64.41 2.94.41a5.45 5.45 0 0 1 1.47.28c0 1 .29 1.77-.3 2.46-.14.14-.14.55-.14.82s.29.55.58.68c1.62.28 3.23.55 4.7-.27a3.17 3.17 0 0 0 .3-3c.44 0 .73-.14 1-.14 1 0 2.06.14 3.09.14h.58a12 12 0 0 0 3.09.27 5.85 5.85 0 0 0-.44 1h-.59a1.92 1.92 0 0 0-1.62.82c-.29.55-.73 1-1 1.51a1.61 1.61 0 0 0-.15 1.64c.15.27.29.41.29.68a1.83 1.83 0 0 0 2.35.82 3.69 3.69 0 0 0 2.21-2.87v-1.27a1.14 1.14 0 0 1 .58-.14 1 1 0 0 0 .74-.95 1.25 1.25 0 0 0-.44-1.24h5.58a7.09 7.09 0 0 1 2.34-.55 9.14 9.14 0 0 1 2.79-.14 2 2 0 0 0 .89-.14c1.17-.41 2.49-1 3.67-1.36.58-.28 1.32-.28 2-.55.15.41-.14.41-.29.41a2 2 0 0 0-1.47 1.37c-.15 1-.44 1.77.29 2.6.15.13.3.41.44.54v.69a.49.49 0 0 0 .3.68.71.71 0 0 0 .88-.14 3.39 3.39 0 0 0 .73-.82 1.39 1.39 0 0 0 1.18-1 5.62 5.62 0 0 0 .44-3.42 4.16 4.16 0 0 0 1.61 1.5 1.18 1.18 0 0 0 1.32 0 2.85 2.85 0 0 0 1.33-2.46 2.26 2.26 0 0 0 1.17-2.33.48.48 0 0 0-.15-.41.89.89 0 0 1 .44-1.09 8.64 8.64 0 0 1 2.35-1.51 16.26 16.26 0 0 0 2.5-1.77s.15 0 .15-.14c.29-1.09 1.32-1.78 2.05-2.6a2.94 2.94 0 0 1 .59-.68 11.76 11.76 0 0 0 3.28-3.23 15.64 15.64 0 0 0 2.05-3.28 31.82 31.82 0 0 1 1.77-2.87c1.17-2.19 2.64-4.1 3.81-6.29.15-.27.3-.41.44-.69.45.28.15.69.3 1 0 .28.15.69.15 1s.29.68.44 1a5.64 5.64 0 0 0 .58 1 3 3 0 0 0 .59.83c.29.27.44.54.73.68s.44.55.74.82a11.26 11.26 0 0 0-1.18.41c-.29-.14-.44-.41-.73-.55a1.09 1.09 0 0 0-1.62.28c-.44.68-1 1.36-1.46 2a7.33 7.33 0 0 0-1 5.2 2.7 2.7 0 0 0 .44 1 9.35 9.35 0 0 0 .88 1.23 2.78 2.78 0 0 0 1 .82 1.43 1.43 0 0 0 1.91-.27c.44-.55.73-1.23 1.46-1.5.15 0 .3-.28.45-.55a15.82 15.82 0 0 0 1.61-4.38 4.27 4.27 0 0 0 .15-1.37v-.82a22.56 22.56 0 0 1 1.91 1.37 42.25 42.25 0 0 1 3.52 3.83c.29.41.59.69.88 1.1a3.13 3.13 0 0 0 1.62 1.09 7.71 7.71 0 0 0 3.08.68 2.37 2.37 0 0 1 1.61.41c.15.69.15.82 0 1zm22.32-11.62a2.13 2.13 0 0 1-.44 1.23 9.46 9.46 0 0 1-3.38 2.87 22.51 22.51 0 0 0-3.08 1.64 11.78 11.78 0 0 0-2.06 1.64c-1.61 1.51-1.17 1.37-3.37 1.64-1.62.28-3.09.55-4.85.69-1-2.06-2.05-4.11-1.91-6.43V72.3a1 1 0 0 0-.14-.54 10.89 10.89 0 0 0-1.47-2.88c-.88-1.09-1.62-2.32-2.35-3.42a4.93 4.93 0 0 1-.88-3.83 3.29 3.29 0 0 1 .73-.54c.59-.41 1-.41 1.47.13a9 9 0 0 1 1.54 1.78 8.29 8.29 0 0 0 1.91 1.92 5.48 5.48 0 0 0 2.35.82c1.32.27 2.64.41 4 .55h1a28.64 28.64 0 0 1 6.9.41 1.56 1.56 0 0 1 .73.27v.82c.15 1.23.89 1.78 2.21 1.64h.73a2.56 2.56 0 0 1 .44 1.92z"/><path class="cls-1" d="M145.12 100.48a2.33 2.33 0 0 0-2.64.13 5 5 0 0 0-1.18 2.06 9 9 0 0 0-.14 3.42 2.13 2.13 0 0 0 2.05 1.91h.44c.74.14 1 .41.88 1.09a2 2 0 0 0 .15 1.78.83.83 0 0 1-.29 1.23c-.3.14-.44.55-.59.69a3 3 0 0 0-1.17 1.91c-.15.55-.15 1-.3 1.51s-.15 1.36-.15 2.05a1.94 1.94 0 0 0-1.32 1.64 1.63 1.63 0 0 0 .59 1.91 6.33 6.33 0 0 1-.44 1 3.73 3.73 0 0 0-.15 1.78 2.31 2.31 0 0 0-1.61.55 2 2 0 0 1-1.32.54c-.3-.13-.44-.27-.74-.41a1.75 1.75 0 0 0-.73-.13 3.06 3.06 0 0 0-1.91 1.36c-.15.41-.29.69-.44 1.1a2.57 2.57 0 0 0 .44 2.87 6.49 6.49 0 0 0 1 1 1.89 1.89 0 0 0 3.08-1 2.7 2.7 0 0 1 1.47-2.05 4.94 4.94 0 0 0 1-.68 3.35 3.35 0 0 0 1-1 1 1 0 0 0 .59.13 2.81 2.81 0 0 0 1.91-1 3.13 3.13 0 0 0 .59-3.15 1.81 1.81 0 0 1 .14-1.5 1.21 1.21 0 0 0 0-1.23c-.14-.28-.29-.55-.44-.82a2.71 2.71 0 0 1-.14-1.51c.14-.14.14-.14.29-.14a4 4 0 0 0 3.08-2.46 7 7 0 0 1 1-2 1 1 0 0 0-.14-1.37 2.58 2.58 0 0 1-.44-.68 1.25 1.25 0 0 1 .14-1.23 13.36 13.36 0 0 0 1.91-3.42 1.23 1.23 0 0 0 0-1.23 5.51 5.51 0 0 1-.73-2.19 2.13 2.13 0 0 0-.44-1.23c-.44-.82-1.18-1.51-2.21-.41a.47.47 0 0 0-.29.14c-.29-.28-.59-.42-.73-.55a1.3 1.3 0 0 1-1.18-.41zM143.8 89a2.89 2.89 0 0 1-.73-1.51c-.15-.54-.15-1.09-.3-1.64-.14-.27-.14-.68-.44-1s-.73-.28-1-.14c-.44.55-.88 1.09-.73 1.78a5.67 5.67 0 0 0 .15.68c0 .27-.15.55-.15.82a7 7 0 0 0 .59 1 2.05 2.05 0 0 0-1.32 1.91A6.35 6.35 0 0 1 139 93c-.73.13-1.17-.41-1.76-.83.3-.27.59-.41.74-.68a2.73 2.73 0 0 0 .88-2.87 1.65 1.65 0 0 0-2.35-1.1l-1.32.41a2.78 2.78 0 0 0-2.21 1.78c-.14.28-.29.55-.58.55a1.16 1.16 0 0 0-1 .68c-.44.55-.73 1.23-1.18 1.92-.29.41-.14.68.15 1.09a2.19 2.19 0 0 0 2.79.55c.44-.27.74-.41 1.18-.68s.88 0 1 .54v.55c0 .27-.29.41-.44.27a6.06 6.06 0 0 0-2.2-.13 3.07 3.07 0 0 0-1.17 1.5 2.63 2.63 0 0 0 .88 2.87c1 .82 2.05 1.1 3.08 0a7.47 7.47 0 0 1 1-1.23 1 1 0 0 0 1.17-1.09 1.37 1.37 0 0 1 1-1.1c.29-.13.59-.41.88-.54.59.13.88.82 1.62 1s1.17-.27 1.91-.27c.29.27.58.69.88 1a1.17 1.17 0 0 0 1.46.14 1.22 1.22 0 0 0 .89-1.37c0-.28-.15-.41-.15-.69a16.11 16.11 0 0 1-.59-2.59 23.13 23.13 0 0 0-1.32-3.42c-.15.13-.29 0-.44-.14zM118.4 108a1.48 1.48 0 0 0-.88.68c-.3.41-.59 1-.88 1.37a3.76 3.76 0 0 0-.74 2.74c0 .27.15.68.15.82a4.36 4.36 0 0 0 1.17 3.28c.15.27.59.41.88.55a2.85 2.85 0 0 0 3.09-1.23 8.71 8.71 0 0 0 1.61-3.56 5 5 0 0 0-.58-3.56c-.74-1.5-2.21-1.64-3.82-1.09zM93.29 113.74a10 10 0 0 0 1.62.28h1a2.44 2.44 0 0 0 2.5-2.87v-.55a3.09 3.09 0 0 0-1.32-2.6 4 4 0 0 0-3.09-1.09 2.56 2.56 0 0 0-2.21 1 2.32 2.32 0 0 1-1.32 1 .76.76 0 0 0-.59.82 3.15 3.15 0 0 0 1.33 3 4.9 4.9 0 0 0 2.05 1.09zM100.78 122.22c-.44-.27-.73-.41-1.18-.68a3.81 3.81 0 0 1-1.61-1 1.39 1.39 0 0 0-1-.41 1.87 1.87 0 0 1-1.61-.82 8.46 8.46 0 0 0-1.32-1c-.3-.27-.74-.41-1-.68a2.82 2.82 0 0 0-2.2-.68 11 11 0 0 0-1.47.41 1 1 0 0 0-.3 1.78 4.94 4.94 0 0 0 1 .68 7.74 7.74 0 0 1 1.47.82c.29.14.59.41.88.41a13.84 13.84 0 0 1 2.5 1.23 2.2 2.2 0 0 0 1 .41 2.91 2.91 0 0 1 1.47.69 8.23 8.23 0 0 0 2.5 1.09 1.15 1.15 0 0 0 1.32-.41l.44-.82a3.37 3.37 0 0 0-.88-1.1zM112.38 113.61c-.59-.28-.88-.82-1.32-1.23a4.92 4.92 0 0 1-1.47-1.92 1.29 1.29 0 0 0-.88-.82 1.48 1.48 0 0 0-1.32.14 3.47 3.47 0 0 0-.59 2.19 1 1 0 0 1-.29.54 3.84 3.84 0 0 0-.89 2.74 2.61 2.61 0 0 0 2.21 2.73 2.81 2.81 0 0 0 1.76-.41c.88-.54 1.61-1.23 2.5-1.77.58-.41.58-1 .58-1.64a1.1 1.1 0 0 1-.29-.55zM97.84 115.11a2.05 2.05 0 0 0-1.17 1.64 2.2 2.2 0 0 0 .88 2.19l1.32 1.23a11.9 11.9 0 0 0 1.62 1.1 14.71 14.71 0 0 0 2.34.41.92.92 0 0 0 1.17-.68c.15-.41.15-.95.29-1.23a5.34 5.34 0 0 0-1-3.42 4.21 4.21 0 0 0-5.44-1.23zM54.09 114.16a7.48 7.48 0 0 1-.59-2.6c0-1.23-1-1.78-1.91-2.47a2.78 2.78 0 0 0-1-.13 2.18 2.18 0 0 0-.88.27c-.58.27-.88.41-.88 1.1a1 1 0 0 0 .15.54c.15 1.1.29 2.33.44 3.42a4.35 4.35 0 0 0 1 2.19 1.68 1.68 0 0 0 1.32.82c2.06.14 2.94-1.23 2.64-2.6-.29-.27-.29-.41-.29-.54zM81.69 106.77a.67.67 0 0 0-.73 0 2.15 2.15 0 0 0-1.18 1.91 7.57 7.57 0 0 0 1.32 3.83 1.8 1.8 0 0 0 1.91 1c.44-.41.88-1 1.32-1.37a5.14 5.14 0 0 0 .74-.95 1.82 1.82 0 0 0 .15-1.51 6 6 0 0 0-3.53-2.91zM130.88 141.51c-1-.27-2.94.27-2.94 1.78v.82a3.87 3.87 0 0 0 .15 1.23 1.67 1.67 0 0 0 1.32 1.37 2 2 0 0 0 1.91-.55 3.94 3.94 0 0 0 1-3.28 1.83 1.83 0 0 0-1.44-1.37zM112.53 102.53a1.33 1.33 0 0 0-1.18-.68 1.17 1.17 0 0 1-.59-.14c-.88-.14-1.32.27-1.61 1.09a1.81 1.81 0 0 0 .44 2 3 3 0 0 0 .59.69 1.7 1.7 0 0 0 1.61.82 1.56 1.56 0 0 0 1.18-.55 1.13 1.13 0 0 0 .44-1.64zM127.94 113.88c-.14 0-.29.14-.58.14a3.23 3.23 0 0 0-.74 2.46 1.79 1.79 0 0 0 1.32 1.64c.74.27 1.76-.41 1.62-1.09a9.37 9.37 0 0 1 0-2c0-.74-.74-1.15-1.62-1.15zM50.42 119.35c-1-.13-1.76.14-2.06 1 0 .14-.14.41 0 .55a2.16 2.16 0 0 0 1.76 1.5 1.3 1.3 0 0 0 1.62-1.23V121c-.15-.95-.59-1.5-1.32-1.64zM51.74 106.09a1 1 0 0 0 .88-.14 1.45 1.45 0 0 0 .88-1.1 1.28 1.28 0 0 0-1.91-1.36 6.27 6.27 0 0 1-1 .82c.15.41.15.82.3 1a1.29 1.29 0 0 0 .88.83zM110.91 109.09a3.39 3.39 0 0 0 .73-.82c.15-.13.15-.27.15-.54a2 2 0 0 0-1.47-1.37 1 1 0 0 0-1.17 1.37 1.7 1.7 0 0 0 1.76 1.36zM83.75 98.29a1.18 1.18 0 0 0 .73-1.23 1.74 1.74 0 0 0-1.76-1.23c-.44 0-.88.68-.88 1.23a1.62 1.62 0 0 0 1.91 1.23zM105.92 100.61a1.16 1.16 0 0 0-.59-1.91c-.15 0-.44-.14-.59 0s-.58.41-.88.68a.5.5 0 0 0-.14.41c.14.28.14.55.44.69.44.96 1.32.68 1.76.13zM120 102.94a1.18 1.18 0 0 0 .44-1.5 1.43 1.43 0 0 0-.88-1 1.65 1.65 0 0 0-1.47 1.37c.15.13.3.41.45.54a1.06 1.06 0 0 0 1.46.59zM167.31 65.5a.78.78 0 0 0-.45-.27 1 1 0 0 0-1.35 1c.15.14.3.42.6.55a1 1 0 0 0 .9 0 .74.74 0 0 0 .74-.55c.15-.31-.15-.45-.44-.73z"/></svg>
