<svg id="Layer_1" data-name="Layer 1" xmlns="http://www.w3.org/2000/svg" width="70.55mm" height="70mm" viewBox="0 0 199.97 198.43"><defs><style>.cls-1{fill:#1e5d84}</style></defs><path class="cls-1" d="M197.06 51a2 2 0 0 1-.46-.31 6.35 6.35 0 0 0-2.92-1.69 5.14 5.14 0 0 1-2.3-.92 9.51 9.51 0 0 0-1.69-1.08 35.58 35.58 0 0 1-3.22-1.69 8.67 8.67 0 0 1-1.38-1.08c-.31-.31-.77-.61-1.08-.92l-.15-.15A17.13 17.13 0 0 1 182 40a13.82 13.82 0 0 0-3-4.48 6.46 6.46 0 0 1-1.08-.92 8.86 8.86 0 0 0-3.92-1.54.93.93 0 0 1-.61-.15c-.16 0-.31-.15-.46-.15v-.46c-.16-.46-.16-.92-.31-1.38a4.87 4.87 0 0 1-.31-2 1.73 1.73 0 0 0-.15-.77 5.23 5.23 0 0 1-.46-1.69v-.3c0-.31-.15-.46-.31-.77s-.3-.62-.46-.92l-.31-.62h-.3c-.62 0-1.23 0-1.54.77 0 .15-.15.31-.15.46s0 .31-.15.31l-.93 1.84c0-.31 0-.46-.15-.61a26.12 26.12 0 0 1-.31-3.69 7.63 7.63 0 0 0-.15-1.84c-.15-1.54-.31-3.07-.46-4.61V16a.58.58 0 0 0-.15-.46l-.31-.61h-.46a1 1 0 0 0-.62.15l-.3.16a6.78 6.78 0 0 0-1.08 1.07 21.16 21.16 0 0 0-2.15 3.38.57.57 0 0 0-.15.46c-.15.15-.15.46-.31.61-.3.46-.46.92-.76 1.38-.31.62-.77 1.23-1.08 1.85-.61 1.07-1.07 2.15-1.53 3.07l-.16.3a16.18 16.18 0 0 1-1.23 2.31c-.46.61-.76 1.38-1.22 2.15-.16.3-.31.76-.46 1.07-.31.92-.47 1.84-.77 2.76l-.16.62v.15h-.15a1.88 1.88 0 0 0-1.38.62 4.6 4.6 0 0 0-1.23 1.22 32.14 32.14 0 0 0-2.3 3.07l-.77 1.08a49.18 49.18 0 0 0-2.92 4.76l-.76 1.38q-1.4 2.53-2.77 5.07c-1.38 2.91-2.76 6-4 9.21a19.3 19.3 0 0 1-1.69 3.07l-.61.77c-.31.46-.77.92-1.08 1.38l-.46.61a13.12 13.12 0 0 1-2 2.15l-.31.31-.46.46-.31.15A7.19 7.19 0 0 1 128 73c-.16 0-.31.15-.46.15l-.62.31c-.46.15-.77.31-1.23.46a16.38 16.38 0 0 0-2.3 1.08 8.41 8.41 0 0 1-3.22 1.38l-.46.15c-.93.16-1.85.46-2.77.62a73.45 73.45 0 0 1-9.82 1.68c-1.39.16-2.77.16-4 .31a6 6 0 0 0-1.68.16 42 42 0 0 1-4.61.3h-1.71c-.61 0-1.23.16-1.84.16s-1.23.15-1.84.15H89.9a59.06 59.06 0 0 0-7.21.15 28.7 28.7 0 0 1-3.69.31l-.77.15c-.92.16-1.68.16-2.61.31a31.72 31.72 0 0 0-3.68.61l-2.76.46c-.92.16-1.85.31-2.61.47-2.15.3-4.46.61-6.61.92-.61 0-1.22.15-2 .15l-4 .46a14.28 14.28 0 0 1-3.38.31 2.62 2.62 0 0 0-1.07.15l-.62.15-3.2.49a16.64 16.64 0 0 0-3.84 1.53c-.15 0-.15.15-.31.31a.9.9 0 0 1-.77.3h-1.38a1.89 1.89 0 0 0-.92.16 4.73 4.73 0 0 0-2.15 1.07l-.61.62c-.92.76-1.84 1.53-2.77 2.15a1.85 1.85 0 0 0-.76.76L32 92a18.08 18.08 0 0 0-2.3 2.76l-.31.31a17.26 17.26 0 0 0-1.07 1.69c-.46.92-.92 1.84-1.38 2.91a77.29 77.29 0 0 0-2.77 8.45v.15a5.6 5.6 0 0 0-.3 1.54 36.48 36.48 0 0 1-1.23 5.68c-.46 1.53-.77 2.91-1.23 4.45a7.84 7.84 0 0 1-.61 1.69l-.31 1.07a1 1 0 0 0-.15.62 22.2 22.2 0 0 1-2.29 5.68 7.76 7.76 0 0 1-.92 1.53 33 33 0 0 0-3.38 4.61 9.74 9.74 0 0 1-1.53 2l-.77.77a6.89 6.89 0 0 0-.92 1.08c-.61.61-1.07 1.22-1.69 1.84a3.69 3.69 0 0 1-.61.77c-.62.61-1.08 1.38-1.69 2l-.31.31c0 .15-.15.15-.3.46 0 .15-.16.46 0 .77a1.1 1.1 0 0 0 .92.46c.3 0 .61-.16.92-.16a2.29 2.29 0 0 1 1.07-.15.8.8 0 0 0 .62-.31l.92-.76a14.59 14.59 0 0 1 1.69-1.39l.3-.15a15 15 0 0 1 2.46-1.84 4.26 4.26 0 0 0 1.23-1.08l.92-.92a26 26 0 0 0 4.45-5.22c.15-.3.31-.46.46-.77.15-.15.31-.3.46-.46a7.34 7.34 0 0 1 .92-1.07 10.34 10.34 0 0 0 1.85-3.07 21.35 21.35 0 0 0 1.68-3.84l.31-.92c.31-.77.46-1.54.77-2.3a3.71 3.71 0 0 0 .31-1.23c0-.15 0-.15.15-.31s.15-.15.15-.31c.16-.61.46-1.38.62-2v-.15a1.31 1.31 0 0 1-.11.81c-.15.92-.3 1.85-.46 2.61a10.6 10.6 0 0 0-.3 2.15c-.31 1.84-.77 3.69-1.23 5.53l-.31 1.38c-.15.46-.31.92-.46 1.54-.15.3-.15.76-.31 1.07a8 8 0 0 1-.93 2.42 8.93 8.93 0 0 0-.77 2.15 14.14 14.14 0 0 1-.92 2.3c-.15.31-.46.77-.61 1.07a14 14 0 0 1-2.46 4l-.46.61a21.64 21.64 0 0 0-1.38 2 2.71 2.71 0 0 1-.61.76l-.31.31c-.15.15-.31.31-.31.46l-.46.46c-.61.62-1.07 1.38-1.69 2.15l-.15.15c-.15.31-.46.46-.62.77a4.08 4.08 0 0 1-1.07 1.23 13.23 13.23 0 0 0-1.84 2.15 4.18 4.18 0 0 1-.77.92l-.15.15-.77.77-.46.46-.62.62a9.44 9.44 0 0 0-1.38 1.22l-.3.31c-.31.31-.46.62-.77.77l-.31.31c-.15.15-.46.3-.61.61a.48.48 0 0 0-.31.15 1.19 1.19 0 0 0-.61.31l-.16.15-.15.31v1.23a19.05 19.05 0 0 0 .15 2.92 26.15 26.15 0 0 1-.15 6.14l-.31 1.23c-.15.46-.15.92-.3 1.38L3 177.38c-.16.92-.31 1.69-.46 2.61a22.07 22.07 0 0 0-.31 3.37c0 1.54-.15 3.23-.15 4.92a11.44 11.44 0 0 0 .3 4 2.46 2.46 0 0 0 1.39 1.84c.46.31.76.46 1.22.77l.93.46c.3.15.61.15.76.31a3.16 3.16 0 0 0 1.23.61c.31 0 .46.15.77.31a2.09 2.09 0 0 0 2.3 0c.16-.16.31-.16.46-.31s.46-.15.62-.31.3-.15.61-.15a1.82 1.82 0 0 0 1.84-1.54 2.29 2.29 0 0 0-.61-2.61 1.19 1.19 0 0 1-.31-.61l-.15-.92c-.16-.77-.31-1.54-.46-2.3a19.23 19.23 0 0 1 0-6c0-.62.15-1.23.15-2a19.63 19.63 0 0 1 .46-4.45c.16-.46.31-.92.46-1.38a10.53 10.53 0 0 0 1.08-2.76 12.33 12.33 0 0 1 .92-2.92 5.17 5.17 0 0 1 1.07-1.84c.16.46.16.92.31 1.38.15 1.38.46 2.76.77 4.3.15.46.15.92.3 1.53v.46a1.34 1.34 0 0 0 .16.77l.15.61c0 .46.15.93.15 1.23.16 1.08.31 2.31.47 3.38a4.08 4.08 0 0 1-.16 1.38A12.24 12.24 0 0 0 19 184a6.9 6.9 0 0 0 .31 1.53v.31a1.78 1.78 0 0 0 .77 1.07l.46.31c.31.16.77.31 1.07.46 1.23.46 2.31.92 3.54 1.38l.61.16a1.42 1.42 0 0 0 .77.15 2.11 2.11 0 0 1 1.07.31 2.28 2.28 0 0 0 .92.31 2.69 2.69 0 0 1 1.08.15h.77l.3-.31a.92.92 0 0 0 1.08 0 4.68 4.68 0 0 0 1.07-.77 1.8 1.8 0 0 0 .46-1.68 6.45 6.45 0 0 0-2.91-3.54h-.16c-.31 0-.61-.3-.77-.76a2.29 2.29 0 0 1-.3-1.08 5.64 5.64 0 0 0-.62-1.69 4.52 4.52 0 0 1-.76-2.3 25.45 25.45 0 0 1 .15-3.53c0-.61.15-1.38.15-2a16 16 0 0 1 .62-4.29c.15-.31.15-.62.3-.77a4.31 4.31 0 0 0 1.08-2l.15-.61c.15-.31.31-.77.46-1.08.46-.76.77-1.38 1.23-2.15l.31-.46a.15.15 0 0 1 .15-.15l.15-.15.46-.62a8.75 8.75 0 0 0 .93-1.23c.15-.3.46-.46.61-.61a17.53 17.53 0 0 0 2.92-2.92 9 9 0 0 1 1.2-1.44l.3-.31a7.94 7.94 0 0 0 1.54-1.68c.15-.31.46-.47.77-.77.76-.62 1.38-1.23 2.14-1.84l.47-.47c.46-.46 1.07-.92 1.53-1.38l.15-.15a11.83 11.83 0 0 0 2-2l.31-.46 1.84-2.3c.77-.92 1.69-1.84 2.46-2.61.61-.61 1.22-1.38 1.84-2l.15-.15c.46-.61 1.08-1.23 1.54-1.84a65.79 65.79 0 0 0 2.61-4.3c.3-.61.76-1.38 1.22-2.15a8.75 8.75 0 0 1 .93-1.23 4.71 4.71 0 0 0 .76-1.07 21.54 21.54 0 0 1 2.15-2.77c.16-.15.31-.46.46-.61l.31-.46c0-.15.15-.15.15-.31.46-.46.92-1.07 1.39-1.53l.92-.92a17 17 0 0 1 1.69-1.39c.3-.3.76-.61 1.07-.92a5 5 0 0 1 2.46-1.07h.46a4.26 4.26 0 0 1 1.38 0c.46.15.92.15 1.38.31a18.16 18.16 0 0 1 3.68.92 2.92 2.92 0 0 0 1.08.3 16.8 16.8 0 0 1 4.14 1.85 2.58 2.58 0 0 0 1.39.46c.46.15 1.07.15 1.53.3l1.38.46a3.48 3.48 0 0 0 1.23.31c.31 0 .46.16.77.46a20.72 20.72 0 0 0 2.46 1.54 3 3 0 0 1 .76.46.58.58 0 0 0 .46.15 8.73 8.73 0 0 1 3.38 1.69c.15.15.31.15.62.31a16 16 0 0 0 4.29 1.53c.62.16 1.23.46 1.85.62a8.93 8.93 0 0 0 2.15.76l1.38.46 1.23.47a11.47 11.47 0 0 0 2.14.61 15.67 15.67 0 0 1 4 1.07 8.59 8.59 0 0 0 2.76.46h2a19.81 19.81 0 0 1 3.07.16c.3 0 .61.15.92 0a8.82 8.82 0 0 1 1.84.31 8.36 8.36 0 0 0 3.07.61h.46a30.63 30.63 0 0 0 3.84.31h.77c.15 0 .15 0 .3.15a9.79 9.79 0 0 0 1.23 2.15 2.44 2.44 0 0 1 .77 1.53v.31c.15.77.31 1.38.46 2.15a12.65 12.65 0 0 0 .77 3.07 5.6 5.6 0 0 1 .3 1.54 21.93 21.93 0 0 1 .31 3.22l.62 5.68a18.1 18.1 0 0 1 .15 4v1.84c.15 1.54.15 3.23.31 4.92a2.65 2.65 0 0 0 .15 1.07 39.72 39.72 0 0 1 .61 4.3l.16 1.08c.15 1.68.3 3.07.3 4.45a19.17 19.17 0 0 0 .31 2.91 11.84 11.84 0 0 0 1.84 5.53 13.77 13.77 0 0 1 .77 1.54l.15.3c.16.31.16.46.31.77a32.37 32.37 0 0 1 .46 4 4.53 4.53 0 0 0 .16 1.38 1.63 1.63 0 0 0 1.38 1.39c.15 0 .3.15.61.3a6 6 0 0 0 1.69 1.23 4.84 4.84 0 0 1 1.69 1.23 5.53 5.53 0 0 0 1.84 1.23c.15 0 .46.15.61.15a4.94 4.94 0 0 0 2.61.31c.77-.15 1.54-.15 2.46-.31a1.3 1.3 0 0 1 1.08.31 1.36 1.36 0 0 0 1.07.46.93.93 0 0 0 .61-.15c.16 0 .31-.16.47-.16s.3-.15.46-.15a1.24 1.24 0 0 0 .92-1.54 2.88 2.88 0 0 0-.16-1.07l-.15-.77v-.46c.31 0 .61.15.92.15a1.41 1.41 0 0 0 1.84-.46 2.17 2.17 0 0 0 .92-1.53c0-.16.16-.31.46-.46a.57.57 0 0 1 .47-.16 3 3 0 0 0 .76-.46c.16 0 .16-.15.31-.15a1.92 1.92 0 0 0 .77-1.84 2.39 2.39 0 0 0-1.23-1.84 2.81 2.81 0 0 1-.77-.31 3.18 3.18 0 0 0-1.07-.46l-.46-.31a3.45 3.45 0 0 0-2-.92 3.06 3.06 0 0 0-.92-.61c-.31-.31-.61-.47-.92-.77l-.15-.16c-.16-.15-.16-.3-.31-.3-.16-.16-.31-.31-.31-.46a15.5 15.5 0 0 1-.77-2.46c0-.31-.15-.61-.15-.92a.57.57 0 0 0-.15-.46 3.26 3.26 0 0 0-.16-1.23c0-1.07-.15-2-.15-3.07 0-2.15.15-4.3.15-6.14v-.15c0-1.54.16-3.07.16-4.61a49.83 49.83 0 0 1 .3-6.91c.16-1.38.31-2.76.46-4.14.16-.77.16-1.39.31-2.15.15-1.54.31-2.92.31-4v-8.3c0-1.68-.16-3.22-.31-4.91l-.15-1.23a5.33 5.33 0 0 0 .46-1.38v-.92c0-.31.15-.46.15-.61a11.57 11.57 0 0 0 .77-2.15 2.94 2.94 0 0 0 .31-1.08l.3-.61a11.57 11.57 0 0 0 .77-2.15c.31-.92.46-2 .77-2.92l.15-.46a46.89 46.89 0 0 0 1.38-8.6.56.56 0 0 1 .16-.46L165 110c.16-.61.31-1.23.46-2a42.76 42.76 0 0 0 .77-5.68 13.35 13.35 0 0 0-.3-4.91V95.7c0-.92-.16-1.84-.16-2.76v-.16c0-2-.15-4 0-6a19.21 19.21 0 0 1 .31-3.07c0-.46.15-.92.15-1.38v-.47c.16-1.53.31-3.22.46-4.75 0-.46.16-1.08.16-1.54.15-.92.15-1.69.3-2.61v-.46a28.4 28.4 0 0 0 .16-3.68 54.35 54.35 0 0 1 0-7.22.46.46 0 1 1 .76-.46 3.47 3.47 0 0 0 1.85.77 10.35 10.35 0 0 1 2.3.76c.15.16.46.31.61.46l.93 1.08a14.08 14.08 0 0 1 1.38 1.53 4.15 4.15 0 0 0 2.76 1.54 5.63 5.63 0 0 1 1.69.61 3.06 3.06 0 0 0 1.69.46 13.27 13.27 0 0 0 3.68-.46c.46-.15 1.08-.3 1.54-.46s.92-.3 1.53-.46a9.12 9.12 0 0 0 3.53-2.15 9.54 9.54 0 0 0 1.23-1.38l.62-.61.61-.62.77-.76c.31-.31.46-.62.77-.92a9.3 9.3 0 0 0 1.38-3.69c.3-1.07.61-2.3.92-3.38a2 2 0 0 0-.77-2.45zm-2.46 5.4a1.16 1.16 0 0 1-.15.61 2 2 0 0 0-.92-.76 1.42 1.42 0 0 0-.15-.77c.46.61.61.77 1.22.92zm-17.8-12.59a3.08 3.08 0 0 1-1.23-.61 3.72 3.72 0 0 1 1.43-1.69.46.46 0 0 1 .31-.16l.3.16.39.49a1.28 1.28 0 0 0-1.07.46c-.44.28-.59.74-.13 1.35zm3.53.62c-.16 0-.16-.16-.31-.16h-.15l.15-.15a.33.33 0 0 1 .31.31zm-25.64-4.15c.15 0 .31.15.46.15a.56.56 0 0 0 .15.46l.16.77c0 .46.15.92.15 1.38.31 1.54.61 1.85 1.69 2.15l.46.16h.77l.15-.16a1.27 1.27 0 0 0 .46-1.23l.15-2.3v-.15a3 3 0 0 0 1.23-1.51c0-.15.16-.3.16-.46a.52.52 0 0 1 .15-.3 1.86 1.86 0 0 0 1.23.15 1.33 1.33 0 0 0 .92-1.08l.15-.3c.16-.31.16-.62.31-.77l.15.15a1.46 1.46 0 0 0 1.08.31 1.56 1.56 0 0 0 .76-.92.55.55 0 0 1 .16-.46l.61-3.53c0-.31.16-.62.16-.92.15 1.07.61 1.22 1.53 1.38a3.43 3.43 0 0 0 1.23.77 1.42 1.42 0 0 0 .77.15c.15 0 .3.15.46.15h.15a1.54 1.54 0 0 1 .46.16 6.66 6.66 0 0 0 3.04 1.04 6.23 6.23 0 0 1 4.15 2.61c-.16.15-.31.15-.62.15a5.1 5.1 0 0 0-2.45.93c-.62.46-1.08.92-1.69 1.38-.16.15-.31.3-.31.46a16.22 16.22 0 0 0-.61 1.53.46.46 0 0 0 0 .62c0 .15.15.46.15.61a4.62 4.62 0 0 0 .77 1.84l.46.92a1.06 1.06 0 0 0-.62.93 1.39 1.39 0 0 0 .47 1.07l.15.15c-.15.16-.15.31-.31.46a1.48 1.48 0 0 0-.15 1.39c0 .15.15.3.15.46a1.42 1.42 0 0 0-.15 1.84.15.15 0 0 0 .15.15l-.31.16a1.63 1.63 0 0 0-.92 1.07c0 .15 0 .15-.3.31a1.34 1.34 0 0 0-.62 1.38c-.15.15-.3.15-.46.31a1.44 1.44 0 0 0-.61 1.53v.62a2.34 2.34 0 0 1-.46.61 5.37 5.37 0 0 0-1.69-.61 2 2 0 0 1-1.54-1.08c-.15-.31-.46-.61-.76-1.07-.93-.77-1.54-.31-2.15.3l-.31.31.61.61a2 2 0 0 1 .46.62 1.11 1.11 0 0 1 .31.61l-.46.46a2 2 0 0 0-.61 1.54v.3a4.3 4.3 0 0 0-.62 2.61c.16 2.91.16 6 .31 8.9a2 2 0 0 1-.15.92 3 3 0 0 0-.31 1.38c.15 1.85.15 3.69.31 5.53a1.85 1.85 0 0 0 .92 1.53l-.16 1.39a41.34 41.34 0 0 0-.3 4.45v7.83l.15 1.38c0 .31 0 .77.15.92l-.46.15-.15.16a3.36 3.36 0 0 0-.46 1.53v1.23a1.17 1.17 0 0 1-.15.77 2.77 2.77 0 0 0-.31 1.07l-.16.62c-.15.46-.15.77-.3 1.23a14.64 14.64 0 0 0-.31 2.45v.31a7.15 7.15 0 0 1-.77 1.54l-.15.3-.92.16-.15.15a3.17 3.17 0 0 0-.77 2 6.87 6.87 0 0 1-.31 1.54c0 .15-.15.31-.15.61-.16.46-.16.62-.31.77-.31.16-.31.46-.46.62l-2.3 4.6a4 4 0 0 1-.62 1.08 7.8 7.8 0 0 0-1.07 2.3l-.16.31a1.16 1.16 0 0 1-.3.61 16.38 16.38 0 0 0-1.08 2.3c-.15.31-.3.77-.46 1.08-.3.77-.61 1.69-.92 2.61l-.77 4.3a15.28 15.28 0 0 0-.3 3.53c0 3.07 0 6.14-.16 9.06v1.38a33.67 33.67 0 0 1 0 5.68v2c0 2.31 0 4.3-.15 6s-.15 3.53-.31 5.22v1.08c0 1.07-.15 2-.15 3.07v1.68a40.73 40.73 0 0 0 .31 7.53c.15.92.3 1.84.46 2.91l.15 1.23a7.16 7.16 0 0 0 1.38 3.38 16.25 16.25 0 0 0 3.53 3.68l.62.62.15.31c.15.15.15.3.31.3l.15.16a1.83 1.83 0 0 0 1.38.76h1.38c.16.16.16.31.31.62v.15a.57.57 0 0 0-.46-.15l-.77-.31v.61a1.75 1.75 0 0 0-1.23-.46l-.46.16-.15.46v.61a.53.53 0 0 0 .15.31 3 3 0 0 1-1.19.18 1.64 1.64 0 0 0-1.69-.92h-.46l-.16.62v.15a2.57 2.57 0 0 1-1.53-.92 4.35 4.35 0 0 0-2.15-1.54 3.41 3.41 0 0 1-1.23-.76 3.16 3.16 0 0 0-1.54-.93v-1.53a13.51 13.51 0 0 0-.76-4.45 11.74 11.74 0 0 0-1.38-2.77 9.73 9.73 0 0 1-1.23-3.22 18.71 18.71 0 0 1-.31-4.3v-1.84c-.15-1.38-.15-2.77-.31-4.15 0-.61-.15-1.22-.15-1.84v-.46a1.42 1.42 0 0 0-.15-.77c0-.46-.16-.92-.16-1.38-.15-2.15-.15-4.3-.15-6.6v-.77a14.39 14.39 0 0 0-.15-2.61.88.88 0 0 0-.16-.61c0-.31-.15-.77-.15-1.08a38.82 38.82 0 0 0-.46-4.14c-.16-.77-.16-1.38-.31-2.15a27.74 27.74 0 0 0-.77-4.15 4.62 4.62 0 0 1-.3-1.53l-.16-.62a.93.93 0 0 0-.15-.61c0-.31-.15-.61-.15-.92a8.87 8.87 0 0 0-2-4 2.21 2.21 0 0 1-.46-.62 6.56 6.56 0 0 1-.61-3.53 16 16 0 0 0-.16-2.76 24.14 24.14 0 0 0-1.84-5.37c-.77-1.54-1.54-3.07-2.15-4.61-.15-.31-.31-.77-.61-.92a1.84 1.84 0 0 0-.77-.77 1.14 1.14 0 0 0-1.38 0 .82.82 0 0 0-.16 1.23l2 4.3c.15.15.15.46.31.61l-.46.46a1.62 1.62 0 0 0-2 0 1.56 1.56 0 0 0-.61 1.08c0 .15-.16.46-.31.46a2.76 2.76 0 0 1-.62.77l-.15.15a2 2 0 0 1-.92-.15 1.72 1.72 0 0 0-1.69.3 1.11 1.11 0 0 1-.61.31l-.31.15h-1.23c-.46 0-.77.16-1.23.16h-.3a2 2 0 0 0-1.69-.16 5.05 5.05 0 0 1-1.54.16 1.69 1.69 0 0 0-1.23.3.28.28 0 0 1-.46 0c-.15-.15-.46-.15-.61-.3h-.15c-.16 0-.16 0-.31-.16a.57.57 0 0 1-.46-.15 2.68 2.68 0 0 0-1.54 0 3.8 3.8 0 0 1-3.37-.15 4.08 4.08 0 0 0-1.85-.46 1.31 1.31 0 0 1-.76-.16 2.94 2.94 0 0 0-1.08-.31 5.37 5.37 0 0 1-1.69-.61c-.15 0-.3-.15-.46-.15-.46 0-.77-.31-1.38-.77a2.13 2.13 0 0 0-1.38-.77 1.74 1.74 0 0 1-1.23-.46l-.15-.15a2.52 2.52 0 0 0-.77-.31l-.31-.15a2.06 2.06 0 0 0-.92-.31c-.77-.31-1.38-.46-2-.77-.77-.3-1.54-.61-2-.76a2.26 2.26 0 0 1-1.38-.93 2.07 2.07 0 0 0-1.84-.76.57.57 0 0 1-.47-.16 3.68 3.68 0 0 0-2.3-.92c-.3 0-.61-.15-.92-.15a2.23 2.23 0 0 1-.92-.31 31.29 31.29 0 0 0-3.22-1.53 2.18 2.18 0 0 0-1.08-.31.57.57 0 0 1-.46-.15l-.61-.31c-.62-.31-1.08-.62-1.69-.92a4.65 4.65 0 0 0-1.54-.62 1.25 1.25 0 0 0-1.53.62h-1.07a1 1 0 0 1-.92 0h-.61a3.08 3.08 0 0 0-2 .3h-1.07c-.46 0-.92-.15-1.38.16s-.31.77-.31 1.38a7.31 7.31 0 0 0-3.53 1.07.56.56 0 0 1-.46.16 16.43 16.43 0 0 0-4 2c-.76.46-1.68 1.08-2.45 1.54l-.16.15a1.56 1.56 0 0 0-.76.62 8.22 8.22 0 0 1-1.69 1.53 4 4 0 0 0-1.54 1.69 4.88 4.88 0 0 1-1.22 1.38 10.48 10.48 0 0 0-1.69 2c-.31.3-.62.77-.92 1.07A40 40 0 0 0 46.3 133a5.8 5.8 0 0 1-1.38 1.84 25.65 25.65 0 0 0-1.84 2.16c0 .15-.16.15-.31.31a16.56 16.56 0 0 0-1.53 1.84c-.16.15-.31.46-.47.61-1.07 1.38-2.14 2.61-3.22 3.84l-.31.31c-.46.46-.76.92-1.22 1.38l-.62.77a6.67 6.67 0 0 1-1.69 1.38 10.51 10.51 0 0 0-2.15 1.69 2.18 2.18 0 0 1-1.38.92 10.53 10.53 0 0 0-3.38 2.61 17.07 17.07 0 0 1-2.61 2.15 5.86 5.86 0 0 0-1.84 2c-.15.31-.31.46-.46.77-1.07 1.08-2 2.3-2.92 3.38l-1.07 1.23a6.8 6.8 0 0 0-1.23 1.69c-.31.46-.61 1.07-1.07 1.69a5.14 5.14 0 0 0-.77 1.22 16.37 16.37 0 0 0-1.69 4.76 3.33 3.33 0 0 1-.77 1.84 5.52 5.52 0 0 0-.92 2.46 32.83 32.83 0 0 0-.46 5.37v.62a35.73 35.73 0 0 0-.31 4 30.54 30.54 0 0 0 .93 6.6 6.72 6.72 0 0 0 .46 1.08l.15.15h-.46a.8.8 0 0 0-.62.31l-.3.3.3.62a3.44 3.44 0 0 1-.61-.77 2.29 2.29 0 0 0-2-.92.93.93 0 0 0-.61.15.85.85 0 0 0-.46.77v.15a4.4 4.4 0 0 1-1.23-.61c-.15-.15-.46-.31-.61-.46a1 1 0 0 1-.77-1.08A22 22 0 0 1 4.7 189a14.28 14.28 0 0 0 .15-2.61v-1.07a8.89 8.89 0 0 1 .31-2.92c0-.3.15-.61.15-.92s.15-.46.15-.77l.16-.61c.3-1.84.61-3.84.92-5.68a12.21 12.21 0 0 0 .31-2.3 26.94 26.94 0 0 0 0-4.92v-.92a5.49 5.49 0 0 0-.16-1.53v-.46a3.29 3.29 0 0 1 .92-1.23c.46-.62 1.08-1.08 1.54-1.69l.15-.15c.16-.16.46-.31.62-.46a6.65 6.65 0 0 0 1.68-1.39l.16-.15.46-.46a7.21 7.21 0 0 0 1.53-1.54 6.29 6.29 0 0 1 1.54-1.84 10.18 10.18 0 0 0 1.23-1.38 8 8 0 0 1 .92-1.23 6.36 6.36 0 0 0 .92-1.07 10.48 10.48 0 0 1 1.69-2 2.46 2.46 0 0 0 .61-.77l.16-.3c.15-.16.15-.31.3-.46.16-.31.46-.62.62-.92a6 6 0 0 0 1.38-2 8.74 8.74 0 0 1 .92-1.23 10.94 10.94 0 0 0 1.07-1.84c.16-.31.16-.46.31-.77a10.6 10.6 0 0 0 1.23-2.91c.15-.47.46-1.08.61-1.54l.46-1.07A2.14 2.14 0 0 0 28 135a17.23 17.23 0 0 0 .77-3.07l.46-1.53c.46-1.54.77-3.07 1.07-4.61l.16-.92c.3-1.84.77-3.68.92-5.68a36 36 0 0 0 .31-3.84v-.3a20 20 0 0 1 .15-3.07 9 9 0 0 0 .15-2 2.62 2.62 0 0 0-.15-1.07c-.15-.47-.77-.77-1.54-.47a1.8 1.8 0 0 0-1.07 1.23 1.14 1.14 0 0 1-.31.62c0 .15-.15.3-.15.46l-.15.3a2.18 2.18 0 0 0-.31 1.08c-.15.77-.46 1.69-.62 2.46s-.46 2-.76 2.91c-.16.46-.31.77-.46 1.23 0 .15-.16.46-.16.61l-.46 1.54c-.15.31-.15.61-.3.92a13.44 13.44 0 0 0-.62 2 2.14 2.14 0 0 1-.31.92c-.3.77-.61 1.38-.92 2.15-.15.3-.15.46-.3.76-.31.47-.46.93-.77 1.39-.16.3-.31.46-.46.76-.31.31-.46.77-.77 1.08a6.6 6.6 0 0 0-.77 1.07 25.62 25.62 0 0 0 2-4.76c.15-.76.46-1.38.61-2 .31-.77.46-1.54.77-2.15l.15-.77a31.69 31.69 0 0 1 1.08-3.53 54 54 0 0 0 1.53-7.22 4.58 4.58 0 0 1 .31-1.38c.15-.76.46-1.53.61-2.15s.47-1.53.62-2.3a25.49 25.49 0 0 1 1.07-3.07l.16-.46A18 18 0 0 1 32 97.7c.31-.46.62-.77.92-1.23.16-.31.46-.46.62-.77a4.08 4.08 0 0 1 1.23-1.07 17.91 17.91 0 0 0 1.69-1.38l.3-.16c.46-.3.92-.77 1.38-1.07a3.24 3.24 0 0 1 2.46-.92 4.58 4.58 0 0 0 1.4-.31 5.55 5.55 0 0 0 1.38-.61c.31-.16.46-.16.77-.31a2.52 2.52 0 0 1 .77-.31 4.31 4.31 0 0 1 1.84-.56c1.08-.16 2.15-.31 3.07-.46.46 0 .92-.16 1.38-.16h.31a20.81 20.81 0 0 0 4.3-.3 47.61 47.61 0 0 1 4.76-.46 4.08 4.08 0 0 0 1.42-.21 19.3 19.3 0 0 1 2.92-.31l2.61-.3a36.69 36.69 0 0 0 4-.62c.61-.15 1.38-.15 2-.3.77-.16 1.69-.31 2.61-.46 1.08-.16 2.31-.16 3.38-.31s2-.15 3.07-.31a41.45 41.45 0 0 1 4.41-.31 38.3 38.3 0 0 1 4.15 0h1.69c2-.15 3.84-.3 5.68-.3a18.87 18.87 0 0 0 2.92-.16h.15a2.62 2.62 0 0 0 1.07-.15c.46 0 1.08-.15 1.54-.15a66.6 66.6 0 0 0 7.83-.62 5.53 5.53 0 0 0 1.53-.3l.77-.16a11.21 11.21 0 0 0 2.46-.61c.3-.16.61-.16.92-.31a25.07 25.07 0 0 1 3.22-.77l1.08-.3a9.61 9.61 0 0 0 1.84-.77l.46-.31a11.78 11.78 0 0 1 2-1.07c1.07-.46 2.15-.92 3.07-1.38l.46-.16a2.93 2.93 0 0 0 1.69-1.07.51.51 0 0 1 .3-.16.32.32 0 0 0 .31-.3l.31-.31a7.79 7.79 0 0 0 1.22-1.07l.16-.16.46-.46c.31-.15.46-.46.77-.61a28.62 28.62 0 0 0 2-2.46c.31-.46.62-.77.92-1.23l.31-.46c.31-.46.77-1.07 1.08-1.53a5.55 5.55 0 0 0 .61-1.38c.15-.31.15-.47.31-.77s.3-.77.46-1.08a6.75 6.75 0 0 1 .92-1.84c.15-.15.15-.46.31-.61l.46-1.08c.3-.77.61-1.38.92-2.15a72.53 72.53 0 0 1 4-7.52c.92-1.54 2-3.38 3.22-5.22a37.8 37.8 0 0 1 3.53-4.61c-.15-1.22 0-.76.62-.61zm9.82 149.07h-.76a1 1 0 0 0-.77.62 1 1 0 0 0 .15.92l.16.15-.31-.15c-.15-.16-.31-.16-.62-.31a.86.86 0 0 0-1.22.31 1.19 1.19 0 0 0 .15 1.22l.31.31a.53.53 0 0 1-.31-.15c-.15-.31-.61-.31-.77-.31h-2.61c-.15 0-.15 0-.3-.15a3.71 3.71 0 0 0-1.08-1.08l-.15-.15.15-.31v-.15a1.32 1.32 0 0 0-.46-.92.15.15 0 0 1-.15-.16c-.31-.3-.31-.3-.16-.46a.54.54 0 0 0 .16-.46l.76-.3-.15-.46v-.16a.93.93 0 0 0-.15-.61 9.62 9.62 0 0 1-1.08-2.15l-.15-.46a18.37 18.37 0 0 1-1.54-4.3c0-.15-.15-.46-.15-.61a4.71 4.71 0 0 1-.31-1.39c0-1.84-.15-3.68-.15-5.52v-1.85a1.67 1.67 0 0 0-.15-.76 2.22 2.22 0 0 1-.16-1.08v-6.29a1.88 1.88 0 0 0-.76-1.69v-6.3a43.92 43.92 0 0 0 0-4.45 23.8 23.8 0 0 1 0-3.38c.15-2.45.15-4.45.15-6.29a23.69 23.69 0 0 1 .61-6.14 3.26 3.26 0 0 0 .16-1.23 2.83 2.83 0 0 0 1.22 1.08.83.83 0 0 1 .62.92v3.37a4.85 4.85 0 0 0 .31 2v.15a2.32 2.32 0 0 0 .76 1.08c0 .15.16.15.16.31a2.08 2.08 0 0 1 .46 1.07 12.74 12.74 0 0 1 0 3.38 30.83 30.83 0 0 0-.16 3.84v1.68a2.77 2.77 0 0 0 .62 1.69l-.31 3.23a82.53 82.53 0 0 0-.31 8.44 42.75 42.75 0 0 1-.15 4.3c-.15 2-.15 4.14-.15 6.29l.15 3.54a7.77 7.77 0 0 0 .46 2.61c.31 1.07.62 2.14.92 3.07a2 2 0 0 0 .62.92 9.44 9.44 0 0 0 1.38 1.22c.31.31.61.47.92.77a4.74 4.74 0 0 0 1.23.62c.31.15.77.3.92.61a3.43 3.43 0 0 0 1.23.77c.3.15.46.31.76.31.16-.62.16-.62 0-.62zM25.88 186a1.68 1.68 0 0 0-1.07-.3.84.84 0 0 0-.77.46 7.29 7.29 0 0 1-2.3-.92c-.16 0-.16-.16-.16-.46a4.22 4.22 0 0 1 .16-2 8.69 8.69 0 0 0 .15-3.38v-.15c0-.46-.15-.92-.15-1.38l-.16-1.69c-.15-.77-.15-1.54-.3-2.3a6.62 6.62 0 0 0-.31-1.69l-.31-1.39c0-.3-.15-.46-.15-.76a.68.68 0 0 0 .92-.31 1.47 1.47 0 0 0 .31-1.07v-1.39c-.16-.46 0-.92.46-1.53a36.36 36.36 0 0 1 2.45-3.23l.47-.46.61-.61a17.35 17.35 0 0 1 1.69-1.54c.46-.3.77-.76 1.23-1.07s.76-.77 1.22-1.07a6.87 6.87 0 0 0 1.13-1.11l.61-.61.16-.16 2.61-2.45.15-.16A13.3 13.3 0 0 0 36 152.2c.15-.15.3-.31.46-.46a8.67 8.67 0 0 1 1.38-1.08 14.71 14.71 0 0 0 1.53-1.53l.92-.92.46-.46.47-.46c.3-.16.46-.46.76-.62a2.11 2.11 0 0 0 .77-1.53s0-.16.15-.16l2.77-2.91h1.07l.31-.62a2 2 0 0 1 .46-.61c.77-1.08 1.53-2.15 2.15-3.07.31-.31.46-.62.77-.92l.46-.62c0-.15.15-.15.15-.3a4.93 4.93 0 0 1 .92-1.54c.31-.31.46-.61.77-.92a2.74 2.74 0 0 1 .61-.77c.16-.15.31-.46.46-.61a4.61 4.61 0 0 0 .46-.92 8.31 8.31 0 0 1 1.08-2 47.51 47.51 0 0 1 3.55-4.17 13.75 13.75 0 0 1 2.76-2.31l.46-.3.16-.16a1.14 1.14 0 0 0-.31.62c-.15.15-.15.3-.31.61l-1.07 1.38c-.61.77-1.07 1.38-1.69 2.15a25.74 25.74 0 0 0-2.76 4.3 27.12 27.12 0 0 1-3.69 5.71c-.92.92-1.69 1.84-2.61 2.76a30.48 30.48 0 0 0-3.07 3.69 16.92 16.92 0 0 1-3.22 3.38c-.31.3-.77.61-1.08.92l-.3.3a9.24 9.24 0 0 1-2.31 2 2.66 2.66 0 0 0-.92.92 13.12 13.12 0 0 1-2 2.15A8.8 8.8 0 0 0 35.4 155l-.3.46a20 20 0 0 1-1.85 1.84 16.05 16.05 0 0 0-2.45 2.7 4.68 4.68 0 0 0-.8 1.1c-.15.16-.15.31-.31.46 0 .16-.15.16-.15.31l-.31.46a5.65 5.65 0 0 0-1.07 2.15c-.31 0-.92.31-1.08 1.23v.46a6.69 6.69 0 0 1-.46 2.92 20.45 20.45 0 0 0-.61 4.29v1.23c0 .77-.16 1.54-.16 2.46a9.74 9.74 0 0 0 .16 2.15 6.77 6.77 0 0 0 .92 2.46l.15.3c.16.31.31.46.31.77a4 4 0 0 0 .46 1.84v1.08a2.59 2.59 0 0 0 .92 2.15l-.15.3c-.31 0-.62-.15-.92-.15l-.93-.46c-.46-.77-.46-1.23-.92-1.54zm19.5-44.67l-.15-.16zm-26.87-7.68a9.45 9.45 0 0 1-1.38 1.84c.46-.61.77-1.07 1.23-1.68a.15.15 0 0 1 .15-.19z"/><path class="cls-1" d="M145.48 170a38.69 38.69 0 0 1-.46-6.3V162c0-.76-.16-1.68-.16-2.45-.15-2.31-.46-4.61-.46-6.76a3.08 3.08 0 0 0-.15-1.23l-.62-5.37v-.46c0-1.23-.15-2.3-.15-3.38 0-.3-.15-.61-.15-1.07s-.16-.77-.16-1.08a1.16 1.16 0 0 0-.3-.61.88.88 0 0 0-1.23-.31 1.36 1.36 0 0 0-.77 1.38l.31 4.15c.15 1.23.15 2.46.31 3.68l.46 5.38c0 .61.15 1.23.15 1.84a18.09 18.09 0 0 0 .31 2.92c.15 1.84.3 3.37.3 4.76a43.78 43.78 0 0 0 .62 8.13 18 18 0 0 1 .15 4.92v2.14a1.31 1.31 0 0 0 .46.77c.15 0 .31.16.46.16a.54.54 0 0 0 .46-.16c.16 0 .46-.3.62-.61a1.42 1.42 0 0 0 .15-.77 25.58 25.58 0 0 0 .31-3.38v-1.53c-.31-1.38-.31-2.3-.46-3.07zM31.26 135l-.47-.15-.46.46c0 .15-.15.15-.15.31l-.31.46c-.46.77-1.07 1.38-1.53 2.15a13.11 13.11 0 0 0-1.23 1.84l-.46.92-.31.31a8 8 0 0 1-.92 1.23c-1.07 1.38-2 2.76-3.07 4.14L20.51 149c-.31.31-.62.77-.92 1.08l-1.38 1.69a44.83 44.83 0 0 1-3.54 4l-2.14 2.15-2.31 2.3-1.53 1.54-.16.15c-.15.31-.46.46-.46.61-.46.77 0 1.23.31 1.69l.15.16h.31a1.61 1.61 0 0 0 1.38-.77 19.23 19.23 0 0 1 1.69-1.69l1.38-1.38c.92-.92 1.85-1.69 2.61-2.61.92-.92 1.84-2 2.77-3.07l.15-.15c.46-.62.92-1.08 1.38-1.69l1.08-1.39a41.06 41.06 0 0 0 3.72-4.95 8.13 8.13 0 0 1 1-1.38 4.94 4.94 0 0 0 .76-1.07c.62-.93 1.38-2 2-2.92s1.23-2 1.84-2.92l1.08-1.84a.87.87 0 0 0 .15-.92c0-.31-.31-.46-.62-.62zM141 126.56l.47-.15.46-.31.46-.31c-.16-.3-.31-.46-.46-.76a11.09 11.09 0 0 1-1.08-1.69c-.31-.77-.77-1.39-1.07-2.15-.31-.46-.46-.92-.77-1.38-.15-.47-.46-.77-.61-1.23l-.62-1.38a15.89 15.89 0 0 0-1.07-2.31 2 2 0 0 0-.77-.77c-.31-.3-.77-.15-1.08 0a1.13 1.13 0 0 0-.46.93v.15a2.84 2.84 0 0 0 .31 1.07 24.12 24.12 0 0 0 1.38 2.92 57.43 57.43 0 0 0 2.92 5.37c.31.77.92 1.39 1.38 2.31zM167.74 50.57h.46c.61-.31 1.38-1.39 1.07-2.15a1 1 0 0 0-.76-.62 1.14 1.14 0 0 0-.93.31 4.11 4.11 0 0 0-.76.92 1.28 1.28 0 0 0 0 1.08c0 .3.46.46.92.46z"/></svg>
