<svg id="Layer_1" data-name="Layer 1" xmlns="http://www.w3.org/2000/svg" width="30.05mm" height="32mm" viewBox="0 0 85.19 198.43"><defs><style>.cls-1{fill:#1e5d84}</style></defs><path class="cls-1" d="M84.33 135.45c-.22-.65-.22-1.29-1.08-1.72H83a.73.73 0 0 1-.43-.22c-.22 0-.43-.22-.86-.22h-.41a4.05 4.05 0 0 1-1.94-1.08c-.21-.21-.43-.43-.43-.64a3 3 0 0 1-.43-1.3 8.93 8.93 0 0 0-3-4.53c-.22-.21-.43-.43-.65-.43a3.49 3.49 0 0 0-1.94-.65h-.43c-.22 0-.22 0-.44-.21a1 1 0 0 1 0-1.08c0-.22.22-.65.22-.87v-1.07c0-.44-.22-1.08 0-1.52 0-.21-.22-.43-.22-.64-.21-.22-.43-.43-.64-.43s-.43.21-.65.21c0 .22-.22.22-.22.43a2.14 2.14 0 0 0-.64 1.73v.86a3 3 0 0 1-1.1 1.93c-.22.22-.43.22-.43.44-.22.21-.44.21-.44.43a1.63 1.63 0 0 1-.86.43c-.43.22-.86.22-1.29.65a.78.78 0 0 1-.43.21 5.23 5.23 0 0 0-1.73.43h-.22c-.21.22-.64.22-.86.44h-.22c-.21 0-.21.21-.43.21a1 1 0 0 0-.21 1.3c.21.43-.22 0-.22-.22l-.43-.22c-.22-.21-.65-.43-.86-.64a1.81 1.81 0 0 0-1.51 0c-.65.43-1.08.86-1.08 1.51a6.12 6.12 0 0 0 .21 1.94c0 .22.22.65.22.86v.23l-.43.65a6.44 6.44 0 0 0-1.08 1.51 6.54 6.54 0 0 0-1.08 2.16c-.22.64-.43 1.07-.65 1.72s-.65 1.51-.86 2.16a7.91 7.91 0 0 1-3 3.67 1.69 1.69 0 0 1-1.08.43c-1.08.22-2.16.43-3 .65-.65.21-1.08.21-1.73.43-.22 0-.65.21-1.08 0-1.29 0-2.37.21-3.45.21a5.74 5.74 0 0 1-1.94 0 10.75 10.75 0 0 0-3.67 0c-1.73.22-3.45.44-5 .65a5.23 5.23 0 0 0-1.73.43c-.43 0-.65.22-1.08.22a1.3 1.3 0 0 0-.86.21h-3.67a13.82 13.82 0 0 0-4.75 1.08c-.43.22-.65.22-1.08.44a4 4 0 0 0-1.94.86c-.22 0-.43.21-.65.21-.65 0-1.08.22-1.72.22l-.65.22a3.79 3.79 0 0 0-2.16.86 2.88 2.88 0 0 1-1.94-1.94l-.65-2.59a4.89 4.89 0 0 1-.21-1.73c-.22-.65-.22-1.29-.44-1.94a20.27 20.27 0 0 1-.21-3.67 28.83 28.83 0 0 1 1.72-6.47c0-.22.22-.44.44-.87.21-.21.21-.43.21-.86a4.15 4.15 0 0 1 .22-1.51V129c0-.43 0-.87-.65-1.08a1.63 1.63 0 0 1-.86-.43 1.31 1.31 0 0 0-1.73 0 2.92 2.92 0 0 0-1.51 1.72 7.91 7.91 0 0 1-.86 1.95 6.3 6.3 0 0 0-.87 2.15l-.21 1.08-.65 2.61a16.37 16.37 0 0 0-.46 3.2c0 .86-.22 1.73-.22 2.37a14.7 14.7 0 0 0 .65 4.1 21.88 21.88 0 0 0 1.08 3.46l.65 1.94A18.29 18.29 0 0 0 6 157a1 1 0 0 1 .22 1.3c-.22.64-.22 1.29-.43 1.72l-.22.87v.43a13 13 0 0 1-.22 3v.43a6.32 6.32 0 0 0 .43 2.25c0 .21 0 .21.21.43a6.06 6.06 0 0 0 1.51 2.8l.22.22a.78.78 0 0 1 .21.43 1.94 1.94 0 0 1 .65 1.51 3.2 3.2 0 0 1-.43 1.94.68.68 0 0 0-.22.44c0 .21-.21.21-.21.43-.22.21-.22.43-.43.43-.43.22-.65.65-.87.86 0 .22-.21.22-.21.43A1 1 0 0 0 6 178c0 .22.22.43.22.87v.86a5.85 5.85 0 0 0-.22 1.9 3.76 3.76 0 0 1-.21 1.51c-.22.65-.22 1.51-.44 2.16 0 .43-.21.86-.21 1.3v1.72c0 .65.21 1.3.21 2.16.22.86.22 1.73.44 2.59 0 .43.21.65.21.86a.73.73 0 0 0 .22.43c0 .22.21.65.21.87v.21a1.14 1.14 0 0 0 .44.87c.21.21.43.64.64.86.43.86.65 1.08 1.3 1.08h.64c.22 0 .65-.22.87-.22s.65-.21.86-.21c.65-.22 1.08-.44 1.08-1.08v-.22l.43-.43.86-.86a1.65 1.65 0 0 0 .22-1.95 3.42 3.42 0 0 0-1.29-1.72 2.1 2.1 0 0 1-.87-1.94v-6.48a7.17 7.17 0 0 1 2.16-1.29 19.53 19.53 0 0 0 2.16-1.3l.21-.21a10.53 10.53 0 0 0 2.59-2.81c.44-.43.65-.86 1.08-1.29L20 176c.43-.65.86-1.51 1.29-2.16.65-.86 1.08-1.72 1.73-2.59a1.56 1.56 0 0 0 .43-.86l.22-.22a7.48 7.48 0 0 0 2.15-.21h.44a2 2 0 0 0 1.51-.65 3.46 3.46 0 0 1 2.16-.86c.43 0 .86-.22 1.29-.22a2.44 2.44 0 0 1 1.73 0h1.08a7.15 7.15 0 0 1 2.15.22 13.16 13.16 0 0 0 3 .43c.44 0 .65.22 1.08.22h.43c.22 0 .44.21.65.21s.65.22.87.22a10.8 10.8 0 0 1 3.23 1.51l.22.21c.21.22.65.44.86.65s.65.22.86.43a.22.22 0 0 1 .22.22.77.77 0 0 0 .22.43 4.4 4.4 0 0 0 .86 1.29 5.18 5.18 0 0 1 .86 3.67v.87a46.5 46.5 0 0 0-.43 5.61 8 8 0 0 0 .22 2.16 9.8 9.8 0 0 1-.44 4.31c0 .22-.21.43-.21.65s-.22.43-.22.86a1.77 1.77 0 0 0 .87 2.16h.21a.22.22 0 0 1 .22.22c.43.43 1.94.43 5.39.43h2.38c.21 0 .21-.22.43-.22a1 1 0 0 0 0-1.08l-.22-.21v-.22c0-.22-.21-.22-.21-.43l-.65-.65a2.49 2.49 0 0 0-1.51-1.08.82.82 0 0 0 .65-.21 18.45 18.45 0 0 0 2.15-1.3 1.23 1.23 0 0 0 .44-1.51c0-.21-.22-.43-.44-.65-.21 0-.21-.21-.43-.21a2.68 2.68 0 0 0-1.72-.87c-.22 0-.44 0-.44-.21h-.21a6 6 0 0 1 .43-2.81c0-.21.22-.43.22-.64l.21-.44a6.11 6.11 0 0 0 .43-1.94 2.34 2.34 0 0 1 .22-1.08 4 4 0 0 0 .43-1.72 3.17 3.17 0 0 1 .43-1.3 4 4 0 0 0 .43-1.72c0-1.08.65-1.73 1.08-2.59a5.44 5.44 0 0 0 .87-1.95 4.4 4.4 0 0 1 .88-1.27 14 14 0 0 0 2.16-2.81 9.55 9.55 0 0 0 1.08-1.51 4.42 4.42 0 0 0 .86-1.72 3.92 3.92 0 0 0 .43-1.51l.22-.43c.43-1.3 1.08-2.81 1.51-4.1.21-.44.21-.65.43-1.08.21-.65.43-1.08.65-1.73a20.54 20.54 0 0 1 1.94-4.53 7.35 7.35 0 0 1 .86-1.94c.22-.44.22-.87.43-1.08a12.59 12.59 0 0 1 .87-1.73l.21-.22.65-.43c.86-.64 1.94-1.51 2.81-2.15a3.23 3.23 0 0 1 2.37-.87H80a1.44 1.44 0 0 0 1.51-.86 9 9 0 0 0 1.08-1.51c0-.22.21-.22.21-.43.22-.22.44-.43.44-.65.86-1.08 1.29-1.51 1.08-2.16zm-28.92 51.79h1.29a.78.78 0 0 1 .65.22c-.43.21-1.08.65-1.51.86h-.22a2 2 0 0 1-.21-1.08zm.43 5.18h-1.08c-1.29 0-3 .22-3.45-.43-.22-.22-.22-.65-.22-1.29 0-.22.22-.44.22-.65s.21-.43.21-.65a10.33 10.33 0 0 0 .22-3.67 25.47 25.47 0 0 1 0-4.1v-2.16a4.63 4.63 0 0 1 .22-1.72 4.79 4.79 0 0 0-.22-3 8.11 8.11 0 0 0-1.08-2.38c-.21-.21-.21-.43-.43-.64a1.75 1.75 0 0 0-1.08-1.08 10.23 10.23 0 0 0-2.59-1.95c-.21-.21-.43-.21-.65-.43s-.43-.21-.86-.43h-.22a24.13 24.13 0 0 0-3.66-1.08c-.44-.21-.87-.21-1.51-.43a21.17 21.17 0 0 0-3.46-.43 2.67 2.67 0 0 1-1.29-.22h-.86a1.64 1.64 0 0 1-1.08-.21h-.44l.22-.22c.22-.21.43-.21.65-.43a9.8 9.8 0 0 1 4.53-2.16h.22c.21 0 .64-.21.86-.21l.86-.44a27.64 27.64 0 0 0 3.67-1.94c.22-.21.43-.21.65-.43l.21-.21c.22-.22.43-.22.65-.44v.22a.79.79 0 0 0 .22.65 1.7 1.7 0 0 0 1.72-.22 1.15 1.15 0 0 1 .87-.43.77.77 0 0 0 .43-.22 4.44 4.44 0 0 1 1.08-.64c0 .21-.22.21-.22.43a.77.77 0 0 1-.22.43c-.21.22-.21.65-.43.86v.65c0 .22.22.22.65.43a1.67 1.67 0 0 0 1.08-.21l.65-.65c.64-.65 1.51-1.08 2.16-1.73l.43-.43a5.87 5.87 0 0 1 1.29-1.13c.22 0 .43-.21.65-.43a17.14 17.14 0 0 0 4.53-7.77c.22-.65.43-1.51.65-2.16a17.27 17.27 0 0 0 .65-1.72 1.63 1.63 0 0 1 .86.43 3.41 3.41 0 0 0 1.51.86 13.57 13.57 0 0 1 2.59 1.08 1.34 1.34 0 0 0 1.29 0c.43-.22.65-.43.65-.65s.22-.43 0-.64a.47.47 0 0 0-.43-.44c-.22 0-.43-.21-.65-.21h-.43a.79.79 0 0 1-.65-.22.21.21 0 0 1-.21-.21.21.21 0 0 1 .21-.22 2 2 0 0 0 .65-1.73 11.1 11.1 0 0 0-.65-2.58c0-.22-.21-.65-.21-.87v-.43c-.22-.65 0-1.29.64-1.29.65-.22 1.08-.44 1.3-1.08l.65-.65.64-.65.22-.21a1.18 1.18 0 0 1 .65 1.08 1.73 1.73 0 0 0 1.13 1.1 5.26 5.26 0 0 0 1.51.44 21.93 21.93 0 0 0 3.23-.44 4.31 4.31 0 0 0 1.3-.86 1.32 1.32 0 0 0 .21-.86c0-.22-.43-.43-.64-.43a1.34 1.34 0 0 0-.87.21 5.79 5.79 0 0 1-3.23.65 1.63 1.63 0 0 1-1.51-.86V135c.21-.43.21-1.08.64-1.29.22-.22.43-.22.65-.44.22 0 .43-.21.86-.21h.44a.79.79 0 0 1 .64.21c.22.22.43.22.65.44l.22.21h.21l.22.22a1.32 1.32 0 0 0 .86.21c.22 0 .43-.21.65-.64 0-.22.21-.22.43-.22 0 .22.22.22.22.43a3.25 3.25 0 0 0 .86 1.3 3.84 3.84 0 0 0 2.16.86h.43v.22c0 .21.21.43.21.64.22.22.22.43.44.43a9.72 9.72 0 0 1-1.3 1.51.78.78 0 0 1-.65.22h-1.77a4.63 4.63 0 0 0-3 1.3 9.85 9.85 0 0 1-1.51 1.07c-.44.44-.87.65-1.3 1.08a4.15 4.15 0 0 0-1.73 2.16.21.21 0 0 1-.21.22c-.22.21-.22.43-.22.86a26.32 26.32 0 0 1-1.51 3.67c-.21.43-.43.65-.43 1.08-.22.43-.22.86-.65.86-.21 0-.21.22-.43.43v.22c-.21.21-.21.43-.43.65a4.81 4.81 0 0 1-.86 1.07 30.86 30.86 0 0 0-3 4.32 21.6 21.6 0 0 0-1.79 3.26l-1.3 2.59a12.3 12.3 0 0 0-1.07 1.72 5 5 0 0 1-.65 1.08l-1.3 1.94c-.21.22-.43.65-.21.87a1.28 1.28 0 0 1-.22.86l-.43.65a19.7 19.7 0 0 0-1.08 2.16 1.08 1.08 0 0 0 .22 1.51v.64a2.94 2.94 0 0 0 .43 1.95v.68a2.71 2.71 0 0 1-.22 1.3 6.4 6.4 0 0 1-.43 1.72l-.65 2-.21.43a17.79 17.79 0 0 0-.43 4.75v1.07a2.45 2.45 0 0 0 .64 1.73v.22c.22.21.44.21.65.43.43 0 .65.21 1.08.21a.58.58 0 0 1 .65.65c.21.22-.22 0-.65 0zm-44-.86a1.64 1.64 0 0 1 .86.86v.43c0 .22 0 .22-.21.43-.22-.64-.44-1.07-.65-1.72z"/><path class="cls-1" d="M74.09 133.29a1 1 0 0 0-1.08 0 .46.46 0 0 0-.43.44v.64a1.45 1.45 0 0 0 1.29.87h.22a.47.47 0 0 0 .43-.44c0-.21.22-.43 0-.64.22-.43 0-.65-.43-.87z"/></svg>
