<svg id="Layer_1" data-name="Layer 1" xmlns="http://www.w3.org/2000/svg" width="69.69mm" height="70mm" viewBox="0 0 197.55 198.43"><defs><style>.cls-1{fill:#1e5d84}</style></defs><path class="cls-1" d="M196.18 74.48c-.21-1-1-1.51-1.85-2-.26-.15-.54-.29-.81-.43-1.46-1.37-3.83-1.77-5.52-2.79l-.24-.14a5.44 5.44 0 0 0-2.7-1.44c-.33-.15-.66-.3-1-.43a10.55 10.55 0 0 1-4.47-5 14 14 0 0 0-3.53-5.36c-.78-.67-2.3-1.42-3.15-2a9.1 9.1 0 0 1-1.62-1.11 15.73 15.73 0 0 1-.46-3c-.15-2.91 0-7-.53-9.88-.27-1.3-2.85-9.16-6-6.36-1.26 1.12-1.23 4-1.69 5.48a60.89 60.89 0 0 1-3.84 8.32c-.88-2.76-1.48-5.44-4.65-6.65-4.39-1.7-3.65 3.57-4 6.43-.09.7-.21 1.38-.35 2.07-.09.38-.19.75-.29 1.12a.41.41 0 0 0-.13.24V51.85c-.43 1.45-.92 2.89-1.49 4.3a29.9 29.9 0 0 0-1 2.86c-.88 2-2.17 3.81-3.11 5.72-2.37 4.82-11.29 13.37-11.32 13.38-.74.29-1.06.5-1.92.8a6.4 6.4 0 0 0-1.24.59c-.38.22-.74.46-1.09.7-1.39 1-2.6 2-3.9 2.85a30.72 30.72 0 0 1-4.28 2.1 45.61 45.61 0 0 1-9.18 2.57 100.26 100.26 0 0 1-19.24 1.13c-6.48-.1-13-.48-19.57-.09a70.9 70.9 0 0 0-19.37 3.72 53.35 53.35 0 0 0-5.52 2.28A33.27 33.27 0 0 0 37 99.71c-.81.59-1.58 1.2-2.32 1.85a26.59 26.59 0 0 0-3.74 2.6 22.54 22.54 0 0 0-3.67 3.53 11.48 11.48 0 0 0-1.39 2.25c-.37.74-.72 1.5-1 2.27a43.61 43.61 0 0 0-1.7 4.68 40.77 40.77 0 0 0-1.78 9.81c-.19 3.31-.08 6.56-.25 9.75a28.22 28.22 0 0 1-6.63 17.27 27.48 27.48 0 0 1-3.32 3.33 21.4 21.4 0 0 1-3.85 2.66c-.7.4-1.43.82-2.14 1.29a8.78 8.78 0 0 0-2.05 1.8A5.88 5.88 0 0 0 2 165.42a21 21 0 0 0-.32 2.58c-.09 1.67-.05 3.31 0 4.93s0 3.21 0 4.85l-.09 4.87c0 1.64-.11 3.19-.16 4.86v2.53a10.12 10.12 0 0 0 .51 2.61 4.88 4.88 0 0 0 1.66 2.31 6.4 6.4 0 0 0 2.52 1.13c1.75.39 3.32 1.13 4.94 1.1s2.37-.84 4.07-1.09a9 9 0 0 0 2.54-.72 3.79 3.79 0 0 0 2-2.09 4.86 4.86 0 0 0 .18-.73v-.73a8 8 0 0 0-.23-1.37c-.27-.9-1-.9-1.69-1.52-1.35-1.27-2-2.53-3.64-2.66a9.19 9.19 0 0 1-1-.29.42.42 0 0 1-.23-.13.63.63 0 0 1-.13-.23c-.07-.29-.29-.46-.31-.85h2.67a21.26 21.26 0 0 0 2.4-.3 2.67 2.67 0 0 0 .45.89c.09.12.19.23.29.34a.88.88 0 0 0 .46.32.76.76 0 0 0 .59-.1.64.64 0 0 0 .22-.24l.1-.19.68-1.21a4.58 4.58 0 0 0 .55 1 .73.73 0 0 0 .67.22.75.75 0 0 0 .52-.43l1.34-2.27a2.89 2.89 0 0 0 .84.9 2.77 2.77 0 0 0 2.93.09 3.76 3.76 0 0 0 1.38-2.6c.08-.39.15-.79.22-1.18a5.62 5.62 0 0 1 .49-.38l.53.53a.7.7 0 0 0 .69.14c.27-.12.32-.32.46-.45.23-.31.46-.62.67-.94a12.11 12.11 0 0 0 1-2c.09-.12.18-.22.28-.33v.11l.2.51.1.25a.7.7 0 0 0 .8.41c.25-.07.34-.32.41-.46l.94-1.95.24-.49a7 7 0 0 1 .59 1.24c.16.48.31 1 .45 1.49.27 1 .52 2.1.89 3.19s.81 2.08 1.24 3.1c.89 2 2.24 2.75 3.32 4.67s1.8 5.08 3.4 6.82a10.43 10.43 0 0 0 2.82 2.21 8.45 8.45 0 0 0 3.53 1c2.34.14 2.54-.21 4.66-.4a17.09 17.09 0 0 0 1.73-.2 3.58 3.58 0 0 0 1.93-1.08 5.45 5.45 0 0 0 .61-.74l.3-.46c.08-.16.15-.34.22-.52.26-.71-.66-2.22-.83-2.91a4.21 4.21 0 0 0-1.6-2.56 6.79 6.79 0 0 0-2.62-1.89c-1.19-.36-.15.18-1.16 0s-2.1.23-2.73-.27-1.71-.9-2.2-1.78-.91-1.88-1.35-2.88a15.66 15.66 0 0 1-.76-7.39 10.93 10.93 0 0 1 2.82-5.05 27.53 27.53 0 0 1 2.27-2.16l.78-.27 1-.44c.23-.21 1.55-1.07 1.75-1.31.85-1 1.13-2.55 1.54-3.58l.34-2.81a14.49 14.49 0 0 1 .62-1.36 2.15 2.15 0 0 1 .74-.83c.19-.11.36-.19.64-.33a8.54 8.54 0 0 0 .82-.5 7.09 7.09 0 0 0 1.38-1.3 9.49 9.49 0 0 0 1.62-3.22 16.79 16.79 0 0 1 1-2.93c.43-.93 2.32-1.26 2.8-2.3s1.21-2.7 1.67-3.64a48 48 0 0 0 1.5-4.84 30.14 30.14 0 0 0 .64-4 16.36 16.36 0 0 1 4.13.67 5.12 5.12 0 0 1 2 1.71 3.56 3.56 0 0 0 2.53 1.29c.64.05 3.22.45 3.49.83s.69.47.91.69c1.14 1.17 2.22 1.27 3.84 2.13 0 0 1.17.37 1.48.15a6.34 6.34 0 0 1 3-.05 30.17 30.17 0 0 0 2.8 1.69 2.62 2.62 0 0 0 1.39.35c.77 0 13.37 3.63 14.55 4.5.2.15 3.34.65 4.14 1.15l.12.11a1.14 1.14 0 0 0 .31.13c.11.06.21.13.32.18.4.16 2.88.4 3.29.47.16-.59-1.43-1.82-1.23-2.41a3.79 3.79 0 0 1-1.2-.53c-.75-.41-.91-.22-1.25-.73-.12-.17-.28-.19-.37-.38l-.14-.14c0-.06 0 0-.08-.07l-.1-.24a1.1 1.1 0 0 0-.22-.31.91.91 0 0 0-.45-.22c-1.66-.9-3.27-2.14-4.94-1.87a5.28 5.28 0 0 1-2-.15c-.56 0-10-2.63-10.89-3.58-.29-.29-1-.66-1.25-1-1-1.19-13.89-4.45-14-4.29a17.78 17.78 0 0 1-3.57-.63c-.52-.53-2.69-2.13-3.91-2.21l.05-.05c-.61-.08-1.58-.27-1.32-1.7.47-2.62.29-2.89 0-5.55a9 9 0 0 1 4.72-1.29 4.22 4.22 0 0 1 2.74 1.08 4.72 4.72 0 0 1 .9 1.14 8 8 0 0 0 .89 1.31 4.49 4.49 0 0 0 2.87 1.38 27.74 27.74 0 0 1 3 .4c1.86.51 3.38 1.82 5 3.07a17 17 0 0 0 2.63 1.76c1 .51 2-4.13 3-3.91 2.12.47 4.34 5.35 6.4 4.87a21.26 21.26 0 0 0 5.89-2.31 30 30 0 0 0 5.1-3.63c3.09-2.75 6.28-4.45 8.34-8.05 1-1.8.13-4.83.72-6.82s3.41-3.85 3.33-5.94c-.17-4.15-2.64-8.6-3.1-12.59a13.87 13.87 0 0 1 .35-5.89l.56-1.34.74-1.17.24-.28.64-.72a5.62 5.62 0 0 1 1.07-1c.94-.52 3-3.06 4-4.33 0 0 7.68-5.68 9.87-8.87 1.29-1.89 1.68-6.43 2.65-8.57a9.59 9.59 0 0 0 2.41 4.61 2.37 2.37 0 0 0 .65.67 12 12 0 0 0 3.19 2.32c.23.11.54.25.89.39 1.2 1.32 3.5 2.44 5.34 1.55s2.82.09 3.39-1.68a13.61 13.61 0 0 0 .37-1.59c-.79-3.88-1.55-2.47-2.52-1.13-.2.76-.46 1.51-.72 2.24s-.26-.21-.82.5a.49.49 0 0 0 0-.11c-.13-.23-.27-.44-.41-.66a8.65 8.65 0 0 0-.77-2.1c-.62-.91-1.36-2.52-2.23-3.2-.21-.17-.46-.31-.68-.46l-.7-.09a1.3 1.3 0 0 1-1.12-1.55c-.59-1.69-.38-4.22-.32-6a37.29 37.29 0 0 1 .86-6.57l.93-3.42a19.4 19.4 0 0 1 .49-2.46c.24-.39.85-.81.84-.89 1.81 2 1.6 5.05 2.76 6.92 0 .07 1.31 2.15 1.19 2 .3.3 1 .17 1.44.72.39.29 1.44-.28 1.81-.26a20.46 20.46 0 0 1 7.72 1.71 5.15 5.15 0 0 0 1.17 1.08c2.09 1.48 4.36 2.8 5.7 5.07 1 1.77 1.21 3.39 2.83 4.79-2.51.57-2.87 3-3.73 5.25a12.82 12.82 0 0 1-.81 1.69c-1.48.88-3.21 1.76-4.74 2.78a6.17 6.17 0 0 0-1 0 3.12 3.12 0 0 0-2.6 1.28c-2 2.83-.6 10.1 3.49 9.4.35.08.71.15 1.08.2a55 55 0 0 0-3.31 6.26c-1 2.35-.63 4.73-.58 7.21a66 66 0 0 1-.69 10.44c-.1.75-.69 1.67-.81 2.42s.17 1.58 0 2.44q-.49 2.52-1.08 5a35.88 35.88 0 0 1-1.34 4.43 38.13 38.13 0 0 1-2.5 5.43c-.27.48-.87 1.08-1.15 1.55a35.13 35.13 0 0 1-3.39 4.91c-1.28 1.46-2.83 2.72-4.17 4.14a10.55 10.55 0 0 1 2.78 1c1.2-1.23 2.68-2.59 4-3.87.55-.52 1.58-.73 2-1.22s1-1.29 1.28-1.67a30.56 30.56 0 0 0 6.07-12.27 28.43 28.43 0 0 0 .85-4.41c0-.33.35-.75.38-1.08.06-.64-.16-1.21-.12-1.86s.06-1.16.08-1.74c.05-1.35.07-2.72.08-4.07 0-2 .06-4 .18-5.88 0-.55.31-1.06.33-1.61s-.22-1-.21-1.52a25.55 25.55 0 0 1 .67-6c.31-1.16 1.26-2.7 1.69-4.23a15.44 15.44 0 0 0 .53-3.72 30.73 30.73 0 0 0 5.51-.37c2.36 0 4.73 0 7.06-.16 2.57-.21 5.31-1 6.67-3.4.27-.48.41-1 .63-1.47a20.43 20.43 0 0 1 2.39-3.48 3.54 3.54 0 0 0 .88-2.7zM15.13 178.8c-.51.91-1.06 1.8-1.65 2.66-.29.41-.59.83-.9 1.23a22.22 22.22 0 0 1 1-8.6 10.52 10.52 0 0 1 2.42-3.94 8.58 8.58 0 0 1 2.65-1.76 31 31 0 0 1-3.52 10.41zm4.93-23.28c-.14 2.2-.33 4.38-.36 6.6 0 1.11-.07 2.22-.18 3.33 0 .24-.05.49-.08.73l-.29.1h-.09l-.17-.13v.19l-.89.29c-.39.15-.75.36-1.12.54a5 5 0 0 0-1 .65 10 10 0 0 0-3.22 3.72 21.15 21.15 0 0 0-2 9.49c0 1.62.07 3.23.22 4.83l.25.8a3.92 3.92 0 0 0 .67.88 1 1 0 0 0 .55.3 2.23 2.23 0 0 0 .38 0c.78 0 1.06.48 1.82.6s.51.29 1.19.56a3.49 3.49 0 0 1 1.64 1.16 2 2 0 0 1 .17 1.78 2.29 2.29 0 0 1-1.24 1.37 6.23 6.23 0 0 1-3.4.58l-2.4-.09c-.82 0-2 .62-2.77.58a3.76 3.76 0 0 1-3.16-2.18 5.45 5.45 0 0 1-.53-2 17.21 17.21 0 0 1 0-2.28c.06-1.53 1.34-3.33 1.35-4.92l-1-4.65.24-9.57c0-1.63-.85-2.56-.11-3.58s3-2.22 4.44-3.09a30 30 0 0 0 7.55-6.27 30.39 30.39 0 0 0 4.08-6c-.26 1.96-.41 3.82-.54 5.68zm50.87-27.44c-.13 3.63-1.37 6.79-2.88 10.08-.56.47-.6 1.48-1 2.07a16.66 16.66 0 0 0-1.61 2.89L64.07 146l-1.36 2.88c-.45 1.08-.68 2.13-1 3.06a7.26 7.26 0 0 1-.56 1.29 2.53 2.53 0 0 1-.81.85c-.34.24-.8.45-1.32.74a4.68 4.68 0 0 0-1.45 1.18c-1.57 2-1.87 4.21-2.57 6a7 7 0 0 1-1.44 2.4 22.42 22.42 0 0 1-2.33 1.95 15.65 15.65 0 0 0-1.27 1.07 12.76 12.76 0 0 0-1.13 1.25 22.73 22.73 0 0 0-1.94 2.64 11.74 11.74 0 0 0-1.4 3.09 8.19 8.19 0 0 0-.18 3.48 21.64 21.64 0 0 0 2.32 6.13 19 19 0 0 0 1.7 2.84 8 8 0 0 0 2.65 2.26 10.51 10.51 0 0 0 3.23 1c1 .19 0 .38.94.71a4.66 4.66 0 0 1 2.23 1.5 3.52 3.52 0 0 1 .52 1.17.93.93 0 0 1-.13.91 2.77 2.77 0 0 1-.45.47 1.24 1.24 0 0 1-.46.29 4.24 4.24 0 0 1-1.33.26c-1 .05-.15.14-1.17.25-2.05.21-4.14.33-5.76-.66a12.72 12.72 0 0 1-4-4.43 62 62 0 0 1-3-5.47q-.69-1.41-1.32-2.85a20.14 20.14 0 0 1-1.06-2.9 23.07 23.07 0 0 0-2.25-6c-.64-1-1.31-1.69-2-2.53a12.8 12.8 0 0 1-1.71-2.5 4.13 4.13 0 0 1 .07-2.81c.31-1 .71-1.94 1.13-2.9.83-1.92 1.81-3.79 2.7-5.71a27.45 27.45 0 0 0 1.28-2.91 3.07 3.07 0 0 0 .05-1.78 3.66 3.66 0 0 0-1.05-1.4 7.17 7.17 0 0 1-2-2.24 16.16 16.16 0 0 1-.72-3 7.12 7.12 0 0 0-1.28-3 7 7 0 0 1-1.62-2.58 8.73 8.73 0 0 1 0-3c.13-1 .23-2.11.31-3.15l.55-6.3a29.88 29.88 0 0 1 .77-6.2 35.06 35.06 0 0 1 6.24-10.77 25.5 25.5 0 0 1 2.24-2.17 14 14 0 0 1 2.48-1.84 4.64 4.64 0 0 1 2.84-.57c.5.06 1 .21 1.55.3a4.07 4.07 0 0 0 .86 0c.29-.06 4.31.33 4.61.42a21.68 21.68 0 0 1 4.84 2c5.26 3.5 8.09 6.51 8.88 8.22a25.41 25.41 0 0 1 1.94 11.14zM169.25 52c-4.87 0-4.49-9.55-4.19-12.79 0-.41-.07-.7-.09-1.54.17-.73.3-1.28.5-2a.5.5 0 0 0 0-.27c1.17-.18 1.75 2.75 2 3.65.34 1.32.65 2.65.9 4 .56 3 .63 6 .94 9z"/><path class="cls-1" d="M118.17 148.88c0 .09-.06.14-.11.09s.03-.06.11-.09zM167.21 52.32h-.14zM164.2 44.05zM150.81 54.52v.36h-.05zM148.42 65.03zM19.53 172.71v.25a.6.6 0 0 0-.11.06zM34.29 175.67l-.09-.24.1-.11h.18zM176.89 71.29a1.42 1.42 0 0 1 .05-.16.42.42 0 0 0 0 .1zM171.62 65a1.59 1.59 0 0 0-1-.05 1.19 1.19 0 0 0-.46.29 1 1 0 0 0-.19.17.44.44 0 0 0-.26.43.81.81 0 0 0 .07.71 1.3 1.3 0 0 0 1.12.5c.72 0 2.14 0 2.2-1s-.75-1.05-1.48-1.05z"/><path d="M173.16 65.67c-.17-.85-.85-1.19-1.87-1.19a1.29 1.29 0 0 0-.68.17h-.85c-.17 0-.68 0-.85.34a4 4 0 0 1-1.19 1.19 1.29 1.29 0 0 0 0 1.54 3.55 3.55 0 0 0 2.72 1.36h.17a4.38 4.38 0 0 0 2.72-1.19 1.15 1.15 0 0 0 0-1.71.74.74 0 0 1-.17-.51z" fill="#1e5d84"/><path class="cls-1" d="M163.52 192c-.26-.77-.33-1.43-1-1.88a8.5 8.5 0 0 0-3.83-1.71 8.51 8.51 0 0 1-1.91-.49 4.35 4.35 0 0 1-2.38-1.55 12.59 12.59 0 0 1-2.31-2.53c-.67-1.07-1.13-3.44-1.55-4.62a13 13 0 0 1-.67-3.71c-.09-1.26-.36-3.8-.38-5.06 0-2.53.4-3.55.5-6.08s.75-4 .76-6.58-.73-5.24-.38-7.72a17.78 17.78 0 0 1 .76-3.8 4.6 4.6 0 0 1 1.47-2.07 16.05 16.05 0 0 1 1.7-1.7l1.14-1.58c.23-.15.21-.92.16-1.21s.82-3 .59-3.16c-1.17 1-3.72 3-4 3.1a3.64 3.64 0 0 0-.47.28 9.12 9.12 0 0 0-.82.56 11 11 0 0 0-1.43 1.38 13.5 13.5 0 0 0-2.81 7.22 65.45 65.45 0 0 0-.47 7.65v7.61c0 2.53-.18 5.06-.19 7.61a29.71 29.71 0 0 0 .76 7.62 18.28 18.28 0 0 0 3.59 6.77 10.42 10.42 0 0 0 3 2.47 11.11 11.11 0 0 0 3.73 1c1.26.15.53.22 1.74.52a6.29 6.29 0 0 1 1.72.7 5.71 5.71 0 0 1 .77.51c.21.17.33 1.25.39 1.46l-.93.6a19.11 19.11 0 0 1-8.77.07c-.89-.16-1.4.21-2.17-.21a6 6 0 0 1-1.9-1.82c-.52-.73-1.39-1.71-2-2.45s-1.12-1.47-1.73-2.16c-1.2-1.39-2.67-2-3.42-3.56a17.24 17.24 0 0 1-1.24-5.24 30.94 30.94 0 0 0-1-4.55c-.07-.25 0-.55 0-.8s-.36-.49-.45-.76a40.44 40.44 0 0 0-1.79-4.42c-.38-.83 0-.8-.43-1.59-.11-.22-.8-1.5-.9-1.72a12.59 12.59 0 0 1-.88-1.66 27.76 27.76 0 0 1-1.09-5.29c-.45-3.61-.47-7.31-1.54-10.93a14.34 14.34 0 0 0-2.59-5 10.76 10.76 0 0 0-2.1-1.94l-.6-.4a1.09 1.09 0 0 0-.54-.19c-.24 0-.89-.31-1-.16-.32.27.32.77.53 1.22a2.1 2.1 0 0 0 .52.64l.22.72c1.46 1 .89 1.65 1.64 3.23.67 1.4.2 1.39.2 1.39l-.41 1c-1-.06-1.77.86-2.82.74s-2.14 1.07-3.18.9l-2-.35a2.58 2.58 0 0 0-.57-.05 1.06 1.06 0 0 0-.89 1.13 1 1 0 0 0 .45.74 1.09 1.09 0 0 0 .35.13h.2l.79.15 1.58.49c.42.06.44 0 .86 0 0 .1.44 1.33.44 1.33a50.4 50.4 0 0 1 1.83 13.54 23.11 23.11 0 0 0 .72 7.12c.77 2.37 2.31 4.25 3.4 6.25a41.7 41.7 0 0 1 2.55 6.44l1.11 3.34a7.84 7.84 0 0 0 1.85 3.15c.9.87 1.26 1.65 2.42 1.94s2.83 1.19 4 1.19 2.66-.89 3.83-1.06c.58-.08 1.27-.31 1.84-.42.14 0 .63.6.84.79 1.17 1.12 3.25 1.19 4.79 1.55a20.07 20.07 0 0 0 4.33.65c1.56 0 1.53-.64 3.1-.79.78-.08 1.2-.78 2-1a3.44 3.44 0 0 0 1.91-1.37c.46-.74.71-.79.46-1.56zm-18 .3a17.44 17.44 0 0 1-6.44-.15c-1.14-.22-2.35-.1-3.25-.78s-.92-1.49-1.31-2.55c-.71-2.18-1-3.58-1.8-5.79s-1.66-5.28-2.93-7.25-2.56-4.06-2.77-6.36-.83-4.89-1-7.24a46.9 46.9 0 0 0-.9-7c-.25-1.16-.53-2.3-.85-3.43l-.21-.72.38.05c1.07.11 2.14.19 3.21.25l1.61.06.4.18.32.46a61.4 61.4 0 0 0 1.52 8.2 27 27 0 0 0 1.43 4.55c.47 1.14 1.06 2.21 1.6 3.27.17.33.13.68.28 1s.39.37.49.58a27.6 27.6 0 0 1 2.43 8.2 38.91 38.91 0 0 0 .88 4.66 9.92 9.92 0 0 0 2.5 4.09c1.07 1.15 2.12 2.3 3.11 3.5.5.6 1 1.21 1.45 1.83.12.18.24 0 .37.2.02.03-.45.2-.49.21z"/></svg>
