<svg id="Layer_1" data-name="Layer 1" xmlns="http://www.w3.org/2000/svg" width="71.94mm" height="70mm" viewBox="0 0 203.94 198.43"><defs><style>.cls-1{fill:#1e5d84}</style></defs><path class="cls-1" d="M201.83 66.71a2.45 2.45 0 00-1.83-1.19 4 4 0 01-1.36-.34 24.94 24.94 0 00-2.38-1c-.34 0-.51-.17-.85-.34l-.86-.35a2.42 2.42 0 00-1-.34 5.09 5.09 0 01-1.36-.68 12.68 12.68 0 00-2-1.19 9.42 9.42 0 01-2.22-1.19l-.34-.34a1.55 1.55 0 01-.68-1.36 1.86 1.86 0 00-1.19-1.88 8.29 8.29 0 00-1.19-.51 7.38 7.38 0 01-3.07-1.36 1.84 1.84 0 00-1.19-.51 13.12 13.12 0 00-2.55-.34 14.66 14.66 0 01-2.9-.68 8.86 8.86 0 00-2.38-.34 3.31 3.31 0 01-1.36-.17 7.62 7.62 0 00-2-.17c-.69 0-1.37.17-2 .17l-1.53.17a8.53 8.53 0 00-2 .34c-.51.17-1 .51-1.53.68a27.11 27.11 0 00-3.24 1.53l-.17.17-.17.17a3.8 3.8 0 00-2.21 1l-4.6 3.58c-.85.68-1.53 1.19-2.38 1.87l-.17.17a4.63 4.63 0 00-1.54 2 15.6 15.6 0 00-1.53 4.76c-.34 2-2.38 4.26-3.23 5.11l-.17.17a12 12 0 01-1.71 1.36c-.51.34-.85.68-1.36 1a8.66 8.66 0 01-3.23 2h-.51a6.34 6.34 0 00-1.88.85 5 5 0 01-1.53.34 34.84 34.84 0 00-4.43.68 5.78 5.78 0 00-2.55 1.19 3.42 3.42 0 01-1.36.68l-.68.17c-.85.17-1.7.51-2.39.68a6.2 6.2 0 01-2.38.34 12.5 12.5 0 00-3.57 0 4.55 4.55 0 00-2 .52 9.11 9.11 0 01-1.87.85 3.2 3.2 0 01-1.36.34 2.52 2.52 0 01-1.19.17c-.34 0-.51.17-.86.17h-1c-.34 0-.85-.17-1.36-.17a42 42 0 00-4.6.34h-.68a1 1 0 00-.68.17 4.71 4.71 0 01-1.53.17H93c-1 0-2-.17-3.06-.17-.68 0-1.36-.17-2-.17-.52 0-.86-.17-1.37-.17H84a11.52 11.52 0 01-3.41-.17c-.17 0-.51-.17-.68-.17l-1.36-.17c-.85 0-1.87-.17-2.72-.17a9.35 9.35 0 00-3.07.17 20.93 20.93 0 01-3.4.34h-4.75c-.68 0-1.36.17-2 .17a33.28 33.28 0 00-4.26.34 2.89 2.89 0 01-1.19.17l-1 .17a14.23 14.23 0 00-3.24 1 8.94 8.94 0 01-2.89.68 5 5 0 00-1.7.34 6.09 6.09 0 01-1.88.51h-.17c-.34 0-.51 0-.68-.17l-1-.51-.76-.19a8.23 8.23 0 00-3.06-1.19c-.34 0-.86-.17-1.2-.17h-.34c-.17 0-.34 0-.34-.17a6.89 6.89 0 00-1.53-.85c-.17-.17-.51-.17-.68-.34a10.4 10.4 0 00-2-.85 12.68 12.68 0 01-3.07-1.2.62.62 0 00-.51-.17.17.17 0 01-.17-.17l-.17-.17a2.35 2.35 0 01-.68-.51 15 15 0 00-1.7-1 11.47 11.47 0 01-2.22-1.36c-.68-.51-1.19-.85-1.7-1.19-.85-.51-1.7-1-2.38-1.53-.34-.18-.51-.52-.85-.69l-.24-.2a16.17 16.17 0 01-1.71-1.7c-.34-.34-.51-.68-.85-.85a.59.59 0 01-.17-.34L18 72.5c-.34-.51-.51-1-.85-1.53a4.86 4.86 0 01-.68-2.22c0-.17-.17-.51-.17-.68l-.17-.68c-.17-.51-.17-1-.34-1.53v-.51a1.53 1.53 0 00-.17-.85 23.54 23.54 0 00-1.87-4.6l-.52-1-.51-1a9.87 9.87 0 01-1-2.9 7.48 7.48 0 00-.34-1.7c-.17-.34-.17-.51-.34-.68 0-.17-.17-.34-.17-.51a5.73 5.73 0 00-1.7-2.39 8.22 8.22 0 01-1.7-2 5.91 5.91 0 00-1.88-1.7l-.17-.17a1.31 1.31 0 00-1.7.17A5.82 5.82 0 002.13 49v3.92A10.46 10.46 0 012 55.13 5.55 5.55 0 002 58c0 .34.17.68.17 1v.17c.17 1.36.17 2.89.34 4.25A12.86 12.86 0 003 66.2l1 3.06a11.29 11.29 0 001.53 3.58 5.32 5.32 0 01.85 1.7 3.8 3.8 0 001.2 1.53 2.75 2.75 0 01.51 1 18.56 18.56 0 003.23 6.63 17.74 17.74 0 005.28 4.43c.68.34 1.19.68 1.53.85.85.68 1.7 1.19 2.56 1.88l.51.34a9.64 9.64 0 002.21 1.36c1.7.68 3.23 1.19 4.77 1.7a9.58 9.58 0 012 .68c2.38.85 4.43 1.53 6.3 2l1.53.52.34.17a.53.53 0 00-.17.34c-.17.17-.17.51-.34.68 0 .17-.17.34-.17.51a22.94 22.94 0 00-1.36 4.08 26.16 26.16 0 01-1.31 3.99 6 6 0 01-.68 1.53c0 .17-.17.17-.17.34a10.34 10.34 0 00-1.37 4.77 18.58 18.58 0 01-1.19 6 14.16 14.16 0 00-.68 2.55c0 .51-.17.85-.17 1.36a13 13 0 00-.17 2.56 30.15 30.15 0 00.17 3.74 21.87 21.87 0 01.17 3.41v.85a17.37 17.37 0 01-.34 4.26l-.17.68c-.17.68-.17 1.36-.34 2a12.37 12.37 0 00.34 4.94 11.14 11.14 0 01.17 4.08l-.17 1a11.48 11.48 0 00-.34 2.38 9.89 9.89 0 01-.85 2.72 8.24 8.24 0 01-.85 1.71l-.34.68a15.12 15.12 0 01-2.9 4.08 9.71 9.71 0 00-2 4.77l-.17 1.19c0 .34-.17.68-.17 1a3.15 3.15 0 00-.34 1.19c-.17.17-.17.52-.34.86s-.17.68-.34 1c-.17.85-.17 1.7-.34 2.55v1.87a28.09 28.09 0 00-.34 3.75l-.17 1v.17c0 .34-.17.51-.17.85a14 14 0 01-1 2.9 2.34 2.34 0 00-.17 1.87 23.79 23.79 0 00.52 2.38 2 2 0 00.51 1.37c.17.17.17.34.17.68a5 5 0 00-.34 1.53 1.28 1.28 0 00.17 1.36 1.55 1.55 0 001.19.51c.51 0 1.19-.17 1.7-.17h.85l.17.17 1 1a3.46 3.46 0 001.65 1.33 3.15 3.15 0 001.19.34 4 4 0 001.36-.34 3.6 3.6 0 011.19-.51 2.41 2.41 0 001.53-1.36l.17-.17a4.55 4.55 0 001.71-1.87c.51.17.85.17 1.36.34a1.9 1.9 0 001.87-.17h.17c.68.17 1.19.34 1.7.51a2.08 2.08 0 002.22-.17l.17-.17.51-.51a6.63 6.63 0 001.36-2.39l.17-.17a1.85 1.85 0 00.17-.85 6 6 0 00-1.87-2.72c-.17-.17-.51-.17-.68-.34a1.29 1.29 0 01-.68-.17h-.86a9.49 9.49 0 01-1.36-.85 1 1 0 01-.51-1v-.69c.34-1.53.51-3.06.85-4.59.17-.51.17-1 .34-1.53v-.17c.17-.35.17-.69.34-1 .17-.68.34-1.53.51-2.21a25.72 25.72 0 011.2-3.75l.17-.51c.17-.34.17-.68.34-1l1.53-3.06.17-.17c.17-.17.17-.51.34-.68.68-.85 1.19-1.71 1.87-2.73a12.65 12.65 0 012.73-3.4 43 43 0 005.79-6.47l1-1.53c.34-.51.85-1.2 1.19-1.71a3.72 3.72 0 01.51-.85 3.56 3.56 0 01.68-1 17.24 17.24 0 001.7-2.72 2.35 2.35 0 01.51-.68l1-1.54c.51-.85 1.19-1.7 1.7-2.72a35.78 35.78 0 002.55-5.11c.34-.51.51-1.19.85-1.7a13.58 13.58 0 001.54-4.6v-.34a2.82 2.82 0 000-2 18.71 18.71 0 012.38-1.87l1-.34 1.53-.52a2.6 2.6 0 001.88.35c.34 0 .68-.17 1 0a8.79 8.79 0 012.21 1 17.9 17.9 0 005.79 3.23 8.29 8.29 0 001.19.51c1 .68 2 1.36 3.24 2.05a15 15 0 003.4 1.53 11.8 11.8 0 012.21.85 29.16 29.16 0 003.5 1.24 10.87 10.87 0 012.72 1 26.28 26.28 0 003.24 1.36c1.19.52 2.55.86 3.91 1.37 2 .68 4.26 1.19 6.3 1.87l.68.17c.34.17.85.17 1.37.34a11.48 11.48 0 002.38.34l2.55.34c.68.17 1.54.17 2.22.34.51 0 1 .17 1.53.17l1 .17a1.53 1.53 0 01.85.17 7.23 7.23 0 011.87.34v.17l.17.68a13.56 13.56 0 01.34 2.39 37.27 37.27 0 001 5.62 7.23 7.23 0 01.34 1.87c0 1 .17 1.87.17 2.72l.17 1.53c.17 1.37.34 2.9.51 4.26l.17.85c.17.51.17 1.19.34 1.71l.17.68a45.23 45.23 0 01.51 4.76 9.06 9.06 0 00.17 2.22 5.78 5.78 0 01.17 1.7v.86a2.27 2.27 0 00.17.85l.51 2.9.17.34c.34 2 .34 2.21.51 2.38.17.51.34.85.51 1.36l.68 1.87a7 7 0 00.68 1.71c.18.51.35 1.19.52 1.7a12.89 12.89 0 00.51 2.72c.17.34.17.68.34 1a2.9 2.9 0 002.38 2.21h.17l.51.17a1 1 0 00.68.17.88.88 0 01.68.34 2.36 2.36 0 001.71.85 5 5 0 011.53.34 2.71 2.71 0 002.21-.51c.34-.34.68-.51 1-.85a1.39 1.39 0 011.37-.68h.51a2.08 2.08 0 002.21-1.87 1.89 1.89 0 01.17-.86 2.29 2.29 0 00-1.53-2.55 2.71 2.71 0 01-1.37-1c-.17-.17-.34-.17-.34-.34-.17-.17-.34-.17-.34-.34a3 3 0 00-1.19-.85c-.17 0-.34-.17-.34-.51v-1.2a33.65 33.65 0 01.34-7.15 7 7 0 00.17-1.87c0-1.7.17-3.4.17-5.11v-17c0-1.19.17-2.39.17-3.58a23 23 0 01.51-6 2.78 2.78 0 000-1.19 2.16 2.16 0 01.17-1 21 21 0 011.37-2.89c.17-.51.51-.85.68-1.37l.17-.17a.59.59 0 01.17-.34c.17-.17.17-.34.34-.51l.68-1.36c.34-.68.68-1.19 1-1.87a7.39 7.39 0 01.68-1.19 14.13 14.13 0 001.19-2.22 35.21 35.21 0 012.56-4.25l.34-.68a6.24 6.24 0 00.85-1.37 9.34 9.34 0 011.19-1.53c.34-.51.68-1.19 1-1.7l.17-.34a5.24 5.24 0 00.51-2.22v-1.53a14.48 14.48 0 01.68-3.91c0-.17.17-.34.17-.68V111a7.78 7.78 0 011-2.56c.17-.34.34-.51.51-.85l.34-.51a3.72 3.72 0 01.51-.85 10.54 10.54 0 011.53-2.22.88.88 0 00.34-.68 9.9 9.9 0 011.87-3.06 61.27 61.27 0 003.92-5.45l.34-.51a88.39 88.39 0 005.28-8.51c.17-.34.34-.34.68-.34a6.37 6.37 0 011.87.17c.85 0 1.87.17 2.9.17a19.22 19.22 0 004.42 0h1a17.06 17.06 0 004.09-.68c.51-.17 1.19-.34 1.7-.51a8.66 8.66 0 001.87-.86 7.12 7.12 0 002.9-3.57l.17-.34a5.84 5.84 0 00.51-3.07c0-.17.17-.17.17-.34l.34-.34.34-.34a3.7 3.7 0 00.85-1.36 12.52 12.52 0 00.85-3.91v-.18a6.37 6.37 0 01.17-1.87c-.17-1-.34-1.53-.34-1.7zm-3.57 6.64A8.88 8.88 0 01195 75.9a3.2 3.2 0 01-1.36.34c-1.19.17-2.55.51-3.74.68a5.83 5.83 0 01-1.88.35 1 1 0 00-1 1 1.44 1.44 0 001.19 1.36h1l2.55-.51a34.88 34.88 0 013.75-.68 2.42 2.42 0 001-.34 6.13 6.13 0 01-3.24 3.57 14.36 14.36 0 01-2.89.85c-.68.17-1.53.17-2.22.34l-1.19.17c-.68 0-1.36.17-2 .17-1.53 0-3.06-.17-4.6-.17a34.87 34.87 0 00-6 0 .62.62 0 00-.51.17.59.59 0 00-.34.17l-.34.17v.35a1.32 1.32 0 001 1.36c0 .17-.17.17-.17.34l-.68 1c-1.19 2-2.55 4.26-3.91 6.3-1 1.53-2.22 3.06-3.24 4.6l-.68.85a32.45 32.45 0 00.68-7v-3.18a4.71 4.71 0 00-.17-1.53 2.17 2.17 0 00-.68-1 1.44 1.44 0 00-1.19 0c-.17 0-.34.17-.51.34l-.34.17v.34a16.49 16.49 0 00-.17 2.89v4.26a18.73 18.73 0 01-.34 3.06v.69c0 .34-.17.68-.17 1.19 0 .34-.17.85-.17 1.19a11.91 11.91 0 01-.51 2.38c-.17.51-.17.85-.34 1.36-.18.34-.18.86-.35 1.2a1.29 1.29 0 01-.34.68l-.51 1a5.32 5.32 0 00-.85 1.7 7.1 7.1 0 00-.68 1.7 18.15 18.15 0 00-.68 2.9v4.59a2.18 2.18 0 01-.17 1c-.68 1.19-1.36 2.55-2.38 4.08a12 12 0 00-1.37 2.56 15.73 15.73 0 01-.85 1.7l-.61 1.39a16.14 16.14 0 01-1.7 2.89 44.09 44.09 0 00-2.89 5.62c-.18.51-.52 1-.69 1.54a26.16 26.16 0 00-1.36 3.23v.17c-.68.17-.85.85-1 1.19a18.63 18.63 0 00-.68 3.75v2.72c0 1.7-.17 3.41-.17 5.11v19.41c0 1.19-.17 2.38-.17 3.74v.86a22.78 22.78 0 00-.17 3.4v4.09a2.8 2.8 0 001.36 2.55 3 3 0 01.85.68c.17.17.34.34.51.34l.51.51a6.16 6.16 0 001.71 1.19 4.64 4.64 0 00-3.24.86 2.83 2.83 0 00-2.89-.17.17.17 0 00-.17.17 9 9 0 01-.51-1.2 20.13 20.13 0 00-1.71-4.25 12.61 12.61 0 01-1.36-3.75c-.17-.68-.17-1.19-.34-1.87a2.16 2.16 0 00-.17-1c-.17-.68-.17-1.19-.34-1.88v-1.19c.17-.17.51-.68-.68-10a8.66 8.66 0 00-.68-1.87c-.17-.35-.17-.52-.34-.69 0-.68-.17-1.53-.17-2.21v-1.19a4.71 4.71 0 00-.17-1.53 3.07 3.07 0 00-.85-2.22v-.34l.34-4.42c0-.68.17-1.37.17-2.22v-.68a10.45 10.45 0 01.17-2.38v-2.38a25.18 25.18 0 01.17-3.58 2.05 2.05 0 00-.51-1.53c-.17-.17-.17-.34-.17-.68a17.42 17.42 0 00-.86-2.9 1.29 1.29 0 00-.34-.68.59.59 0 00-.17-.34l-.17-.51-.51.17c-.85.17-.85 4.77-.85 6.3h-.68c-1.19-.34-4.26-.85-4.26-.85-.85-.17-1.7-.17-2.55-.34l-3.06-.51h-.51c-1.88-.34-3.75-.68-5.62-.85-.34 0-.68-.17-1-.17l-1.2-.35c-1.7-.51-3.23-.85-4.93-1.36-1.54-.51-3.07-1-4.77-1.53-1-.34-2-.85-3.24-1.36a30.65 30.65 0 00-3.57-1.36 19.66 19.66 0 01-2.89-1.2 9.14 9.14 0 00-2.56-.85 5.36 5.36 0 01-2.21-1 10.32 10.32 0 01-1.7-1.19l-1.54-1a10.39 10.39 0 00-2.38-1.19 9.8 9.8 0 01-3.92-2.22 9.9 9.9 0 00-3.23-1.7 2.36 2.36 0 00-1.53 0c-.34 0-.51 0-.68-.17a2.67 2.67 0 00-2-.34c-.34 0-.51.17-.85.17s-.68.17-1.19.17c-.51.17-.85.17-1.19.51a25.35 25.35 0 00-3.58 2.39l-2 1.53a10.33 10.33 0 00-2.72 2.72 20.94 20.94 0 01-2.39 2.9 18.86 18.86 0 00-2 2.72 29.57 29.57 0 01-1.87 3.06c-1.37 2-2.9 4.26-4.26 6.3-.85 1.2-1.87 2.56-2.72 3.75l-.34.34-1 1.53a13 13 0 00-1.36 1.87 10.25 10.25 0 00-.85 1.37l-.34.68c-.51.68-1 1.53-1.53 2.21a24.71 24.71 0 00-2.39 3.41c-.17.34-.51.68-.68 1a6.89 6.89 0 00-.85 1.53 47.51 47.51 0 00-2 4.6 27.66 27.66 0 01-1.87 3.91 21.13 21.13 0 00-1.88 3.41c0 .17-.17.34-.34.51a2.19 2.19 0 00-2.21 1.36 3.43 3.43 0 00-.51 1.87v1.37a8.28 8.28 0 01-.17 2c-.17.85-.34 1.7-.51 2.72l-.17 1.36v.17a5.09 5.09 0 00-.34 2.22v.68c0 .68.17 1 .51 1.19l.17.17a1.68 1.68 0 001.19.85 3.93 3.93 0 001 2c.17.17.17.34.34.51.17.34.51.68.68 1a.62.62 0 01.17.51c0 .17-.17.34-.34.51a4.85 4.85 0 00-1.19 1.36c0 .17-.17.17-.51.34-1 .51-1 .51-1.7-.34l-.51-.51-.68-.68a2.12 2.12 0 00-1.37-.68h-.17c-.68 0-1.36.17-2 .17l.17-.34c0-.17.17-.34.17-.68a2 2 0 00-.68-1.88.17.17 0 01-.17-.17 7.94 7.94 0 00-.51-2.89v-.51l.17-.51c.34-.68.51-1.36.85-2 0-.18.17-.18.17-.52a29.86 29.86 0 001-6.81c0-.85.17-1.53.17-2.38 0-.51.17-.85.17-1.36 0-.17.17-.34.17-.51l.34-.85a2.42 2.42 0 00.34-1v-.17a3.29 3.29 0 00.34-1.37 8.45 8.45 0 01.51-2.72c.18-.34.18-.68.35-1a4 4 0 011-1.53l.85-1a20.05 20.05 0 002.21-3.06 14.7 14.7 0 002.38-6.13c0-.51.18-.85.18-1.36l.17-.68a18.44 18.44 0 00-.17-6.81c0-.17-.18-.34-.18-.51a20.24 20.24 0 01.18-4.6 21.24 21.24 0 00.51-6.47v-2.89c0-.52-.17-1.2-.17-1.71a2.89 2.89 0 00-.17-1.19 11.09 11.09 0 01.34-4.08c0-.18.17-.35.17-.69a.62.62 0 01.17-.51l.17-.34c.17-.51.34-1.19.51-1.7a14.16 14.16 0 00.68-2.55c.17-1.37.34-2.9.51-4.6a7.51 7.51 0 011-2.72c.34-.69.68-1.54 1-2.39l.34-1c.51-1.7 1.19-3.4 1.53-5.11A9.7 9.7 0 0142 99.57l.17-.17a1.83 1.83 0 00.31-1.4 1.33 1.33 0 00-.17-1.71c-.34-.34-.68-1-1.53-1a4.28 4.28 0 01-1.2-.34c-1.36-.51-2.72-.85-3.91-1.19l-.51-.17c-.68-.17-1.37-.51-2-.68-.34-.17-.68-.17-1-.34l-1.19-.34c-.85-.34-1.53-.51-2.38-.85l-.85-.34a24.46 24.46 0 01-3.24-1.2 6.89 6.89 0 01-1.6-.84 13 13 0 01-1.9-1.35 17.71 17.71 0 00-3.75-2.38 8.83 8.83 0 01-2.55-2A10.05 10.05 0 0113 80.5l-.15-.5a15 15 0 01-.85-2.56 3.15 3.15 0 00-1.19-2 5.06 5.06 0 01-1.19-1.87A6.89 6.89 0 008.77 72a10.23 10.23 0 01-.85-2 10.81 10.81 0 00-1.2-3.57 4.71 4.71 0 01-.51-2.21v-2.79a9.94 9.94 0 00-.34-3.06 1.86 1.86 0 010-1.36A9.36 9.36 0 006 53.94v-.85a5.78 5.78 0 01.17-1.7V50.2h.68l.69.68a6.92 6.92 0 012.21 3.23l.17.34c0 .17.17.51.17.68a11.35 11.35 0 001 3.41l.17.51a8.29 8.29 0 01.51 1.19c.17.17.17.51.34.68.34.68.51 1.19.85 1.87 0 .17.17.34.17.51.17.35.17.52.34.69a3.43 3.43 0 01.52 1.87q.25 1.53.51 2.55c0 .17.17.51.17.68a.62.62 0 00.17.51v.17a2.46 2.46 0 00.34 1c.51 1 1 2.21 1.53 3.23l.17.34a3.72 3.72 0 01.51.85l.68.85a14.75 14.75 0 002.21 2.39 13.77 13.77 0 002.56 2l.17.17a7 7 0 001.87 1.19c.51.34 1.19.68 1.7 1a8.7 8.7 0 002.73 1.54 3.72 3.72 0 01.85.51 3.29 3.29 0 001.53.85 3.72 3.72 0 01.85.51 13.18 13.18 0 003.24 1.36A18.42 18.42 0 0139.07 89a4.18 4.18 0 001.87.68l.52.17a4 4 0 011.36.34c.34.17.85.17 1.19.52a10.09 10.09 0 011.36.68l.51.34a3.86 3.86 0 002.73.34l.85-.17c.51-.17 1-.17 1.53-.34.34 0 .51-.17.85-.17a9.22 9.22 0 003.58-.85 10.69 10.69 0 012.58-.68l.51-.17 2.49-.51c.35 0 .52-.17.86-.17l2-.17c2-.17 4.09-.17 6.3-.34 1.53 0 3.23-.17 4.94-.34a5.7 5.7 0 011.7 0c1 0 2.21.17 3.23.17 1.88.17 3.92.34 5.79.34 1 0 2.21.17 3.24.17.51 0 1.19.17 1.7.17a2.16 2.16 0 011 .17c.85 0 1.7.17 2.72.17H99a8.28 8.28 0 002-.17h.51A40.19 40.19 0 01106 89a5.24 5.24 0 011.7.17 3.68 3.68 0 001.37 0c.51 0 .85-.17 1.36-.17l.85-.17a9.58 9.58 0 002-.68l.51-.17c.51-.17.85-.51 1.37-.68a4 4 0 011.36-.34h2.38a10.14 10.14 0 003.24-.17c1-.34 2-.51 3.06-.85l.34-.17a4.45 4.45 0 002.21-1 5.31 5.31 0 012.22-1c.34 0 .51-.18.85-.18.68-.17 1.19-.17 1.87-.34a19.55 19.55 0 005.62-1.53 15.82 15.82 0 003.23-1.87l.34-.17L145 77.1a20.75 20.75 0 003.57-3.92l.17-.17a7 7 0 011 1.19 19.13 19.13 0 002.26 2.9.17.17 0 00.17.17 22.62 22.62 0 002.38 3.23c.51.51.85 1.19 1.37 1.7a2.35 2.35 0 00.51.68 1.32 1.32 0 001.36.34 1.08 1.08 0 001-.85c.17-.17.17-.34.34-.51h.17a1.54 1.54 0 001.87-1 3.72 3.72 0 01.51-.85l.51-1a2.46 2.46 0 00.34-1.19c.18-.86.18-1.88.35-2.73l-1.71-1.36v-.85c0-.51.17-1.19.17-1.7a24.19 24.19 0 012.56-8 5.17 5.17 0 01.85-1.19l.17-.17c.51-.51.51-.85.17-1.53a1.12 1.12 0 00.17-1c-.17-.34-.34-.68-.85-.68a1.92 1.92 0 00-1.36.17 7.42 7.42 0 00-1.88 1.36l-.51.51a14.87 14.87 0 00-1.36 1.7 9.18 9.18 0 00-1.7 3.92 3.15 3.15 0 01-.34 1.19v.34a9.64 9.64 0 00-.51 3.07 8.24 8.24 0 01-.51 3.06 3.74 3.74 0 00-.17 1.36 1 1 0 01-.17.68c-.18.68-.35 1.37-.52 1.88s-.17.85-.34 1.36v.17l-.68-.85c-.34-.51-.85-1.19-1.19-1.71-.34-.34-.51-.85-.85-1.19l-.68-.85c-.51-.68-1.19-1.53-1.7-2.21-.34-.51-.68-.85-1-1.36a2.38 2.38 0 01-.51-1.54 14.93 14.93 0 011.2-4.08 2.64 2.64 0 011-1.36 35.43 35.43 0 013.06-2.39l.34-.34c.85-.68 1.53-1.19 2.39-1.87a19.32 19.32 0 015.58-3.31 1.35 1.35 0 00.69-.34 5.82 5.82 0 013.06-.68 7 7 0 001.87-.17h.85a17.38 17.38 0 015.11.51 15.25 15.25 0 002.73.51 9.69 9.69 0 002.21.17.62.62 0 01.51.17.17.17 0 01.17.17 10.44 10.44 0 003.75 1.71c.17 0 .34 0 .34.17a3 3 0 001.19 2.38c.17.17.17.34.34.51s.17.34.34.51.34.51.68.68a10.65 10.65 0 002.89 1.71 4.08 4.08 0 011.88 1 6.89 6.89 0 001.53.85c.85.34 1.53.51 2.38.85l.51.17v.68a2.05 2.05 0 000 2.39c.17.17.17.34.34.51l.17.34a1.36 1.36 0 001.37.85h1.36c.68.17.51.85 0 1.36zm-65.55 69.29v2.56a1.53 1.53 0 01-.17.85.62.62 0 01-.17.51v.34c0 .34-.17.85-.17 1.19v.34a20.76 20.76 0 01-.17 3.24c0-.34-.17-.51-.17-.86l-.17-1-.51-3.57c0-.51-.17-1.19-.17-1.7a1 1 0 00-.17-.69c0-.34-.17-.51-.17-.85.68-.17 1.53-.17 2-.34zm-92.27 48.69a3.68 3.68 0 01-.86 1.37c0 .17-.17 0-.17 0h-.34a1.54 1.54 0 01-1.19-.51 1.29 1.29 0 00-.68-.34c-.17 0-.34-.17-.51-.17a2.42 2.42 0 00-1 .34l-.17.17c-.51-.17-.68-.51-.85-1a2.18 2.18 0 00-.68-1.7.62.62 0 01-.17-.51 42 42 0 00-.34-4.6 8.34 8.34 0 01.17-1.87l.17-.68c.34-1.19.51-2.55.85-3.75a30.8 30.8 0 011.53-5.27 7.18 7.18 0 01.85-1.54c.68-1 1.36-2 1.87-2.89a36.47 36.47 0 00-2.21 6.47l-.17.68c-.51 2-1 4.26-1.53 6.3l-.17.68c0 .34-.17.85-.17 1.19a6.49 6.49 0 000 2.56 2.17 2.17 0 00.85 1.19l1.53 1 .51.34a5.24 5.24 0 002 .85c.17 0 .17 0 .17.17.17.17.17.34.34.51.52.34.52.51.35 1zm11.06-44.77l1.7-2.56c1.37-1.87 2.56-3.74 3.75-5.61a17.67 17.67 0 001.36-2.39 9.57 9.57 0 011.7-2.38 34.07 34.07 0 002.39-3.07 5.86 5.86 0 012-2 36.49 36.49 0 01-2 4.77 18.54 18.54 0 01-1 1.87l-.17.51a25.13 25.13 0 01-2.73 4.77 29.57 29.57 0 00-1.87 3.06 11.5 11.5 0 01-1.19 1.88c-.17.34-.51.68-.68 1l-.51.68c-.17.17-.17.34-.34.51-.69 1-1.54 2-2.22 3.06-.68.86-1.19 1.54-1.87 2.39 0 .17-.17.17-.17.34l-1 1-2.56 2.55a24.56 24.56 0 00-1.91 2.06c1.7-2.73 7.15-11.92 7.32-12.43z"/><path class="cls-1" d="M181.74 61.94c-.17-.85-.85-1.19-1.87-1.19a1.29 1.29 0 00-.68.17h-.85c-.17 0-.68 0-.85.34a4 4 0 01-1.19 1.19 1.29 1.29 0 000 1.54 3.55 3.55 0 002.7 1.36h.17a4.43 4.43 0 002.73-1.19 1.15 1.15 0 000-1.71.72.72 0 01-.16-.51z"/></svg>