<svg width="51" height="52" fill="none" xmlns="http://www.w3.org/2000/svg"><path d="M12.148 35.412v-6.908a2.934 2.934 0 0 0-1.482-2.55l-.71-.404c-2.353-1.34-2.724-4.581-.733-6.417l2.028-1.87a4 4 0 0 1 2.104-1.013l11.927-1.833a4 4 0 0 1 1.515.058l13.679 3.185c.555.13 1.053.436 1.418.873l1.837 2.196c.702.838.106 2.114-.987 2.114-.758 0-1.352.652-1.282 1.407l.967 10.406a4 4 0 0 1-2.69 4.155l-14.12 4.822a4 4 0 0 1-3.2-.269l-8.178-4.436a4 4 0 0 1-2.093-3.516Z" fill="#FFE180"/><path d="M43.987 21.286c-.028-.15-.055-.312-.122-.447a1.168 1.168 0 0 0-.272-.366l-.054-.054c-.04-.028-.04-.028 0 .013-.04-.013-.081-.081-.095-.095-.027-.027-.067-.04-.108-.067-.38-.217-.65-.488-1.166-1.112-.257-.312-.352-.434-.501-.596-.108-.122-.217-.23-.325-.34-.109-.094-.57-.528-.76-.704-.135-.19-.677-.88-.894-.922l-.014-.013v-.027l-.094-.15-.014-.013-.325-.352a1.552 1.552 0 0 0-.488-.204c-.23-.054-.23-.054-.474-.095l-.136-.013h.108c-.122-.04-.149-.04-.257-.04h-.027l-.15-.041c-.121-.041-.216-.055-.42-.095a1.821 1.821 0 0 1-.325-.068c-.04-.013-.068-.027-.095-.04-.013 0-.027-.014-.04-.014-.014 0-.014-.014-.027-.014a.604.604 0 0 0-.15-.108c-.135-.082-.27-.15-.352-.136-.257-.04-.366-.068-.447-.081-.176-.081-.312-.109-.57-.163a.53.53 0 0 0-.243-.054.541.541 0 0 0-.258-.027.674.674 0 0 1-.217-.04l-.122-.041c-.04-.014-.081-.014-.176-.055-.136-.04-.203-.067-.23-.067-.299-.095-.57-.163-.922-.244a.962.962 0 0 0-.23-.054c-.068-.014-.082-.014-.177-.028a9.928 9.928 0 0 1-.569-.095 22.102 22.102 0 0 0-.542-.122 2.275 2.275 0 0 1-.19-.054c-.217-.068-.203-.068-.298-.081-.027 0-.054-.014-.122-.04-.136-.055-.203-.068-.258-.082a3.138 3.138 0 0 0-.352-.095 1.713 1.713 0 0 0-.325-.068l-.095-.013-.176-.027h.027c-.081-.014-.136-.027-.203-.027.013 0 .013 0 .027.013h-.055.041a.522.522 0 0 0-.257-.027c-.014 0-.055-.014-.244-.054-.082-.014-.136-.027-.258-.04-.135-.028-.203-.041-.257-.041-.095-.014-.15-.028-.271-.041-.055 0-.095-.014-.122-.014a.562.562 0 0 0-.217-.04c-.068-.014-.082-.014-.095-.014l-.176-.027c-.027 0-.122-.014-.136-.014l-.149-.067a1.227 1.227 0 0 0-.258-.055c-.054-.013-.08-.013-.108-.013-.407-.095-.407-.095-.718-.163a2.05 2.05 0 0 0-.515-.162c-.204-.055-.38-.109-.773-.204l-.258-.122a.851.851 0 0 0-.704 0 1.234 1.234 0 0 1-.217.082c-.068.013-.136.04-.312.08-.04.014-.054.014-.149.042-.108.027-.176.04-.203.054-.082.027-.15.04-.285.081a1.46 1.46 0 0 1-.257.068h-.041c-.108.04-.203.054-.42.108a2.887 2.887 0 0 0-.488.136c-.109.04-.23.068-.434.108-.298.068-.393.095-.556.136-.108.04-.203.054-.42.108a2.584 2.584 0 0 0-.447.122c-.352.082-.529.122-.759.23h.014c-.014 0-.028 0-.041.014.013 0 .013-.013.027-.013h-.027c-.65.027-.935.054-1.301.149-.068.013-.122.027-.19.027-.054 0-.108.013-.244.013h-.122a2.998 2.998 0 0 0-.8.163h-.054a2.099 2.099 0 0 0-.705.04c-.298.055-.352.055-.474.069-.15.013-.285.027-.42.013a5.26 5.26 0 0 0-1.437.15c-.095 0-.149.013-.271.04-.054.013-.068.013-.081.013-.095 0-.163.014-.271.041-.041.014-.041.014-.15.027-.08.027-.149.04-.284.081-.122.041-.176.055-.285.082-.04.013-.068.013-.149.04-.122.027-.176.041-.311.082-.014 0-.028.013-.028.013-.013 0-.04 0-.095.014l-.393.013a.737.737 0 0 0-.298.068l-.04.027a.934.934 0 0 0-.312.299c-.027.027-.04.067-.054.094a.642.642 0 0 0-.082.204c-.406.23-.745.488-1.03.813a4.769 4.769 0 0 1-.447.46c-.217.014-.827.651-.976.828a51.05 51.05 0 0 1-.813.623 3.73 3.73 0 0 0-.353.298c-.162.15-.27.258-.555.542-.57.57-.854.814-1.26 1.003a.408.408 0 0 0-.11.055c-.026.013-.067.067-.108.08.041-.026.041-.04 0 0-.027.014-.04.028-.054.041a1.24 1.24 0 0 0-.312.34 2.377 2.377 0 0 0-.162.433c-.04.163-.122.325-.109.488.014.217.163.42.326.583 0 0 .04.027.054.04.081.068.149.122.23.177.122.08.244.162.393.216.15.055.312.095.461.15.027.013.04.013.068.013.312.176.623.312.99.515.162.122.46.352.596.434.19.108.61.284.772.325.8.38 1.505.596 2.372.813.122.068.23.122.325.163 0 .23.014.488.028.813v.04c.013.313.027.557.067 1.126.014.285.027.407.027.556.041.677.055 1.179.068 1.68l.04.827c.028.57.028.827.014 1.193v.203c-.013.15-.013.23 0 .339v.528c0 .814-.013 1.166-.013 1.505-.014.122-.014.203-.027.38 0 .148-.014.216-.027.392v.028c-.027.38.135.69.474.921a.51.51 0 0 0 .163.136l.013.013c.109.095.177.15.312.217.081.04.163.081.271.15.15.094.23.148.312.189.298.176.501.298.691.352.339.15.488.217.637.299.068.04.122.067.258.162.162.109.23.15.311.19.055.04.326.19.393.244.014 0 .095.081.095.081s.204.095.244.109c.055.04.23.135.298.19 0 0 .19.108.19.121l.176.15.177.108c.094.054.094.054.203.122.406.23.745.434 1.098.691.108.081.23.163.393.258.067.04 1.816.488 3.24 1.396.216.135.541.149.92.447.069.054 1.64.42 1.64.42.963-.081 1.126-.596 2.17-.745.094-.027.257-.095.297-.109.122-.04.448-.217.448-.217.04-.013.325-.067.393-.08h.013c.095 0 .15-.014.258-.055h-.014c.177-.014.353-.081.448-.136.162-.067 1.274-.298 1.64-.366 0 0 .149-.054.176-.054.068-.013.108-.027.163-.04.04-.014.108-.041.067-.028l.163-.04.8-.23c-.027.013.677-.096.786-.136.04-.014.162-.068.257-.109.095-.027.15-.04.15-.054.487-.19.826-.312 1.178-.406.407-.122.665-.23.868-.34a6.47 6.47 0 0 1 1.044-.379 8.909 8.909 0 0 0 1.138-.393c.068-.027.108-.04.19-.081.068-.027.081-.04.081-.04.095-.028.42-.177.46-.177l.069-.027c.054-.027.352-.163.433-.19.15-.068.272-.108.38-.149l.108-.054c.014-.014.041-.014.082-.027a.953.953 0 0 1 .19-.04c.27-.028.528-.123.853-.272.312-.136.353-.176.65-.23.489-.217 1.343-.665 1.343-.719.352-.162.217-.556.176-.759l-.014-.217c-.027-.501-.027-.759-.027-1.016a.697.697 0 0 0 .027-.15v-.04c.027-.095.041-.176.027-.257.014-.448 0-.773-.027-1.397l-.054-1.151c-.04-.19-.054-.366-.068-.746v-.04c-.027-.556-.04-.814-.095-1.14-.013-.121-.027-.203-.054-.42a9.306 9.306 0 0 0-.068-.5c-.013-.096-.027-.177-.054-.394-.027-.244-.04-.339-.054-.447a7.462 7.462 0 0 1-.04-1.586L40.258 25l-.081-.068c-.014-.108-.014-.244-.04-.447v-.041c-.014-.23-.028-.366-.041-.502l.013-.027v-.203a63.235 63.235 0 0 0-.054-1.68l.244.04c.163.04.61.136.827.15.162.013.542-.028.745-.042.42.028.746.082 1.112.095.013.014.04.014.067.027.15.028.285.082.42.109 0 .013.014.013.028.027.013 0 .013-.014.027-.014.04.014.081.014.108.014 0-.027-.013-.054-.013-.081.013-.014.027-.014.04-.027.014-.027.054-.041.054-.041.19-.15.353-.325.38-.542-.014-.122-.068-.298-.108-.461Zm-18.393-4.812a15.23 15.23 0 0 0 .068-1.924.135.135 0 0 0 .054.013c.122.041.203.055.393.095.163.027.23.054.353.082.081.013.135.027.257.04.054 0 .081.014.081.014l.177.027h-.027c.067.013.108.027.149.027.04.013.081.013.149.027.054.014.067.014.135.027.23.054.23.054.502.095.854.136 1.084.325 1.572.393-.081-.013.38.082.488.095.176.04.312.068.42.108.19.068.325.095.583.15l.23.04c.353.122.719.176 1.356.258.081 0 .19.013.406.04.122.027.217.055.434.109.244.068.352.095.502.122.054.013.094.027.203.04l.217.055.244.054.176.054.176.054.095.014c.136.068.244.122.366.163-.393.108-.76.23-1.07.366-.313.108-.57.176-.868.216l-.407.055c-.23.027-.339.04-.407.054-.108 0-.176.013-.325.04-.108.014-.149.027-.298.041-.068.014-.922.217-.976.244l-.732.203c-.013.027-.04.041-.081.055-.502.203-.935.528-1.437.69-.528.177-1.098.15-1.64.245h-.054l-.108.054-.881.203c-.027 0-.15.082-.326.163-.013-.15-.027-.325-.04-.434-.014-.095-.014-.135-.027-.162l-.041-1.573c.013-.013-.04-.637-.04-.732Zm-13.39 7.712c-.123-.19-.963-.433-1.194-.474-.23-.108-.813-.366-.935-.434-.135-.067-.284-.122-.433-.176-.204-.081-.353-.122-.746-.244-.637-.19-.99-.325-1.288-.515a.33.33 0 0 0-.284-.163H7.31c-.013 0-.027-.013-.04-.013-.014-.014-.027-.014-.055-.027-.067-.04-.135-.095-.203-.15a2.061 2.061 0 0 0-.217-.148c-.04-.027-.095-.054-.135-.082-.014-.013-.04-.013-.054-.027.054.027 0 0-.028-.027-.054-.04-.122-.068-.19-.095h-.013a.102.102 0 0 0-.054-.027l-.122-.081s-.014 0-.014-.014l-.054-.054c-.013-.013-.027-.027-.027-.04a.186.186 0 0 1-.04-.055c.054-.027.108-.054.148-.081.177-.122.529-.407.651-.529.718-.528 1.233-1.057 1.83-1.721.664-.46.867-.637 1.193-1.017.135-.149.393-.338.569-.474.013-.04.04-.081.054-.122v.014c.515-.407.502-.543.867-.38 0-.068.353.095.84.447.014 0 .041.014.055.014.054.027.244.136.285.163a2.898 2.898 0 0 0 .433.19l.014.013a6.827 6.827 0 0 0 1.694.65c.04.014.081.028.15.041.053.027.094.04.203.095l.121.054h.041l.664.298.054.027-.054-.027.163.068c.312.136.65.312.949.488.095.054.176.095.338.163.136.068.19.095.258.122l.366.135s1.83.827 1.911.854c.081.04.163.068.19.082.027.013.04.013.068.027.19.095.352.162.69.257.014 0 .028.014.041.014.068.027.15.054.271.095.109.027.15.04.23.08.028.014.055.014.069.028.027.014.04.014.067.027 0 0 .095.068.177.163-.312.19-.57.42-.8.677a4.747 4.747 0 0 1-.447.461c-.217.014-.827.65-.976.827a50.19 50.19 0 0 1-.813.623c-.122.095-.244.19-.353.299-.162.149-.27.257-.555.542-.556.57-.854.813-1.247.99-.055-.028-.095-.055-.15-.082-.135-.068-.27-.108-.406-.163a1.938 1.938 0 0 0-.38-.095 1.19 1.19 0 0 0-.23-.027h-.136c-.067-.013-.149-.095-.23-.135-.068-.04-.136-.068-.203-.109-.624-.542-1.207-.88-1.87-1.043a7.857 7.857 0 0 1-.665-.177ZM22.34 39.434l-.122-.08c-.19-.123-.772-.502-.854-.557-.311-.203-4.201-1.87-4.201-1.87h-.027a3.219 3.219 0 0 0-.204-.081 3.255 3.255 0 0 1-.393-.204c-.081-.054-.135-.095-.284-.19-.122-.08-.177-.108-.217-.135a6.957 6.957 0 0 0-.827-.502c-.04-.013-.081-.04-.19-.108-.108-.068-.176-.095-.244-.135-.257-.163-.474-.272-1.003-.516l-.149-.054a6.77 6.77 0 0 1-.352-.162c-.244-.163-.244-.163-.474-.34-.068-.053-.122-.08-.23-.148v-.014c0-.054.013-.122.013-.176 0-.122 0-.217-.014-.407l-.013-.325c.027-.122.027-.23.013-.434a8.004 8.004 0 0 1-.013-.962c.027-.217.027-.38.013-.745v-.082c.014-.081.014-.122.014-.176.027-.135.027-.257.027-.46l-.04-.8c0-.136-.014-.244 0-.502 0-.284 0-.406-.014-.57l-.109-2.317c0-.095-.013-.149-.027-.312 0-.054-.014-.094-.014-.135.055.04.095.081.136.108.176.122.38.23.583.312.149.054.298.122.434.203.149.082.325.122.46.217.271.204.556.393.814.61.067.068.162.095.244.15.067.053.121.121.19.175.094.068.094.055.162.109.04.027.068.04.108.068.122.067.204.095.271.149.095.04.23-.014.34-.082-.014.027.175-.135.175-.108.434-.244.285-.217.746-.515.19-.081.529-.244.664-.325a6.85 6.85 0 0 0 .65-.529c.719-.529 1.234-1.057 1.83-1.721.665-.461.868-.637 1.193-1.017.136-.149.393-.339.57-.474.013-.027.027-.04.027-.068.04.393.108.786.176 1.18.013.094.013.718.013.745 0 .027.095 1.572.095 1.572 0 .027 0 .068-.013.163-.014.149-.014.433-.014.582-.014.19-.014.271 0 .366 0 .055-.014.448-.014.556 0-.014 0 0-.013.04-.014.11-.014.34-.027.407-.014.136.027 1.058.027 1.085-.014.108.095 2.263.095 2.263l-.014.366c-.013.15-.013.271-.013.542 0 .23 0 .339-.014.515v.04s0 .326-.013.367c-.014.04-.041.27-.027.325 0 .054-.014.258-.014.258v.135s-.04.881-.027 1.193v.203c-.014.136-.014.19-.014.258v.027c-.027.528-.027.8.014 1.07v.041l.013.298c0 .109.014.177.041.299.014.08.014.108.027.19.04.406.068.758.054 1.151Zm.95-19.097h-.055c-.014 0-.678-.474-1.07-.528-.028-.014-.041-.014-.069-.027h-.027l-.555-.204c-.177-.054-.177-.054-.42-.122a1.68 1.68 0 0 1-.217-.054c-.068-.027-.136-.04-.271-.095l-.041-.013c-.014 0-.04-.014-.109-.041-.108-.054-.176-.081-.176-.068l-.122-.068c-.095-.04-.176-.08-.217-.095a60.982 60.982 0 0 1-2.006-.921 6.088 6.088 0 0 0-.976-.502c-.393-.176-.393-.176-.867-.393a6.908 6.908 0 0 0-.705-.298c-.19-.068-.338-.122-.65-.217-.122-.054-.461-.176-.488-.19-.163-.067-.285-.121-.353-.149-.108-.067-.216-.122-.325-.19.298-.053.556-.094.813-.108.204.04.393.027.529-.04a2.67 2.67 0 0 1 .203-.041c.068 0 .122-.014.258-.014l.42-.027a2.02 2.02 0 0 0 .759-.19c.285-.108.407-.149.542-.149h.081c.271-.013.448-.04.814-.121.46-.095.501-.095.704-.109h.014c.027.014.054.027.068.04l.894.041c.57-.325 1.247-.406 1.898-.501l-.054-.04c.122-.042.257-.082.393-.136a4.17 4.17 0 0 1 .894-.258c.04-.013.054-.013.15-.04.067-.014.121-.028.175-.041.068-.014.122-.014.204-.04.067-.014.081-.014.095-.014.095 0 .149-.014.257-.055h-.013.04l.217-.013c0 .027 0 .054.014.081l.013.027s-.095 1.342-.067 1.586v.57s.067.718.067.758l-.04.244c0 .082-.014.542 0 .692 0 .027 0 .487-.014.501 0 .15.04.705.095 1.328-.434.15-.664.244-.705.244Zm15.708 13.567v.312c0 .19-.014.285 0 .407l.013.163-.19.054h-.013c-.108.027-.108.027-.258.081l-1.233.407c-.217.08-.976.325-.976.325l-.027.014c-.068.027-.42.162-.46.19-.055.026-.11.053-.245.094a1.72 1.72 0 0 0-.352.15 4.576 4.576 0 0 1-.637.243c-.203.068-.271.095-.366.122-.095.027-.163.054-.312.108-.122.041-.488.177-.488.177-.027.013-.081.04-.162.068-.217.08-.23.08-.312.121-.122.055-.23.095-.38.15-.42.176-.84.338-1.26.501-1.22.217-2.426.637-3.605.976-1.437.407-2.29.542-3.7 1.03l-.068-1.464c0-.081-.014-.108-.04-.244-.014-.04-.055-.257-.055-.257 0-.014-.014-.095-.014-.176l-.013-.312c-.014-.339.054-1.68.054-1.762v-.027l.027-.326v-.013l.027-.407v-.772c0-.055.014.095.014-.027a1.518 1.518 0 0 0 0-.353c0-.027.04-.501.04-.57v-.23c0-.04.014-.42.014-.514v-.394c0-.067.014-.135.014-.216.013-.109.013-.109.013-.258l.014-.42c0-.027.04-.258.04-.312a2.28 2.28 0 0 0 .014-.542c-.014-.217-.04-3.117-.054-3.483a5.946 5.946 0 0 1-.055-.488c0-.15-.054-.597-.054-.678-.013-.081-.04-.163-.054-.244-.013-.04 0-.759 0-.759l-.04-.57c0-.243-.204-1.571-.204-1.571v-.217a2.734 2.734 0 0 0-.054-.353c-.027-.095 1.423-.488 1.545-.501.054 0 1.125-.203 1.125-.203.217-.055.542-.19 1.464-.38.067-.013.69-.163.704-.176.041-.014.068-.014.163-.04.136-.028.203-.041.339-.082 0 0 .027-.014.095-.014.135-.027.203-.04.366-.108-.014.014-.014.014 0 0 .095-.027.149-.054.203-.081.163-.082.298-.122.65-.217.096-.027.163-.04.218-.054l.311-.068c.027 0 .055-.014.082-.027.013 0 .013 0 .095-.014 0 0 .894-.271 1.287-.339.081-.013.15-.027.298-.054.19-.027.271-.04.298-.054.082 0 .15-.014.272-.04.067-.014.094-.014.108-.014 0 0 .65-.068.745-.095l.57-.204c.284-.108.284-.108.596-.216a4.875 4.875 0 0 1 1.41-.393c.325-.068.637-.177.976-.34.216-.121.46-.23.704-.311.068.515.122 1.044.177 1.586.013.217.013.393.027.786.013.46.013.65.027.894.04.868.04 1.56.027 3.185.013.109.027.217.04.366.014.095.014.095.027.204l.068.528v.082c-.013.19-.013.257 0 .352v.04c-.013.069-.013.123-.013.177a1.19 1.19 0 0 0-.027.23v.177c-.014.515 0 .908.054 1.233l.027.434c0 .108.014.176.04.298.014.081.014.108.028.23.054.285.095.488.095.65 0 .082.013.123.04.285.014.082.014.122.027.15.014.162.014.284.041.555.027.244.04.353.04.475l.055 1.111c.013.244.013.352.013.474 0 .177 0 .312-.013.515l.027.515v.34c-.054.203-.054.297-.054.42Zm2.507-13.147c-.352 0-.718-.08-1.355-.257-.068-.027-.136-.04-.19-.054l-.04-.543c-.014-.392-.014-.704-.028-.975.461.61.895 1.111 1.478 1.626.04.04.108.122.176.203h-.04ZM42.413 8.016c-.104.149-.228.424-.435.598-.986.835-1.989 1.652-3 2.456-.384.304-.805.56-1.219.822-.191.121-.4.233-.615.291-.11.03-.308-.034-.363-.122-.06-.094-.016-.27.018-.402.02-.074.105-.141.174-.188 1.132-.738 1.827-1.925 2.81-2.812.509-.46 1.087-.852 1.67-1.213.365-.226.921.073.96.57ZM32.451 7.659c-.029-.3-.112-.607-.078-.9.191-1.687.962-3.086 2.163-4.241.434-.418.78-.295.878.297.046.272.044.6-.064.844-.28.63-.628 1.233-.957 1.841-.233.432-.438.892-.735 1.274-.274.352-.656.62-.99.923-.071-.011-.145-.025-.217-.038ZM20.128 5.6c-.627-.114-.797-.548-.985-.924-.593-1.197-1.156-2.409-1.729-3.617-.157-.332-.246-.682.096-.944.316-.242.81-.092.984.356.59 1.514 1.143 3.045 1.692 4.577.05.135-.03.317-.058.552ZM15.205 9.144c-.142-.081-.307-.138-.423-.249-1.138-1.064-2.276-2.127-3.393-3.212a8.246 8.246 0 0 1-.94-1.132c-.099-.137-.146-.491-.083-.531.167-.105.41-.138.615-.115.152.02.322.143.427.268a729.648 729.648 0 0 1 3.649 4.405c.106.129.177.287.264.432l-.116.134ZM26.966 5.182c-.057-.25-.135-.458-.146-.67-.059-1.22-.098-2.441-.15-3.66-.01-.292.06-.584.373-.572.208.008.503.187.59.372.142.304.182.672.205 1.017.045.638.06 1.28.063 1.919.002.813-.072.925-.935 1.594ZM10.233 13.514c-.473.167-.808-.043-1.105-.237-.92-.598-1.815-1.235-2.723-1.851-.304-.207-.453-.456-.235-.806.177-.285.511-.338.827-.08 1.008.825 2 1.668 2.989 2.517.11.097.152.275.247.457Z" fill="#1E5D8A"/></svg>