<svg width="67" height="15" fill="none" xmlns="http://www.w3.org/2000/svg"><path d="M59.317 4.413c-.079-.851-.874-1.339-1.666-1.485-.387-.071-1.1-.224-1.44.052h-.026c-.253.07-.486.2-.68.375a1.636 1.636 0 0 0-.277 2.12c.217.372.541.672.93.864.39.192.829.267 1.261.215 1.01-.166 1.65-.705 1.793-1.52.03-.145.035-.293.016-.44a.281.281 0 0 0 .09-.181Zm-1.32 1.468c-.91.49-1.832.25-2.31-.6a1.652 1.652 0 0 1-.145-.975c.105-.472.201-.878 1.079-1.073.395.016.786.084 1.161.205.373.108.696.337.918.65-.086-.04.545 1.11-.703 1.793ZM45.126 6.56c.129-.03.228-.162.33-.25-.119-.107-.26-.325-.33-.305-.769.172-1.584.276-2.27.623a.735.735 0 0 0-.324.291.719.719 0 0 0 .06.822c.093.115.22.2.363.242.76.228 1.54.384 2.33.465.099 0 .227-.15.33-.23-.09-.111-.162-.28-.274-.326-.274-.084-.571-.094-.852-.153-.445-.09-.888-.198-1.32-.302 0-.087 0-.178-.016-.266.232-.145.479-.268.735-.367.41-.1.835-.137 1.238-.244ZM32.515 6.264a8.047 8.047 0 0 0-1.733.767c-.508.348-.416.975.182 1.111 1.06.214 2.133.368 3.211.462.096 0 .215-.176.33-.267-.109-.094-.208-.247-.33-.266-.482-.075-.974-.098-1.455-.166-.482-.068-1.01-.172-1.515-.26l-.023-.24 1.98-.926c-.33-.114-.525-.244-.647-.215Z" fill="#A07761"/><path d="M66.908 4.533a1.494 1.494 0 0 0-.398-.56 1.525 1.525 0 0 0-.609-.327c0-.715-.574-.975-1.01-1.12a24.969 24.969 0 0 0-6.6-1.255 401.205 401.205 0 0 0-4.743-.16c-2.874-.084-5.845-.171-8.765-.373L44.38.71c-7.284-.5-14.502.35-20.607 1.25-.677.102-1.35.209-2.026.326-2.337.373-4.756.763-7.182.75-3.56-.02-7.67-.22-11.317-2.345A6.161 6.161 0 0 0 1.671.124L1.522.085C1.072.005.612-.018.156.014h-.05l-.03.039c-.488.734 1.51 2.83 1.529 2.849A10.54 10.54 0 0 0 6.077 5.56c.27.128.528.275.775.441a9.932 9.932 0 0 0-3.848 5.133c-.138.442-.406 1.537.112 2.151l.05.04h.112c.403.028.885-.222 1.43-.738l.042-.04c.66-.617 1.456-1.38 2.149-1.949 1.729-1.455 3.511-2.215 5.439-2.326 1.504-.084 3.118-.042 4.712.848A33.507 33.507 0 0 0 22 11.264c1.733.62 3.525 1.177 5.258 1.713l1.795.558.208.069c.484.171.984.296 1.492.373 2.31.28 4.561.526 6.716.731 6.561.627 12.403.247 17.894-1.17.782-.373 1.575-.773 2.27-1.127l.512-.37.103-.075.026-.023c.18-.285.41-.537.68-.744.13-.07.243-.17.33-.289 2.109-1 4.551-2.251 6.703-3.957.237-.182.442-.402.607-.65a1.934 1.934 0 0 0 .314-1.77ZM7.582 6.483c.139-.078.285-.144.435-.196a.483.483 0 0 0 .21-.735.478.478 0 0 0-.236-.168h-.026c-.261-.084-.604-.192-.74-.253V5.1L7.12 5.07c-1.911-.63-4.743-2.6-6.307-4.36A.651.651 0 0 1 .74.615l.106.042c.181.094.33.176.419.208.95.422 1.98.87 3.007 1.274.264.1.528.207.792.324.842.376 1.72.67 2.62.88a31.69 31.69 0 0 0 9.57.45c2.271-.238 4.565-.589 6.783-.923l2.03-.306c4.165-.614 8.25-1.16 12.293-1.085 6.68.12 13.469.435 20.033.74l.696.033c1.995.113 3.959.542 5.815 1.27-.112.41-.158.624-.052.787.105.162.36.22.782.292a.728.728 0 0 1 .525.276.548.548 0 0 1 0 .481c-.116.374-.332.71-.624.975a21.49 21.49 0 0 1-2.541 1.78c-1.09.63-2.218 1.235-3.3 1.82l-.99.535a9.096 9.096 0 0 0-2.229 1.238c-.755.507-1.534 1.037-2.24 1.228a36.541 36.541 0 0 1-10.04 1.147c-2.769-.023-5.58-.22-8.303-.406l-2.241-.15a18.52 18.52 0 0 1-5.248-1.127c-.765-.289-1.676-.62-2.604-.9-.468-.14-.937-.273-1.402-.406-2.073-.594-4.218-1.205-6.142-2.297a10.45 10.45 0 0 0-2.459-1.082c-1.98-.52-4.112-.324-6.491.566-1.76.65-3.1 1.9-4.396 3.096-.264.243-.529.487-.796.724-.122.101-.452.27-.528.221 0 0-.043-.078 0-.28a9.556 9.556 0 0 1 3.987-5.564l.01.006Z" fill="#A07761"/><path d="M37.753 5.027c.31-.045.623-.072.937-.081-.41-.576-1.455-.605-2.063-.147-.501.377-.534.975.027 1.219a8.09 8.09 0 0 0 1.841.464c.123.023.281-.13.42-.201v-.182l-1.98-.585.02-.218a5.94 5.94 0 0 1 .798-.27ZM37.68 9.78c-.3.484-.174.948.39 1.075.611.109 1.23.168 1.852.179.138 0 .287-.117.429-.18v-.197l-2.073-.416-.053-.192 1.452-.79c-.6-.376-1.617-.1-1.996.52ZM54 3.01a.526.526 0 0 0-.412.051.927.927 0 0 0-.267.442c-.44 1.491.105 2.807.703 4.11l.24-.026a9.785 9.785 0 0 0-.168-1.3c-.254-.974-.475-1.949-.03-2.953.04-.081-.013-.312-.066-.325ZM51.232 7.86c-.512-.117-1.687.429-1.895.903a.776.776 0 0 0 0 .607c.304.553 1.73.696 2.386.13l-1.722-.4-.03-.19 1.65-.768c-.171-.12-.267-.246-.39-.282ZM18.889 5.852a.814.814 0 0 0 0 .65c.36.581 2.218.79 2.917.234l-2.491-.537 1.237-.825c-.683-.198-1.462.026-1.663.478ZM49.578 3.734c-.48.166-.94.384-1.37.65-.564.38-.66.883-.33 1.299a1.336 1.336 0 0 0 1.762.188l-1.26-.558a7.137 7.137 0 0 0-.073-.25c.485-.277.97-.546 1.445-.839.108-.094.2-.203.274-.325-.155-.068-.336-.208-.448-.165ZM33.05 10.114a3.107 3.107 0 0 0-.954.198c-.205.117-.446.481-.396.65a1.022 1.022 0 0 0 .63.566c.491.13.997.204 1.505.217.233-.034.457-.11.66-.227l-.033-.237-2.138-.38.808-.498-.082-.289ZM25.36 5.849c0-.049-.211-.176-.244-.153-.465.254-.891.57-1.267.939-.258.325.03.65.392.822.594.28 1.35.201 1.703-.253l-1.547-.384c.28-.181.552-.378.811-.588a.615.615 0 0 0 .152-.383ZM28.515 4.575c-.524.24-.643.773-.217 1.027a2.165 2.165 0 0 0 1.755.182l.05-.263-1.34-.368V4.96l1.937-.27c-.726-.228-1.452-.445-2.184-.114ZM56.036 4.61c.102.319.281.607.521.842a.847.847 0 0 0 .6.29.86.86 0 0 0 .628-.228c.26-.244.452-.439.479-.65.099-.74-.479-1.072-1.211-1.117-.654-.062-1.149.237-1.017.864ZM27.433 9.325c.248.373 1.139.325 1.535-.055l-.61-.325.53-.4-.111-.283a9.36 9.36 0 0 0-1.284.455c-.106.059-.152.468-.06.608Z" fill="#A07761"/></svg>