<svg fill="none" height="24" viewBox="0 0 24 24" width="24" xmlns="http://www.w3.org/2000/svg"><g fill="#1e5d8a" stroke="#1e5d8a" stroke-width=".5"><path d="m18.0429 16.061c-.3369-.4181-.7142-.7814-1.0511-1.1893-.4346-.5278-.849-1.0728-1.2667-1.6143-.1179-.1542-.2089-.3427-.3369-.4798-.539-.6615-1.1252-1.2887-1.6204-1.9811-.4953-.6923-1.1657-1.20298-1.7316-1.81991-.2325-.25705-.5222-.4627-.7513-.72318-.1811-.18067-.3104-.40819-.3739-.65806-.0976-.65552-.1415-1.31813-.1314-1.98104.0269-1.07963.2324-2.11813.9534-2.98526.201-.26871.3653-.56386.4885-.87741.1549-.34274.0539-.51754-.3369-.56895-.4919-.07198-.9905-.10968-1.4857-.17823-.0441-.007302-.0891-.005626-.1325.00493-.0434.01056-.0843.02979-.1204.05658-.036.02679-.0665.0606-.0896.09946-.0231.03887-.0384.08201-.0449.12693-.0775.30162-.13814.60665-.20888.91169-.12128.54839-.23919 1.09334-.37058 1.63487-.03691.23626-.10372.46667-.19876.68548-.21224.40101-.92644 2.30321-.9635 2.41974-.1617.53468-.33688 1.06593-.44806 1.61088-.23919 1.15846.59966 4.53788.79506 5.04858.20171.5524.27213 1.1455.2055 1.7308-.02359.3093-.09997.612-.22572.8946-.14149.3084-.22571.2776-.48511.0445-.57271-.5175-1.16226-1.0282-1.74508-1.5252-.09437-.0657-.18338-.139-.26614-.2193-.19994-.2301-.44292-.4175-.71477-.551-.27185-.1336-.56712-.2108-.86859-.227-.40984-.0198-.81698-.0783-1.21616-.1748-.53725-.1279-1.09135-.1661-1.64064-.1131-.49185 0-.63671.185-.64345.6854-.02216.1281-.02216.2592 0 .3873.06064.1611.14486.3702.27288.4319.64682.305 1.31385.5689 1.97415.8397.47164.1919.98371.3256 1.31386.7677.33015.4422.7243.9803 1.08477 1.4704.7681 1.0453 1.5261 2.0976 2.30094 3.1326.50146.6657 1.18994 1.1605 1.97415 1.419 1.01523.3198 2.07883.4509 3.13983.3873h.8624c.6583-.0218 1.2991-.2218 1.8562-.5793.4211-.2742.8086-.5998 1.2431-.8465 1.1084-.6272 1.7451-1.5252 1.7619-2.8516.0617-.9453-.2067-1.8824-.7579-2.646zm.3941 2.8825c-.0266.4262-.1593.8386-.3856 1.1983s-.5387.655-.908.8581c-.7041.3907-1.3476.8877-2.0416 1.3127-.203.1293-.4346.2047-.6737.2194-1.0376.0239-2.082.0651-3.1129 0-.9677-.0709-1.88324-.4732-2.59736-1.1414-.42434-.4508-.80666-.9408-1.14204-1.4635-.3032-.4147-.5626-.8225-.83885-1.2201-.54576-.7369-1.10499-1.467-1.65748-2.2004-.27423-.3809-.6493-.6745-1.08141-.8466-.79505-.3153-1.57999-.6615-2.3582-.9836-.2594-.0892-.29309-.2571-.29309-.4662-.00324-.047.00307-.0941.01854-.1385.01548-.0444.03978-.0851.07139-.1195s.06986-.0618.11234-.0805c.04249-.0187.08832-.0283.13461-.0282.30438-.0467.61317-.0559.9197-.0274.77147.1062 1.54631.2262 2.30431.3976.27954.0885.53775.2356.75799.4318.61987.4798 1.23301.9768 1.82929 1.4875.168.1756.31604.3699.44133.5792.0728.0466.14816.089.22571.1268.13381.0507.27975.0578.41774.0206.08856-.0182.16894-.0651.22908-.1337.10107-.1953.19539-.3907.27625-.5895l.02021-.0891c.03094-.1423.05233-.2866.06401-.4318.19202-1.4293-.36384-2.6391-.51207-3.2149-.09769-.3771-.30656-1.6075-.37057-1.8303-.67378-1.76851 1.11846-5.48381 1.37786-6.05275.12212-.3717.20568-.75537.2493-1.14475.12131-.53125.23581-1.06593.37391-1.59032.0977-.36673.1651-.38729.5256-.34274.2156.02742.4312.03428.6502.04799.384.02399.4615.1508.2728.49697-.1011.18138-.2208.3514-.3571.50725-.5794.698-.9095 1.57505-.9365 2.4883-.0505.61007 0 1.227-.0168 1.84051-.0184.39882.0602.79611.2288 1.15662.1687.36052.4222.67312.738.9101.0318.02207.0621.04611.091.07197.5727.56895 1.169 1.12075 1.708 1.71375.5895.6512 1.1387 1.3401 1.6844 2.0324.3874.5038.721 1.0488 1.0882 1.5663.1554.2067.323.4036.5019.5895.3369.3805.7176.7438 1.0612 1.1311.3559.3933.622.8618.7792 1.372.1572.5101.2018 1.0493.1304 1.579z"/><path d="m22.3251 9.86829.6749-.177c-.3195-.37368-.3354-.36806-.8666-.20229-.5311.16576-.9704.295-1.4416.43268l-.5911.17702-.0599.014c-.0248.0049-.0488.0115-.0718.0197-.0679.0281-.1119.0646-.1119.0955.0034.0214.0138.042.0304.06.0166.0181.0391.0331.0655.044.0864.051.1918.0834.3037.0934s.2255-.003.3273-.0372c.559-.1827 1.1421-.3484 1.7411-.51981z"/><path d="m18.46 8.10977 1.0285-1.25997.3686-.46318c-.5124-.22673-.5197-.21377-.822.17814-.3023.39192-.5493.70611-.822 1.04296l-.3429.42755-.0368.03887-.0406.05182c-.0153.02026-.0253.04331-.0291.06742-.0039.02411-.0015.04868.007.07186.0172.01991.0395.03589.0652.0466.0256.01072.0539.01584.0823.01494.1046.01558.2122.00324.3088-.03545.0966-.03868.1778-.10193.233-.18156z"/><path d="m21.1809 13.6309-.7927-.0518h-.3963c-.0447-.0102-.0901-.0102-.1348 0v.0648.0388c.0199.11.0397.22.0555.3301.8921.4914 1.8353.6872 2.7743.576.0848-.0257.1665-.0738.2418-.1424l.0713-.0518c-.1308-.6472-.1427-.6472-.4518-.6472-.432-.0388-.8997-.0841-1.3673-.1165z"/><path d="m8.87097 19.6501c.02149.0669.04656.1339.06088.2008.01433.0669.02865.2008-.08953.2396-.02437.0092-.0505.0131-.07656.0113-.02605-.0018-.0514-.0091-.07426-.0215-.02286-.0125-.04268-.0297-.05808-.0504-.01539-.0208-.02598-.0446-.03103-.0698-.08953-.2607-.1719-.5249-.25427-.7891-.03223-.1057-.0179-.2149.10386-.2502.265-.0704.53359-.1268.80218-.1832.12534-.0246.23636 0 .25426.155.01791.1551-.08595.2079-.23636.2255l-.31514.0493v.0494c.05674.0488.11787.0924.18264.1303.50706.2566.98084.5724 1.41094.9407.1785.1337.3898.2188.6124.2466.4035.0931.8256.0724 1.2176-.0599.1182-.0493.2292-.1198.3402-.1797.0944-.0671.1981-.1205.308-.1585.2133-.0662.4088-.1788.5718-.3294.1631-.1507.2895-.3355.3701-.5408.2614-.5152.3847-1.0876.3581-1.6629.0287-.4558-.0972-.9081-.3581-1.2859-.24-.3135-.5014-.613-.7521-.923s-.5372-.6658-.7986-1.0041c-.066-.0853-.1202-.1789-.1611-.2783-.1704-.3816-.3779-.7462-.6196-1.0886-.4405-.6306-.8595-1.2753-1.2928-1.9095-.3428-.5589-.57372-1.17709-.68041-1.82135-.04655-.21138-.12534-.42276-.17189-.63766-.01069-.088.00421-.17718.04297-.25718 0-.03875.12892-.07751.15041-.05989.07071.04936.12343.11975.15041.20081.10743.50027.19701 1.00406.30801 1.50437.1273.4418.3374.8564.6195 1.2224.1182.1762.2292.3523.3581.525.24.3523.4906.6764.7163 1.0252.1782.2548.3351.5234.4691.8032.2398.5122.5548.987.9347 1.4092.3581.4157.6911.8385 1.0314 1.2577.0451.0509.0781.1111.0966.1762.1118.3749.1944.7577.2471 1.145.0038.3442-.0298.6879-.1002 1.0251-.0895.5078-.3229.9804-.6733 1.3634-.1367.1367-.2967.2488-.4727.3312-.2758.1515-.5587.2854-.8452.4087-.2474.1285-.5267.1859-.8057.1656-.1791-.0212-.3581-.0282-.5336-.0317-.3657-.0158-.7137-.1595-.9813-.4052-.34234-.2965-.71848-.5531-1.12086-.7645l-.16473-.0669z"/></g></svg>