<svg fill="none" height="26" viewBox="0 0 19 26" width="19" xmlns="http://www.w3.org/2000/svg"><g fill="#1e5d8a" stroke="#1e5d8a" stroke-width=".5"><path d="m1.11571 20.7536c.36896.0932.51972-.1399.69428-.3138.34119-.3349.66652-.6995 1.03151-1.0048.70618-.5893 1.45204-1.1235 2.15029-1.7213 1.06324-.9115 2.08284-1.8824 3.17385-2.7685.7538-.619 1.58693-1.132 2.38036-1.6958.432-.3136.8479-.6519 1.2458-1.0133.9561-.8861 1.8805-1.8061 2.8366-2.68374.7459-.68259 1.5195-1.32702 2.2852-1.98841.3372-.29253.6943-.56811 1.0196-.87761.0394-.04959.0666-.10892.0791-.17261.0124-.06368.0098-.12968-.0077-.192-.115-.18231-.2618-.05088-.3729.04664-1.1902 1.02176-2.3804 2.02656-3.5706 3.08224-.8768.79709-1.6901 1.69589-2.5629 2.48869-.4055.3667-.8395.6957-1.2973.9836-1.09334.7019-2.1204 1.5155-3.06676 2.4293-.46021.4494-.96009.848-1.44807 1.2719-.98786.8225-1.98366 1.6365-2.97153 2.4548-.52368.4155-1.08704.8479-1.61866 1.2931-.0328.0338-.0583.0748-.07475.1202-.01644.0454-.023426.0941-.02047.1427 0 .0636.11109.1144.11505.1187z"/><path d="m7.78478 1.14509c-.01737.05677-.03064.11489-.03967.17383v.11871c-.04761.27982-.09919.56811-.14283.84793-.01391.09553-.01391.19278 0 .2883.03182.3114.03182.62557 0 .93697 0 .1823-.03174.36885-.03174.55539v.39005c-.04163.33447-.02141.67442.05951 1.00057.06142.22979.10129.46555.11902.70378l.02778.25014-.08332-.07631c-.44144-.37-.97588-.59137-1.53535-.63595-.06348 0-.12299-.02544-.1825-.03816-.13045-.03166-.26316-.05152-.39673-.05935-.08171-.00944-.16428.00487-.239.04144s-.13881.09402-.1855.1663c-.02641.03801-.04067.08409-.04067.13143s.01426.09342.04067.13143l.32135.62323c.16663.31798.33325.64867.51178.96241l.04364.08479c.16794.35449.40302.66779.69032.92001.04019.03332.07503.07341.10315.11871l.07141.08903.06348.08056h-.09919-.17456-.30548-.09522c-.2301 0-.46814 0-.69825 0-.02648-.001-.05282.00461-.07692.01639-.0241.01177-.04531.02938-.06193.05144-.01289.0269-.0196.05669-.0196.08691s.00671.06001.0196.08692c.03397.13018.07639.25768.12695.38157l.05951.1611v.03816c.01266.02387.02201.04958.02777.07632.08792.33716.24821.64786.46815.90726.04188.0552.08032.1133.11505.1739.0268.0468.05594.0921.08728.1356.07538.106.15076.2078.23011.3095l.34118.4494h-.07537l-.12299.0212c-.07127.0191-.14488.0263-.2182.0212-.28286-.0158-.56244.0708-.79347.2459-.04131.0291-.07643.0672-.10308.1118-.02666.0445-.04425.0946-.05164.1468-.01164.064-.01058.1299.00308.1935.01367.0635.03965.1233.07626.1754.14679.1908.27772.3985.39673.5978l.09522.1526c.05554.0848.10712.1696.15473.2544l.10711.1823.41657.6699.1944.3052h-.09521l-.19044-.0339c-.14679-.0254-.29755-.0509-.4483-.0636-.19548-.0146-.39169-.0146-.58717 0-.04783-.0037-.09573.0061-.1389.0285-.04317.0223-.08009.0563-.10707.0987-.01915.0542-.02483.1127-.01649.1699.00835.0573.03043.1112.0641.1566.13885.2416.27374.4875.39673.7249.12299.2375.24597.4537.37293.6741.12695.2205.26977.4622.39673.6826l.21423.3477.04761.0975.03571.0763.03967.0933-.09125-.0297-.1944-.0593c-.13092-.0382-.25787-.0764-.37689-.123-.25168-.1122-.53179-.1287-.79347-.0466-.04306.0106-.08785.0106-.13092 0h-.05554c-.10949.0144-.21284.062-.29788.1371s-.14824.1746-.18217.2868c-.01028.0331-.01028.0688 0 .1018l.1706.3264c.14282.2756.29358.5639.46418.8268l.05554.0763c.28979.4871.64845.9233 1.06324 1.2931l.25788.212c.19653.1678.40184.3235.61493.4663.27581.1584.56721.2835.86884.3731.18618.0604.37564.1086.56733.1442l.27771.0593h.03571v.0424c0 .1272-.02777.2544-.03967.3816-.03174.2841-.05951.5766-.11109.8479-.08331.4791-.18646.9624-.28565 1.433-.03173.1484-.06347.2926-.09124.424-.02098.0602-.02098.1264 0 .1866.02777.0424.09124.072.21026.1017.02812.0114.05917.0114.08728 0 .04518-.0506.07192-.1167.07538-.1865 0-.0552 0-.1145.01984-.1739.01984-.1399.03571-.2883.06744-.4239.03174-.1357.06348-.2375.09522-.3519.03174-.1145.07538-.2544.10315-.3816.08331-.424.16266-.814.23804-1.2125.03174-.1823.06744-.3647.10315-.547 0-.0296 0-.0636 0-.0932v-.0594h.0238l.32134-.0763c.242-.0551.4721-.106.7022-.1696.4423-.1089.8628-.3013 1.2418-.5681.1547-.1145.3174-.2247.4721-.3307s.3967-.2713.5951-.424c.1633-.122.3124-.2644.4444-.4239.2166-.2559.4192-.5248.607-.8056.2476-.4137.4099-.8791.476-1.3651.0207-.0444.0308-.0936.0294-.1431-.0014-.0496-.0142-.098-.0373-.141-.0086-.012-.0194-.0221-.0317-.0297-.0751-.0395-.1606-.05-.242-.0297l-.8372.1654-.5911.1145h-.1428-.0952-.0833l.0436-.0764.0595-.1017c.0336-.0516.0641-.1054.0913-.1611.0515-.106.2737-.5808.3213-.6741.1111-.2205.2182-.424.3095-.6487l.0277-.0678c.0907-.1962.165-.4005.2222-.6105 0-.0679.0317-.1315.0516-.1993.0886-.2809.1263-.5774.1111-.8734-.0063-.0753-.0372-.1458-.0873-.1992-.0351-.0187-.0738-.0284-.1131-.0284-.0392 0-.0779.0097-.113.0284-.1627.0678-.3214.1441-.4801.2162l-.484.2077c-.0843.0339-.1704.0622-.2579.0848l-.1349.0424-.0912.0297.0397-.089c.0277-.0594.0515-.1187.0753-.1739.0419-.1201.0979-.2341.1667-.3391.2796-.4363.4826-.9233.599-1.4373.0794-.3264.1706-.6529.2579-.9709l.0516-.1908c.0238-.0805.0635-.3561 0-.4239-.0635-.0679-.0714-.0891-.2103 0-.3967.2416-.7935.4918-1.1664.7334l-.0912.0594-.1905.1229-.1111.0764-.0833-.1018.0238-.0297.0516-.0636c.0391-.0538.0815-.1048.127-.1526.1564-.1477.281-.33.365-.5342.0629-.1502.1414-.2924.234-.424.1278-.2189.2191-.4599.2698-.7122l.0754-.2968c.0635-.2459.1309-.50452.1825-.7589.0559-.23202.0917-.46902.1071-.70803-.0051-.13178-.0376-.26069-.0952-.37733-.0185-.04571-.0526-.08216-.0954-.10186-.0427-.01971-.0909-.02118-.1347-.00413-.0943.03608-.1859.08003-.2738.13143-.0674.03816-.1309.08056-.1944.12295l-.0833.05512h-.0238l-.0912-.0636.0317-.08903c.0135-.042.0294-.08306.0476-.12295.0318-.08479.0714-.16535.1071-.25014.0845-.17467.1562-.35611.2143-.54268.0648-.27145.1099-.54786.1349-.82673v-.07208c.0476-.42397.0833-.81402.119-1.2719.0095-.05034.0076-.10239-.0055-.1518s-.0371-.09476-.0699-.13226c-.0414-.02507-.0879-.0393-.1354-.04151-.0476-.00221-.095.00766-.1383.02879-.0539.00906-.1088.00906-.1627 0-.3711.00314-.7277.15435-.9998.42397l-.0833.06783c-.2847.20813-.5264.47654-.7101.78858v.02544h-.119v-.02968c.0018-.0254.0018-.05091 0-.07631-.0154-.05664-.0247-.11495-.0278-.17383-.01053-.45356-.08133-.90323-.21029-1.33549-.02703-.07614-.04956-.15402-.06744-.23319 0-.06359-.03174-.13566-.05158-.2035-.19924-.64504-.49829-1.24981-.88471-1.78914l-.0238-.03816c-.57527-.92849-.72999-1.026-.7657-1.026-.04626-.011626-.09493-.00351-.13568.02261-.04075.02613-.07035.06821-.08252.1173zm1.75356 6.35951-.20631.75466h-.11108l-.42054-.69107zm.98386 1.55596-.2142.14839c-.123.07009-.2579.11332-.39674.12719l-.2301.04663h-.05158v-.19502c-.00828-.64367.0953-1.28339.30549-1.88666.07533-.2459.16663-.48332.25393-.71226.0665-.1691.1406-.33464.2221-.49604.271-.46411.6587-.83731 1.1188-1.07688.2237-.06702.4616-.05512.6784.03392h.0199v.05935c.0039.02953.0039.05951 0 .08904-.0639.25514-.1038.51647-.119.7801-.0148.34294-.0722.68226-.1706 1.00904-.0885.26227-.1918.51854-.3095.76738-.0555.11871-.1071.23742-.1587.36037-.221.40891-.5512.73808-.9482.94545zm-1.2219 1.64924-.15076.0678-.57526-.84791h.57129zm.19043-.76739c0-.05936.05157-.11871.07141-.13567.23185-.11542.48636-.16924.74186-.15687h.0635l-.62286.94543h-.12299l-.03967-.1865c-.02778-.1315-.05951-.2926-.08729-.44943zm1.65437 1.76369-.1746.1526c-.1366.1293-.2825.247-.4364.3519-.1258.0746-.2588.1343-.3967.1781l-.21027.0763-.05157.0212v-.0339c0-.0721 0-.1357 0-.1993 0-.1272-.02381-.2416-.03174-.3561-.03377-.479.09588-.9549.36498-1.3397l.0952-.1442.1746-.2586c.0952-.1272.1944-.25015.2896-.36886l.0952-.11871.0556-.0636c.0321-.03114.0601-.0668.0833-.10599.1393-.26088.337-.48083.5752-.64019.2143-.13991.4285-.28829.6348-.42396l.2698-.18655h.0238l.0992.08479-.0516.22047c-.0357.14838-.0714.29677-.1111.42396s-.0635.26286-.0912.39005c-.0579.31313-.147.61872-.2658.91149l-.0834.1781c-.1873.4882-.4795.9225-.8529 1.2677zm-1.58693 1.3864v1.009l-.11505.0467-.90455-1.1575zm1.42033-.6148-.1389.106c-.2262.1944-.4103.4388-.5395.7165-.1131.2013-.2461.3889-.39677.5597l-.07538.0805v-.3052l.0238-.4622c0-.2543.04761-.2883.26975-.3731.123-.0466.25-.1017.373-.1568l.2142-.0933c.0208-.0061.0427-.0061.0635 0h.0238zm.1587 2.7092c-.1653.1977-.3629.3614-.5832.4833-.1833.1005-.3913.1376-.59513.106h-.0357v-.3561c-.00272-.4396.08673-.8742.26183-1.2719.1269-.2598.2673-.5117.4205-.7547l.0596-.1018c.068-.1087.1509-.2059.2459-.2882.3412-.2926.726-.619 1.1188-.9243.1468-.1145.3055-.212.4721-.318l.246-.1526.0674-.0466v.0848c-.0017.0324-.0017.065 0 .0975.0049.0436.0049.0877 0 .1314l-.0555.2035c-.0754.2756-.1547.5596-.246.8479-.3173.8467-.7847 1.6197-1.3766 2.2767zm-1.40843.9836v.0339c.06771.3396.06771.6906 0 1.0302-.01984.1188-.03968.2459-.05158.3731v.106l-.06348-.0848c-.34293-.4611-.65956-.9439-.94819-1.4457l-.04364-.0721zm2.48753 1.5008c-.282.2475-.5833.4688-.9006.6614-.2566.1741-.5215.334-.7935.4791-.0888.041-.1803.075-.2737.1018l-.1587.0508h-.0516v-.1187c-.0019-.0339-.0019-.0678 0-.1017 0-.0848 0-.1696 0-.2544-.0099-.1991-.0099-.3987 0-.5978.0091-.2741.06-.5448.1508-.8013.2165-.6018.6052-1.1152 1.1108-1.4669.4706-.2917.9567-.5536 1.456-.7844l.369-.178c.0514-.0252.1045-.0464.1587-.0636l.1111-.0424h.0634v.072c-.0854.6334-.2733 1.246-.5554 1.8104l-.0952.212c-.0635.1399-.1309.284-.2063.4239l-.0595.1145c-.0876.1815-.2044.3451-.3452.4833zm-2.49944 1.7722v.0466.2926c.01091.237-.03411.4732-.13092.6868l-.02777.0594-.03967-.0509-.22217-.2883c-.22429-.2538-.41515-.5391-.56733-.8479l-.03174-.0806zm.39674.6487c.2091-.3385.4526-.6513.726-.9327l.0437-.0424c.1487-.1675.3322-.2953.5355-.3731.0478-.0204.092-.049.131-.0848l.1031-.0721c.0669-.034.1318-.0722.1944-.1145.1637-.1066.338-.1933.5197-.2586.3333-.1017.6824-.1781 1.0157-.2459l.3015-.0636c.1312-.0248.2637-.0418.3967-.0509.0281-.004.0567-.0002.0831.0109.0264.0112.0497.0293.0677.0527.0128.0247.0196.0524.0196.0806s-.0068.0559-.0196.0805l-.0595.1739c-.0977.317-.2309.6202-.3968.903-.4175.5904-.9407 1.0862-1.5393 1.4585-.4186.3207-.8875.5591-1.3846.7037-.2023.0467-.3967.1018-.6229.1612l-.31337.089h-.06348l.05555-.3646c.05157-.3477.0952-.6657.1428-.9794.008-.0493.0242-.0966.0476-.1399zm-3.31668-1.8061c.56957.246 1.07664.6324 1.47981 1.1277.07674.0874.14704.1809.21027.2799l.11901.1907c.06599.1233.14448.2385.23408.3434.2007.2398.33768.5326.39673.848.01479.0826.01479.1675 0 .2501-.00233.03-.01061.0592-.02429.0855s-.03245.0492-.05506.0672c-.02.0148-.0428.0247-.06679.0291s-.04859.0031-.07206-.0037l-.26185-.0509c-.2285-.0308-.45327-.0877-.67047-.1696-.18234-.079-.35761-.1755-.52369-.2883-.11108-.0763-.22217-.1526-.32532-.2332-.77978-.5905-1.41191-1.3767-1.84084-2.2894-.03288-.0692-.05945-.1416-.07934-.2162 0-.0297-.01984-.0636-.03174-.0975v-.0382h.0357c.17126-.1021.37021-.138.56336-.1017.30295.0726.60221.1617.89662.2671zm.20233-2.9678h.03571c.36322.093.6929.298.94819.5893l.85297 1.2083c.06981.0941.13344.1933.19043.2968l.03174.0594c.15076.3095.31342.6274.45227.9496.0422.1124.07409.2288.09522.3477 0 .0636.02777.1314.04364.1993v.0636h-.05951-.13886l-.20233-.0255c-.39084-.0429-.76566-.1886-1.09101-.4239-.19828-.1323-.38545-.2826-.55939-.4494-.24264-.2491-.44982-.5348-.61494-.848-.08331-.1441-.17456-.2925-.26978-.4239-.19419-.2901-.373-.5916-.53559-.9031l-.17852-.318c-.03802-.0687-.0699-.1411-.09522-.2162l-.04364-.1018v-.0466h.04761c.35455-.1061.73172-.0868 1.07514.0551zm.27771-2.9126c.40502.2538.77828.5615 1.11085.9157.48796.4943.865 1.1002 1.10292 1.7722.03792.1159.05802.2376.05951.3604 0 .2077-.04364.2671-.24201.2798-.41827.0147-.8316-.1001-1.1902-.3307l-.15472-.1357c-.14282-.1314-.30548-.2798-.46418-.4239-.27278-.2444-.51069-.5301-.70618-.848-.17456-.3095-.36499-.619-.53559-.8945-.04364-.0721-.09521-.1442-.14282-.212l-.13886-.2078c-.01971-.0273-.03349-.059-.04035-.0927s-.00663-.0687.00068-.1023c.01064-.0323.02793-.0616.05059-.0858.02265-.0243.05011-.0427.08033-.0541h.03571c.03855-.0212.08009-.0355.12298-.0424h.07538c.32358-.0642.65772-.0244.96009.1145zm1.22987-2.0478c.39566.5031.70461 1.0773.91249 1.6959.05352.2038.05352.4194 0 .6232v.0339h-.12299-.15473c-.39032-.0247-.77084-.1405-1.11481-.3392l-.11506-.0678c-.46629-.3425-.86972-.7736-1.19019-1.2719-.13092-.1823-.26185-.3858-.42054-.6402-.17693-.3142-.31055-.65405-.39673-1.00903v-.05087h.05157.11109c.06682-.01275.13447-.01984.20233-.0212.13299.00715.26547.02272.39674.04663.70724.07574 1.3604.43839 1.82496 1.01327zm-.68634-3.33239c.29358.31798.59906.64867.88074.98361.15393.17155.274.37443.35306.59658.07906.22214.1155.45901.10715.69652 0 .16958-.07935.2459-.22614.2459-.25763.0067-.51187-.0638-.73395-.20351-.23804-.1611-.47211-.33493-.69825-.50452l-.17853-.13143c-.0999-.07094-.19532-.14884-.28565-.23318-.42282-.43968-.76464-.96028-1.0077-1.53476-.08728-.19926-.18646-.39853-.29358-.60627l-.15869-.31374-.03571-.08055h.07935c.39039.05285.77638.13789 1.15449.25438.24677.08064.47055.22646.65064.42397zm.26184-5.3759.11108-.04663v.02967l.07142.09328c.05157.06783.10315.13991.15075.21622.04761.07631.13093.23318.19043.34765l.06745.12295c.05951.11023.12299.22047.18646.32646.1501.24478.28272.5013.39674.76738.23373.63584.382 1.30387.44037 1.98416.05283.51254-.04566 1.02991-.28168 1.47965-.03105.06622-.07778.12259-.13556.1635-.05777.04091-.12457.06494-.19373.06968-.16989.00492-.33678-.04858-.47608-.15263-.18098-.11294-.32609-.2813-.41657-.48332-.21071-.53953-.33671-1.11251-.37292-1.69587-.00387-.05787-.00387-.11596 0-.17382.00583-.05778.00583-.11606 0-.17383-.01633-.36459.00496-.72999.06347-1.0896.03313-.19769.03313-.4001 0-.59779-.04822-.3913.00674-.78922.1587-1.14895z"/></g></svg>