<svg fill="none" height="24" viewBox="0 0 22 24" width="22" xmlns="http://www.w3.org/2000/svg"><g fill="#1e5d8a" stroke="#1e5d8a" stroke-width=".5"><path d="m9.58144 2.02074c-.14649-.06376-.29298-.13422-.44613-.18455-.15315-.05034-.19643-.2114-.18311-.35904.01331-.14764.02663-.30199.22639-.33555l.86561-.08389c.1765 0 .3563 0 .5327-.0302.8622-.046417 1.7264-.034086 2.5869.03691.2098 0 .4262-.02013.6359 0 .273.02349.333.16778.2531.42951-.0815.27854-.2199.53684-.4062.75834-.09.11489-.1403.25629-.1432.40266-.0433.51339-.0566 1.04356-.0566 1.54688s.0333 1.00665.05 1.51668v.02685c-.1166.67109.2297 1.20462.4228 1.78847.1931.58386.3329 1.11738.5094 1.67775.1298.41273.263.82884.3862 1.24484.1931.6443.3762 1.2919.576 1.9362.1997.6442.4128 1.2314.6026 1.8488.1132.3624.1831.7349.2896 1.0973.2963 1.0066.6093 2.0133.8956 3.0199.1215.4273.215.8623.2797 1.302.0632.4462.0666.9026.1032 1.3422.0118.3214-.0485.6414-.1765.9361-.0627.1708-.1663.3233-.3017.4439-.1353.1206-.2982.2056-.474.2474-.9147.2518-1.8626.3593-2.81.3187-1.062 0-2.1241.0168-3.1862.0202-.496 0-.99876-.0302-1.48818-.0202-.59262 0-1.18525.0504-1.7812.0772-.48431.0273-.9659-.0894-1.38501-.3355-.41229-.2374-.73794-.6021-.92889-1.0402-.16673-.4566-.22156-.947-.15981-1.4295.06134-.7956.20416-1.5828.42616-2.3488.13317-.4899.30297-.9664.46611-1.4462.13317-.3893.27633-.7751.42283-1.161.12318-.3356.26301-.6711.37954-1.0067.03956-.1625.06958-.3272.08989-.4932.24182-1.2295.64488-2.4211 1.19857-3.5434.21661-.4602.40561-.93306.56599-1.41606.20642-.53352.39619-1.07711.61593-1.60728.1289-.39975.19298-.81785.18977-1.23817.05993-.7013.10321-1.40595.15648-2.10725.03995-.52346.08324-1.04692.12985-1.57373.01664-.06375.04661-.14093.06991-.25837zm-.16314-.50668c.13984.12415.31296.20804.35625.33555.04453.16531.06912.33543.07324.50668.01659.32129.00656.64341-.02996.96302-.03996.60735-.06992 1.21469-.12985 1.81868-.06658.6711 0 1.3422-.29631 2.0133s-.47277 1.24488-.72247 1.88914c-.21974.55701-.43947 1.11737-.70582 1.65087-.32291.6819-.57399 1.3961-.7491 2.1308-.13651.5368-.25636 1.0737-.41617 1.6005-.14317.4631-.32628.9127-.4761 1.3557-.324.8443-.59859 1.707-.82235 2.5837-.22264.801-.32256 1.6315-.29631 2.4629.01619.2547.08902.5024.21308.7248.19196.3349.47046.611.80583.7989s.71504.2806 1.09855.2682c.8157 0 1.63139-.0269 2.44708-.0403.54601 0 1.09201-.0336 1.63801-.0201.2797 0 .546.0402.8357 0 .7125-.0571 1.4316-.0302 2.1508-.0437.6954-.006 1.3866-.1087 2.0542-.3053.1589-.0306.306-.1062.4239-.2179s.2018-.2549.2419-.4129c.0314-.141.046-.2852.0433-.4296-.02-.51-.0366-1.0066-.0932-1.5267-.0467-.3836-.1235-.7628-.2297-1.1342-.1565-.557-.333-1.1073-.5161-1.6576-.3329-1.0066-.5094-2.0938-.9089-3.1004-.1798-.4463-.253-.9362-.3929-1.3993-.2763-.9261-.5693-1.8455-.8523-2.77162-.1298-.41944-.2497-.84223-.3762-1.26167-.1055-.41908-.239-.83051-.3995-1.23147-.1465-.28154-.2306-.59181-.2464-.90933 0-.65097-.0299-1.29858-.0366-1.94955 0-.21139.0233-.42614.0233-.64089 0-.36911 0-.73821 0-1.10732-.0027-.09461.0166-.18854.0565-.27422s.0993-.16071.1732-.21903c.1335-.14142.2518-.29663.3529-.46306-1.4286-.11043-2.8636-.10595-4.2915.01342z"/><path d="m13.6965 11.4167.1365.3355c-.263.1107-.5194.2282-.7824.3188-.1518.0367-.3068.058-.4628.0637-.1132 0-.2463 0-.2397-.1409.0067-.1409.1099-.255.1631-.2517.4229.0101.7824-.1946 1.1853-.3254z"/><path d="m15.7641 17.7116c.1365.302.1065.359-.1765.4496s-.5061.1745-.7558.2685c-.1265.0436-.2563.0973-.3329-.0604-.0766-.1578.0266-.245.1998-.3054l.8989-.3087c.0466-.0201.1099-.0302.1665-.0436z"/><path d="m14.6787 14.997c-.3097.1174-.6093.2416-.9189.3355-.0666.0202-.1598-.0369-.2397-.057.0233-.0806.0233-.2047.0765-.2349.2616-.1641.5611-.2567.869-.2684.1798 0 .2597.0436.2131.2248z"/><path d="m15.1215 16.2922c.0765.104.1265.2047 0 .2919-.2704.2034-.5952.3203-.9322.3356-.1004-.0155-.1987-.0426-.293-.0806.1132-.104.1698-.198.2497-.2248.3096-.1241.6359-.2181.9755-.3221z"/><path d="m14.0461 13.2521c.0499.3356.0399.3557-.2397.4161-.1665.0369-.333.0872-.4928.1409s-.283.0671-.3329-.0939c-.05-.1611.0666-.2383.2131-.2685z"/><path d="m13.1172 9.70203c.0533.33557.04.35567-.2397.41607-.1665.0369-.3329.0906-.4928.1409-.1598.0504-.2796.0705-.3329-.0906-.0533-.161.0666-.2382.2164-.27176z"/><path d="m1.13486 20.8791c.44613.1041.62259-.161.83567-.3624.40618-.3758.78905-.8019 1.2252-1.1542.84565-.6711 1.73792-1.2919 2.57359-1.9764 1.27181-1.0436 2.48702-2.161 3.77881-3.1777.89897-.7113 1.89437-1.3019 2.82997-1.9663.519-.3576 1.0171-.7452 1.4915-1.161 1.142-1.0066 2.244-2.06698 3.3893-3.07362.8889-.7919 1.8145-1.53346 2.7134-2.29516.4062-.33555.829-.6711 1.2186-1.00665.0514-.0532.0887-.11857.1085-.19011.0197-.07153.0214-.14693.0047-.21926-.1399-.20804-.313-.05369-.4462.05704-1.4183 1.17443-2.8566 2.32536-4.2416 3.53669-1.052.91605-2.0209 1.92606-3.0596 2.85557-.4932.4199-1.0199.7981-1.5748 1.1308-1.3053.8109-2.53155 1.7445-3.6623 2.7884-.54602.5167-1.14197.9764-1.72793 1.4462-1.17859.9462-2.36717 1.8824-3.55242 2.8186-.64256.5067-1.29179 1.0066-1.93102 1.5167-.03856.0394-.06808.0869-.08649.1391s-.02525.1078-.02005.1629c-.006661.0637.12984.1275.13317.1308z"/><path d="m10.6502 17.0035c-.0382-.1099-.1019-.2091-.1859-.289-.084-.08-.1858-.1385-.2969-.1707l-.1065-.0369-.04-.0168-.36953-.1476-.62259-.2282-.33294-.1342c-.22639-.0906-.45945-.1812-.6925-.2651l-.13984-.0436h-.02663c-.07952-.0183-.15746-.043-.23305-.0738l-.04994-.0302v.0402c-.13912.1852-.23783.3979-.28966.6242l-.06659.1812c-.04661.1208-.09322.2449-.14316.3691l-.08989.1912c-.03995.0772-.07657.1577-.10987.2383-.03329.0805-.09322.2516-.1365.3758v.0436c-.09322.2584-.18644.5235-.30297.7785-.03497.0672-.05569.1409-.06084.2166-.00516.0757.00535.1516.03087.223v.0201h.01998l.4428.1879.45612.1946c.48276.1879.99881.3758 1.40499.5302l.07657.0268.53936.2014c.03121.0114.06359.0193.09655.0234.03016.0012.05992-.0072.08504-.0241.02511-.0169.04429-.0413.05479-.0698l.04661-.0973c.06326-.1309.13651-.2785.19644-.4262.20308-.5066.40618-1.0234.59928-1.52l.0799-.2047c.0832-.208.1432-.3724.1931-.5268.0125-.0551.0029-.113-.0266-.1611zm-.2797.1745c-.2797.6711-.57597 1.4194-.87228 2.1375-.10321.2483-.15648.312-.2497.312-.10628-.0171-.20949-.0499-.30631-.0973-.18977-.0805-.38953-.1443-.58596-.208-.13317-.0436-.27301-.0906-.40618-.141-.22973-.0838-.46611-.1845-.74911-.312-.16774-.077-.33113-.1632-.48941-.2584-.1365-.0772-.12319-.1812-.05993-.312.06326-.1309.10987-.2651.16314-.4027.02996-.0839.05993-.1644.09322-.245v-.0302c.13983-.3355.28633-.708.44281-1.0603.06325-.1443.13983-.2919.20641-.4228l.06659-.1241c.00935-.0332.03044-.0618.05928-.0803.02883-.0186.06342-.0258.0972-.0204h.07325c.08662.025.1679.0659.23971.1208.03995.0201.58929.2416.85231.3355.20309.0672.40951.151.5893.2282h.01997c.17646.0738.35625.1477.54269.2081.0873.0424.1612.1087.2131.1912l.0566.0638c.0092.018.0146.0377.0157.058.0012.0202-.0019.0405-.0091.0594z"/><path d="m7.5372 18.2619c.08194-.0822.15973-.1684.23306-.2584.06923-.0722.15867-.1213.25636-.1409.09717-.009.19516-.0011.28965.0235.08499.0077.16482.0444.2264.104.05331.0753.08655.1631.09655.255.03132.1277.05137.258.05993.3892v.2148c-.01018.035-.01018.0723 0 .1074.04328.0738.11652 0 .15315-.047.00835-.0534.00835-.1077 0-.1611 0-.1476-.03663-.2919-.04994-.4395-.03996-.3792-.14317-.5134-.5094-.6007-.09106-.0357-.1888-.0508-.28629-.0441-.09749.0066-.19233.0348-.27781.0825-.08547.0477-.15948.1138-.21677.1936-.05729.0797-.09646.1712-.11472.268.05327.0537.0799.0973.13983.0537z"/><path d="m9.24183 17.3324h.04328.03329v-.0268-.047c-.00914-.0412-.02138-.0816-.03662-.1208v-.0202c-.02663 0-.11653 0-.12984 0-.01332 0-.07658.1645-.04994.1913.04396.0194.09201.0275.13983.0235z"/><path d="m8.47607 16.5875c-.01521-.0179-.03434-.0319-.05587-.041-.02154-.009-.04488-.0129-.06816-.0113-.02329.0016-.04587.0087-.06596.0207-.02008.012-.03711.0286-.04972.0483v.0235.047.0168c.06659.0705.11986.161.22972.0637.01499-.025.02373-.0534.02547-.0826s-.00357-.0584-.01548-.0851z"/></g></svg>