<svg width="44" height="31" fill="none" xmlns="http://www.w3.org/2000/svg"><path d="M4.91 2.917c.091.065.26.142.366.27a76.927 76.927 0 0 1 1.505 1.869c.186.239.343.5.504.758.074.12.142.249.178.384.018.067-.021.191-.075.226-.058.036-.166.01-.246-.012-.045-.012-.087-.065-.115-.108-.453-.705-1.18-1.137-1.723-1.75a7.222 7.222 0 0 1-.743-1.04c-.138-.227.045-.573.35-.597ZM4.69 9.12c-.183.018-.371.07-.551.049-1.033-.12-1.89-.6-2.598-1.347-.255-.27-.18-.485.183-.547.166-.028.367-.027.516.04.387.175.755.391 1.128.596.265.145.546.272.78.457.216.17.38.41.566.617a9.32 9.32 0 0 1-.023.135ZM3.43 16.792c-.07.39-.336.496-.566.613-.733.37-1.475.72-2.215 1.076-.204.098-.418.154-.579-.06-.148-.196-.056-.503.218-.612.928-.368 1.866-.712 2.804-1.054.083-.03.194.019.338.037ZM5.6 19.858c-.05.088-.084.19-.152.264-.652.707-1.303 1.416-1.968 2.111a5.07 5.07 0 0 1-.693.586c-.084.061-.301.09-.326.052a.63.63 0 0 1-.07-.383.472.472 0 0 1 .164-.266c.896-.762 1.797-1.517 2.699-2.272.079-.066.175-.11.264-.165l.082.073ZM3.175 12.535c-.153.035-.28.084-.41.09-.748.037-1.496.062-2.243.093-.178.008-.357-.036-.35-.231.005-.13.115-.314.228-.367.187-.09.412-.114.624-.128.39-.028.783-.038 1.175-.04.498 0 .566.045.976.583ZM8.278 22.953c.102.294-.027.503-.146.688-.366.573-.756 1.13-1.133 1.695-.127.19-.28.283-.494.146-.174-.11-.207-.318-.049-.514.505-.628 1.022-1.246 1.542-1.861.06-.069.169-.095.28-.154Z" fill="#1E5D8A"/><path d="M22.081 14.658c0-.29 0-.637-.32-.753-.064-.058-.192-.058-.256-.058-.385-.637-1.345-.58-2.05-.58-1.281 0-2.498.058-3.78.058-.576 0-1.216.058-1.793.116-.384.058-.833.058-1.025.406-.192.29-.128.754-.192 1.101-.064.406-.192.928.064 1.217.192.232.513.232.769.232.64-.058 1.345-.174 1.986-.232 1.28-.116 2.498-.058 3.779 0 .64.058 1.28.058 1.857-.058.257-.058.77-.116.897-.347.256-.29.128-.812.064-1.102Zm3.01 9.68c-.64-.986-.64-1.797-.255-2.899.256-.695.512-1.333.64-2.086.064-.464.385-.87 0-1.333-.32-.406-1.793 0-2.242 0H20.48c-2.37 0-5.317-1.16-7.623-1.16-.448 0-.512 1.102-.256 1.566-.064.869.256.695 0 1.507-.192.58.128 1.738.256 2.376.32 1.738.128 3.13 0 4.868-.128 1.391 1.025 1.333 2.306 1.333 1.986 0 3.908-.058 5.893-.116.897 0 1.858-.058 2.755-.058.768 0 1.665.116 2.37-.173 1.089-.464.833-1.392.256-2.145-.448-.522-.96-1.043-1.345-1.68Z" fill="#FFE180"/><path d="M25.988 12.514c-.32-1.565-.128-.87-.064-2.782.192-1.217.384-2.724-1.153-3.014-.897-.521-3.331.116-5.06.232l-.129-.058c-.384-.116-2.754-.174-3.01-.174-1.09-.116-3.844-.985-4.036.638-.064.811.32 1.738.448 2.55.128.985-.064 2.086.128 3.014.129.463.513.347.961.405 1.217.174 2.627-.173 3.844-.173 2.562 0 4.676.058 7.238 0 .192.058.384.058.576.115.449.058.961-.231.449-.347" fill="#FFE180"/><mask id="a" maskUnits="userSpaceOnUse" x="10.43" y="1.52" width="23" height="29" fill="#000"><path fill="#fff" d="M10.43 1.52h23v29h-23z"/><path d="M32.522 28.73c-.073-.173-.145-.288-.145-.46v-3.511c0-.173-.073-.346-.145-.518 0-.058 0-.115-.073-.173 0-.115-.072-.23-.072-.288-.073-.172-.145-.402-.145-.575 0-.173 0-.403.072-.633 0-.173.073-.403.073-.576v-1.323c0-.46-.073-.978-.073-1.439v-.575c0-.633-.072-1.266-.072-1.9 0-.172 0-.402.072-.575.073-.403-.29-3.165-.29-3.28v-.23c.073-.058.073-.173.073-.288v-.863c0-.345 0-.748-.073-1.151-.073-.345-.073-.633-.073-.978 0-.288 0-.576-.072-.864-.073-.287.072-.575.145-.863.073-.288.145-.575.145-.863v-.288c0-.288 0-.633-.072-.92V5.48c.072-.057.072-.115.072-.23v-.115c.218-.575.363-1.036.508-1.554v-.23c0-.115 0-.288-.073-.403-.145-.23-.362-.345-.725-.403-.29 0-.726-.057-1.16 0-1.089.173-1.169.346-2.33.403l-1.08.173c-.436 0-.935.172-1.298.23l-.879.173c-1.088.172-2.962.115-4.05.057l-4.365-.633a48.963 48.963 0 0 0-2.974-.115c-.218 0-.435-.057-.726-.057h-.29c-.29-.058-.653.115-.725.345 0 .115-.073.288-.073.345 0 .058 0 .115-.072.173 0 .057 0 .115-.073.172.073.346 0 .576.145.921 0 .058.073.173.073.23.145.346.217.576.072.864-.072.057-.072.115-.072.115-.145.805-.218 1.669-.145 2.647 0 .345.072.748.072 1.093 0 .403.073.864.073 1.266 0 .288.072.576.145.864.145.575.145 1.15.145 1.726v.345c0 .23-.073.46-.073.69-.072.174-.072.289-.072.404l-.073.805c-.072.69-.145 1.439-.29 2.187v.288a3.068 3.068 0 0 0 0 1.15l.073.231c.145.69.29 1.439.29 2.187v.287c.218.576.218 1.209.072 1.957-.072.288-.072.518-.072.748v1.266l-.073.46v.058c-.072.173-.145.576 0 1.151.146.633.146 1.209-.145 1.611l-.145.116c-.072.115-.072.172 0 .287.073.058.145.115.29.115h3.337c.726 0 1.379.058 2.104.058.508 0 1.233.058 1.886.058H31.87l.508-.173c.145-.058.29-.115.29-.23.073-.403-.073-.633-.145-.863ZM31.434 3.639c-.363.345-.653 1.093-.653 1.093-.29.576-.073 1.094 0 1.266v.403c.072.46.072.806-.073 1.209-.145.46-.145.805-.072 1.266v.805c0 .346 0 .748.072 1.094.073.287 0 2.36 0 2.474.145.173 0 .345.073.576.072.345-.073.633 0 .978 0 .115.145.345 0 .403 0 .288.072.575.072.863v2.36c0 .23 0 .402.073.633 0 .115 0 .23.073.345 0 .23 0 .403.072.633 0 .288 0 .633.073.978.072.518.072.92-.073 1.381a2.914 2.914 0 0 0 .145 1.9c.145.287.218.517.218.805 0 .863-.073 1.726-.073 2.532v.173c0 .403 0 .748.073 1.15 0 .058 0 .116-.073.173-.072.058-.145.058-.217.058H17.288c-.798 0-1.596-.058-2.394-.058-.58 0-1.16-.057-1.741-.057h-.29c0-.173.072-.345.072-.46v-.864c0-.115-.072-.288 0-.403.145-.978.145-1.899.073-2.704v-.058a5.389 5.389 0 0 0 .145-1.899c0-.403-.073-.806-.145-1.209v-.172c0-.115 0-.288-.073-.403 0-.288-.072-.633-.145-.92-.145-.576-.218-1.152-.072-1.785v-.057c0-.173.072-.403.072-.576v-.057c.073-.288.145-.69.145-1.094.073-.402.073-.748.073-1.15 0-.173 0-.403.072-.576v-.978c0-.46.073-.864 0-1.324 0-.23-.072-.403-.072-.633-.073-.46-.145-.92-.145-1.381v-.806c0-.23 0-.46-.073-.69v-.058a6.421 6.421 0 0 1-.218-1.554c0-.518.146-1.036.218-1.38.073-.346.145-.691-.072-1.037-.218-.345-.146-.69-.146-1.093v-.23h.29c1.597.23 2.331.115 4.91.7l2.58.342c1.45-.173 2.15 0 4.48-.341l2.757-.471c.49-.009.978-.067 1.45-.173h.218c.145-.057.653-.115 1.016-.172.435-.058.653-.058.798-.115.145-.058.218-.058.29 0 0 .057.073.172.073.345 0-.058 0-.058 0 0Z"/></mask><path d="M32.522 28.73c-.073-.173-.145-.288-.145-.46v-3.511c0-.173-.073-.346-.145-.518 0-.058 0-.115-.073-.173 0-.115-.072-.23-.072-.288-.073-.172-.145-.402-.145-.575 0-.173 0-.403.072-.633 0-.173.073-.403.073-.576v-1.323c0-.46-.073-.978-.073-1.439v-.575c0-.633-.072-1.266-.072-1.9 0-.172 0-.402.072-.575.073-.403-.29-3.165-.29-3.28v-.23c.073-.058.073-.173.073-.288v-.863c0-.345 0-.748-.073-1.151-.073-.345-.073-.633-.073-.978 0-.288 0-.576-.072-.864-.073-.287.072-.575.145-.863.073-.288.145-.575.145-.863v-.288c0-.288 0-.633-.072-.92V5.48c.072-.057.072-.115.072-.23v-.115c.218-.575.363-1.036.508-1.554v-.23c0-.115 0-.288-.073-.403-.145-.23-.362-.345-.725-.403-.29 0-.726-.057-1.16 0-1.089.173-1.169.346-2.33.403l-1.08.173c-.436 0-.935.172-1.298.23l-.879.173c-1.088.172-2.962.115-4.05.057l-4.365-.633a48.963 48.963 0 0 0-2.974-.115c-.218 0-.435-.057-.726-.057h-.29c-.29-.058-.653.115-.725.345 0 .115-.073.288-.073.345 0 .058 0 .115-.072.173 0 .057 0 .115-.073.172.073.346 0 .576.145.921 0 .058.073.173.073.23.145.346.217.576.072.864-.072.057-.072.115-.072.115-.145.805-.218 1.669-.145 2.647 0 .345.072.748.072 1.093 0 .403.073.864.073 1.266 0 .288.072.576.145.864.145.575.145 1.15.145 1.726v.345c0 .23-.073.46-.073.69-.072.174-.072.289-.072.404l-.073.805c-.072.69-.145 1.439-.29 2.187v.288a3.068 3.068 0 0 0 0 1.15l.073.231c.145.69.29 1.439.29 2.187v.287c.218.576.218 1.209.072 1.957-.072.288-.072.518-.072.748v1.266l-.073.46v.058c-.072.173-.145.576 0 1.151.146.633.146 1.209-.145 1.611l-.145.116c-.072.115-.072.172 0 .287.073.058.145.115.29.115h3.337c.726 0 1.379.058 2.104.058.508 0 1.233.058 1.886.058H31.87l.508-.173c.145-.058.29-.115.29-.23.073-.403-.073-.633-.145-.863ZM31.434 3.639c-.363.345-.653 1.093-.653 1.093-.29.576-.073 1.094 0 1.266v.403c.072.46.072.806-.073 1.209-.145.46-.145.805-.072 1.266v.805c0 .346 0 .748.072 1.094.073.287 0 2.36 0 2.474.145.173 0 .345.073.576.072.345-.073.633 0 .978 0 .115.145.345 0 .403 0 .288.072.575.072.863v2.36c0 .23 0 .402.073.633 0 .115 0 .23.073.345 0 .23 0 .403.072.633 0 .288 0 .633.073.978.072.518.072.92-.073 1.381a2.914 2.914 0 0 0 .145 1.9c.145.287.218.517.218.805 0 .863-.073 1.726-.073 2.532v.173c0 .403 0 .748.073 1.15 0 .058 0 .116-.073.173-.072.058-.145.058-.217.058H17.288c-.798 0-1.596-.058-2.394-.058-.58 0-1.16-.057-1.741-.057h-.29c0-.173.072-.345.072-.46v-.864c0-.115-.072-.288 0-.403.145-.978.145-1.899.073-2.704v-.058a5.389 5.389 0 0 0 .145-1.899c0-.403-.073-.806-.145-1.209v-.172c0-.115 0-.288-.073-.403 0-.288-.072-.633-.145-.92-.145-.576-.218-1.152-.072-1.785v-.057c0-.173.072-.403.072-.576v-.057c.073-.288.145-.69.145-1.094.073-.402.073-.748.073-1.15 0-.173 0-.403.072-.576v-.978c0-.46.073-.864 0-1.324 0-.23-.072-.403-.072-.633-.073-.46-.145-.92-.145-1.381v-.806c0-.23 0-.46-.073-.69v-.058a6.421 6.421 0 0 1-.218-1.554c0-.518.146-1.036.218-1.38.073-.346.145-.691-.072-1.037-.218-.345-.146-.69-.146-1.093v-.23h.29c1.597.23 2.331.115 4.91.7l2.58.342c1.45-.173 2.15 0 4.48-.341l2.757-.471c.49-.009.978-.067 1.45-.173h.218c.145-.057.653-.115 1.016-.172.435-.058.653-.058.798-.115.145-.058.218-.058.29 0 0 .057.073.172.073.345 0-.058 0-.058 0 0Z" fill="#1E5D8A"/><path d="m32.522 28.73.19-.06-.002-.01-.004-.008-.184.078Zm-.29-4.49h-.2v.041l.015.037.185-.077Zm-.073-.172h-.2v.097l.076.06.124-.157Zm-.072-.288h.2v-.04l-.016-.037-.184.077Zm-.073-1.208.19.06.01-.03v-.03h-.2Zm0-6.388.184.078.01-.02.003-.022-.197-.036Zm-.29-3.51-.124-.157-.076.06v.097h.2Zm0-2.302.197-.036-.001-.005-.196.04Zm.073-4.777h-.2v.025l.006.024.194-.049Zm0-.115-.125-.156-.076.06v.096h.2Zm.072-.345-.187-.07-.013.033v.037h.2Zm.508-1.554.192.054.008-.026V3.58h-.2Zm-.073-.633.17-.106-.17.106Zm-.725-.403.031-.197-.015-.003h-.016v.2Zm-1.16 0-.027-.198h-.005l.031.198Zm-2.33.403-.01-.2-.01.001-.01.002.03.197Zm-1.08.173v.2h.015l.016-.003-.031-.197Zm-1.298.23-.031-.198-.007.002.038.196Zm-.879.173.032.197.007-.001-.039-.196Zm-4.05.057-.029.198.01.001.008.001.01-.2Zm-4.365-.633.029-.198h-.008l-.009-.001-.012.2Zm-3.99-.172-.039.196.02.004h.02v-.2Zm-.725.345-.19-.06-.01.03v.03h.2Zm-.145.518-.125-.157-.075.06v.097h.2Zm-.073.172-.124-.156-.097.077.026.12.195-.04Zm.145.921h.2v-.04l-.015-.037-.185.077Zm.073.23h-.2v.04l.015.038.185-.078Zm.072.864.125.156.034-.027.02-.04-.179-.09Zm-.072.115.197.035.003-.017V5.94h-.2Zm-.145 2.647h.2v-.015l-.2.015Zm.362 5.985.185.077.016-.037v-.04h-.2Zm-.072.403.2.018V14.976h-.2Zm-.073.805.2.021V15.8l-.2-.018Zm-.29 2.187-.196-.038-.004.019v.02h.2Zm0 .288.196.041.004-.02v-.021h-.2Zm0 1.15-.197.036.003.013.004.012.19-.06Zm.073.231.195-.041-.002-.01-.002-.01-.191.061Zm.29 2.474h-.2v.037l.013.034.187-.07Zm.072 1.957.195.05.002-.012-.197-.038Zm-.072 2.014.197.031.003-.015v-.016h-.2Zm-.073.46-.197-.03-.003.015v.016h.2Zm0 .058.185.078.015-.037v-.04h-.2Zm0 1.151.195-.045v-.004l-.195.05Zm-.145 1.611.125.157.021-.017.017-.023-.163-.116Zm-.145.116-.124-.157-.027.021-.018.029.17.107Zm0 .287-.169.107.018.029.027.021.124-.157Zm20.385.23v.2h.033l.031-.01-.064-.19Zm.508-.172.064.19.01-.004-.074-.186Zm.29-.23-.197-.036-.003.018v.018h.2ZM31.434 3.639l.138.145.062-.06V3.64h-.2Zm-.653 1.093.178.09.005-.008.003-.01-.186-.072Zm0 1.266h.2v-.04l-.016-.037-.184.077Zm0 .403h-.2v.016l.002.015.198-.03Zm-.073 1.209-.188-.068-.002.007.19.06Zm-.072 1.266h.2V8.86l-.003-.016-.197.032Zm.072 1.899-.195.04.001.009.194-.05Zm0 2.474h-.2v.073l.047.056.153-.129Zm.073.576.196-.041-.002-.01-.003-.01-.191.06Zm0 .978h.2v-.02l-.004-.021-.196.041Zm0 .403-.074-.186-.126.05v.136h.2Zm.145 3.855h.2v-.03l-.01-.03-.19.06Zm.073.346h.2v-.058l-.031-.049-.17.107Zm.072.633h.2v-.03l-.01-.03-.19.06Zm.073.978.198-.028-.003-.013-.195.041ZM31.07 22.4l-.191-.06-.003.011.194.05Zm.145 1.9-.185.077.007.012.178-.09Zm.218 4.66h.2v-.017l-.003-.018-.197.036Zm-18.571.116h-.2v.2h.2v-.2Zm.072-1.727.17.107.022-.036.006-.041-.198-.03Zm.073-2.704h-.2v.018l.2-.018Zm0-.058-.194-.049-.006.024v.025h.2Zm.145-1.899h-.2v.02l.2-.02Zm-.145-1.209h-.2v.018l.003.018.197-.035Zm-.073-.575h-.2v.058l.03.049.17-.107Zm-.218-2.705.195.045.005-.022v-.023h-.2Zm.073-.69-.194-.05-.006.025v.025h.2Zm.145-1.094-.197-.035-.003.017v.018h.2Zm.145-1.726.185.077.015-.037v-.04h-.2Zm0-2.302h-.2v.016l.003.015.197-.031Zm-.072-.633h.2v-.016l-.003-.015-.197.031Zm-.218-2.877h-.2v.03l.01.03.19-.06Zm0-.058h.2v-.025l-.006-.024-.194.05Zm-.218-5.294v-.2h-.2v.2h.2Zm.29 0 .03-.198-.015-.002h-.014v.2Zm4.91.7-.044.196.01.002.008.001.027-.198Zm2.58.342-.026.198.025.003.024-.002-.023-.2Zm4.48-.341.03.198.004-.001-.034-.197Zm2.757-.471-.004-.2h-.015l-.015.003.034.197Zm1.45-.173v-.2h-.021l-.022.005.044.195Zm.218 0v.2h.039l.035-.014-.073-.186Zm1.016-.172-.026-.199-.005.001.031.198Zm1.088-.115h.2v-.097l-.076-.06-.124.156Zm1.345 25.358c-.086-.205-.13-.263-.13-.383h-.4c0 .226.103.398.161.538l.37-.155Zm-.13-.383v-3.51h-.4v3.51h.4Zm0-3.51c0-.22-.091-.432-.16-.596l-.369.155c.077.182.13.316.13.44h.4Zm-.144-.518c0-.025.001-.084-.019-.147a.375.375 0 0 0-.13-.183l-.248.314c.005.004.005.005.003.002a.05.05 0 0 1-.006-.012v-.002V24.241h.4Zm-.073-.173a.694.694 0 0 0-.048-.233l-.023-.064c-.006-.02-.001-.01-.001.01h-.4c0 .048.014.093.021.115l.027.075a.32.32 0 0 1 .024.097h.4Zm-.088-.365c-.07-.167-.13-.367-.13-.498h-.4c0 .214.086.475.161.653l.37-.155Zm-.13-.498c0-.175.002-.376.064-.573l-.382-.12c-.083.263-.081.523-.081.693h.4Zm.073-.633c0-.065.014-.146.033-.252.017-.096.04-.216.04-.324h-.4c0 .065-.014.147-.033.253-.018.095-.04.215-.04.323h.4Zm.073-.576v-1.323h-.4v1.323h.4Zm0-1.323c0-.24-.02-.491-.037-.734a9.74 9.74 0 0 1-.036-.705h-.4c0 .24.019.491.037.734.018.247.036.483.036.705h.4Zm-.073-1.439v-.575h-.4v.575h.4Zm0-.575c0-.323-.018-.646-.036-.961a16.422 16.422 0 0 1-.036-.938h-.4c0 .323.018.645.036.96.018.318.036.629.036.939h.4Zm-.072-1.9c0-.183.003-.37.056-.497l-.368-.155c-.091.217-.088.491-.088.653h.4Zm.069-.54c.013-.072.014-.179.011-.292a9.072 9.072 0 0 0-.023-.424c-.024-.32-.063-.71-.104-1.088-.04-.379-.084-.748-.117-1.03l-.04-.346-.014-.135h-.4c0 .029.008.1.017.18l.04.348c.033.281.076.649.116 1.026.041.377.08.76.103 1.075.012.157.02.295.023.405.003.115 0 .183-.006.21l.394.072Zm-.287-3.315v-.23h-.4v.23h.4Zm-.076-.074a.39.39 0 0 0 .136-.243c.013-.072.012-.148.012-.201h-.4c0 .062 0 .1-.005.13-.005.028-.01.015.009.001l.248.313Zm.149-.444v-.863h-.4v.863h.4Zm0-.863c0-.343 0-.764-.076-1.187l-.394.071c.069.383.07.768.07 1.116h.4Zm-.077-1.192c-.068-.323-.069-.59-.069-.937h-.4c0 .343 0 .65.077 1.019l.392-.082Zm-.069-.937c0-.284.001-.597-.078-.913l-.388.098c.065.26.066.523.066.815h.4Zm-.078-.913a.677.677 0 0 1 .018-.333c.016-.066.037-.132.06-.205.023-.07.047-.148.067-.227l-.388-.098a3.628 3.628 0 0 1-.06.205c-.023.07-.047.148-.067.227a1.07 1.07 0 0 0-.018.53l.388-.099Zm.145-.765c.071-.283.151-.595.151-.912h-.4c0 .258-.065.522-.139.814l.388.098Zm.151-.912v-.288h-.4v.288h.4Zm0-.288c0-.282.001-.653-.079-.97l-.387.098c.065.26.066.578.066.872h.4Zm-.073-.92V5.48h-.4v.115h.4Zm-.075.041a.364.364 0 0 0 .133-.201c.016-.066.015-.137.015-.186h-.4v.066a.207.207 0 0 1-.003.022c0-.002.002-.007.006-.013.004-.005.005-.006 0-.001l.249.313Zm.148-.387v-.115h-.4v.115h.4Zm-.013-.044c.22-.582.367-1.048.513-1.57l-.385-.109c-.143.514-.287.968-.502 1.537l.374.142Zm.52-1.625v-.23h-.4v.23h.4Zm0-.23c0-.056.001-.14-.01-.226a.694.694 0 0 0-.093-.283l-.338.213c.014.022.027.06.034.12.008.057.008.117.008.176h.4Zm-.102-.51c-.188-.297-.47-.43-.864-.493l-.063.395c.332.052.485.149.588.312l.339-.213Zm-.895-.496c-.142 0-.305-.013-.519-.021a4.007 4.007 0 0 0-.668.023l.052.397c.202-.027.407-.027.602-.02.185.006.385.021.533.021v-.4Zm-1.192.003c-.554.088-.858.177-1.152.247-.29.07-.587.125-1.155.153l.02.4a6.09 6.09 0 0 0 1.228-.164c.307-.073.587-.156 1.122-.241l-.063-.395Zm-2.329.403-1.08.172.062.395 1.081-.172-.063-.395Zm-1.05.17c-.24 0-.492.047-.719.098-.237.053-.436.107-.609.135l.063.395c.19-.03.421-.092.634-.14a2.99 2.99 0 0 1 .632-.088v-.4Zm-1.335.234-.88.172.078.393.879-.173-.077-.392Zm-.872.171c-1.064.169-2.917.113-4.009.056l-.02.399c1.084.057 2.98.117 4.092-.06l-.063-.395Zm-3.99.057-4.365-.633-.058.396 4.365.633.058-.396Zm-4.382-.634a49.147 49.147 0 0 0-2.986-.116v.4c1.009 0 2.019.057 2.962.115l.024-.4Zm-2.986-.116c-.094 0-.19-.012-.311-.027a3.304 3.304 0 0 0-.415-.03v.4c.133 0 .25.013.366.027.114.014.236.03.36.03v-.4Zm-.726-.057h-.29v.4h.29v-.4Zm-.25.003a.933.933 0 0 0-.57.08c-.163.078-.327.213-.386.402l.382.12c.013-.042.067-.108.176-.16a.535.535 0 0 1 .32-.05l.077-.392Zm-.965.542c0 .026-.01.072-.029.14-.008.028-.019.064-.026.093a.463.463 0 0 0-.018.112h.4c0 .015-.002.017.005-.011l.024-.086a.973.973 0 0 0 .044-.248h-.4Zm-.073.345v.018a.15.15 0 0 1 0 .01v-.002a.045.045 0 0 1 .007-.012c.002-.003.002-.002-.004.002l.25.313a.376.376 0 0 0 .129-.182c.02-.063.018-.122.018-.147h-.4Zm-.072.173V3.666v-.001a.048.048 0 0 1 .006-.012c.002-.003.002-.002-.003.002l.248.313a.376.376 0 0 0 .13-.183c.02-.062.019-.122.019-.146h-.4Zm-.068.214c.032.154.031.274.041.431.01.155.03.324.115.526l.369-.155a1.127 1.127 0 0 1-.085-.396c-.008-.13-.009-.297-.05-.489l-.39.083Zm.14.88c0 .048.014.093.022.116l.03.076.02.05c.006.016 0 .008 0-.013h.4a.364.364 0 0 0-.021-.117l-.03-.075a.822.822 0 0 1-.02-.05c-.006-.017 0-.008 0 .012h-.4Zm.088.307c.073.173.117.295.132.402a.473.473 0 0 1-.053.294l.357.18c.09-.18.116-.35.092-.527a2.026 2.026 0 0 0-.159-.504l-.368.155Zm.133.629a.402.402 0 0 0-.123.158.326.326 0 0 0-.024.094l-.001.01V5.94h.4v.008a.132.132 0 0 1-.002.018.077.077 0 0 1-.005.016c-.003.01-.006.008.004 0l-.249-.313Zm-.145.236c-.148.82-.222 1.7-.148 2.698l.4-.03c-.072-.959 0-1.805.142-2.597l-.394-.07Zm-.148 2.683c0 .184.019.381.037.566.018.19.035.366.035.527h.4c0-.184-.019-.38-.037-.566a5.644 5.644 0 0 1-.035-.527h-.4Zm.072 1.093c0 .212.02.436.037.65.019.218.036.425.036.616h.4c0-.211-.02-.435-.037-.65a7.571 7.571 0 0 1-.036-.616h-.4Zm.073 1.266c0 .317.08.63.151.912l.388-.097c-.074-.293-.14-.556-.14-.815h-.4Zm.151.912c.138.548.139 1.099.139 1.678h.4c0-.572.001-1.172-.151-1.775l-.388.097Zm.139 1.678v.345h.4v-.345h-.4Zm0 .345c0 .097-.015.197-.034.314-.017.113-.038.243-.038.377h.4c0-.097.015-.197.033-.314.018-.113.039-.243.039-.377h-.4Zm-.057.613c-.088.21-.088.358-.088.48h.4c0-.107 0-.19.057-.325l-.369-.155Zm-.087.463-.073.805.399.036.072-.805-.398-.036Zm-.072.802c-.073.694-.145 1.432-.288 2.17l.393.076c.147-.758.22-1.516.292-2.204l-.398-.042Zm-.292 2.208v.288h.4v-.288h-.4Zm.005.247a3.266 3.266 0 0 0-.002 1.227l.394-.07a2.87 2.87 0 0 1-.001-1.075l-.391-.082Zm.005 1.252.072.23.382-.12-.073-.23-.382.12Zm.067.211c.145.691.286 1.42.286 2.146h.4c0-.771-.15-1.538-.295-2.228l-.391.082Zm.286 2.146v.287h.4v-.287h-.4Zm.013.358c.2.528.204 1.12.063 1.848l.393.076c.149-.767.154-1.442-.082-2.065l-.374.141Zm.066 1.837c-.08.314-.08.567-.08.797h.4c0-.23.002-.438.067-.699l-.387-.098Zm-.08.797v1.266h.4v-1.266h-.4Zm.003 1.235-.072.46.395.063.072-.46-.395-.063Zm-.075.492v.057h.4v-.057h-.4Zm.016-.02c-.092.22-.163.668-.01 1.277l.388-.098c-.136-.541-.062-.899-.01-1.024l-.368-.155Zm-.01 1.273c.142.62.124 1.12-.113 1.45l.325.233c.343-.476.325-1.127.177-1.773l-.39.09Zm-.075 1.41-.145.115.248.313.146-.115-.249-.313Zm-.19.165a.468.468 0 0 0-.085.25c0 .102.044.186.085.251l.338-.213a.273.273 0 0 1-.023-.043c-.002-.005 0-.002 0 .006 0 .007-.002.01 0 .005a.273.273 0 0 1 .023-.043l-.338-.213Zm.045.551c.034.027.087.07.156.103a.59.59 0 0 0 .258.055v-.4a.19.19 0 0 1-.086-.016.431.431 0 0 1-.08-.055l-.248.313Zm.414.158h3.337v-.4h-3.337v.4Zm3.337 0c.358 0 .699.015 1.044.029.344.014.693.029 1.06.029v-.4c-.358 0-.698-.014-1.043-.029-.344-.014-.693-.029-1.06-.029v.4Zm2.104.058c.249 0 .552.014.88.029.326.014.675.028 1.006.028v-.4c-.321 0-.662-.014-.988-.028-.325-.014-.638-.029-.898-.029v.4Zm1.886.057H31.87v-.4H19.101v.4Zm12.832-.01.508-.173-.129-.378-.507.172.128.379Zm.518-.176c.066-.027.16-.063.236-.113.076-.05.18-.146.18-.303h-.4a.07.07 0 0 1 .012-.04c.003-.004.002 0-.013.01a.468.468 0 0 1-.065.033c-.029.014-.06.026-.098.041l.148.372Zm.413-.38c.084-.467-.091-.77-.151-.96l-.382.12c.085.271.2.429.14.768l.393.071ZM31.296 3.493c-.207.197-.383.496-.503.73a5.444 5.444 0 0 0-.184.4c-.005.01-.008.02-.01.026l-.003.007-.001.002.186.073.186.073v-.002l.003-.005a5.043 5.043 0 0 1 .18-.392c.115-.227.266-.474.422-.622l-.276-.29Zm-.694 1.148c-.333.662-.08 1.256-.006 1.434l.37-.155c-.071-.168-.253-.61-.007-1.099l-.357-.18Zm-.021 1.356v.403h.4v-.403h-.4Zm.002.434c.07.442.067.75-.063 1.11l.377.135c.16-.445.157-.828.081-1.307l-.395.062Zm-.065 1.117c-.157.498-.156.875-.08 1.358l.395-.063c-.069-.438-.067-.75.066-1.174l-.381-.12Zm-.082 1.327v.805h.4v-.805h-.4Zm0 .805c0 .34-.001.765.077 1.135l.391-.082c-.067-.322-.068-.703-.068-1.053h-.4Zm.078 1.143c.004.015.01.061.015.147.005.08.008.181.01.298.003.234.001.521-.003.804-.01.56-.028 1.118-.028 1.176h.4c0-.057.018-.591.027-1.17.005-.284.007-.576.004-.815a7.405 7.405 0 0 0-.01-.317 1.328 1.328 0 0 0-.027-.221l-.388.098Zm.041 2.554c.019.022.026.038.018.118-.008.076-.034.226.017.389l.382-.12c-.021-.067-.012-.119-.001-.23a.52.52 0 0 0-.11-.415l-.306.258Zm.03.488c.029.136.016.264-.003.425-.018.155-.04.344.003.553l.392-.082a1.289 1.289 0 0 1 .003-.425c.017-.155.04-.345-.003-.553l-.392.082Zm-.004.937c0 .061.018.124.028.16.014.047.024.076.031.108.008.033.004.035.007.022a.103.103 0 0 1 .021-.043.1.1 0 0 1 .04-.03l.147.372a.293.293 0 0 0 .183-.215.455.455 0 0 0-.008-.196c-.01-.047-.028-.101-.037-.13-.012-.042-.012-.052-.012-.048h-.4Zm0 .403c0 .158.02.315.038.457.018.146.034.277.034.406h.4c0-.158-.02-.315-.037-.457a3.283 3.283 0 0 1-.035-.406h-.4Zm.072.863v2.36h.4v-2.36h-.4Zm0 2.36c0 .23 0 .43.082.693l.382-.12c-.063-.198-.064-.343-.064-.573h-.4Zm.073.633c0 .11-.004.281.103.451l.339-.213c-.038-.06-.042-.12-.042-.239h-.4Zm.073.345c0 .23-.001.43.081.693l.382-.12c-.063-.198-.064-.343-.064-.573h-.4Zm.072.633c0 .285 0 .65.077 1.02l.391-.083c-.067-.322-.068-.647-.068-.937h-.4Zm.075 1.006c.07.5.067.871-.066 1.293l.382.12c.157-.498.155-.934.08-1.469l-.396.056Zm-.069 1.304a3.114 3.114 0 0 0 .155 2.026l.369-.155a2.715 2.715 0 0 1-.136-1.773l-.388-.098Zm.16 2.038c.137.27.197.47.197.716h.4c0-.329-.085-.59-.24-.896l-.356.18Zm.197.716c0 .427-.018.854-.036 1.28-.018.422-.037.844-.037 1.252h.4c0-.398.018-.81.036-1.236.018-.424.037-.86.037-1.296h-.4Zm-.073 2.532v.173h.4v-.173h-.4Zm0 .173c0 .401 0 .763.076 1.186l.394-.07c-.07-.384-.07-.712-.07-1.116h-.4Zm.073 1.15V28.988v-.001a.046.046 0 0 1 .006-.012c.002-.003.002-.003-.003.002l.248.313a.376.376 0 0 0 .13-.183c.02-.063.019-.122.019-.146h-.4Zm.003.017a.048.048 0 0 1-.023.01.376.376 0 0 1-.07.004v.4c.07 0 .209.004.341-.101l-.248-.313Zm-.093.014H17.288v.4h13.856v-.4Zm-13.856 0c-.395 0-.79-.014-1.19-.029-.398-.014-.801-.029-1.204-.029v.4c.395 0 .79.015 1.19.029.398.014.8.029 1.204.029v-.4Zm-2.394-.058c-.285 0-.57-.014-.86-.028-.29-.014-.585-.03-.881-.03v.4c.284 0 .57.015.86.03.29.014.585.028.88.028v-.4Zm-1.741-.057h-.29v.4h.29v-.4Zm-.09.2c0-.061.013-.128.03-.207.016-.066.042-.167.042-.254h-.4c0 .03-.01.072-.031.164a1.332 1.332 0 0 0-.041.297h.4Zm.072-.46v-.864h-.4v.863h.4Zm0-.864a.8.8 0 0 0-.013-.128c-.006-.04-.012-.067-.016-.098-.008-.065.002-.075-.002-.07l-.338-.213a.497.497 0 0 0-.056.333c.005.04.013.085.018.114a.432.432 0 0 1 .007.062h.4Zm-.002-.373c.148-.997.148-1.933.074-2.752l-.399.036c.072.792.072 1.697-.07 2.657l.395.059Zm.075-2.734v-.058h-.4v.058h.4Zm-.006-.009c.15-.594.225-1.251.15-1.969l-.398.042c.07.663 0 1.273-.14 1.83l.388.097Zm.15-1.948c0-.424-.076-.844-.148-1.244l-.393.071c.073.406.142.791.142 1.173h.4Zm-.144-1.209v-.172h-.4v.172h.4Zm0-.172c0-.056 0-.14-.011-.227a.694.694 0 0 0-.093-.283l-.338.214c.014.022.027.06.034.12.007.057.008.117.008.176h.4Zm-.073-.403c0-.314-.078-.68-.151-.97l-.388.098c.072.286.14.611.14.872h.4Zm-.151-.97c-.141-.56-.207-1.1-.072-1.69l-.39-.09c-.154.677-.075 1.287.074 1.878l.388-.098Zm-.066-1.735v-.057h-.4v.057h.4Zm0-.057c0-.065.014-.147.033-.252.017-.096.039-.216.039-.324h-.4c0 .065-.014.147-.033.253-.017.095-.04.215-.04.323h.4Zm.072-.576v-.057h-.4v.057h.4Zm-.006-.008c.075-.298.151-.718.151-1.143h-.4c0 .381-.069.767-.139 1.045l.388.098Zm.148-1.107c.076-.423.076-.785.076-1.187h-.4c0 .405 0 .733-.07 1.116l.394.07Zm.076-1.187c0-.183.003-.37.057-.498l-.37-.155c-.09.218-.087.492-.087.653h.4Zm.072-.575v-.978h-.4v.978h.4Zm0-.978c0-.226.018-.427.027-.654.01-.22.01-.452-.03-.701l-.394.062c.033.211.033.412.025.622-.009.205-.028.435-.028.67h.4Zm0-1.324c0-.135-.021-.253-.04-.352a1.543 1.543 0 0 1-.032-.281h-.4c0 .135.021.253.04.352.018.102.032.186.032.281h.4Zm-.075-.664c-.073-.463-.142-.908-.142-1.35h-.4c0 .479.075.954.147 1.412l.395-.062Zm-.142-1.35v-.806h-.4v.806h.4Zm0-.806c0-.226.001-.486-.082-.75l-.382.12c.062.196.064.396.064.63h.4Zm-.073-.69v-.058h-.4v.058h.4Zm-.006-.107a6.227 6.227 0 0 1-.212-1.505h-.4c0 .481.076 1.016.224 1.603l.388-.098Zm-.212-1.505c0-.49.137-.977.214-1.34l-.392-.082c-.069.327-.222.877-.222 1.422h.4Zm.214-1.34c.07-.335.167-.76-.1-1.183l-.338.213c.17.268.12.533.046.888l.392.082Zm-.1-1.183a.84.84 0 0 1-.123-.429 2.998 2.998 0 0 1 .001-.259c.004-.091.008-.194.008-.3h-.4c0 .097-.004.189-.007.286a3.41 3.41 0 0 0-.001.293c.01.203.052.412.184.622l.339-.213Zm-.114-.987v-.23h-.4v.23h.4Zm-.2-.03h.29v-.4h-.29v.4Zm.262-.002c1.633.235 2.32.113 4.894.698l.089-.39c-2.585-.587-3.367-.48-4.926-.704l-.057.396Zm4.912.701 2.58.341.052-.396-2.58-.341-.052.396Zm2.63.342c.714-.085 1.24-.085 1.893-.107a21.479 21.479 0 0 0 2.592-.235l-.058-.396c-1.156.17-1.906.21-2.547.232-.642.02-1.191.02-1.928.108l.047.398Zm4.49-.343 2.757-.471-.068-.394-2.756.47.067.395Zm2.727-.468a7.416 7.416 0 0 0 1.49-.178l-.087-.39c-.459.103-.933.16-1.41.168l.007.4Zm1.447-.173h.218v-.4h-.218v.4Zm.291-.014a.928.928 0 0 1 .134-.033 6.16 6.16 0 0 1 .248-.041c.183-.028.412-.058.591-.087l-.062-.395c-.183.03-.39.056-.588.086a6.54 6.54 0 0 0-.266.045c-.074.014-.15.031-.204.053l.147.372Zm.968-.16c.216-.029.371-.042.504-.057.126-.014.241-.03.342-.07l-.148-.372a1 1 0 0 1-.239.044c-.12.014-.292.03-.511.058l.052.397Zm.846-.128a.605.605 0 0 1 .098-.029l-.007-.002c-.004-.001-.004-.002 0 .002l.25-.313a.38.38 0 0 0-.243-.087.678.678 0 0 0-.246.058l.148.371Zm.016-.186c0 .049.014.094.02.115l.014.038.012.037a.508.508 0 0 1 .027.156h.4a.905.905 0 0 0-.046-.276l-.014-.044-.01-.032c-.008-.022-.003-.013-.003.006h-.4Zm.473.346V3.595h-.4V3.639h.4V3.595h-.4V3.639h.4Z" fill="#1E5D8A" mask="url(#a)"/><path d="M12.327 2.52c.995 0 2.091-.06 2.935-.332.573-.185 1.098-.436 1.764-.552.944-.163 1.69-.412 2.737-.412.473 0 .919-.078 1.395-.078h1.17c.782 0 1.441.08 2.152.213.514.097 1.064.146 1.58.258.324.07.504.219.788.314.58.194 1.31.201 1.966.272.426.046.83.093 1.256.122.26.018.712.068.892.155" stroke="#1E5D8A" stroke-width="1.5" stroke-linecap="round" stroke-linejoin="round"/><mask id="b" maskUnits="userSpaceOnUse" x="13.319" y="4.593" width="18" height="24" fill="#000"><path fill="#fff" d="M13.319 4.593h18v24h-18z"/><path fill-rule="evenodd" clip-rule="evenodd" d="M25.173 5.629c.458.015.889.03 1.273.03.515 0 .844.068 1.145.13h.001c.286.06.543.112.966.112a2.232 2.232 0 0 0 .224-.018c.099-.01.23-.022.357-.019a.94.94 0 0 1 .462.12.65.65 0 0 1 .313.571c0 .53-.02 1.058-.096 1.603-.038.279-.05.565-.064.876l-.004.089a7.804 7.804 0 0 1-.16 1.381c-.087.456-.162.85-.162 1.282 0 .378.049.75.114 1.143.019.116.04.236.062.358.049.28.1.573.138.863.065.515.06 1.045.053 1.536l-.003.394v.86a3.434 3.434 0 0 1-.018.306c-.007.083-.013.16-.017.236-.004.084-.003.152.003.204a.301.301 0 0 0 .01.053c.23.398.244.844.242 1.191 0 .074-.002.143-.003.21-.004.283-.007.5.044.7.17.681.168 1.424.165 2.066v2.819c.003.451.006.982-.082 1.46-.08.445-.186.882-.293 1.309a.644.644 0 0 0-.01.103l-.002.02c-.002.05-.007.133-.02.207a.683.683 0 0 1-.175.364.64.64 0 0 1-.47.188c-.85 0-1.674-.06-2.5-.126-.714-.056-1.424-.283-2.04-.505-.308-.11-.772-.172-1.163-.21-.405-.041-.81-.066-1.211-.066l-.625-.002c-.409-.002-.812-.004-1.218.002-.47.007-.951.066-1.45.14l-.346.05c-.386.059-.785.119-1.179.157-.587.058-1.21.043-1.794.028-.25-.006-.494-.012-.724-.012a.51.51 0 0 1-.416-.217.677.677 0 0 1-.105-.24 1.675 1.675 0 0 1-.035-.367c0-.114.006-.23.01-.322l.005-.067.003-.052.002-.04v-.014c0-.74.016-1.48.031-2.213V24.3c.015-.735.03-1.465.03-2.194 0-.913.018-1.828.036-2.737.01-.486.018-.971.025-1.453.006-.406.021-.8.037-1.189.03-.753.058-1.483.011-2.23-.031-.501-.023-1.008-.015-1.494l.002-.186c.008-.55.01-1.076-.046-1.587-.173-1.596-.172-3.211-.171-4.787v-.34a.441.441 0 0 1 .503-.439c.601.08 2.123.12 3.683.118 1.558-.002 3.085-.044 3.692-.119.643-.078 1.413-.077 2.158-.059.28.007.553.017.817.026Zm-.84.859c-.741-.019-1.455-.018-2.027.052-.67.082-2.25.124-3.799.126-1.238 0-2.5-.023-3.299-.079 0 1.534.004 3.051.167 4.547.062.57.06 1.144.051 1.695a103.617 103.617 0 0 1-.004.263c1.108.004 2.21.027 3.322.1.189.013.37.028.547.042.392.032.764.063 1.151.063h.261c1.534 0 3.053.001 4.529-.212.87-.126 1.81-.25 2.724-.25.023 0 .073-.003.163-.008l.03-.002a8.202 8.202 0 0 1 .474-.017 7 7 0 0 1-.084-1.022c0-.524.094-1.014.183-1.475l.054-.284a6.984 6.984 0 0 0 .09-1.036 10 10 0 0 1 .072-.955c.06-.426.081-.847.086-1.286a3.546 3.546 0 0 0-.153.013l-.034.003c-.082.009-.189.02-.279.02a5.08 5.08 0 0 1-1.144-.13h-.002a4.215 4.215 0 0 0-.966-.112c-.398 0-.857-.016-1.327-.032-.261-.009-.526-.018-.785-.024Zm4.446 7.244a.448.448 0 0 1-.063-.035 1.899 1.899 0 0 0-.208-.004c-.1.002-.206.008-.302.014l-.035.003c-.077.005-.16.01-.215.01-.843 0-1.726.115-2.596.24-1.542.223-3.122.222-4.64.222h-.278c-.425 0-.856-.036-1.265-.07a33.062 33.062 0 0 0-.492-.037 51.586 51.586 0 0 0-3.266-.098c.003.155.009.31.018.463.05.79.018 1.6-.012 2.382l-.013.334c.474.03.94.1 1.384.166l.029.004c.586.087 1.138.167 1.69.172.327.004.653.015.971.026.028 0 .055.002.082.003a29.67 29.67 0 0 0 1.135.023c.762 0 1.466 0 2.18-.109.183-.028.365-.054.545-.08.556-.08 1.094-.156 1.611-.285.699-.174 1.424-.22 2.128-.224.353-.002.705.006 1.047.014l.068.002c.21.005.418.01.622.013v-.8c0-.151.001-.298.003-.441.005-.482.01-.93-.047-1.379a12.4 12.4 0 0 0-.08-.529Zm.096 4.034c-.204-.003-.41-.009-.613-.014l-.07-.001a32.962 32.962 0 0 0-1.019-.014c-.675.004-1.32.048-1.918.197-.566.141-1.168.227-1.733.308-.172.024-.341.048-.504.073-.783.12-1.55.12-2.296.12h-.129a30.452 30.452 0 0 1-1.136-.027c-.32-.011-.635-.022-.95-.025-.624-.006-1.236-.096-1.813-.182h-.001c-.45-.067-.88-.13-1.304-.16-.006.454-.015.906-.024 1.357-.017.903-.035 1.802-.035 2.707 0 .738-.015 1.476-.03 2.209v.003c-.016.735-.03 1.465-.03 2.196 0 .042-.005.111-.009.174 0 .018-.002.035-.003.05-.004.07-.007.143-.009.213l.48.01c.556.015 1.086.028 1.618-.024.368-.036.736-.091 1.118-.149l.365-.054c.506-.074 1.034-.14 1.565-.149.415-.006.835-.004 1.249-.002l.608.002c.437 0 .872.027 1.3.07.382.038.951.106 1.376.26.605.217 1.221.408 1.809.455.751.06 1.476.112 2.212.121.004-.06.013-.134.032-.211.106-.422.205-.837.28-1.252.072-.39.07-.828.069-1.286l-.001-.224v-2.609c.002-.66.004-1.286-.139-1.853-.081-.325-.075-.685-.07-.971l.003-.159c.002-.346-.024-.575-.125-.747a.997.997 0 0 1-.121-.393l-.002-.02Zm.06 9.912Zm-13.675-.506v-.001c.001.004.001.004 0 0Z"/></mask><path fill-rule="evenodd" clip-rule="evenodd" d="M25.173 5.629c.458.015.889.03 1.273.03.515 0 .844.068 1.145.13h.001c.286.06.543.112.966.112a2.232 2.232 0 0 0 .224-.018c.099-.01.23-.022.357-.019a.94.94 0 0 1 .462.12.65.65 0 0 1 .313.571c0 .53-.02 1.058-.096 1.603-.038.279-.05.565-.064.876l-.004.089a7.804 7.804 0 0 1-.16 1.381c-.087.456-.162.85-.162 1.282 0 .378.049.75.114 1.143.019.116.04.236.062.358.049.28.1.573.138.863.065.515.06 1.045.053 1.536l-.003.394v.86a3.434 3.434 0 0 1-.018.306c-.007.083-.013.16-.017.236-.004.084-.003.152.003.204a.301.301 0 0 0 .01.053c.23.398.244.844.242 1.191 0 .074-.002.143-.003.21-.004.283-.007.5.044.7.17.681.168 1.424.165 2.066v2.819c.003.451.006.982-.082 1.46-.08.445-.186.882-.293 1.309a.644.644 0 0 0-.01.103l-.002.02c-.002.05-.007.133-.02.207a.683.683 0 0 1-.175.364.64.64 0 0 1-.47.188c-.85 0-1.674-.06-2.5-.126-.714-.056-1.424-.283-2.04-.505-.308-.11-.772-.172-1.163-.21-.405-.041-.81-.066-1.211-.066l-.625-.002c-.409-.002-.812-.004-1.218.002-.47.007-.951.066-1.45.14l-.346.05c-.386.059-.785.119-1.179.157-.587.058-1.21.043-1.794.028-.25-.006-.494-.012-.724-.012a.51.51 0 0 1-.416-.217.677.677 0 0 1-.105-.24 1.675 1.675 0 0 1-.035-.367c0-.114.006-.23.01-.322l.005-.067.003-.052.002-.04v-.014c0-.74.016-1.48.031-2.213V24.3c.015-.735.03-1.465.03-2.194 0-.913.018-1.828.036-2.737.01-.486.018-.971.025-1.453.006-.406.021-.8.037-1.189.03-.753.058-1.483.011-2.23-.031-.501-.023-1.008-.015-1.494l.002-.186c.008-.55.01-1.076-.046-1.587-.173-1.596-.172-3.211-.171-4.787v-.34a.441.441 0 0 1 .503-.439c.601.08 2.123.12 3.683.118 1.558-.002 3.085-.044 3.692-.119.643-.078 1.413-.077 2.158-.059.28.007.553.017.817.026Zm-.84.859c-.741-.019-1.455-.018-2.027.052-.67.082-2.25.124-3.799.126-1.238 0-2.5-.023-3.299-.079 0 1.534.004 3.051.167 4.547.062.57.06 1.144.051 1.695a103.617 103.617 0 0 1-.004.263c1.108.004 2.21.027 3.322.1.189.013.37.028.547.042.392.032.764.063 1.151.063h.261c1.534 0 3.053.001 4.529-.212.87-.126 1.81-.25 2.724-.25.023 0 .073-.003.163-.008l.03-.002a8.202 8.202 0 0 1 .474-.017 7 7 0 0 1-.084-1.022c0-.524.094-1.014.183-1.475l.054-.284a6.984 6.984 0 0 0 .09-1.036 10 10 0 0 1 .072-.955c.06-.426.081-.847.086-1.286a3.546 3.546 0 0 0-.153.013l-.034.003c-.082.009-.189.02-.279.02a5.08 5.08 0 0 1-1.144-.13h-.002a4.215 4.215 0 0 0-.966-.112c-.398 0-.857-.016-1.327-.032-.261-.009-.526-.018-.785-.024Zm4.446 7.244a.448.448 0 0 1-.063-.035 1.899 1.899 0 0 0-.208-.004c-.1.002-.206.008-.302.014l-.035.003c-.077.005-.16.01-.215.01-.843 0-1.726.115-2.596.24-1.542.223-3.122.222-4.64.222h-.278c-.425 0-.856-.036-1.265-.07a33.062 33.062 0 0 0-.492-.037 51.586 51.586 0 0 0-3.266-.098c.003.155.009.31.018.463.05.79.018 1.6-.012 2.382l-.013.334c.474.03.94.1 1.384.166l.029.004c.586.087 1.138.167 1.69.172.327.004.653.015.971.026.028 0 .055.002.082.003a29.67 29.67 0 0 0 1.135.023c.762 0 1.466 0 2.18-.109.183-.028.365-.054.545-.08.556-.08 1.094-.156 1.611-.285.699-.174 1.424-.22 2.128-.224.353-.002.705.006 1.047.014l.068.002c.21.005.418.01.622.013v-.8c0-.151.001-.298.003-.441.005-.482.01-.93-.047-1.379a12.4 12.4 0 0 0-.08-.529Zm.096 4.034c-.204-.003-.41-.009-.613-.014l-.07-.001a32.962 32.962 0 0 0-1.019-.014c-.675.004-1.32.048-1.918.197-.566.141-1.168.227-1.733.308-.172.024-.341.048-.504.073-.783.12-1.55.12-2.296.12h-.129a30.452 30.452 0 0 1-1.136-.027c-.32-.011-.635-.022-.95-.025-.624-.006-1.236-.096-1.813-.182h-.001c-.45-.067-.88-.13-1.304-.16-.006.454-.015.906-.024 1.357-.017.903-.035 1.802-.035 2.707 0 .738-.015 1.476-.03 2.209v.003c-.016.735-.03 1.465-.03 2.196 0 .042-.005.111-.009.174 0 .018-.002.035-.003.05-.004.07-.007.143-.009.213l.48.01c.556.015 1.086.028 1.618-.024.368-.036.736-.091 1.118-.149l.365-.054c.506-.074 1.034-.14 1.565-.149.415-.006.835-.004 1.249-.002l.608.002c.437 0 .872.027 1.3.07.382.038.951.106 1.376.26.605.217 1.221.408 1.809.455.751.06 1.476.112 2.212.121.004-.06.013-.134.032-.211.106-.422.205-.837.28-1.252.072-.39.07-.828.069-1.286l-.001-.224v-2.609c.002-.66.004-1.286-.139-1.853-.081-.325-.075-.685-.07-.971l.003-.159c.002-.346-.024-.575-.125-.747a.997.997 0 0 1-.121-.393l-.002-.02Zm.06 9.912Zm-13.675-.506v-.001c.001.004.001.004 0 0Z" fill="#1E5D8A"/><path clip-rule="evenodd" d="M25.173 5.629c.458.015.889.03 1.273.03.515 0 .844.068 1.145.13h.001c.286.06.543.112.966.112a2.232 2.232 0 0 0 .224-.018c.099-.01.23-.022.357-.019a.94.94 0 0 1 .462.12.65.65 0 0 1 .313.571c0 .53-.02 1.058-.096 1.603-.038.279-.05.565-.064.876l-.004.089a7.804 7.804 0 0 1-.16 1.381c-.087.456-.162.85-.162 1.282 0 .378.049.75.114 1.143.019.116.04.236.062.358.049.28.1.573.138.863.065.515.06 1.045.053 1.536l-.003.394v.86a3.434 3.434 0 0 1-.018.306c-.007.083-.013.16-.017.236-.004.084-.003.152.003.204a.301.301 0 0 0 .01.053c.23.398.244.844.242 1.191 0 .074-.002.143-.003.21-.004.283-.007.5.044.7.17.681.168 1.424.165 2.066v2.819c.003.451.006.982-.082 1.46-.08.445-.186.882-.293 1.309a.644.644 0 0 0-.01.103l-.002.02c-.002.05-.007.133-.02.207a.683.683 0 0 1-.175.364.64.64 0 0 1-.47.188c-.85 0-1.674-.06-2.5-.126-.714-.056-1.424-.283-2.04-.505-.308-.11-.772-.172-1.163-.21-.405-.041-.81-.066-1.211-.066l-.625-.002c-.409-.002-.812-.004-1.218.002-.47.007-.951.066-1.45.14l-.346.05c-.386.059-.785.119-1.179.157-.587.058-1.21.043-1.794.028-.25-.006-.494-.012-.724-.012a.51.51 0 0 1-.416-.217.677.677 0 0 1-.105-.24 1.675 1.675 0 0 1-.035-.367c0-.114.006-.23.01-.322l.005-.067.003-.052.002-.04v-.014c0-.74.016-1.48.031-2.213V24.3c.015-.735.03-1.465.03-2.194 0-.913.018-1.828.036-2.737.01-.486.018-.971.025-1.453.006-.406.021-.8.037-1.189.03-.753.058-1.483.011-2.23-.031-.501-.023-1.008-.015-1.494l.002-.186c.008-.55.01-1.076-.046-1.587-.173-1.596-.172-3.211-.171-4.787v-.34a.441.441 0 0 1 .503-.439c.601.08 2.123.12 3.683.118 1.558-.002 3.085-.044 3.692-.119.643-.078 1.413-.077 2.158-.059.28.007.553.017.817.026Zm-.84.859c-.741-.019-1.455-.018-2.027.052-.67.082-2.25.124-3.799.126-1.238 0-2.5-.023-3.299-.079 0 1.534.004 3.051.167 4.547.062.57.06 1.144.051 1.695a103.617 103.617 0 0 1-.004.263c1.108.004 2.21.027 3.322.1.189.013.37.028.547.042.392.032.764.063 1.151.063h.261c1.534 0 3.053.001 4.529-.212.87-.126 1.81-.25 2.724-.25.023 0 .073-.003.163-.008l.03-.002a8.202 8.202 0 0 1 .474-.017 7 7 0 0 1-.084-1.022c0-.524.094-1.014.183-1.475l.054-.284a6.984 6.984 0 0 0 .09-1.036 10 10 0 0 1 .072-.955c.06-.426.081-.847.086-1.286a3.546 3.546 0 0 0-.153.013l-.034.003c-.082.009-.189.02-.279.02a5.08 5.08 0 0 1-1.144-.13h-.002a4.215 4.215 0 0 0-.966-.112c-.398 0-.857-.016-1.327-.032-.261-.009-.526-.018-.785-.024Zm4.446 7.244a.448.448 0 0 1-.063-.035 1.899 1.899 0 0 0-.208-.004c-.1.002-.206.008-.302.014l-.035.003c-.077.005-.16.01-.215.01-.843 0-1.726.115-2.596.24-1.542.223-3.122.222-4.64.222h-.278c-.425 0-.856-.036-1.265-.07a33.062 33.062 0 0 0-.492-.037 51.586 51.586 0 0 0-3.266-.098c.003.155.009.31.018.463.05.79.018 1.6-.012 2.382l-.013.334c.474.03.94.1 1.384.166l.029.004c.586.087 1.138.167 1.69.172.327.004.653.015.971.026.028 0 .055.002.082.003a29.67 29.67 0 0 0 1.135.023c.762 0 1.466 0 2.18-.109.183-.028.365-.054.545-.08.556-.08 1.094-.156 1.611-.285.699-.174 1.424-.22 2.128-.224.353-.002.705.006 1.047.014l.068.002c.21.005.418.01.622.013v-.8c0-.151.001-.298.003-.441.005-.482.01-.93-.047-1.379a12.4 12.4 0 0 0-.08-.529Zm.096 4.034c-.204-.003-.41-.009-.613-.014l-.07-.001a32.962 32.962 0 0 0-1.019-.014c-.675.004-1.32.048-1.918.197-.566.141-1.168.227-1.733.308-.172.024-.341.048-.504.073-.783.12-1.55.12-2.296.12h-.129a30.452 30.452 0 0 1-1.136-.027c-.32-.011-.635-.022-.95-.025-.624-.006-1.236-.096-1.813-.182h-.001c-.45-.067-.88-.13-1.304-.16-.006.454-.015.906-.024 1.357-.017.903-.035 1.802-.035 2.707 0 .738-.015 1.476-.03 2.209v.003c-.016.735-.03 1.465-.03 2.196 0 .042-.005.111-.009.174 0 .018-.002.035-.003.05-.004.07-.007.143-.009.213l.48.01c.556.015 1.086.028 1.618-.024.368-.036.736-.091 1.118-.149l.365-.054c.506-.074 1.034-.14 1.565-.149.415-.006.835-.004 1.249-.002l.608.002c.437 0 .872.027 1.3.07.382.038.951.106 1.376.26.605.217 1.221.408 1.809.455.751.06 1.476.112 2.212.121.004-.06.013-.134.032-.211.106-.422.205-.837.28-1.252.072-.39.07-.828.069-1.286l-.001-.224v-2.609c.002-.66.004-1.286-.139-1.853-.081-.325-.075-.685-.07-.971l.003-.159c.002-.346-.024-.575-.125-.747a.997.997 0 0 1-.121-.393l-.002-.02Zm.06 9.912a.033.033 0 0 1 0 0Zm-13.675-.506v-.001c.001.004.001.004 0 0Z" stroke="#1E5D8A" stroke-width=".4" stroke-linecap="round" stroke-linejoin="round" mask="url(#b)"/><path d="M38.102 25.548c-.091-.066-.26-.142-.366-.271a76.758 76.758 0 0 1-1.505-1.868c-.187-.24-.344-.501-.504-.759a1.452 1.452 0 0 1-.178-.383c-.018-.068.021-.192.075-.226.057-.037.166-.01.246.011.045.012.087.066.115.109.453.704 1.18 1.137 1.723 1.749.281.317.521.677.743 1.04.138.227-.045.573-.35.598ZM38.321 19.344c.184-.018.372-.07.552-.049 1.033.12 1.89.6 2.598 1.347.255.27.18.486-.183.547-.166.028-.367.027-.516-.04-.387-.175-.756-.39-1.128-.596-.265-.145-.546-.272-.78-.457-.216-.17-.38-.409-.566-.617l.023-.135ZM39.581 11.672c.07-.39.336-.496.567-.612.733-.37 1.475-.72 2.215-1.077.203-.098.418-.153.578.06.149.196.057.504-.218.612-.927.368-1.865.712-2.803 1.054-.083.031-.195-.019-.339-.037ZM37.412 8.607c.05-.088.084-.191.152-.264.652-.708 1.303-1.417 1.968-2.112.208-.218.449-.408.693-.585.084-.062.301-.091.325-.052a.631.631 0 0 1 .07.383.472.472 0 0 1-.163.266c-.896.762-1.797 1.517-2.699 2.271-.079.067-.175.11-.264.165a3.785 3.785 0 0 1-.082-.072ZM39.837 15.93c.152-.035.28-.084.41-.09.748-.037 1.495-.062 2.242-.094.179-.007.358.037.35.232-.005.13-.114.313-.227.367-.187.089-.412.113-.624.128-.39.028-.783.038-1.175.04-.498 0-.566-.046-.977-.583ZM34.734 5.512c-.102-.295.027-.503.145-.689.367-.572.757-1.13 1.134-1.695.127-.189.28-.282.494-.146.174.11.207.318.049.515-.505.627-1.022 1.246-1.542 1.86-.06.07-.169.095-.28.155Z" fill="#1E5D8A"/></svg>