<svg width="37" height="44" fill="none" xmlns="http://www.w3.org/2000/svg"><path d="M22.994 27.802c-.112-.395-.22-.795-.34-1.19-.178-.576-.364-1.157-.55-1.733-.187-.576-.322-1.027-.523-1.524a5.505 5.505 0 0 1-.415-2.03c0-.563-.065-1.12-.027-1.687 0-.298-.103-.6-.103-.897 0-.678 0-1.357.033-2.03a5.245 5.245 0 0 0-.299-2.226 4.554 4.554 0 0 0-.853-1.496 2.192 2.192 0 0 1-.223-.428c-.308-.534-.63-1.069-.932-1.608a5.697 5.697 0 0 1-.746-2.788c0-.678-.121-1.356-.196-2.035-.13-.965-.13-1.943 0-2.908.026-.42.01-.842-.047-1.26 0-.441-.042-.883-.051-1.329a.59.59 0 0 1 .517-.566c.35-.112.73-.082 1.058.083a.466.466 0 0 1 .29.4c0 .265.167.376.372.525a28.068 28.068 0 0 1 2.47 1.705c.299.27.695.418 1.017.66.578.441 1.142.901 1.696 1.37.555.47 1.152 1.018 1.725 1.534.329.266.588.607.755.994.104.204.234.393.387.563.233.31.466.618.704.929.105.156.194.323.265.497.171.497.413.966.718 1.394.06.1.107.209.14.32.113.318.245.629.396.93.346.64.603 1.322.765 2.03.13.507.177 1.032.26 1.548.061.386.131.771.168 1.157.085.47.115.949.089 1.426-.015.388.026.776.121 1.153a6.542 6.542 0 0 0 1.095 2.434c.29.465.583.893.886 1.334.159.223.354.423.517.646.419.478.786.998 1.096 1.552a.82.82 0 0 0 .233.26 4.053 4.053 0 0 1 1.156 1.9c.292.803.42 1.657.373 2.51 0 .776-.061 1.552-.098 2.323a.695.695 0 0 1-.042.214c-.215.641-.37 1.3-.466 1.97a6.71 6.71 0 0 1-.68 1.914c-.075.158-.131.325-.197.465-.065.14-.116.33-.195.488-.205.413-.406.836-.648 1.231-.19.437-.47.83-.82 1.152a.882.882 0 0 1-.779.033c-.033-.028-.08-.07-.08-.098 0-.357-.307-.502-.465-.748-.168-.228-.3-.48-.392-.748-.162-.45-.4-.87-.704-1.24a7.172 7.172 0 0 0-1.44-1.418c-.335-.255-.69-.464-1.035-.725l-.498-.371-.075.05c.07.117.13.238.21.345l.932 1.264a.79.79 0 0 1 .14.218c.294.681.638 1.34 1.03 1.97.21.441.387.906.569 1.366.181.46.321.841.466 1.269.091.26.15.53.172.804v1.538c-.396.264-.75.525-1.128.734-.174.065-.36.09-.545.074-.112 0-.233-.079-.34-.065-.89.116-1.538-.409-2.238-.8a4.293 4.293 0 0 0-.89-.338c-.41-.121-.834-.223-1.254-.307a2.981 2.981 0 0 0-.61 0 .99.99 0 0 1-.755-.251 8.858 8.858 0 0 0-.984-.632c-.39-.25-.769-.52-1.133-.808a2.94 2.94 0 0 0-.815-.395l-1.515-.618a8.518 8.518 0 0 0-1.468-.493 15.412 15.412 0 0 1-1.492-.465 7.642 7.642 0 0 1-.979-.353 7.932 7.932 0 0 1-.988-.636c-.624-.465-1.235-.897-1.864-1.348-.387-.283-.778-.562-1.156-.855a8.477 8.477 0 0 1-.653-.576c-.424-.418-.843-.84-1.263-1.264-.517-.52-1.058-1.022-1.547-1.575-.49-.553-1.049-1.278-1.552-1.933A4.472 4.472 0 0 1 6 29.056a.66.66 0 0 0-.15-.213 6.004 6.004 0 0 1-.871-1.445c-.228-.404-.48-.793-.755-1.167-.299-.464-.606-.929-.876-1.394-.536-.929-1.05-1.858-1.67-2.736a22.047 22.047 0 0 1-1.327-2.175 2.443 2.443 0 0 1-.345-1.427 1.696 1.696 0 0 1 .647-1.305c.34-.249.76-.364 1.18-.325a5.776 5.776 0 0 0 1.864-.098c.466-.08.945-.052 1.398.084.877.148 1.748.325 2.62.464.68.13 1.375.233 2.046.4.466.111.867.32 1.305.464.271.106.552.186.84.237a5.408 5.408 0 0 1 1.635.577c.793.4 1.58.817 2.391 1.18.82.41 1.562.957 2.196 1.617.466.465.96.86 1.398 1.32.54.489.995 1.063 1.347 1.7.036.08.085.154.144.218.53.635 1.01 1.31 1.436 2.017.168.246.326.497.466.748l.075.005Zm8.595 14.753c-.052-.405-.084-.711-.14-1.009-.05-.3-.126-.596-.229-.883a19.31 19.31 0 0 0-1.43-3.22 19.06 19.06 0 0 0-1.208-2.002 11.521 11.521 0 0 0-2.093-2.268 2.614 2.614 0 0 1-.466-.506c-.55-.693-1.109-1.394-1.636-2.091-.4-.549-.96-.967-1.282-1.585-.172-.334-.466-.604-.633-.929a13.93 13.93 0 0 0-1.236-1.952c-.321-.427-.666-.845-.932-1.305a9.477 9.477 0 0 0-1.02-1.297c-.672-.77-1.492-1.394-2.229-2.081a4.385 4.385 0 0 0-.932-.646 49.666 49.666 0 0 0-2.186-1.101 17.614 17.614 0 0 0-1.664-.655c-.466-.163-.932-.251-1.43-.395-.318-.093-.625-.228-.933-.335a1.525 1.525 0 0 0-.34 0l.28.316a.376.376 0 0 1-.052.107c-.028.032-.06.074-.098.083a1.4 1.4 0 0 0-1.067 1.269.965.965 0 0 1-.247.465.308.308 0 0 1-.275.023c-.056-.023-.098-.135-.107-.21 0-.087.015-.173.046-.255.13-.65.425-1.254.858-1.756a.856.856 0 0 0-.788.279c-.219.209-.38.471-.466.762a.394.394 0 0 1-.256.241c-.177 0-.275-.158-.284-.33a.839.839 0 0 1 .219-.64c.21-.229.405-.466.643-.754-.154-.046-.256-.088-.368-.111-.671-.121-1.347-.251-2.023-.358a6.607 6.607 0 0 0-1.17-.111c-.9 0-1.795.162-2.699.111a.73.73 0 0 0-.298.047 1.429 1.429 0 0 0-.802 1.417c.072.486.257.95.54 1.352.346.646.789 1.236 1.19 1.858.065.107.093.237.158.344.298.465.615.93.9 1.394.284.465.512.93.773 1.394.085.152.18.298.285.437a27.24 27.24 0 0 1 1.617 2.477c.38.712.81 1.396 1.286 2.049.335.473.698.926 1.086 1.357.592.69 1.238 1.333 1.93 1.923a.516.516 0 0 1 .126.121c.35.419.737.806 1.156 1.157a.397.397 0 0 0 .54.07 15.682 15.682 0 0 0 2.867-1.97 6.325 6.325 0 0 0 1.184-1.209c.14-.2.289-.464.107-.678a.64.64 0 0 0-.694-.12.508.508 0 0 0-.168.055c-.282.15-.544.333-.783.544-.741.794-1.562 1.514-2.228 2.374a2.125 2.125 0 0 1-.285.325c-.167.144-.321.34-.582.307-.168-.348-.163-.362.098-.544a1.72 1.72 0 0 0 .307-.241c.648-.683 1.296-1.366 1.94-2.059.29-.3.6-.577.932-.831a1.78 1.78 0 0 1 1.398-.372.538.538 0 0 1 .545.567 1.084 1.084 0 0 1-.536 1.175.312.312 0 0 0-.08.093c-.102.165-.219.32-.349.465-.466.404-.932.8-1.398 1.185-.359.292-.732.567-1.105.84-.303.224-.62.428-.932.656.041.076.091.146.15.21.14.12.284.231.433.338l1.067.748.406.265c.42.284.82.604 1.258.85.336.186.746.247 1.082.428a7.562 7.562 0 0 0 1.533.493c.656.144 1.285.39 1.864.73.228.177.495.3.779.357a3.84 3.84 0 0 1 1.701.785c.387.251.741.553 1.11.832a2.54 2.54 0 0 0 1.44.511c.81.044 1.602.25 2.33.604.466.251.997.465 1.487.716.49.25.89.041 1.328.162.052 0 .126-.06.187-.102l.992-.757Zm-3.035-8.792c.077.139.17.267.28.381.317.228.657.428.979.65.321.224.624.466.932.675.522.316.68.966 1.226 1.25.042 0 .056.097.079.148.22.437.466.874.653 1.32.14.283.326.423.573.334a.693.693 0 0 1 .573-.055c.051 0 .177-.038.215-.098.114-.167.215-.342.303-.525.26-.534.503-1.069.769-1.598a8.608 8.608 0 0 0 .591-1.673c.15-.544.238-1.106.355-1.654.065-.316.167-.623.2-.93.108-.875.153-1.757.135-2.639a4.336 4.336 0 0 0-.312-1.7 3.293 3.293 0 0 0-.303-.707 4.802 4.802 0 0 0-.639-.93 2.827 2.827 0 0 1-.76-.994 6.414 6.414 0 0 0-.843-1.133c-.36-.416-.69-.857-.988-1.32a20.93 20.93 0 0 1-1.25-2.481 5.707 5.707 0 0 1-.367-1.822c0-.413-.024-.831-.07-1.245-.06-.516-.2-1.022-.233-1.538a13.32 13.32 0 0 0-.466-2.374 3.429 3.429 0 0 0-.27-.581c-.239-.497-.467-.994-.71-1.487-.158-.325-.349-.637-.465-.971a5.704 5.704 0 0 0-.872-1.538 5.809 5.809 0 0 1-.494-.72 6.356 6.356 0 0 0-1.468-1.706 27.379 27.379 0 0 1-.96-.855 5.854 5.854 0 0 0-1.068-.929c-.433-.228-.774-.548-1.17-.804-.396-.255-.89-.65-1.351-.957-.76-.502-1.534-.985-2.33-1.505-.07.046-.225.093-.271.19a2.57 2.57 0 0 0-.466 1.134c0 .506-.066 1.013-.089 1.52v.891c.61-.115 1.21-.27 1.8-.464a.85.85 0 0 1 .465-.07.378.378 0 0 1 .34.349c0 .218-.176.274-.363.302l-1.03.171c-.247.042-.466.07-.569.382a.308.308 0 0 1-.466.176c-.065-.028-.13-.042-.219-.07.038.502.084.976.117 1.45.032.474.14.609.61.692.13.012.262.012.392 0a5.14 5.14 0 0 0 1.934-.464c.264-.094.486-.276.63-.516.023-.046.088-.07.13-.098.308.237.34.349.154.6a.745.745 0 0 1-.294.246c-.455.218-.922.412-1.398.581-.587.264-1.252.3-1.865.102 0 0-.046 0-.093.042-.01.78.149 1.554.466 2.268.364.85 1.007 1.524 1.399 2.323.092.18.2.353.321.516.387.51.643 1.106.746 1.737.033.196.088.39.135.572.466-.037.667-.149.806-.465l-.536-.27c-.14-.069-.34-.134-.242-.338.098-.205.27-.117.424-.056.065.032.128.069.187.111.15.11.315.198.49.265a.775.775 0 0 1 .526.572 1.938 1.938 0 0 1-.308.278c-.214.121-.443.219-.671.321a.508.508 0 0 0-.345.404.465.465 0 0 1-.196.312c-.214.107-.186.274-.181.464.004.19.032.405.032.604v1.074c0 .357.047.78.047 1.17-.037.901.054 1.802.27 2.677.266.902.503 1.817.834 2.695.466 1.194.7 2.458 1.32 3.592.218.49.517.941.885 1.333.41.351.768.758 1.063 1.209.054.084.12.16.195.227.294.279.597.549.89.823.215.2.41.418.64.594a.537.537 0 0 0 .554.154 8.7 8.7 0 0 1 1.93-.27c.271-.027.536-.101.783-.218a.755.755 0 0 0 .466-.637.611.611 0 0 1 .084-.2.368.368 0 0 1 .415-.246.438.438 0 0 1 .293.437 1.392 1.392 0 0 1-.9 1.26c-.183.08-.358.177-.521.292-.243.163-.504.214-.63.042a.499.499 0 0 0-.54-.181l-1.054.12Z" fill="#A07761"/><path d="M23.069 36.008c-.163.172-.317.367-.5.525-.54.465-1.094.93-1.644 1.366a6.014 6.014 0 0 1-.588.437.346.346 0 0 1-.554-.237c0-.172-.145-.205-.215-.302-.177-.265-.13-.465.154-.595.851-.43 1.701-.867 2.55-1.31a.598.598 0 0 1 .797.116Zm-1.981 1.11a1.065 1.065 0 0 0-.96.688c.375-.14.706-.378.96-.688ZM19.768 32.202c-.13-.074-.335-.125-.424-.255-.088-.13 0-.377.135-.544a2.26 2.26 0 0 1 .802-.585c.168-.084.34-.159.513-.233a.466.466 0 0 1 .545.116.366.366 0 0 1-.042.465c-.336.314-.69.61-1.058.887a1.488 1.488 0 0 1-.47.15Zm.574-.836-.056-.051-.14.162.046.042.15-.153ZM4.098 19.698c0 .358-.154.465-.406.465.05.127.079.262.084.4 0 .171-.22.139-.34.2a3.62 3.62 0 0 0-.653.464c-.09.1-.167.21-.228.33l-.368-.028c-.028-.046-.056-.079-.052-.098.156-.446.349-.878.578-1.291.191-.256.452-.45.75-.563.16-.05.42.08.635.121ZM16.678 26.603c-.066-.056-.178-.112-.192-.186a.386.386 0 0 1 .052-.311c.494-.423.997-.832 1.515-1.227.2-.158.414-.149.498 0a.37.37 0 0 1-.065.511c-.198.21-.412.404-.639.581-.307.214-.647.386-.974.572a.938.938 0 0 1-.195.06ZM26.298 41.203l-.345-.214a.466.466 0 0 1 0-.14c.22-.52.41-1.05.662-1.552.2-.404.41-.436.886-.223-.037.089-.051.223-.117.251-.419.19-.489.618-.67.967-.182.348-.262.571-.416.91ZM3.366 18.671c0 .256-.111.302-.237.33-.383.084-.77.144-1.142.247-.17.059-.327.147-.466.26a.27.27 0 0 1-.355 0c-.163-.13-.163-.284.033-.367.237-.103.484-.182.736-.237.294-.07.592-.102.886-.154l.545-.079ZM29.211 24.29c.285.361.29.52 0 .729a6.61 6.61 0 0 1-2.288 1.226c-.275.075-.56.135-.844.186a.467.467 0 0 1-.512-.172.385.385 0 0 1-.056-.311.308.308 0 0 1 .27-.13c.2.097.335 0 .494-.075.317-.139.667-.144.993-.297a5.713 5.713 0 0 0 1.943-1.157ZM23.967 20c.317.093.644.163.933.284.289.12.289.297.158.534a.726.726 0 0 1-.517.418c-.182.033-.36.107-.54.158a1.191 1.191 0 0 1-1.008-.464.488.488 0 0 1 .205-.674c.243-.122.502-.208.77-.256Zm.36.567a.519.519 0 0 0-.719.102c.29.237.29.237.718-.102ZM28.587 18.258c-.196.046-.378.046-.466-.168a.302.302 0 0 1 0-.395c.181-.187.351-.385.508-.594a.396.396 0 0 1 .494-.14.601.601 0 0 1 .415.41.13.13 0 0 1 0 .083c-.091.223-.21.434-.355.627-.102.107-.312.116-.466.168a.64.64 0 0 1-.13.009ZM24.098 8.138c.35.25.397.464.126.571a6.988 6.988 0 0 0-1.31.98.35.35 0 0 1-.116.061.373.373 0 0 1-.121 0v-.237c0-.167.046-.334.046-.502a.528.528 0 0 1 .532-.571 1.173 1.173 0 0 0 .843-.302ZM25.557 14.973c.727-.256.727-.256 1.035.032a.595.595 0 0 1-.587.465 1.117 1.117 0 0 1-.849-.279c-.144-.116-.14-.158-.084-.567l.727-.111-.242.46Z" fill="#A07761"/></svg>